<svg width="52" height="19" viewBox="0 0 52 19" fill="none" xmlns="http://www.w3.org/2000/svg">
<rect width="52" height="19" rx="9.5" fill="#F7D1D1"/>
<path d="M13.5469 4.89062V6.45312C13.5469 6.85938 13.5469 7.3125 13.5469 7.8125C13.5469 8.3125 13.5625 8.82812 13.5625 9.32812V13.4531C13.5625 13.6094 13.6406 13.7344 13.8281 13.7969C14 13.875 14.2031 13.9062 14.4531 13.9062C14.5469 13.9062 14.6562 13.9062 14.7656 13.8906C14.875 13.8906 14.9844 13.8594 15.0781 13.8125C15.5469 13.7969 16.0781 13.7812 16.6406 13.7656C17.2031 13.7656 17.7344 13.75 18.2656 13.7344H18.8125C19.0312 13.7344 19.2031 13.6562 19.3125 13.5C19.4062 13.3438 19.4688 13.1562 19.4688 12.9531C19.4688 12.75 19.4062 12.5625 19.2969 12.375C19.1719 12.2031 19.0156 12.125 18.7969 12.1406C18.4531 12.1719 18.0625 12.1875 17.625 12.1875C17.1875 12.1875 16.7344 12.1875 16.2969 12.1875C16.1406 12.1875 16.0156 12.2031 15.8906 12.2031C15.7656 12.2031 15.6562 12.2031 15.5312 12.2031C15.5156 11.8438 15.5156 11.4531 15.5156 11.0312V9.625C16.0312 9.625 16.5 9.60938 16.9062 9.60938C17.3125 9.60938 17.7812 9.59375 18.2812 9.57812C18.5 9.57812 18.6562 9.5 18.7656 9.34375C18.875 9.1875 18.9375 9 18.9375 8.78125C18.9375 8.6875 18.9219 8.57812 18.8906 8.48438C18.8594 8.39062 18.8125 8.29688 18.75 8.21875C18.6875 8.15625 18.625 8.09375 18.5469 8.04688C18.4531 8 18.3594 7.98438 18.2656 7.98438C17.9219 8.01562 17.5781 8.03125 17.2188 8.03125C16.8438 8.03125 16.4844 8.03125 16.125 8.03125C16.0156 8.03125 15.9062 8.04688 15.8125 8.04688C15.7188 8.04688 15.6094 8.04688 15.5156 8.04688C15.5156 7.79688 15.5156 7.57812 15.5156 7.40625C15.5156 7.25 15.5312 7.0625 15.5312 6.85938V6.10938C15.9844 6.09375 16.4062 6.09375 16.7969 6.09375C17.1875 6.09375 17.6094 6.09375 18.0625 6.07812C18.1562 6.07812 18.2656 6.07812 18.375 6.07812C18.4688 6.07812 18.5781 6.0625 18.6719 6.0625C18.8906 6.0625 19.0469 5.98438 19.1562 5.82812C19.2656 5.67188 19.3281 5.48438 19.3281 5.26562C19.3281 5.17188 19.3125 5.0625 19.2812 4.96875C19.25 4.875 19.2031 4.78125 19.1406 4.70312C19.0781 4.64062 19.0156 4.57812 18.9375 4.53125C18.8438 4.48438 18.75 4.46875 18.6562 4.46875C18.3125 4.5 17.9062 4.51562 17.4688 4.51562C17.0312 4.51562 16.5781 4.51562 16.1406 4.51562C15.9844 4.51562 15.8438 4.53125 15.6875 4.53125C15.5312 4.53125 15.375 4.53125 15.2344 4.53125C15.1719 4.48438 15.0781 4.45312 14.9688 4.4375C14.8594 4.4375 14.7344 4.42188 14.5938 4.42188C14.3281 4.42188 14.0938 4.46875 13.875 4.54688C13.6562 4.625 13.5469 4.73438 13.5469 4.89062ZM20.8906 10.375C20.6406 10.375 20.4219 10.4219 20.2344 10.5156C20.0312 10.6094 19.9219 10.75 19.9219 10.9219C19.8906 11.375 19.9531 11.7812 20.0781 12.1406C20.2031 12.5156 20.4062 12.8281 20.6719 13.0781C20.9219 13.3438 21.25 13.5469 21.6406 13.6875C22.0156 13.8281 22.4531 13.8906 22.9531 13.8906C23.4219 13.8906 23.8438 13.8438 24.2188 13.7188C24.5938 13.5938 24.9219 13.4219 25.2031 13.2031C25.4688 12.9844 25.6719 12.7188 25.8281 12.4062C25.9688 12.0938 26.0469 11.7344 26.0469 11.3438C26.0469 10.7188 25.8438 10.1719 25.4375 9.71875C25.0312 9.28125 24.4062 8.82812 23.5781 8.35938C23.1094 8.125 22.7344 7.89062 22.4688 7.64062C22.2031 7.40625 22.0781 7.10938 22.0781 6.75C22.0781 6.48438 22.1562 6.28125 22.3281 6.14062C22.5 6.01562 22.7344 5.9375 23.0469 5.92188C23.3438 5.92188 23.5781 6.03125 23.75 6.28125C23.9219 6.53125 24 6.875 23.9688 7.34375C23.9375 7.53125 24.0469 7.6875 24.2656 7.78125C24.4844 7.875 24.7188 7.92188 24.9688 7.92188C25.2188 7.92188 25.4375 7.875 25.6406 7.78125C25.8438 7.6875 25.9531 7.54688 25.9531 7.35938C25.9531 6.875 25.8906 6.45312 25.75 6.07812C25.5938 5.70312 25.3906 5.40625 25.125 5.15625C24.8594 4.92188 24.5469 4.75 24.2031 4.625C23.8438 4.5 23.4531 4.4375 23.0469 4.4375C22.125 4.45312 21.4062 4.67188 20.875 5.09375C20.3438 5.53125 20.0938 6.125 20.0938 6.90625C20.0938 7.48438 20.2656 7.96875 20.6406 8.35938C21 8.76562 21.5781 9.15625 22.3594 9.54688C22.9531 9.85938 23.3906 10.1406 23.6562 10.4219C23.9219 10.7031 24.0625 11.0156 24.0625 11.3594C24.0625 11.7031 23.9531 11.9688 23.7656 12.1406C23.5625 12.3125 23.2969 12.4062 22.9531 12.4062C22.625 12.4219 22.3594 12.3125 22.1562 12.0938C21.9531 11.875 21.8594 11.4844 21.8594 10.9219C21.8594 10.75 21.75 10.6094 21.5469 10.5156C21.3438 10.4219 21.125 10.375 20.8906 10.375ZM26.7188 4.89062V6.45312C26.7188 6.85938 26.7188 7.3125 26.7188 7.8125C26.7188 8.3125 26.7344 8.82812 26.7344 9.32812V13.4531C26.7344 13.6094 26.8125 13.7188 27 13.7969C27.1719 13.875 27.375 13.9062 27.625 13.9062C27.75 13.9062 27.875 13.9062 28.0156 13.875C28.1406 13.8438 28.2656 13.8125 28.375 13.7656C28.4688 13.7188 28.5625 13.6562 28.625 13.5938C28.6875 13.5312 28.7188 13.4531 28.7188 13.3594C28.7031 13.2656 28.6875 13.1094 28.6875 12.875C28.6875 12.6562 28.6875 12.375 28.6875 12.0469V9.73438C29.125 9.71875 29.5312 9.71875 29.9375 9.71875C30.3438 9.71875 30.7656 9.71875 31.2188 9.70312C31.3438 9.70312 31.4688 9.70312 31.5938 9.70312C31.7031 9.70312 31.8125 9.6875 31.9375 9.6875C32.1562 9.6875 32.3281 9.60938 32.4375 9.4375C32.5312 9.28125 32.5938 9.09375 32.5938 8.875C32.5938 8.67188 32.5312 8.48438 32.4219 8.29688C32.2969 8.125 32.1406 8.04688 31.9219 8.04688C31.5781 8.07812 31.2031 8.09375 30.7656 8.09375C30.3281 8.09375 29.8906 8.09375 29.4531 8.09375C29.2969 8.09375 29.1719 8.10938 29.0469 8.10938C28.9219 8.10938 28.8125 8.10938 28.6875 8.10938C28.6875 7.85938 28.6875 7.64062 28.6875 7.46875C28.6875 7.29688 28.7031 7.10938 28.7031 6.90625V6.125C29.1562 6.10938 29.5781 6.10938 29.9688 6.10938C30.3594 6.10938 30.7812 6.10938 31.2344 6.09375C31.3281 6.09375 31.4375 6.09375 31.5469 6.09375C31.6406 6.09375 31.7344 6.07812 31.8281 6.07812C32.0469 6.07812 32.2188 6 32.3281 5.82812C32.4375 5.67188 32.5 5.48438 32.5 5.26562C32.5 5.17188 32.4844 5.0625 32.4531 4.96875C32.4219 4.875 32.375 4.78125 32.3125 4.70312C32.25 4.64062 32.1875 4.57812 32.1094 4.53125C32.0156 4.48438 31.9219 4.46875 31.8281 4.46875C31.4688 4.5 31.0781 4.51562 30.6406 4.51562C30.2031 4.51562 29.75 4.51562 29.3125 4.51562C29.1562 4.51562 29.0156 4.53125 28.8594 4.53125C28.7031 4.53125 28.5469 4.53125 28.4062 4.53125C28.3438 4.48438 28.25 4.45312 28.1406 4.4375C28.0312 4.4375 27.9062 4.42188 27.7656 4.42188C27.5 4.42188 27.2656 4.46875 27.0469 4.54688C26.8281 4.625 26.7188 4.73438 26.7188 4.89062ZM34.1094 10.8438C33.9844 10.8438 33.8438 10.8594 33.7188 10.8906C33.5781 10.9219 33.4531 10.9531 33.3438 10.9844C33.2344 11.0312 33.1406 11.0781 33.0781 11.1406C33 11.2031 32.9688 11.25 32.9688 11.3125C32.9688 11.5938 33.0312 11.875 33.125 12.1719C33.2188 12.4844 33.375 12.75 33.5938 13C33.7969 13.25 34.0781 13.4688 34.4219 13.625C34.7656 13.7969 35.1875 13.875 35.7031 13.875C36.1562 13.875 36.5469 13.8125 36.8906 13.6562C37.2344 13.5 37.5156 13.2969 37.7344 13.0469C37.9531 12.7969 38.125 12.4844 38.2344 12.1406C38.3281 11.7969 38.375 11.4062 38.375 11V5.46875C38.375 5.375 38.3438 5.26562 38.2969 5.14062C38.2344 5.01562 38.1719 4.90625 38.0781 4.8125C37.9844 4.71875 37.875 4.625 37.75 4.5625C37.625 4.5 37.4844 4.46875 37.3281 4.46875C37.1875 4.46875 37.0156 4.48438 36.7969 4.48438C36.5781 4.48438 36.3438 4.5 36.1094 4.5C35.8594 4.5 35.625 4.51562 35.4062 4.51562C35.1875 4.51562 35 4.51562 34.875 4.51562C34.7188 4.51562 34.5781 4.53125 34.4375 4.53125C34.2969 4.53125 34.1562 4.53125 34.0156 4.53125C33.7969 4.53125 33.6406 4.60938 33.5469 4.76562C33.4531 4.92188 33.4062 5.10938 33.4062 5.29688C33.4062 5.51562 33.4531 5.70312 33.5781 5.875C33.7031 6.04688 33.8438 6.14062 34.0312 6.14062C34.3125 6.125 34.6562 6.10938 35.0625 6.10938C35.4531 6.10938 35.8125 6.10938 36.1406 6.09375H36.3906C36.3906 6.375 36.4062 6.65625 36.4062 6.95312V10.8906C36.4062 11.375 36.3438 11.75 36.2188 12C36.0938 12.2656 35.9219 12.3906 35.7031 12.3906C35.2031 12.3906 34.9375 11.9844 34.875 11.1562C34.8594 11.0469 34.7812 10.9688 34.6406 10.9219C34.4844 10.875 34.3125 10.8438 34.1094 10.8438Z" fill="#E78080"/>
</svg>
