<svg width="52" height="19" viewBox="0 0 52 19" fill="none" xmlns="http://www.w3.org/2000/svg">
<rect width="52" height="19" rx="9.5" fill="#60774F"/>
<path d="M13.5703 4.89062V6.45312C13.5703 6.85938 13.5703 7.3125 13.5703 7.8125C13.5703 8.3125 13.5859 8.82812 13.5859 9.32812V13.4531C13.5859 13.6094 13.6641 13.7344 13.8516 13.7969C14.0234 13.875 14.2266 13.9062 14.4766 13.9062C14.5703 13.9062 14.6797 13.9062 14.7891 13.8906C14.8984 13.8906 15.0078 13.8594 15.1016 13.8125C15.5703 13.7969 16.1016 13.7812 16.6641 13.7656C17.2266 13.7656 17.7578 13.75 18.2891 13.7344H18.8359C19.0547 13.7344 19.2266 13.6562 19.3359 13.5C19.4297 13.3438 19.4922 13.1562 19.4922 12.9531C19.4922 12.75 19.4297 12.5625 19.3203 12.375C19.1953 12.2031 19.0391 12.125 18.8203 12.1406C18.4766 12.1719 18.0859 12.1875 17.6484 12.1875C17.2109 12.1875 16.7578 12.1875 16.3203 12.1875C16.1641 12.1875 16.0391 12.2031 15.9141 12.2031C15.7891 12.2031 15.6797 12.2031 15.5547 12.2031C15.5391 11.8438 15.5391 11.4531 15.5391 11.0312V9.625C16.0547 9.625 16.5234 9.60938 16.9297 9.60938C17.3359 9.60938 17.8047 9.59375 18.3047 9.57812C18.5234 9.57812 18.6797 9.5 18.7891 9.34375C18.8984 9.1875 18.9609 9 18.9609 8.78125C18.9609 8.6875 18.9453 8.57812 18.9141 8.48438C18.8828 8.39062 18.8359 8.29688 18.7734 8.21875C18.7109 8.15625 18.6484 8.09375 18.5703 8.04688C18.4766 8 18.3828 7.98438 18.2891 7.98438C17.9453 8.01562 17.6016 8.03125 17.2422 8.03125C16.8672 8.03125 16.5078 8.03125 16.1484 8.03125C16.0391 8.03125 15.9297 8.04688 15.8359 8.04688C15.7422 8.04688 15.6328 8.04688 15.5391 8.04688C15.5391 7.79688 15.5391 7.57812 15.5391 7.40625C15.5391 7.25 15.5547 7.0625 15.5547 6.85938V6.10938C16.0078 6.09375 16.4297 6.09375 16.8203 6.09375C17.2109 6.09375 17.6328 6.09375 18.0859 6.07812C18.1797 6.07812 18.2891 6.07812 18.3984 6.07812C18.4922 6.07812 18.6016 6.0625 18.6953 6.0625C18.9141 6.0625 19.0703 5.98438 19.1797 5.82812C19.2891 5.67188 19.3516 5.48438 19.3516 5.26562C19.3516 5.17188 19.3359 5.0625 19.3047 4.96875C19.2734 4.875 19.2266 4.78125 19.1641 4.70312C19.1016 4.64062 19.0391 4.57812 18.9609 4.53125C18.8672 4.48438 18.7734 4.46875 18.6797 4.46875C18.3359 4.5 17.9297 4.51562 17.4922 4.51562C17.0547 4.51562 16.6016 4.51562 16.1641 4.51562C16.0078 4.51562 15.8672 4.53125 15.7109 4.53125C15.5547 4.53125 15.3984 4.53125 15.2578 4.53125C15.1953 4.48438 15.1016 4.45312 14.9922 4.4375C14.8828 4.4375 14.7578 4.42188 14.6172 4.42188C14.3516 4.42188 14.1172 4.46875 13.8984 4.54688C13.6797 4.625 13.5703 4.73438 13.5703 4.89062ZM20.9141 10.375C20.6641 10.375 20.4453 10.4219 20.2578 10.5156C20.0547 10.6094 19.9453 10.75 19.9453 10.9219C19.9141 11.375 19.9766 11.7812 20.1016 12.1406C20.2266 12.5156 20.4297 12.8281 20.6953 13.0781C20.9453 13.3438 21.2734 13.5469 21.6641 13.6875C22.0391 13.8281 22.4766 13.8906 22.9766 13.8906C23.4453 13.8906 23.8672 13.8438 24.2422 13.7188C24.6172 13.5938 24.9453 13.4219 25.2266 13.2031C25.4922 12.9844 25.6953 12.7188 25.8516 12.4062C25.9922 12.0938 26.0703 11.7344 26.0703 11.3438C26.0703 10.7188 25.8672 10.1719 25.4609 9.71875C25.0547 9.28125 24.4297 8.82812 23.6016 8.35938C23.1328 8.125 22.7578 7.89062 22.4922 7.64062C22.2266 7.40625 22.1016 7.10938 22.1016 6.75C22.1016 6.48438 22.1797 6.28125 22.3516 6.14062C22.5234 6.01562 22.7578 5.9375 23.0703 5.92188C23.3672 5.92188 23.6016 6.03125 23.7734 6.28125C23.9453 6.53125 24.0234 6.875 23.9922 7.34375C23.9609 7.53125 24.0703 7.6875 24.2891 7.78125C24.5078 7.875 24.7422 7.92188 24.9922 7.92188C25.2422 7.92188 25.4609 7.875 25.6641 7.78125C25.8672 7.6875 25.9766 7.54688 25.9766 7.35938C25.9766 6.875 25.9141 6.45312 25.7734 6.07812C25.6172 5.70312 25.4141 5.40625 25.1484 5.15625C24.8828 4.92188 24.5703 4.75 24.2266 4.625C23.8672 4.5 23.4766 4.4375 23.0703 4.4375C22.1484 4.45312 21.4297 4.67188 20.8984 5.09375C20.3672 5.53125 20.1172 6.125 20.1172 6.90625C20.1172 7.48438 20.2891 7.96875 20.6641 8.35938C21.0234 8.76562 21.6016 9.15625 22.3828 9.54688C22.9766 9.85938 23.4141 10.1406 23.6797 10.4219C23.9453 10.7031 24.0859 11.0156 24.0859 11.3594C24.0859 11.7031 23.9766 11.9688 23.7891 12.1406C23.5859 12.3125 23.3203 12.4062 22.9766 12.4062C22.6484 12.4219 22.3828 12.3125 22.1797 12.0938C21.9766 11.875 21.8828 11.4844 21.8828 10.9219C21.8828 10.75 21.7734 10.6094 21.5703 10.5156C21.3672 10.4219 21.1484 10.375 20.9141 10.375ZM26.9141 6.14062L28.5078 6.09375C28.5078 6.40625 28.5078 6.75 28.5078 7.14062C28.5078 7.54688 28.5234 7.98438 28.5234 8.48438C28.5234 9.07812 28.5391 9.6875 28.5391 10.2812V11.9375C28.5391 12.1875 28.5234 12.4062 28.5234 12.5938C28.5234 12.7969 28.5234 12.9688 28.5234 13.1094V13.4688C28.5234 13.625 28.6016 13.7344 28.7891 13.7969C28.9766 13.875 29.1797 13.9062 29.4141 13.9062C29.6797 13.9062 29.9297 13.8594 30.1641 13.7656C30.3828 13.6719 30.5078 13.5469 30.5078 13.3594V12.8594C30.5078 12.625 30.4922 12.3281 30.4922 11.9844C30.4922 11.6406 30.4922 11.2812 30.4922 10.875V6.0625C30.8359 6.0625 31.1484 6.0625 31.4141 6.0625C31.6641 6.0625 31.8984 6.0625 32.1172 6.0625C32.3359 6.0625 32.4922 5.98438 32.5547 5.82812C32.6172 5.67188 32.6484 5.48438 32.6484 5.26562C32.6484 5.0625 32.6016 4.875 32.5391 4.71875C32.4609 4.5625 32.3203 4.46875 32.1016 4.46875C31.8359 4.5 31.4766 4.51562 31.0078 4.51562C30.5391 4.51562 30.0391 4.53125 29.5234 4.53125C29.0078 4.53125 28.5078 4.53125 28.0391 4.53125H26.9141C26.6953 4.53125 26.5703 4.60938 26.5078 4.76562C26.4453 4.92188 26.4297 5.10938 26.4297 5.29688C26.4297 5.51562 26.4609 5.71875 26.5234 5.89062C26.5859 6.0625 26.7266 6.14062 26.9141 6.14062ZM34.0859 10.8438C33.9609 10.8438 33.8203 10.8594 33.6953 10.8906C33.5547 10.9219 33.4297 10.9531 33.3203 10.9844C33.2109 11.0312 33.1172 11.0781 33.0547 11.1406C32.9766 11.2031 32.9453 11.25 32.9453 11.3125C32.9453 11.5938 33.0078 11.875 33.1016 12.1719C33.1953 12.4844 33.3516 12.75 33.5703 13C33.7734 13.25 34.0547 13.4688 34.3984 13.625C34.7422 13.7969 35.1641 13.875 35.6797 13.875C36.1328 13.875 36.5234 13.8125 36.8672 13.6562C37.2109 13.5 37.4922 13.2969 37.7109 13.0469C37.9297 12.7969 38.1016 12.4844 38.2109 12.1406C38.3047 11.7969 38.3516 11.4062 38.3516 11V5.46875C38.3516 5.375 38.3203 5.26562 38.2734 5.14062C38.2109 5.01562 38.1484 4.90625 38.0547 4.8125C37.9609 4.71875 37.8516 4.625 37.7266 4.5625C37.6016 4.5 37.4609 4.46875 37.3047 4.46875C37.1641 4.46875 36.9922 4.48438 36.7734 4.48438C36.5547 4.48438 36.3203 4.5 36.0859 4.5C35.8359 4.5 35.6016 4.51562 35.3828 4.51562C35.1641 4.51562 34.9766 4.51562 34.8516 4.51562C34.6953 4.51562 34.5547 4.53125 34.4141 4.53125C34.2734 4.53125 34.1328 4.53125 33.9922 4.53125C33.7734 4.53125 33.6172 4.60938 33.5234 4.76562C33.4297 4.92188 33.3828 5.10938 33.3828 5.29688C33.3828 5.51562 33.4297 5.70312 33.5547 5.875C33.6797 6.04688 33.8203 6.14062 34.0078 6.14062C34.2891 6.125 34.6328 6.10938 35.0391 6.10938C35.4297 6.10938 35.7891 6.10938 36.1172 6.09375H36.3672C36.3672 6.375 36.3828 6.65625 36.3828 6.95312V10.8906C36.3828 11.375 36.3203 11.75 36.1953 12C36.0703 12.2656 35.8984 12.3906 35.6797 12.3906C35.1797 12.3906 34.9141 11.9844 34.8516 11.1562C34.8359 11.0469 34.7578 10.9688 34.6172 10.9219C34.4609 10.875 34.2891 10.8438 34.0859 10.8438Z" fill="white"/>
</svg>
