<svg width="52" height="19" viewBox="0 0 52 19" fill="none" xmlns="http://www.w3.org/2000/svg">
<rect width="52" height="19" rx="9.5" fill="#40619E"/>
<path d="M12.8828 4.89062V6.45312C12.8828 6.85938 12.8828 7.3125 12.8828 7.8125C12.8828 8.3125 12.8984 8.82812 12.8984 9.32812V13.4531C12.8984 13.6094 12.9766 13.7344 13.1641 13.7969C13.3359 13.875 13.5391 13.9062 13.7891 13.9062C13.8828 13.9062 13.9922 13.9062 14.1016 13.8906C14.2109 13.8906 14.3203 13.8594 14.4141 13.8125C14.8828 13.7969 15.4141 13.7812 15.9766 13.7656C16.5391 13.7656 17.0703 13.75 17.6016 13.7344H18.1484C18.3672 13.7344 18.5391 13.6562 18.6484 13.5C18.7422 13.3438 18.8047 13.1562 18.8047 12.9531C18.8047 12.75 18.7422 12.5625 18.6328 12.375C18.5078 12.2031 18.3516 12.125 18.1328 12.1406C17.7891 12.1719 17.3984 12.1875 16.9609 12.1875C16.5234 12.1875 16.0703 12.1875 15.6328 12.1875C15.4766 12.1875 15.3516 12.2031 15.2266 12.2031C15.1016 12.2031 14.9922 12.2031 14.8672 12.2031C14.8516 11.8438 14.8516 11.4531 14.8516 11.0312V9.625C15.3672 9.625 15.8359 9.60938 16.2422 9.60938C16.6484 9.60938 17.1172 9.59375 17.6172 9.57812C17.8359 9.57812 17.9922 9.5 18.1016 9.34375C18.2109 9.1875 18.2734 9 18.2734 8.78125C18.2734 8.6875 18.2578 8.57812 18.2266 8.48438C18.1953 8.39062 18.1484 8.29688 18.0859 8.21875C18.0234 8.15625 17.9609 8.09375 17.8828 8.04688C17.7891 8 17.6953 7.98438 17.6016 7.98438C17.2578 8.01562 16.9141 8.03125 16.5547 8.03125C16.1797 8.03125 15.8203 8.03125 15.4609 8.03125C15.3516 8.03125 15.2422 8.04688 15.1484 8.04688C15.0547 8.04688 14.9453 8.04688 14.8516 8.04688C14.8516 7.79688 14.8516 7.57812 14.8516 7.40625C14.8516 7.25 14.8672 7.0625 14.8672 6.85938V6.10938C15.3203 6.09375 15.7422 6.09375 16.1328 6.09375C16.5234 6.09375 16.9453 6.09375 17.3984 6.07812C17.4922 6.07812 17.6016 6.07812 17.7109 6.07812C17.8047 6.07812 17.9141 6.0625 18.0078 6.0625C18.2266 6.0625 18.3828 5.98438 18.4922 5.82812C18.6016 5.67188 18.6641 5.48438 18.6641 5.26562C18.6641 5.17188 18.6484 5.0625 18.6172 4.96875C18.5859 4.875 18.5391 4.78125 18.4766 4.70312C18.4141 4.64062 18.3516 4.57812 18.2734 4.53125C18.1797 4.48438 18.0859 4.46875 17.9922 4.46875C17.6484 4.5 17.2422 4.51562 16.8047 4.51562C16.3672 4.51562 15.9141 4.51562 15.4766 4.51562C15.3203 4.51562 15.1797 4.53125 15.0234 4.53125C14.8672 4.53125 14.7109 4.53125 14.5703 4.53125C14.5078 4.48438 14.4141 4.45312 14.3047 4.4375C14.1953 4.4375 14.0703 4.42188 13.9297 4.42188C13.6641 4.42188 13.4297 4.46875 13.2109 4.54688C12.9922 4.625 12.8828 4.73438 12.8828 4.89062ZM24.4141 4.89062V6.01562C24.4141 6.51562 24.4141 7.10938 24.4141 7.76562C24.4141 8.42188 24.4297 9.09375 24.4297 9.78125C24.2734 9.5625 24.1484 9.34375 24.0234 9.14062C23.8984 8.9375 23.7578 8.73438 23.6328 8.51562C23.5078 8.3125 23.3672 8.09375 23.2266 7.85938C23.0703 7.625 22.9141 7.35938 22.7422 7.07812C22.3984 6.54688 22.1016 6.0625 21.8203 5.625C21.5391 5.1875 21.3516 4.875 21.2422 4.65625C21.1172 4.5 20.8828 4.42188 20.5703 4.42188C20.3203 4.42188 20.1016 4.46875 19.8828 4.5625C19.6641 4.65625 19.5547 4.79688 19.5547 4.96875V6.53125C19.5547 6.9375 19.5547 7.39062 19.5547 7.875C19.5547 8.375 19.5703 8.875 19.5703 9.375V13.4531C19.5703 13.6094 19.6484 13.7188 19.8359 13.7969C20.0234 13.875 20.2266 13.9062 20.4609 13.9062C20.7109 13.9062 20.9453 13.8594 21.1797 13.75C21.3984 13.6562 21.5234 13.5156 21.5547 13.3594C21.5391 13.2188 21.5234 12.8906 21.5234 12.3594C21.5234 11.8438 21.5234 11.25 21.5234 10.5625C21.5234 10.2188 21.5234 9.875 21.5234 9.53125C21.5234 9.1875 21.5391 8.84375 21.5391 8.46875C21.8203 8.90625 22.1172 9.39062 22.4453 9.89062C22.7578 10.4062 23.0703 10.9062 23.3828 11.3906C23.6797 11.875 23.9609 12.3125 24.2109 12.7188C24.4609 13.125 24.6484 13.4531 24.8047 13.6719H24.7891C24.8359 13.7656 24.9141 13.8125 25.0391 13.8438C25.1484 13.875 25.2891 13.8906 25.4453 13.8906C25.5547 13.8906 25.6641 13.8906 25.7891 13.8594C25.8984 13.8281 26.0078 13.7969 26.1016 13.75C26.1953 13.7031 26.2578 13.6406 26.3203 13.5781C26.3828 13.5156 26.4141 13.4531 26.4141 13.3594C26.3828 13.2344 26.3828 12.9531 26.3828 12.5469V9.26562C26.3828 8.625 26.3828 8 26.3984 7.40625V4.85938C26.3984 4.70312 26.3047 4.59375 26.1172 4.53125C25.9297 4.46875 25.7266 4.42188 25.4922 4.42188C25.2109 4.42188 24.9609 4.46875 24.7422 4.54688C24.5234 4.625 24.4141 4.73438 24.4141 4.89062ZM27.6016 6.14062L29.1953 6.09375C29.1953 6.40625 29.1953 6.75 29.1953 7.14062C29.1953 7.54688 29.2109 7.98438 29.2109 8.48438C29.2109 9.07812 29.2266 9.6875 29.2266 10.2812V11.9375C29.2266 12.1875 29.2109 12.4062 29.2109 12.5938C29.2109 12.7969 29.2109 12.9688 29.2109 13.1094V13.4688C29.2109 13.625 29.2891 13.7344 29.4766 13.7969C29.6641 13.875 29.8672 13.9062 30.1016 13.9062C30.3672 13.9062 30.6172 13.8594 30.8516 13.7656C31.0703 13.6719 31.1953 13.5469 31.1953 13.3594V12.8594C31.1953 12.625 31.1797 12.3281 31.1797 11.9844C31.1797 11.6406 31.1797 11.2812 31.1797 10.875V6.0625C31.5234 6.0625 31.8359 6.0625 32.1016 6.0625C32.3516 6.0625 32.5859 6.0625 32.8047 6.0625C33.0234 6.0625 33.1797 5.98438 33.2422 5.82812C33.3047 5.67188 33.3359 5.48438 33.3359 5.26562C33.3359 5.0625 33.2891 4.875 33.2266 4.71875C33.1484 4.5625 33.0078 4.46875 32.7891 4.46875C32.5234 4.5 32.1641 4.51562 31.6953 4.51562C31.2266 4.51562 30.7266 4.53125 30.2109 4.53125C29.6953 4.53125 29.1953 4.53125 28.7266 4.53125H27.6016C27.3828 4.53125 27.2578 4.60938 27.1953 4.76562C27.1328 4.92188 27.1172 5.10938 27.1172 5.29688C27.1172 5.51562 27.1484 5.71875 27.2109 5.89062C27.2734 6.0625 27.4141 6.14062 27.6016 6.14062ZM34.7734 10.8438C34.6484 10.8438 34.5078 10.8594 34.3828 10.8906C34.2422 10.9219 34.1172 10.9531 34.0078 10.9844C33.8984 11.0312 33.8047 11.0781 33.7422 11.1406C33.6641 11.2031 33.6328 11.25 33.6328 11.3125C33.6328 11.5938 33.6953 11.875 33.7891 12.1719C33.8828 12.4844 34.0391 12.75 34.2578 13C34.4609 13.25 34.7422 13.4688 35.0859 13.625C35.4297 13.7969 35.8516 13.875 36.3672 13.875C36.8203 13.875 37.2109 13.8125 37.5547 13.6562C37.8984 13.5 38.1797 13.2969 38.3984 13.0469C38.6172 12.7969 38.7891 12.4844 38.8984 12.1406C38.9922 11.7969 39.0391 11.4062 39.0391 11V5.46875C39.0391 5.375 39.0078 5.26562 38.9609 5.14062C38.8984 5.01562 38.8359 4.90625 38.7422 4.8125C38.6484 4.71875 38.5391 4.625 38.4141 4.5625C38.2891 4.5 38.1484 4.46875 37.9922 4.46875C37.8516 4.46875 37.6797 4.48438 37.4609 4.48438C37.2422 4.48438 37.0078 4.5 36.7734 4.5C36.5234 4.5 36.2891 4.51562 36.0703 4.51562C35.8516 4.51562 35.6641 4.51562 35.5391 4.51562C35.3828 4.51562 35.2422 4.53125 35.1016 4.53125C34.9609 4.53125 34.8203 4.53125 34.6797 4.53125C34.4609 4.53125 34.3047 4.60938 34.2109 4.76562C34.1172 4.92188 34.0703 5.10938 34.0703 5.29688C34.0703 5.51562 34.1172 5.70312 34.2422 5.875C34.3672 6.04688 34.5078 6.14062 34.6953 6.14062C34.9766 6.125 35.3203 6.10938 35.7266 6.10938C36.1172 6.10938 36.4766 6.10938 36.8047 6.09375H37.0547C37.0547 6.375 37.0703 6.65625 37.0703 6.95312V10.8906C37.0703 11.375 37.0078 11.75 36.8828 12C36.7578 12.2656 36.5859 12.3906 36.3672 12.3906C35.8672 12.3906 35.6016 11.9844 35.5391 11.1562C35.5234 11.0469 35.4453 10.9688 35.3047 10.9219C35.1484 10.875 34.9766 10.8438 34.7734 10.8438Z" fill="white"/>
</svg>
