<svg width="52" height="19" viewBox="0 0 52 19" fill="none" xmlns="http://www.w3.org/2000/svg">
<rect width="52" height="19" rx="9.5" fill="#DDDDDD"/>
<path d="M13.9609 12.9688C13.9609 13.1875 14.0078 13.3906 14.1172 13.5781C14.2109 13.7656 14.3672 13.8438 14.5859 13.8125C15.1016 13.7969 15.6484 13.7812 16.2266 13.7656C16.8047 13.7656 17.3672 13.75 17.8984 13.7344H18.2734C18.4922 13.7344 18.6641 13.6562 18.7734 13.5C18.8828 13.3438 18.9453 13.1562 18.9453 12.9531C18.9453 12.75 18.8828 12.5625 18.7578 12.375C18.6328 12.2031 18.4766 12.125 18.2578 12.1406C18.1328 12.1562 18.0234 12.1719 17.8984 12.1719C17.7734 12.1719 17.6641 12.1719 17.5391 12.1719H17.4297V6.07812H17.8672C17.9922 6.07812 18.1328 6.07812 18.2578 6.0625C18.4609 6.04688 18.6172 5.95312 18.7422 5.79688C18.8516 5.64062 18.9141 5.46875 18.9141 5.26562C18.9141 5.07812 18.8359 4.89062 18.7109 4.73438C18.5859 4.57812 18.4297 4.48438 18.2422 4.46875C17.8672 4.5 17.4453 4.51562 16.9766 4.51562C16.5078 4.51562 16.0391 4.51562 15.5859 4.51562C15.3984 4.51562 15.2109 4.53125 15.0391 4.53125C14.8516 4.53125 14.6953 4.53125 14.5391 4.53125C14.3203 4.53125 14.1641 4.60938 14.0703 4.76562C13.9766 4.92188 13.9297 5.10938 13.9297 5.29688C13.9297 5.51562 13.9766 5.70312 14.1016 5.875C14.2109 6.04688 14.3672 6.14062 14.5547 6.14062C14.6641 6.14062 14.8047 6.125 14.9766 6.125C15.1328 6.125 15.2891 6.10938 15.4453 6.10938C15.4453 6.39062 15.4453 6.70312 15.4453 7.04688C15.4453 7.39062 15.4609 7.78125 15.4609 8.21875V12.2031H14.5703C14.3516 12.2031 14.1953 12.2812 14.1016 12.4375C14.0078 12.5938 13.9609 12.7812 13.9609 12.9688ZM20.2578 10.375C20.0078 10.375 19.7891 10.4219 19.6016 10.5156C19.3984 10.6094 19.2891 10.75 19.2891 10.9219C19.2578 11.375 19.3203 11.7812 19.4453 12.1406C19.5703 12.5156 19.7734 12.8281 20.0391 13.0781C20.2891 13.3438 20.6172 13.5469 21.0078 13.6875C21.3828 13.8281 21.8203 13.8906 22.3203 13.8906C22.7891 13.8906 23.2109 13.8438 23.5859 13.7188C23.9609 13.5938 24.2891 13.4219 24.5703 13.2031C24.8359 12.9844 25.0391 12.7188 25.1953 12.4062C25.3359 12.0938 25.4141 11.7344 25.4141 11.3438C25.4141 10.7188 25.2109 10.1719 24.8047 9.71875C24.3984 9.28125 23.7734 8.82812 22.9453 8.35938C22.4766 8.125 22.1016 7.89062 21.8359 7.64062C21.5703 7.40625 21.4453 7.10938 21.4453 6.75C21.4453 6.48438 21.5234 6.28125 21.6953 6.14062C21.8672 6.01562 22.1016 5.9375 22.4141 5.92188C22.7109 5.92188 22.9453 6.03125 23.1172 6.28125C23.2891 6.53125 23.3672 6.875 23.3359 7.34375C23.3047 7.53125 23.4141 7.6875 23.6328 7.78125C23.8516 7.875 24.0859 7.92188 24.3359 7.92188C24.5859 7.92188 24.8047 7.875 25.0078 7.78125C25.2109 7.6875 25.3203 7.54688 25.3203 7.35938C25.3203 6.875 25.2578 6.45312 25.1172 6.07812C24.9609 5.70312 24.7578 5.40625 24.4922 5.15625C24.2266 4.92188 23.9141 4.75 23.5703 4.625C23.2109 4.5 22.8203 4.4375 22.4141 4.4375C21.4922 4.45312 20.7734 4.67188 20.2422 5.09375C19.7109 5.53125 19.4609 6.125 19.4609 6.90625C19.4609 7.48438 19.6328 7.96875 20.0078 8.35938C20.3672 8.76562 20.9453 9.15625 21.7266 9.54688C22.3203 9.85938 22.7578 10.1406 23.0234 10.4219C23.2891 10.7031 23.4297 11.0156 23.4297 11.3594C23.4297 11.7031 23.3203 11.9688 23.1328 12.1406C22.9297 12.3125 22.6641 12.4062 22.3203 12.4062C21.9922 12.4219 21.7266 12.3125 21.5234 12.0938C21.3203 11.875 21.2266 11.4844 21.2266 10.9219C21.2266 10.75 21.1172 10.6094 20.9141 10.5156C20.7109 10.4219 20.4922 10.375 20.2578 10.375ZM26.2578 6.14062L27.8516 6.09375C27.8516 6.40625 27.8516 6.75 27.8516 7.14062C27.8516 7.54688 27.8672 7.98438 27.8672 8.48438C27.8672 9.07812 27.8828 9.6875 27.8828 10.2812V11.9375C27.8828 12.1875 27.8672 12.4062 27.8672 12.5938C27.8672 12.7969 27.8672 12.9688 27.8672 13.1094V13.4688C27.8672 13.625 27.9453 13.7344 28.1328 13.7969C28.3203 13.875 28.5234 13.9062 28.7578 13.9062C29.0234 13.9062 29.2734 13.8594 29.5078 13.7656C29.7266 13.6719 29.8516 13.5469 29.8516 13.3594V12.8594C29.8516 12.625 29.8359 12.3281 29.8359 11.9844C29.8359 11.6406 29.8359 11.2812 29.8359 10.875V6.0625C30.1797 6.0625 30.4922 6.0625 30.7578 6.0625C31.0078 6.0625 31.2422 6.0625 31.4609 6.0625C31.6797 6.0625 31.8359 5.98438 31.8984 5.82812C31.9609 5.67188 31.9922 5.48438 31.9922 5.26562C31.9922 5.0625 31.9453 4.875 31.8828 4.71875C31.8047 4.5625 31.6641 4.46875 31.4453 4.46875C31.1797 4.5 30.8203 4.51562 30.3516 4.51562C29.8828 4.51562 29.3828 4.53125 28.8672 4.53125C28.3516 4.53125 27.8516 4.53125 27.3828 4.53125H26.2578C26.0391 4.53125 25.9141 4.60938 25.8516 4.76562C25.7891 4.92188 25.7734 5.10938 25.7734 5.29688C25.7734 5.51562 25.8047 5.71875 25.8672 5.89062C25.9297 6.0625 26.0703 6.14062 26.2578 6.14062ZM33.4297 10.8438C33.3047 10.8438 33.1641 10.8594 33.0391 10.8906C32.8984 10.9219 32.7734 10.9531 32.6641 10.9844C32.5547 11.0312 32.4609 11.0781 32.3984 11.1406C32.3203 11.2031 32.2891 11.25 32.2891 11.3125C32.2891 11.5938 32.3516 11.875 32.4453 12.1719C32.5391 12.4844 32.6953 12.75 32.9141 13C33.1172 13.25 33.3984 13.4688 33.7422 13.625C34.0859 13.7969 34.5078 13.875 35.0234 13.875C35.4766 13.875 35.8672 13.8125 36.2109 13.6562C36.5547 13.5 36.8359 13.2969 37.0547 13.0469C37.2734 12.7969 37.4453 12.4844 37.5547 12.1406C37.6484 11.7969 37.6953 11.4062 37.6953 11V5.46875C37.6953 5.375 37.6641 5.26562 37.6172 5.14062C37.5547 5.01562 37.4922 4.90625 37.3984 4.8125C37.3047 4.71875 37.1953 4.625 37.0703 4.5625C36.9453 4.5 36.8047 4.46875 36.6484 4.46875C36.5078 4.46875 36.3359 4.48438 36.1172 4.48438C35.8984 4.48438 35.6641 4.5 35.4297 4.5C35.1797 4.5 34.9453 4.51562 34.7266 4.51562C34.5078 4.51562 34.3203 4.51562 34.1953 4.51562C34.0391 4.51562 33.8984 4.53125 33.7578 4.53125C33.6172 4.53125 33.4766 4.53125 33.3359 4.53125C33.1172 4.53125 32.9609 4.60938 32.8672 4.76562C32.7734 4.92188 32.7266 5.10938 32.7266 5.29688C32.7266 5.51562 32.7734 5.70312 32.8984 5.875C33.0234 6.04688 33.1641 6.14062 33.3516 6.14062C33.6328 6.125 33.9766 6.10938 34.3828 6.10938C34.7734 6.10938 35.1328 6.10938 35.4609 6.09375H35.7109C35.7109 6.375 35.7266 6.65625 35.7266 6.95312V10.8906C35.7266 11.375 35.6641 11.75 35.5391 12C35.4141 12.2656 35.2422 12.3906 35.0234 12.3906C34.5234 12.3906 34.2578 11.9844 34.1953 11.1562C34.1797 11.0469 34.1016 10.9688 33.9609 10.9219C33.8047 10.875 33.6328 10.8438 33.4297 10.8438Z" fill="#929292"/>
</svg>
