<svg width="52" height="19" viewBox="0 0 52 19" fill="none" xmlns="http://www.w3.org/2000/svg">
<rect width="52" height="19" rx="9.5" fill="#C4D6FB"/>
<path d="M13.25 12.9688C13.25 13.1875 13.2969 13.3906 13.4062 13.5781C13.5 13.7656 13.6562 13.8438 13.875 13.8125C14.3906 13.7969 14.9375 13.7812 15.5156 13.7656C16.0938 13.7656 16.6562 13.75 17.1875 13.7344H17.5625C17.7812 13.7344 17.9531 13.6562 18.0625 13.5C18.1719 13.3438 18.2344 13.1562 18.2344 12.9531C18.2344 12.75 18.1719 12.5625 18.0469 12.375C17.9219 12.2031 17.7656 12.125 17.5469 12.1406C17.4219 12.1562 17.3125 12.1719 17.1875 12.1719C17.0625 12.1719 16.9531 12.1719 16.8281 12.1719H16.7188V6.07812H17.1562C17.2812 6.07812 17.4219 6.07812 17.5469 6.0625C17.75 6.04688 17.9062 5.95312 18.0312 5.79688C18.1406 5.64062 18.2031 5.46875 18.2031 5.26562C18.2031 5.07812 18.125 4.89062 18 4.73438C17.875 4.57812 17.7188 4.48438 17.5312 4.46875C17.1562 4.5 16.7344 4.51562 16.2656 4.51562C15.7969 4.51562 15.3281 4.51562 14.875 4.51562C14.6875 4.51562 14.5 4.53125 14.3281 4.53125C14.1406 4.53125 13.9844 4.53125 13.8281 4.53125C13.6094 4.53125 13.4531 4.60938 13.3594 4.76562C13.2656 4.92188 13.2188 5.10938 13.2188 5.29688C13.2188 5.51562 13.2656 5.70312 13.3906 5.875C13.5 6.04688 13.6562 6.14062 13.8438 6.14062C13.9531 6.14062 14.0938 6.125 14.2656 6.125C14.4219 6.125 14.5781 6.10938 14.7344 6.10938C14.7344 6.39062 14.7344 6.70312 14.7344 7.04688C14.7344 7.39062 14.75 7.78125 14.75 8.21875V12.2031H13.8594C13.6406 12.2031 13.4844 12.2812 13.3906 12.4375C13.2969 12.5938 13.25 12.7812 13.25 12.9688ZM23.7344 4.89062V6.01562C23.7344 6.51562 23.7344 7.10938 23.7344 7.76562C23.7344 8.42188 23.75 9.09375 23.75 9.78125C23.5938 9.5625 23.4688 9.34375 23.3438 9.14062C23.2188 8.9375 23.0781 8.73438 22.9531 8.51562C22.8281 8.3125 22.6875 8.09375 22.5469 7.85938C22.3906 7.625 22.2344 7.35938 22.0625 7.07812C21.7188 6.54688 21.4219 6.0625 21.1406 5.625C20.8594 5.1875 20.6719 4.875 20.5625 4.65625C20.4375 4.5 20.2031 4.42188 19.8906 4.42188C19.6406 4.42188 19.4219 4.46875 19.2031 4.5625C18.9844 4.65625 18.875 4.79688 18.875 4.96875V6.53125C18.875 6.9375 18.875 7.39062 18.875 7.875C18.875 8.375 18.8906 8.875 18.8906 9.375V13.4531C18.8906 13.6094 18.9688 13.7188 19.1562 13.7969C19.3438 13.875 19.5469 13.9062 19.7812 13.9062C20.0312 13.9062 20.2656 13.8594 20.5 13.75C20.7188 13.6562 20.8438 13.5156 20.875 13.3594C20.8594 13.2188 20.8438 12.8906 20.8438 12.3594C20.8438 11.8438 20.8438 11.25 20.8438 10.5625C20.8438 10.2188 20.8438 9.875 20.8438 9.53125C20.8438 9.1875 20.8594 8.84375 20.8594 8.46875C21.1406 8.90625 21.4375 9.39062 21.7656 9.89062C22.0781 10.4062 22.3906 10.9062 22.7031 11.3906C23 11.875 23.2812 12.3125 23.5312 12.7188C23.7812 13.125 23.9688 13.4531 24.125 13.6719H24.1094C24.1562 13.7656 24.2344 13.8125 24.3594 13.8438C24.4688 13.875 24.6094 13.8906 24.7656 13.8906C24.875 13.8906 24.9844 13.8906 25.1094 13.8594C25.2188 13.8281 25.3281 13.7969 25.4219 13.75C25.5156 13.7031 25.5781 13.6406 25.6406 13.5781C25.7031 13.5156 25.7344 13.4531 25.7344 13.3594C25.7031 13.2344 25.7031 12.9531 25.7031 12.5469V9.26562C25.7031 8.625 25.7031 8 25.7188 7.40625V4.85938C25.7188 4.70312 25.625 4.59375 25.4375 4.53125C25.25 4.46875 25.0469 4.42188 24.8125 4.42188C24.5312 4.42188 24.2812 4.46875 24.0625 4.54688C23.8438 4.625 23.7344 4.73438 23.7344 4.89062ZM26.75 4.89062V6.45312C26.75 6.85938 26.75 7.3125 26.75 7.8125C26.75 8.3125 26.7656 8.82812 26.7656 9.32812V13.4531C26.7656 13.6094 26.8438 13.7188 27.0312 13.7969C27.2031 13.875 27.4062 13.9062 27.6562 13.9062C27.7812 13.9062 27.9062 13.9062 28.0469 13.875C28.1719 13.8438 28.2969 13.8125 28.4062 13.7656C28.5 13.7188 28.5938 13.6562 28.6562 13.5938C28.7188 13.5312 28.75 13.4531 28.75 13.3594C28.7344 13.2656 28.7188 13.1094 28.7188 12.875C28.7188 12.6562 28.7188 12.375 28.7188 12.0469V9.73438C29.1562 9.71875 29.5625 9.71875 29.9688 9.71875C30.375 9.71875 30.7969 9.71875 31.25 9.70312C31.375 9.70312 31.5 9.70312 31.625 9.70312C31.7344 9.70312 31.8438 9.6875 31.9688 9.6875C32.1875 9.6875 32.3594 9.60938 32.4688 9.4375C32.5625 9.28125 32.625 9.09375 32.625 8.875C32.625 8.67188 32.5625 8.48438 32.4531 8.29688C32.3281 8.125 32.1719 8.04688 31.9531 8.04688C31.6094 8.07812 31.2344 8.09375 30.7969 8.09375C30.3594 8.09375 29.9219 8.09375 29.4844 8.09375C29.3281 8.09375 29.2031 8.10938 29.0781 8.10938C28.9531 8.10938 28.8438 8.10938 28.7188 8.10938C28.7188 7.85938 28.7188 7.64062 28.7188 7.46875C28.7188 7.29688 28.7344 7.10938 28.7344 6.90625V6.125C29.1875 6.10938 29.6094 6.10938 30 6.10938C30.3906 6.10938 30.8125 6.10938 31.2656 6.09375C31.3594 6.09375 31.4688 6.09375 31.5781 6.09375C31.6719 6.09375 31.7656 6.07812 31.8594 6.07812C32.0781 6.07812 32.25 6 32.3594 5.82812C32.4688 5.67188 32.5312 5.48438 32.5312 5.26562C32.5312 5.17188 32.5156 5.0625 32.4844 4.96875C32.4531 4.875 32.4062 4.78125 32.3438 4.70312C32.2812 4.64062 32.2188 4.57812 32.1406 4.53125C32.0469 4.48438 31.9531 4.46875 31.8594 4.46875C31.5 4.5 31.1094 4.51562 30.6719 4.51562C30.2344 4.51562 29.7812 4.51562 29.3438 4.51562C29.1875 4.51562 29.0469 4.53125 28.8906 4.53125C28.7344 4.53125 28.5781 4.53125 28.4375 4.53125C28.375 4.48438 28.2812 4.45312 28.1719 4.4375C28.0625 4.4375 27.9375 4.42188 27.7969 4.42188C27.5312 4.42188 27.2969 4.46875 27.0781 4.54688C26.8594 4.625 26.75 4.73438 26.75 4.89062ZM34.1406 10.8438C34.0156 10.8438 33.875 10.8594 33.75 10.8906C33.6094 10.9219 33.4844 10.9531 33.375 10.9844C33.2656 11.0312 33.1719 11.0781 33.1094 11.1406C33.0312 11.2031 33 11.25 33 11.3125C33 11.5938 33.0625 11.875 33.1562 12.1719C33.25 12.4844 33.4062 12.75 33.625 13C33.8281 13.25 34.1094 13.4688 34.4531 13.625C34.7969 13.7969 35.2188 13.875 35.7344 13.875C36.1875 13.875 36.5781 13.8125 36.9219 13.6562C37.2656 13.5 37.5469 13.2969 37.7656 13.0469C37.9844 12.7969 38.1562 12.4844 38.2656 12.1406C38.3594 11.7969 38.4062 11.4062 38.4062 11V5.46875C38.4062 5.375 38.375 5.26562 38.3281 5.14062C38.2656 5.01562 38.2031 4.90625 38.1094 4.8125C38.0156 4.71875 37.9062 4.625 37.7812 4.5625C37.6562 4.5 37.5156 4.46875 37.3594 4.46875C37.2188 4.46875 37.0469 4.48438 36.8281 4.48438C36.6094 4.48438 36.375 4.5 36.1406 4.5C35.8906 4.5 35.6562 4.51562 35.4375 4.51562C35.2188 4.51562 35.0312 4.51562 34.9062 4.51562C34.75 4.51562 34.6094 4.53125 34.4688 4.53125C34.3281 4.53125 34.1875 4.53125 34.0469 4.53125C33.8281 4.53125 33.6719 4.60938 33.5781 4.76562C33.4844 4.92188 33.4375 5.10938 33.4375 5.29688C33.4375 5.51562 33.4844 5.70312 33.6094 5.875C33.7344 6.04688 33.875 6.14062 34.0625 6.14062C34.3438 6.125 34.6875 6.10938 35.0938 6.10938C35.4844 6.10938 35.8438 6.10938 36.1719 6.09375H36.4219C36.4219 6.375 36.4375 6.65625 36.4375 6.95312V10.8906C36.4375 11.375 36.375 11.75 36.25 12C36.125 12.2656 35.9531 12.3906 35.7344 12.3906C35.2344 12.3906 34.9688 11.9844 34.9062 11.1562C34.8906 11.0469 34.8125 10.9688 34.6719 10.9219C34.5156 10.875 34.3438 10.8438 34.1406 10.8438Z" fill="#7391D0"/>
</svg>
