<svg width="52" height="19" viewBox="0 0 52 19" fill="none" xmlns="http://www.w3.org/2000/svg">
<rect width="52" height="19" rx="9.5" fill="#F19C81"/>
<path d="M13.1875 4.89062V6.45312C13.1875 6.85938 13.1875 7.3125 13.1875 7.8125C13.1875 8.3125 13.2031 8.82812 13.2031 9.32812V13.4531C13.2031 13.6094 13.2812 13.7344 13.4688 13.7969C13.6406 13.875 13.8438 13.9062 14.0938 13.9062C14.1875 13.9062 14.2969 13.9062 14.4062 13.8906C14.5156 13.8906 14.625 13.8594 14.7188 13.8125C15.1875 13.7969 15.7188 13.7812 16.2812 13.7656C16.8438 13.7656 17.375 13.75 17.9062 13.7344H18.4531C18.6719 13.7344 18.8438 13.6562 18.9531 13.5C19.0469 13.3438 19.1094 13.1562 19.1094 12.9531C19.1094 12.75 19.0469 12.5625 18.9375 12.375C18.8125 12.2031 18.6562 12.125 18.4375 12.1406C18.0938 12.1719 17.7031 12.1875 17.2656 12.1875C16.8281 12.1875 16.375 12.1875 15.9375 12.1875C15.7812 12.1875 15.6562 12.2031 15.5312 12.2031C15.4062 12.2031 15.2969 12.2031 15.1719 12.2031C15.1562 11.8438 15.1562 11.4531 15.1562 11.0312V9.625C15.6719 9.625 16.1406 9.60938 16.5469 9.60938C16.9531 9.60938 17.4219 9.59375 17.9219 9.57812C18.1406 9.57812 18.2969 9.5 18.4062 9.34375C18.5156 9.1875 18.5781 9 18.5781 8.78125C18.5781 8.6875 18.5625 8.57812 18.5312 8.48438C18.5 8.39062 18.4531 8.29688 18.3906 8.21875C18.3281 8.15625 18.2656 8.09375 18.1875 8.04688C18.0938 8 18 7.98438 17.9062 7.98438C17.5625 8.01562 17.2188 8.03125 16.8594 8.03125C16.4844 8.03125 16.125 8.03125 15.7656 8.03125C15.6562 8.03125 15.5469 8.04688 15.4531 8.04688C15.3594 8.04688 15.25 8.04688 15.1562 8.04688C15.1562 7.79688 15.1562 7.57812 15.1562 7.40625C15.1562 7.25 15.1719 7.0625 15.1719 6.85938V6.10938C15.625 6.09375 16.0469 6.09375 16.4375 6.09375C16.8281 6.09375 17.25 6.09375 17.7031 6.07812C17.7969 6.07812 17.9062 6.07812 18.0156 6.07812C18.1094 6.07812 18.2188 6.0625 18.3125 6.0625C18.5312 6.0625 18.6875 5.98438 18.7969 5.82812C18.9062 5.67188 18.9688 5.48438 18.9688 5.26562C18.9688 5.17188 18.9531 5.0625 18.9219 4.96875C18.8906 4.875 18.8438 4.78125 18.7812 4.70312C18.7188 4.64062 18.6562 4.57812 18.5781 4.53125C18.4844 4.48438 18.3906 4.46875 18.2969 4.46875C17.9531 4.5 17.5469 4.51562 17.1094 4.51562C16.6719 4.51562 16.2188 4.51562 15.7812 4.51562C15.625 4.51562 15.4844 4.53125 15.3281 4.53125C15.1719 4.53125 15.0156 4.53125 14.875 4.53125C14.8125 4.48438 14.7188 4.45312 14.6094 4.4375C14.5 4.4375 14.375 4.42188 14.2344 4.42188C13.9688 4.42188 13.7344 4.46875 13.5156 4.54688C13.2969 4.625 13.1875 4.73438 13.1875 4.89062ZM20.5312 10.375C20.2812 10.375 20.0625 10.4219 19.875 10.5156C19.6719 10.6094 19.5625 10.75 19.5625 10.9219C19.5312 11.375 19.5938 11.7812 19.7188 12.1406C19.8438 12.5156 20.0469 12.8281 20.3125 13.0781C20.5625 13.3438 20.8906 13.5469 21.2812 13.6875C21.6562 13.8281 22.0938 13.8906 22.5938 13.8906C23.0625 13.8906 23.4844 13.8438 23.8594 13.7188C24.2344 13.5938 24.5625 13.4219 24.8438 13.2031C25.1094 12.9844 25.3125 12.7188 25.4688 12.4062C25.6094 12.0938 25.6875 11.7344 25.6875 11.3438C25.6875 10.7188 25.4844 10.1719 25.0781 9.71875C24.6719 9.28125 24.0469 8.82812 23.2188 8.35938C22.75 8.125 22.375 7.89062 22.1094 7.64062C21.8438 7.40625 21.7188 7.10938 21.7188 6.75C21.7188 6.48438 21.7969 6.28125 21.9688 6.14062C22.1406 6.01562 22.375 5.9375 22.6875 5.92188C22.9844 5.92188 23.2188 6.03125 23.3906 6.28125C23.5625 6.53125 23.6406 6.875 23.6094 7.34375C23.5781 7.53125 23.6875 7.6875 23.9062 7.78125C24.125 7.875 24.3594 7.92188 24.6094 7.92188C24.8594 7.92188 25.0781 7.875 25.2812 7.78125C25.4844 7.6875 25.5938 7.54688 25.5938 7.35938C25.5938 6.875 25.5312 6.45312 25.3906 6.07812C25.2344 5.70312 25.0312 5.40625 24.7656 5.15625C24.5 4.92188 24.1875 4.75 23.8438 4.625C23.4844 4.5 23.0938 4.4375 22.6875 4.4375C21.7656 4.45312 21.0469 4.67188 20.5156 5.09375C19.9844 5.53125 19.7344 6.125 19.7344 6.90625C19.7344 7.48438 19.9062 7.96875 20.2812 8.35938C20.6406 8.76562 21.2188 9.15625 22 9.54688C22.5938 9.85938 23.0312 10.1406 23.2969 10.4219C23.5625 10.7031 23.7031 11.0156 23.7031 11.3594C23.7031 11.7031 23.5938 11.9688 23.4062 12.1406C23.2031 12.3125 22.9375 12.4062 22.5938 12.4062C22.2656 12.4219 22 12.3125 21.7969 12.0938C21.5938 11.875 21.5 11.4844 21.5 10.9219C21.5 10.75 21.3906 10.6094 21.1875 10.5156C20.9844 10.4219 20.7656 10.375 20.5312 10.375ZM26.5312 6.14062L28.125 6.09375C28.125 6.40625 28.125 6.75 28.125 7.14062C28.125 7.54688 28.1406 7.98438 28.1406 8.48438C28.1406 9.07812 28.1562 9.6875 28.1562 10.2812V11.9375C28.1562 12.1875 28.1406 12.4062 28.1406 12.5938C28.1406 12.7969 28.1406 12.9688 28.1406 13.1094V13.4688C28.1406 13.625 28.2188 13.7344 28.4062 13.7969C28.5938 13.875 28.7969 13.9062 29.0312 13.9062C29.2969 13.9062 29.5469 13.8594 29.7812 13.7656C30 13.6719 30.125 13.5469 30.125 13.3594V12.8594C30.125 12.625 30.1094 12.3281 30.1094 11.9844C30.1094 11.6406 30.1094 11.2812 30.1094 10.875V6.0625C30.4531 6.0625 30.7656 6.0625 31.0312 6.0625C31.2812 6.0625 31.5156 6.0625 31.7344 6.0625C31.9531 6.0625 32.1094 5.98438 32.1719 5.82812C32.2344 5.67188 32.2656 5.48438 32.2656 5.26562C32.2656 5.0625 32.2188 4.875 32.1562 4.71875C32.0781 4.5625 31.9375 4.46875 31.7188 4.46875C31.4531 4.5 31.0938 4.51562 30.625 4.51562C30.1562 4.51562 29.6562 4.53125 29.1406 4.53125C28.625 4.53125 28.125 4.53125 27.6562 4.53125H26.5312C26.3125 4.53125 26.1875 4.60938 26.125 4.76562C26.0625 4.92188 26.0469 5.10938 26.0469 5.29688C26.0469 5.51562 26.0781 5.71875 26.1406 5.89062C26.2031 6.0625 26.3438 6.14062 26.5312 6.14062ZM32.9375 4.89062V6.45312C32.9375 6.85938 32.9375 7.3125 32.9375 7.8125C32.9375 8.3125 32.9531 8.82812 32.9531 9.32812V13.4531C32.9531 13.6094 33.0312 13.7188 33.2188 13.7969C33.3906 13.875 33.5938 13.9062 33.8438 13.9062C33.9688 13.9062 34.0938 13.9062 34.2344 13.875C34.3594 13.8438 34.4844 13.8125 34.5938 13.7656C34.6875 13.7188 34.7812 13.6562 34.8438 13.5938C34.9062 13.5312 34.9375 13.4531 34.9375 13.3594C34.9219 13.2812 34.9062 13.125 34.9062 12.9062C34.9062 12.6875 34.9062 12.4375 34.9062 12.125V9.92188C34.9688 9.9375 35.0469 9.9375 35.1094 9.9375H35.3438C35.4219 9.9375 35.5 9.9375 35.5781 9.9375C35.6406 9.9375 35.7188 9.92188 35.8125 9.92188C36.3438 9.90625 36.7969 9.8125 37.2031 9.625C37.5938 9.4375 37.9219 9.21875 38.1875 8.9375C38.4375 8.65625 38.6406 8.35938 38.7656 8.04688C38.8906 7.73438 38.9688 7.42188 38.9688 7.10938C38.9688 6.70312 38.8906 6.32812 38.7344 6C38.5781 5.6875 38.3438 5.40625 38.0625 5.17188C37.7656 4.95312 37.4219 4.76562 37.0156 4.64062C36.6094 4.51562 36.1719 4.45312 35.6875 4.42188C35.5 4.42188 35.3125 4.42188 35.0938 4.4375C34.875 4.45312 34.6875 4.46875 34.5156 4.48438C34.4219 4.45312 34.3438 4.4375 34.2656 4.4375C34.1875 4.4375 34.0938 4.42188 34 4.42188C33.7344 4.42188 33.4844 4.46875 33.2656 4.54688C33.0469 4.625 32.9375 4.73438 32.9375 4.89062ZM34.9219 5.92188C35.0469 5.90625 35.1875 5.89062 35.3125 5.89062C35.4375 5.89062 35.5469 5.90625 35.6562 5.90625C36.0781 5.9375 36.4062 6.03125 36.6406 6.21875C36.8594 6.40625 36.9844 6.6875 36.9844 7.07812C36.9844 7.46875 36.875 7.78125 36.6562 8.03125C36.4375 8.28125 36.1406 8.42188 35.7812 8.4375C35.6875 8.4375 35.6094 8.45312 35.5312 8.45312C35.4531 8.45312 35.375 8.45312 35.3125 8.45312H35.1094C35.0469 8.45312 34.9688 8.45312 34.9062 8.4375C34.9062 8.10938 34.9062 7.82812 34.9062 7.57812C34.9062 7.34375 34.9219 7.09375 34.9219 6.84375V5.92188Z" fill="white"/>
</svg>
