<svg width="52" height="19" viewBox="0 0 52 19" fill="none" xmlns="http://www.w3.org/2000/svg">
<rect width="52" height="19" rx="9.5" fill="#6AB8A1"/>
<path d="M12.8594 4.89062V6.45312C12.8594 6.85938 12.8594 7.3125 12.8594 7.8125C12.8594 8.3125 12.875 8.82812 12.875 9.32812V13.4531C12.875 13.6094 12.9531 13.7344 13.1406 13.7969C13.3125 13.875 13.5156 13.9062 13.7656 13.9062C13.8594 13.9062 13.9688 13.9062 14.0781 13.8906C14.1875 13.8906 14.2969 13.8594 14.3906 13.8125C14.8594 13.7969 15.3906 13.7812 15.9531 13.7656C16.5156 13.7656 17.0469 13.75 17.5781 13.7344H18.125C18.3438 13.7344 18.5156 13.6562 18.625 13.5C18.7188 13.3438 18.7812 13.1562 18.7812 12.9531C18.7812 12.75 18.7188 12.5625 18.6094 12.375C18.4844 12.2031 18.3281 12.125 18.1094 12.1406C17.7656 12.1719 17.375 12.1875 16.9375 12.1875C16.5 12.1875 16.0469 12.1875 15.6094 12.1875C15.4531 12.1875 15.3281 12.2031 15.2031 12.2031C15.0781 12.2031 14.9688 12.2031 14.8438 12.2031C14.8281 11.8438 14.8281 11.4531 14.8281 11.0312V9.625C15.3438 9.625 15.8125 9.60938 16.2188 9.60938C16.625 9.60938 17.0938 9.59375 17.5938 9.57812C17.8125 9.57812 17.9688 9.5 18.0781 9.34375C18.1875 9.1875 18.25 9 18.25 8.78125C18.25 8.6875 18.2344 8.57812 18.2031 8.48438C18.1719 8.39062 18.125 8.29688 18.0625 8.21875C18 8.15625 17.9375 8.09375 17.8594 8.04688C17.7656 8 17.6719 7.98438 17.5781 7.98438C17.2344 8.01562 16.8906 8.03125 16.5312 8.03125C16.1562 8.03125 15.7969 8.03125 15.4375 8.03125C15.3281 8.03125 15.2188 8.04688 15.125 8.04688C15.0312 8.04688 14.9219 8.04688 14.8281 8.04688C14.8281 7.79688 14.8281 7.57812 14.8281 7.40625C14.8281 7.25 14.8438 7.0625 14.8438 6.85938V6.10938C15.2969 6.09375 15.7188 6.09375 16.1094 6.09375C16.5 6.09375 16.9219 6.09375 17.375 6.07812C17.4688 6.07812 17.5781 6.07812 17.6875 6.07812C17.7812 6.07812 17.8906 6.0625 17.9844 6.0625C18.2031 6.0625 18.3594 5.98438 18.4688 5.82812C18.5781 5.67188 18.6406 5.48438 18.6406 5.26562C18.6406 5.17188 18.625 5.0625 18.5938 4.96875C18.5625 4.875 18.5156 4.78125 18.4531 4.70312C18.3906 4.64062 18.3281 4.57812 18.25 4.53125C18.1562 4.48438 18.0625 4.46875 17.9688 4.46875C17.625 4.5 17.2188 4.51562 16.7812 4.51562C16.3438 4.51562 15.8906 4.51562 15.4531 4.51562C15.2969 4.51562 15.1562 4.53125 15 4.53125C14.8438 4.53125 14.6875 4.53125 14.5469 4.53125C14.4844 4.48438 14.3906 4.45312 14.2812 4.4375C14.1719 4.4375 14.0469 4.42188 13.9062 4.42188C13.6406 4.42188 13.4062 4.46875 13.1875 4.54688C12.9688 4.625 12.8594 4.73438 12.8594 4.89062ZM24.3906 4.89062V6.01562C24.3906 6.51562 24.3906 7.10938 24.3906 7.76562C24.3906 8.42188 24.4062 9.09375 24.4062 9.78125C24.25 9.5625 24.125 9.34375 24 9.14062C23.875 8.9375 23.7344 8.73438 23.6094 8.51562C23.4844 8.3125 23.3438 8.09375 23.2031 7.85938C23.0469 7.625 22.8906 7.35938 22.7188 7.07812C22.375 6.54688 22.0781 6.0625 21.7969 5.625C21.5156 5.1875 21.3281 4.875 21.2188 4.65625C21.0938 4.5 20.8594 4.42188 20.5469 4.42188C20.2969 4.42188 20.0781 4.46875 19.8594 4.5625C19.6406 4.65625 19.5312 4.79688 19.5312 4.96875V6.53125C19.5312 6.9375 19.5312 7.39062 19.5312 7.875C19.5312 8.375 19.5469 8.875 19.5469 9.375V13.4531C19.5469 13.6094 19.625 13.7188 19.8125 13.7969C20 13.875 20.2031 13.9062 20.4375 13.9062C20.6875 13.9062 20.9219 13.8594 21.1562 13.75C21.375 13.6562 21.5 13.5156 21.5312 13.3594C21.5156 13.2188 21.5 12.8906 21.5 12.3594C21.5 11.8438 21.5 11.25 21.5 10.5625C21.5 10.2188 21.5 9.875 21.5 9.53125C21.5 9.1875 21.5156 8.84375 21.5156 8.46875C21.7969 8.90625 22.0938 9.39062 22.4219 9.89062C22.7344 10.4062 23.0469 10.9062 23.3594 11.3906C23.6562 11.875 23.9375 12.3125 24.1875 12.7188C24.4375 13.125 24.625 13.4531 24.7812 13.6719H24.7656C24.8125 13.7656 24.8906 13.8125 25.0156 13.8438C25.125 13.875 25.2656 13.8906 25.4219 13.8906C25.5312 13.8906 25.6406 13.8906 25.7656 13.8594C25.875 13.8281 25.9844 13.7969 26.0781 13.75C26.1719 13.7031 26.2344 13.6406 26.2969 13.5781C26.3594 13.5156 26.3906 13.4531 26.3906 13.3594C26.3594 13.2344 26.3594 12.9531 26.3594 12.5469V9.26562C26.3594 8.625 26.3594 8 26.375 7.40625V4.85938C26.375 4.70312 26.2812 4.59375 26.0938 4.53125C25.9062 4.46875 25.7031 4.42188 25.4688 4.42188C25.1875 4.42188 24.9375 4.46875 24.7188 4.54688C24.5 4.625 24.3906 4.73438 24.3906 4.89062ZM27.4062 4.89062V6.45312C27.4062 6.85938 27.4062 7.3125 27.4062 7.8125C27.4062 8.3125 27.4219 8.82812 27.4219 9.32812V13.4531C27.4219 13.6094 27.5 13.7188 27.6875 13.7969C27.8594 13.875 28.0625 13.9062 28.3125 13.9062C28.4375 13.9062 28.5625 13.9062 28.7031 13.875C28.8281 13.8438 28.9531 13.8125 29.0625 13.7656C29.1562 13.7188 29.25 13.6562 29.3125 13.5938C29.375 13.5312 29.4062 13.4531 29.4062 13.3594C29.3906 13.2656 29.375 13.1094 29.375 12.875C29.375 12.6562 29.375 12.375 29.375 12.0469V9.73438C29.8125 9.71875 30.2188 9.71875 30.625 9.71875C31.0312 9.71875 31.4531 9.71875 31.9062 9.70312C32.0312 9.70312 32.1562 9.70312 32.2812 9.70312C32.3906 9.70312 32.5 9.6875 32.625 9.6875C32.8438 9.6875 33.0156 9.60938 33.125 9.4375C33.2188 9.28125 33.2812 9.09375 33.2812 8.875C33.2812 8.67188 33.2188 8.48438 33.1094 8.29688C32.9844 8.125 32.8281 8.04688 32.6094 8.04688C32.2656 8.07812 31.8906 8.09375 31.4531 8.09375C31.0156 8.09375 30.5781 8.09375 30.1406 8.09375C29.9844 8.09375 29.8594 8.10938 29.7344 8.10938C29.6094 8.10938 29.5 8.10938 29.375 8.10938C29.375 7.85938 29.375 7.64062 29.375 7.46875C29.375 7.29688 29.3906 7.10938 29.3906 6.90625V6.125C29.8438 6.10938 30.2656 6.10938 30.6562 6.10938C31.0469 6.10938 31.4688 6.10938 31.9219 6.09375C32.0156 6.09375 32.125 6.09375 32.2344 6.09375C32.3281 6.09375 32.4219 6.07812 32.5156 6.07812C32.7344 6.07812 32.9062 6 33.0156 5.82812C33.125 5.67188 33.1875 5.48438 33.1875 5.26562C33.1875 5.17188 33.1719 5.0625 33.1406 4.96875C33.1094 4.875 33.0625 4.78125 33 4.70312C32.9375 4.64062 32.875 4.57812 32.7969 4.53125C32.7031 4.48438 32.6094 4.46875 32.5156 4.46875C32.1562 4.5 31.7656 4.51562 31.3281 4.51562C30.8906 4.51562 30.4375 4.51562 30 4.51562C29.8438 4.51562 29.7031 4.53125 29.5469 4.53125C29.3906 4.53125 29.2344 4.53125 29.0938 4.53125C29.0312 4.48438 28.9375 4.45312 28.8281 4.4375C28.7188 4.4375 28.5938 4.42188 28.4531 4.42188C28.1875 4.42188 27.9531 4.46875 27.7344 4.54688C27.5156 4.625 27.4062 4.73438 27.4062 4.89062ZM34.7969 10.8438C34.6719 10.8438 34.5312 10.8594 34.4062 10.8906C34.2656 10.9219 34.1406 10.9531 34.0312 10.9844C33.9219 11.0312 33.8281 11.0781 33.7656 11.1406C33.6875 11.2031 33.6562 11.25 33.6562 11.3125C33.6562 11.5938 33.7188 11.875 33.8125 12.1719C33.9062 12.4844 34.0625 12.75 34.2812 13C34.4844 13.25 34.7656 13.4688 35.1094 13.625C35.4531 13.7969 35.875 13.875 36.3906 13.875C36.8438 13.875 37.2344 13.8125 37.5781 13.6562C37.9219 13.5 38.2031 13.2969 38.4219 13.0469C38.6406 12.7969 38.8125 12.4844 38.9219 12.1406C39.0156 11.7969 39.0625 11.4062 39.0625 11V5.46875C39.0625 5.375 39.0312 5.26562 38.9844 5.14062C38.9219 5.01562 38.8594 4.90625 38.7656 4.8125C38.6719 4.71875 38.5625 4.625 38.4375 4.5625C38.3125 4.5 38.1719 4.46875 38.0156 4.46875C37.875 4.46875 37.7031 4.48438 37.4844 4.48438C37.2656 4.48438 37.0312 4.5 36.7969 4.5C36.5469 4.5 36.3125 4.51562 36.0938 4.51562C35.875 4.51562 35.6875 4.51562 35.5625 4.51562C35.4062 4.51562 35.2656 4.53125 35.125 4.53125C34.9844 4.53125 34.8438 4.53125 34.7031 4.53125C34.4844 4.53125 34.3281 4.60938 34.2344 4.76562C34.1406 4.92188 34.0938 5.10938 34.0938 5.29688C34.0938 5.51562 34.1406 5.70312 34.2656 5.875C34.3906 6.04688 34.5312 6.14062 34.7188 6.14062C35 6.125 35.3438 6.10938 35.75 6.10938C36.1406 6.10938 36.5 6.10938 36.8281 6.09375H37.0781C37.0781 6.375 37.0938 6.65625 37.0938 6.95312V10.8906C37.0938 11.375 37.0312 11.75 36.9062 12C36.7812 12.2656 36.6094 12.3906 36.3906 12.3906C35.8906 12.3906 35.625 11.9844 35.5625 11.1562C35.5469 11.0469 35.4688 10.9688 35.3281 10.9219C35.1719 10.875 35 10.8438 34.7969 10.8438Z" fill="white"/>
</svg>
