<svg width="52" height="19" viewBox="0 0 52 19" fill="none" xmlns="http://www.w3.org/2000/svg">
<rect width="52" height="19" rx="9.5" fill="#F2A75A"/>
<path d="M12.4766 4.89062V6.45312C12.4766 6.85938 12.4766 7.3125 12.4766 7.8125C12.4766 8.3125 12.4922 8.82812 12.4922 9.32812V13.4531C12.4922 13.6094 12.5703 13.7344 12.7578 13.7969C12.9297 13.875 13.1328 13.9062 13.3828 13.9062C13.4766 13.9062 13.5859 13.9062 13.6953 13.8906C13.8047 13.8906 13.9141 13.8594 14.0078 13.8125C14.4766 13.7969 15.0078 13.7812 15.5703 13.7656C16.1328 13.7656 16.6641 13.75 17.1953 13.7344H17.7422C17.9609 13.7344 18.1328 13.6562 18.2422 13.5C18.3359 13.3438 18.3984 13.1562 18.3984 12.9531C18.3984 12.75 18.3359 12.5625 18.2266 12.375C18.1016 12.2031 17.9453 12.125 17.7266 12.1406C17.3828 12.1719 16.9922 12.1875 16.5547 12.1875C16.1172 12.1875 15.6641 12.1875 15.2266 12.1875C15.0703 12.1875 14.9453 12.2031 14.8203 12.2031C14.6953 12.2031 14.5859 12.2031 14.4609 12.2031C14.4453 11.8438 14.4453 11.4531 14.4453 11.0312V9.625C14.9609 9.625 15.4297 9.60938 15.8359 9.60938C16.2422 9.60938 16.7109 9.59375 17.2109 9.57812C17.4297 9.57812 17.5859 9.5 17.6953 9.34375C17.8047 9.1875 17.8672 9 17.8672 8.78125C17.8672 8.6875 17.8516 8.57812 17.8203 8.48438C17.7891 8.39062 17.7422 8.29688 17.6797 8.21875C17.6172 8.15625 17.5547 8.09375 17.4766 8.04688C17.3828 8 17.2891 7.98438 17.1953 7.98438C16.8516 8.01562 16.5078 8.03125 16.1484 8.03125C15.7734 8.03125 15.4141 8.03125 15.0547 8.03125C14.9453 8.03125 14.8359 8.04688 14.7422 8.04688C14.6484 8.04688 14.5391 8.04688 14.4453 8.04688C14.4453 7.79688 14.4453 7.57812 14.4453 7.40625C14.4453 7.25 14.4609 7.0625 14.4609 6.85938V6.10938C14.9141 6.09375 15.3359 6.09375 15.7266 6.09375C16.1172 6.09375 16.5391 6.09375 16.9922 6.07812C17.0859 6.07812 17.1953 6.07812 17.3047 6.07812C17.3984 6.07812 17.5078 6.0625 17.6016 6.0625C17.8203 6.0625 17.9766 5.98438 18.0859 5.82812C18.1953 5.67188 18.2578 5.48438 18.2578 5.26562C18.2578 5.17188 18.2422 5.0625 18.2109 4.96875C18.1797 4.875 18.1328 4.78125 18.0703 4.70312C18.0078 4.64062 17.9453 4.57812 17.8672 4.53125C17.7734 4.48438 17.6797 4.46875 17.5859 4.46875C17.2422 4.5 16.8359 4.51562 16.3984 4.51562C15.9609 4.51562 15.5078 4.51562 15.0703 4.51562C14.9141 4.51562 14.7734 4.53125 14.6172 4.53125C14.4609 4.53125 14.3047 4.53125 14.1641 4.53125C14.1016 4.48438 14.0078 4.45312 13.8984 4.4375C13.7891 4.4375 13.6641 4.42188 13.5234 4.42188C13.2578 4.42188 13.0234 4.46875 12.8047 4.54688C12.5859 4.625 12.4766 4.73438 12.4766 4.89062ZM24.0078 4.89062V6.01562C24.0078 6.51562 24.0078 7.10938 24.0078 7.76562C24.0078 8.42188 24.0234 9.09375 24.0234 9.78125C23.8672 9.5625 23.7422 9.34375 23.6172 9.14062C23.4922 8.9375 23.3516 8.73438 23.2266 8.51562C23.1016 8.3125 22.9609 8.09375 22.8203 7.85938C22.6641 7.625 22.5078 7.35938 22.3359 7.07812C21.9922 6.54688 21.6953 6.0625 21.4141 5.625C21.1328 5.1875 20.9453 4.875 20.8359 4.65625C20.7109 4.5 20.4766 4.42188 20.1641 4.42188C19.9141 4.42188 19.6953 4.46875 19.4766 4.5625C19.2578 4.65625 19.1484 4.79688 19.1484 4.96875V6.53125C19.1484 6.9375 19.1484 7.39062 19.1484 7.875C19.1484 8.375 19.1641 8.875 19.1641 9.375V13.4531C19.1641 13.6094 19.2422 13.7188 19.4297 13.7969C19.6172 13.875 19.8203 13.9062 20.0547 13.9062C20.3047 13.9062 20.5391 13.8594 20.7734 13.75C20.9922 13.6562 21.1172 13.5156 21.1484 13.3594C21.1328 13.2188 21.1172 12.8906 21.1172 12.3594C21.1172 11.8438 21.1172 11.25 21.1172 10.5625C21.1172 10.2188 21.1172 9.875 21.1172 9.53125C21.1172 9.1875 21.1328 8.84375 21.1328 8.46875C21.4141 8.90625 21.7109 9.39062 22.0391 9.89062C22.3516 10.4062 22.6641 10.9062 22.9766 11.3906C23.2734 11.875 23.5547 12.3125 23.8047 12.7188C24.0547 13.125 24.2422 13.4531 24.3984 13.6719H24.3828C24.4297 13.7656 24.5078 13.8125 24.6328 13.8438C24.7422 13.875 24.8828 13.8906 25.0391 13.8906C25.1484 13.8906 25.2578 13.8906 25.3828 13.8594C25.4922 13.8281 25.6016 13.7969 25.6953 13.75C25.7891 13.7031 25.8516 13.6406 25.9141 13.5781C25.9766 13.5156 26.0078 13.4531 26.0078 13.3594C25.9766 13.2344 25.9766 12.9531 25.9766 12.5469V9.26562C25.9766 8.625 25.9766 8 25.9922 7.40625V4.85938C25.9922 4.70312 25.8984 4.59375 25.7109 4.53125C25.5234 4.46875 25.3203 4.42188 25.0859 4.42188C24.8047 4.42188 24.5547 4.46875 24.3359 4.54688C24.1172 4.625 24.0078 4.73438 24.0078 4.89062ZM27.0234 4.89062V6.45312C27.0234 6.85938 27.0234 7.3125 27.0234 7.8125C27.0234 8.3125 27.0391 8.82812 27.0391 9.32812V13.4531C27.0391 13.6094 27.1172 13.7188 27.3047 13.7969C27.4766 13.875 27.6797 13.9062 27.9297 13.9062C28.0547 13.9062 28.1797 13.9062 28.3203 13.875C28.4453 13.8438 28.5703 13.8125 28.6797 13.7656C28.7734 13.7188 28.8672 13.6562 28.9297 13.5938C28.9922 13.5312 29.0234 13.4531 29.0234 13.3594C29.0078 13.2656 28.9922 13.1094 28.9922 12.875C28.9922 12.6562 28.9922 12.375 28.9922 12.0469V9.73438C29.4297 9.71875 29.8359 9.71875 30.2422 9.71875C30.6484 9.71875 31.0703 9.71875 31.5234 9.70312C31.6484 9.70312 31.7734 9.70312 31.8984 9.70312C32.0078 9.70312 32.1172 9.6875 32.2422 9.6875C32.4609 9.6875 32.6328 9.60938 32.7422 9.4375C32.8359 9.28125 32.8984 9.09375 32.8984 8.875C32.8984 8.67188 32.8359 8.48438 32.7266 8.29688C32.6016 8.125 32.4453 8.04688 32.2266 8.04688C31.8828 8.07812 31.5078 8.09375 31.0703 8.09375C30.6328 8.09375 30.1953 8.09375 29.7578 8.09375C29.6016 8.09375 29.4766 8.10938 29.3516 8.10938C29.2266 8.10938 29.1172 8.10938 28.9922 8.10938C28.9922 7.85938 28.9922 7.64062 28.9922 7.46875C28.9922 7.29688 29.0078 7.10938 29.0078 6.90625V6.125C29.4609 6.10938 29.8828 6.10938 30.2734 6.10938C30.6641 6.10938 31.0859 6.10938 31.5391 6.09375C31.6328 6.09375 31.7422 6.09375 31.8516 6.09375C31.9453 6.09375 32.0391 6.07812 32.1328 6.07812C32.3516 6.07812 32.5234 6 32.6328 5.82812C32.7422 5.67188 32.8047 5.48438 32.8047 5.26562C32.8047 5.17188 32.7891 5.0625 32.7578 4.96875C32.7266 4.875 32.6797 4.78125 32.6172 4.70312C32.5547 4.64062 32.4922 4.57812 32.4141 4.53125C32.3203 4.48438 32.2266 4.46875 32.1328 4.46875C31.7734 4.5 31.3828 4.51562 30.9453 4.51562C30.5078 4.51562 30.0547 4.51562 29.6172 4.51562C29.4609 4.51562 29.3203 4.53125 29.1641 4.53125C29.0078 4.53125 28.8516 4.53125 28.7109 4.53125C28.6484 4.48438 28.5547 4.45312 28.4453 4.4375C28.3359 4.4375 28.2109 4.42188 28.0703 4.42188C27.8047 4.42188 27.5703 4.46875 27.3516 4.54688C27.1328 4.625 27.0234 4.73438 27.0234 4.89062ZM33.6484 4.89062V6.45312C33.6484 6.85938 33.6484 7.3125 33.6484 7.8125C33.6484 8.3125 33.6641 8.82812 33.6641 9.32812V13.4531C33.6641 13.6094 33.7422 13.7188 33.9297 13.7969C34.1016 13.875 34.3047 13.9062 34.5547 13.9062C34.6797 13.9062 34.8047 13.9062 34.9453 13.875C35.0703 13.8438 35.1953 13.8125 35.3047 13.7656C35.3984 13.7188 35.4922 13.6562 35.5547 13.5938C35.6172 13.5312 35.6484 13.4531 35.6484 13.3594C35.6328 13.2812 35.6172 13.125 35.6172 12.9062C35.6172 12.6875 35.6172 12.4375 35.6172 12.125V9.92188C35.6797 9.9375 35.7578 9.9375 35.8203 9.9375H36.0547C36.1328 9.9375 36.2109 9.9375 36.2891 9.9375C36.3516 9.9375 36.4297 9.92188 36.5234 9.92188C37.0547 9.90625 37.5078 9.8125 37.9141 9.625C38.3047 9.4375 38.6328 9.21875 38.8984 8.9375C39.1484 8.65625 39.3516 8.35938 39.4766 8.04688C39.6016 7.73438 39.6797 7.42188 39.6797 7.10938C39.6797 6.70312 39.6016 6.32812 39.4453 6C39.2891 5.6875 39.0547 5.40625 38.7734 5.17188C38.4766 4.95312 38.1328 4.76562 37.7266 4.64062C37.3203 4.51562 36.8828 4.45312 36.3984 4.42188C36.2109 4.42188 36.0234 4.42188 35.8047 4.4375C35.5859 4.45312 35.3984 4.46875 35.2266 4.48438C35.1328 4.45312 35.0547 4.4375 34.9766 4.4375C34.8984 4.4375 34.8047 4.42188 34.7109 4.42188C34.4453 4.42188 34.1953 4.46875 33.9766 4.54688C33.7578 4.625 33.6484 4.73438 33.6484 4.89062ZM35.6328 5.92188C35.7578 5.90625 35.8984 5.89062 36.0234 5.89062C36.1484 5.89062 36.2578 5.90625 36.3672 5.90625C36.7891 5.9375 37.1172 6.03125 37.3516 6.21875C37.5703 6.40625 37.6953 6.6875 37.6953 7.07812C37.6953 7.46875 37.5859 7.78125 37.3672 8.03125C37.1484 8.28125 36.8516 8.42188 36.4922 8.4375C36.3984 8.4375 36.3203 8.45312 36.2422 8.45312C36.1641 8.45312 36.0859 8.45312 36.0234 8.45312H35.8203C35.7578 8.45312 35.6797 8.45312 35.6172 8.4375C35.6172 8.10938 35.6172 7.82812 35.6172 7.57812C35.6172 7.34375 35.6328 7.09375 35.6328 6.84375V5.92188Z" fill="white"/>
</svg>
