<svg width="52" height="19" viewBox="0 0 52 19" fill="none" xmlns="http://www.w3.org/2000/svg">
<rect width="52" height="19" rx="9.5" fill="#FF5454"/>
<path d="M15.7969 13.5938C15.7969 13.7344 15.8281 13.8594 15.8906 13.9844C15.9531 14.1094 16.0469 14.2031 16.1719 14.2969C16.2812 14.3906 16.4062 14.4688 16.5625 14.5156C16.7031 14.5781 16.8438 14.5938 17 14.5938C17.3281 14.5938 17.6094 14.5 17.8594 14.2969C18.0938 14.1094 18.2188 13.8438 18.2188 13.5156C18.2188 13.2344 18.0938 13.0156 17.8438 12.8281C17.5938 12.6562 17.3125 12.5625 17.0156 12.5625C16.7031 12.5625 16.4219 12.6562 16.1719 12.8281C15.9219 13.0156 15.7969 13.2656 15.7969 13.5938ZM14.8906 5.0625C14.7969 5.1875 14.7656 5.35938 14.8125 5.54688C14.8438 5.75 14.9375 5.92188 15.0781 6.0625C15.2031 6.21875 15.375 6.3125 15.5781 6.34375C15.7812 6.375 15.9844 6.29688 16.2031 6.09375C16.2969 6 16.4531 5.90625 16.6719 5.79688C16.875 5.70312 17.0469 5.64062 17.1875 5.64062C17.3906 5.64062 17.5625 5.73438 17.7188 5.90625C17.8594 6.07812 17.9375 6.375 17.9375 6.78125C17.9375 6.90625 17.8906 7.0625 17.8281 7.21875C17.7656 7.375 17.6719 7.54688 17.5781 7.71875C17.4844 7.89062 17.3594 8.0625 17.2344 8.25C17.1094 8.4375 16.9844 8.60938 16.8594 8.78125C16.7969 8.875 16.7344 8.96875 16.6719 9.0625C16.5938 9.15625 16.5312 9.25 16.4688 9.32812C16.2812 9.60938 16.1719 9.92188 16.1094 10.2656C16.0469 10.6094 16.0156 10.9219 16 11.1875C15.9844 11.3281 16 11.4531 16.0625 11.5469C16.1094 11.6406 16.1875 11.7344 16.2812 11.7969C16.375 11.8594 16.4688 11.9062 16.5938 11.9375C16.7188 11.9688 16.8438 11.9844 16.9688 11.9844C17.1562 11.9844 17.3281 11.9531 17.4844 11.875C17.625 11.8125 17.7188 11.7031 17.7656 11.5625C17.7812 11.5312 17.7969 11.4531 17.7969 11.3594C17.7969 11.2656 17.8125 11.2031 17.8281 11.1406C17.8594 10.9375 17.8906 10.7188 17.9375 10.5C17.9844 10.2812 18.0625 10.1094 18.1875 9.95312H18.1719L18.3125 9.75C18.4844 9.5 18.6562 9.25 18.8438 8.98438C19.0156 8.73438 19.1719 8.46875 19.3281 8.21875C19.4688 7.96875 19.5938 7.70312 19.6875 7.45312C19.7812 7.20312 19.8281 6.96875 19.8281 6.75C19.8281 5.89062 19.5938 5.23438 19.1406 4.78125C18.6875 4.34375 18.0312 4.10938 17.1719 4.10938C16.7344 4.10938 16.2969 4.20312 15.875 4.375C15.4531 4.5625 15.125 4.78125 14.8906 5.0625ZM21.5469 13.5938C21.5469 13.7344 21.5781 13.8594 21.6406 13.9844C21.7031 14.1094 21.7969 14.2031 21.9219 14.2969C22.0312 14.3906 22.1562 14.4688 22.3125 14.5156C22.4531 14.5781 22.5938 14.5938 22.75 14.5938C23.0781 14.5938 23.3594 14.5 23.6094 14.2969C23.8438 14.1094 23.9688 13.8438 23.9688 13.5156C23.9688 13.2344 23.8438 13.0156 23.5938 12.8281C23.3438 12.6562 23.0625 12.5625 22.7656 12.5625C22.4531 12.5625 22.1719 12.6562 21.9219 12.8281C21.6719 13.0156 21.5469 13.2656 21.5469 13.5938ZM20.6406 5.0625C20.5469 5.1875 20.5156 5.35938 20.5625 5.54688C20.5938 5.75 20.6875 5.92188 20.8281 6.0625C20.9531 6.21875 21.125 6.3125 21.3281 6.34375C21.5312 6.375 21.7344 6.29688 21.9531 6.09375C22.0469 6 22.2031 5.90625 22.4219 5.79688C22.625 5.70312 22.7969 5.64062 22.9375 5.64062C23.1406 5.64062 23.3125 5.73438 23.4688 5.90625C23.6094 6.07812 23.6875 6.375 23.6875 6.78125C23.6875 6.90625 23.6406 7.0625 23.5781 7.21875C23.5156 7.375 23.4219 7.54688 23.3281 7.71875C23.2344 7.89062 23.1094 8.0625 22.9844 8.25C22.8594 8.4375 22.7344 8.60938 22.6094 8.78125C22.5469 8.875 22.4844 8.96875 22.4219 9.0625C22.3438 9.15625 22.2812 9.25 22.2188 9.32812C22.0312 9.60938 21.9219 9.92188 21.8594 10.2656C21.7969 10.6094 21.7656 10.9219 21.75 11.1875C21.7344 11.3281 21.75 11.4531 21.8125 11.5469C21.8594 11.6406 21.9375 11.7344 22.0312 11.7969C22.125 11.8594 22.2188 11.9062 22.3438 11.9375C22.4688 11.9688 22.5938 11.9844 22.7188 11.9844C22.9062 11.9844 23.0781 11.9531 23.2344 11.875C23.375 11.8125 23.4688 11.7031 23.5156 11.5625C23.5312 11.5312 23.5469 11.4531 23.5469 11.3594C23.5469 11.2656 23.5625 11.2031 23.5781 11.1406C23.6094 10.9375 23.6406 10.7188 23.6875 10.5C23.7344 10.2812 23.8125 10.1094 23.9375 9.95312H23.9219L24.0625 9.75C24.2344 9.5 24.4062 9.25 24.5938 8.98438C24.7656 8.73438 24.9219 8.46875 25.0781 8.21875C25.2188 7.96875 25.3438 7.70312 25.4375 7.45312C25.5312 7.20312 25.5781 6.96875 25.5781 6.75C25.5781 5.89062 25.3438 5.23438 24.8906 4.78125C24.4375 4.34375 23.7812 4.10938 22.9219 4.10938C22.4844 4.10938 22.0469 4.20312 21.625 4.375C21.2031 4.5625 20.875 4.78125 20.6406 5.0625ZM27.2969 13.5938C27.2969 13.7344 27.3281 13.8594 27.3906 13.9844C27.4531 14.1094 27.5469 14.2031 27.6719 14.2969C27.7812 14.3906 27.9062 14.4688 28.0625 14.5156C28.2031 14.5781 28.3438 14.5938 28.5 14.5938C28.8281 14.5938 29.1094 14.5 29.3594 14.2969C29.5938 14.1094 29.7188 13.8438 29.7188 13.5156C29.7188 13.2344 29.5938 13.0156 29.3438 12.8281C29.0938 12.6562 28.8125 12.5625 28.5156 12.5625C28.2031 12.5625 27.9219 12.6562 27.6719 12.8281C27.4219 13.0156 27.2969 13.2656 27.2969 13.5938ZM26.3906 5.0625C26.2969 5.1875 26.2656 5.35938 26.3125 5.54688C26.3438 5.75 26.4375 5.92188 26.5781 6.0625C26.7031 6.21875 26.875 6.3125 27.0781 6.34375C27.2812 6.375 27.4844 6.29688 27.7031 6.09375C27.7969 6 27.9531 5.90625 28.1719 5.79688C28.375 5.70312 28.5469 5.64062 28.6875 5.64062C28.8906 5.64062 29.0625 5.73438 29.2188 5.90625C29.3594 6.07812 29.4375 6.375 29.4375 6.78125C29.4375 6.90625 29.3906 7.0625 29.3281 7.21875C29.2656 7.375 29.1719 7.54688 29.0781 7.71875C28.9844 7.89062 28.8594 8.0625 28.7344 8.25C28.6094 8.4375 28.4844 8.60938 28.3594 8.78125C28.2969 8.875 28.2344 8.96875 28.1719 9.0625C28.0938 9.15625 28.0312 9.25 27.9688 9.32812C27.7812 9.60938 27.6719 9.92188 27.6094 10.2656C27.5469 10.6094 27.5156 10.9219 27.5 11.1875C27.4844 11.3281 27.5 11.4531 27.5625 11.5469C27.6094 11.6406 27.6875 11.7344 27.7812 11.7969C27.875 11.8594 27.9688 11.9062 28.0938 11.9375C28.2188 11.9688 28.3438 11.9844 28.4688 11.9844C28.6562 11.9844 28.8281 11.9531 28.9844 11.875C29.125 11.8125 29.2188 11.7031 29.2656 11.5625C29.2812 11.5312 29.2969 11.4531 29.2969 11.3594C29.2969 11.2656 29.3125 11.2031 29.3281 11.1406C29.3594 10.9375 29.3906 10.7188 29.4375 10.5C29.4844 10.2812 29.5625 10.1094 29.6875 9.95312H29.6719L29.8125 9.75C29.9844 9.5 30.1562 9.25 30.3438 8.98438C30.5156 8.73438 30.6719 8.46875 30.8281 8.21875C30.9688 7.96875 31.0938 7.70312 31.1875 7.45312C31.2812 7.20312 31.3281 6.96875 31.3281 6.75C31.3281 5.89062 31.0938 5.23438 30.6406 4.78125C30.1875 4.34375 29.5312 4.10938 28.6719 4.10938C28.2344 4.10938 27.7969 4.20312 27.375 4.375C26.9531 4.5625 26.625 4.78125 26.3906 5.0625ZM33.0469 13.5938C33.0469 13.7344 33.0781 13.8594 33.1406 13.9844C33.2031 14.1094 33.2969 14.2031 33.4219 14.2969C33.5312 14.3906 33.6562 14.4688 33.8125 14.5156C33.9531 14.5781 34.0938 14.5938 34.25 14.5938C34.5781 14.5938 34.8594 14.5 35.1094 14.2969C35.3438 14.1094 35.4688 13.8438 35.4688 13.5156C35.4688 13.2344 35.3438 13.0156 35.0938 12.8281C34.8438 12.6562 34.5625 12.5625 34.2656 12.5625C33.9531 12.5625 33.6719 12.6562 33.4219 12.8281C33.1719 13.0156 33.0469 13.2656 33.0469 13.5938ZM32.1406 5.0625C32.0469 5.1875 32.0156 5.35938 32.0625 5.54688C32.0938 5.75 32.1875 5.92188 32.3281 6.0625C32.4531 6.21875 32.625 6.3125 32.8281 6.34375C33.0312 6.375 33.2344 6.29688 33.4531 6.09375C33.5469 6 33.7031 5.90625 33.9219 5.79688C34.125 5.70312 34.2969 5.64062 34.4375 5.64062C34.6406 5.64062 34.8125 5.73438 34.9688 5.90625C35.1094 6.07812 35.1875 6.375 35.1875 6.78125C35.1875 6.90625 35.1406 7.0625 35.0781 7.21875C35.0156 7.375 34.9219 7.54688 34.8281 7.71875C34.7344 7.89062 34.6094 8.0625 34.4844 8.25C34.3594 8.4375 34.2344 8.60938 34.1094 8.78125C34.0469 8.875 33.9844 8.96875 33.9219 9.0625C33.8438 9.15625 33.7812 9.25 33.7188 9.32812C33.5312 9.60938 33.4219 9.92188 33.3594 10.2656C33.2969 10.6094 33.2656 10.9219 33.25 11.1875C33.2344 11.3281 33.25 11.4531 33.3125 11.5469C33.3594 11.6406 33.4375 11.7344 33.5312 11.7969C33.625 11.8594 33.7188 11.9062 33.8438 11.9375C33.9688 11.9688 34.0938 11.9844 34.2188 11.9844C34.4062 11.9844 34.5781 11.9531 34.7344 11.875C34.875 11.8125 34.9688 11.7031 35.0156 11.5625C35.0312 11.5312 35.0469 11.4531 35.0469 11.3594C35.0469 11.2656 35.0625 11.2031 35.0781 11.1406C35.1094 10.9375 35.1406 10.7188 35.1875 10.5C35.2344 10.2812 35.3125 10.1094 35.4375 9.95312H35.4219L35.5625 9.75C35.7344 9.5 35.9062 9.25 36.0938 8.98438C36.2656 8.73438 36.4219 8.46875 36.5781 8.21875C36.7188 7.96875 36.8438 7.70312 36.9375 7.45312C37.0312 7.20312 37.0781 6.96875 37.0781 6.75C37.0781 5.89062 36.8438 5.23438 36.3906 4.78125C35.9375 4.34375 35.2812 4.10938 34.4219 4.10938C33.9844 4.10938 33.5469 4.20312 33.125 4.375C32.7031 4.5625 32.375 4.78125 32.1406 5.0625Z" fill="white"/>
</svg>
