<svg width="36" height="36" viewBox="0 0 36 36" fill="none" xmlns="http://www.w3.org/2000/svg">
<circle cx="18" cy="18" r="18" fill="#FBF7F7"/>
<path d="M12.5518 18.0218C12.5518 18.0218 9.01926 15.1896 8.54463 18.4887C8.00774 22.2546 10.5521 22.6281 10.5521 22.6281C10.3706 22.7365 10.2205 22.8905 10.1168 23.0747C10.0131 23.259 9.9593 23.4671 9.96076 23.6785C9.91407 26.9621 13.3299 28.8684 17.695 28.5183C18.4731 28.456 18.4731 27.7402 19.3912 27.4523C24.8379 25.5615 26.394 23.165 27.1721 19.1967C27.8102 15.812 26.254 10.5444 20.8073 9.99969C13.7345 9.29163 12.4351 11.0657 11.3769 13.54C9.96076 16.8469 12.5518 18.0218 12.5518 18.0218Z" fill="#FF5454"/>
<path d="M25.4751 18.4031C25.4751 18.4031 26.2532 19.9593 23.9189 22.4414" stroke="white" stroke-width="1.5" stroke-miterlimit="10" stroke-linecap="round"/>
<path d="M21.5847 24.6278C22.0145 24.6278 22.3628 24.2794 22.3628 23.8497C22.3628 23.42 22.0145 23.0716 21.5847 23.0716C21.155 23.0716 20.8066 23.42 20.8066 23.8497C20.8066 24.2794 21.155 24.6278 21.5847 24.6278Z" fill="white"/>
<path d="M17.5262 29.4752C14.8747 31.4138 12.1644 30.7768 10.4587 28.3132C10.3251 28.1203 10.6226 27.903 10.8084 28.0462C12.8301 29.6041 15.4124 29.5904 17.3475 29.1323C17.5581 29.0824 17.7009 29.3475 17.5262 29.4752Z" fill="#333333"/>
<path d="M12.6916 18.9519C10.1198 17.1456 10.0742 14.7251 11.8168 12.4474C11.9614 12.2585 12.2276 12.4617 12.1272 12.6774C10.8578 15.4022 11.8196 17.1903 12.9263 18.6963C13.0545 18.8707 12.8687 19.0763 12.6916 18.9519Z" fill="#333333"/>
<path d="M27.0632 4.20105L21.7668 8.12286L17.4811 5.13095L18.2688 9.76785L14.0576 11.8644L19.3408 13.4194C18.6939 14.7779 18.128 17.1121 17.9259 18.1094L21.403 15.2388L23.3437 19.201L24.6375 14.228L29.5296 10.2657L25.2439 9.98271L27.0632 4.20105Z" fill="#F9C02E"/>
</svg>
