<svg width="36" height="36" viewBox="0 0 36 36" fill="none" xmlns="http://www.w3.org/2000/svg">
<circle cx="18" cy="18" r="18" fill="#FBF7F7"/>
<path d="M21.3092 15.6235H8.55629C8.37003 15.6225 8.18541 15.6584 8.01314 15.7292C7.84086 15.8 7.68435 15.9043 7.55264 16.036C7.42094 16.1677 7.31665 16.3242 7.24585 16.4965C7.17505 16.6688 7.13913 16.8534 7.14016 17.0396V26.2367C7.14016 26.4223 7.17684 26.606 7.24811 26.7774C7.31937 26.9488 7.42379 27.1044 7.5554 27.2353C7.687 27.3662 7.84317 27.4697 8.01494 27.54C8.18671 27.6104 8.37069 27.646 8.55629 27.645H13.0381L14.8199 29.668C14.8857 29.7341 14.9639 29.7866 15.0501 29.8224C15.1362 29.8582 15.2285 29.8766 15.3218 29.8766C15.4151 29.8766 15.5074 29.8582 15.5935 29.8224C15.6797 29.7866 15.7579 29.7341 15.8237 29.668L17.6055 27.645H21.2858C21.4714 27.646 21.6554 27.6104 21.8272 27.54C21.999 27.4697 22.1551 27.3662 22.2867 27.2353C22.4183 27.1044 22.5228 26.9488 22.594 26.7774C22.6653 26.606 22.702 26.4223 22.702 26.2367V17.0396C22.7041 16.6674 22.5587 16.3096 22.2978 16.0442C22.0368 15.7789 21.6814 15.6276 21.3092 15.6235Z" fill="#F9C02E"/>
<path d="M16.0916 13.2014C16.0916 13.2014 13.0347 10.7505 12.624 13.6054C12.1594 16.8643 14.3612 17.1875 14.3612 17.1875C14.2041 17.2813 14.0742 17.4145 13.9845 17.5739C13.8947 17.7334 13.8482 17.9135 13.8494 18.0964C13.809 20.9379 16.7649 22.5875 20.5423 22.2845C21.2156 22.2307 21.2156 21.6112 22.0101 21.3621C26.7234 19.7259 28.0701 17.6521 28.7434 14.2181C29.2955 11.2891 27.9489 6.73069 23.2356 6.25936C17.1151 5.64664 15.9906 7.18182 15.0749 9.323C13.8494 12.1846 16.0916 13.2014 16.0916 13.2014Z" fill="#FF5454"/>
<path d="M27.2749 13.5313C27.2749 13.5313 27.9482 14.878 25.9282 17.0259" stroke="white" stroke-width="1.5" stroke-miterlimit="10" stroke-linecap="round"/>
<path d="M23.9082 18.9179C24.2801 18.9179 24.5815 18.6164 24.5815 18.2446C24.5815 17.8727 24.2801 17.5712 23.9082 17.5712C23.5363 17.5712 23.2349 17.8727 23.2349 18.2446C23.2349 18.6164 23.5363 18.9179 23.9082 18.9179Z" fill="white"/>
<path d="M22.4002 9.91237C22.5214 9.87042 22.649 9.84992 22.7773 9.85177C22.8847 9.84836 22.9919 9.86432 23.0937 9.8989C23.188 9.9393 23.2351 9.99317 23.2351 10.074V11.36C23.2351 11.6563 23.2351 11.9727 23.2351 12.2959V13.9523C23.2254 14.0891 23.2254 14.2263 23.2351 14.3631C23.2355 14.3844 23.2316 14.4055 23.2235 14.4252C23.2154 14.4449 23.2033 14.4627 23.188 14.4775C23.1534 14.5091 23.1149 14.5363 23.0735 14.5583C23.0238 14.5814 22.9719 14.5994 22.9186 14.6122C22.8605 14.6188 22.8018 14.6188 22.7436 14.6122C22.6768 14.6239 22.6084 14.6239 22.5416 14.6122C22.516 14.6079 22.4914 14.5986 22.4695 14.5847C22.4475 14.5708 22.4285 14.5527 22.4137 14.5314C22.3396 14.4102 22.2386 14.2553 22.1174 14.0466L21.6999 13.3733L21.2421 12.6124L20.7775 11.8919V12.4239C20.7775 12.5989 20.7775 12.774 20.7775 12.9491C20.7775 13.2925 20.7775 13.6224 20.7775 13.8581C20.7775 14.0937 20.7775 14.289 20.7775 14.3631C20.7775 14.4371 20.7034 14.5112 20.5889 14.5583C20.4753 14.6121 20.3511 14.6397 20.2253 14.6391C20.1127 14.6456 20.0001 14.6272 19.8954 14.5853C19.8574 14.5762 19.8235 14.5548 19.7991 14.5243C19.7747 14.4938 19.7612 14.456 19.7607 14.4169V12.3565C19.7607 12.1007 19.7607 11.8515 19.7607 11.6024C19.7607 11.3533 19.7607 11.1244 19.7607 10.9291V10.1413C19.7643 10.0935 19.7823 10.048 19.8123 10.0107C19.8424 9.97337 19.8831 9.94612 19.9291 9.93257C20.0399 9.88634 20.1591 9.86342 20.2792 9.86523C20.3403 9.85881 20.402 9.86573 20.4601 9.88549C20.5182 9.90525 20.5714 9.9374 20.6159 9.9797C20.6765 10.0874 20.7707 10.249 20.9121 10.4645L21.37 11.2052L21.6191 11.5957L21.8279 11.9323L22.0231 12.2421L22.2251 12.572C22.2251 12.2219 22.2251 11.8987 22.2251 11.5486V10.1009C22.2319 10.0066 22.2857 9.94603 22.4002 9.91237Z" fill="white"/>
<path d="M20.2924 23.187C18.0936 24.7295 15.8608 24.2364 14.4025 22.2773C14.2624 22.0891 14.5601 21.8649 14.7514 22.0006C16.4304 23.1921 18.5118 23.2001 20.1173 22.8444C20.3286 22.7976 20.4696 23.0628 20.2924 23.187Z" fill="#333333"/>
<path d="M16.1087 13.9318C14.0551 12.4277 13.9744 10.451 15.3152 8.56731C15.4531 8.37347 15.7211 8.57276 15.628 8.79173C14.7026 10.9686 15.4445 12.4402 16.3402 13.6816C16.4668 13.8571 16.2833 14.0597 16.1087 13.9318Z" fill="#333333"/>
</svg>
