<svg width="36" height="36" viewBox="0 0 36 36" fill="none" xmlns="http://www.w3.org/2000/svg">
<circle cx="18" cy="18" r="18" fill="#FBF7F7"/>
<g clip-path="url(#clip0_1206_5957)">
<path d="M15.4912 10.3421C16.2946 6.05763 21.2594 5.48241 23.0741 8.86983C23.082 8.88568 23.0943 8.89899 23.1094 8.90829C23.1245 8.9176 23.1419 8.92253 23.1597 8.92253C23.1774 8.92253 23.1948 8.9176 23.2099 8.90829C23.225 8.89899 23.2373 8.88568 23.2453 8.86983C25.0599 5.48241 30.0041 6.05991 30.8076 10.3444C31.6704 14.9416 26.3222 19.0184 23.1448 19.8379H23.1014C19.9263 19.0207 14.6283 14.9416 15.4912 10.3421Z" fill="#FF5454"/>
<path d="M19.7619 16.051C20.1401 16.051 20.4467 15.7444 20.4467 15.3662C20.4467 14.988 20.1401 14.6814 19.7619 14.6814C19.3837 14.6814 19.0771 14.988 19.0771 15.3662C19.0771 15.7444 19.3837 16.051 19.7619 16.051Z" fill="white"/>
<path d="M17.9015 14.4212C17.72 14.421 17.5459 14.3488 17.4176 14.2203C16.6484 13.4534 15.644 11.3305 17.3309 8.79909C17.4317 8.64807 17.5884 8.54327 17.7664 8.50775C17.9445 8.47222 18.1294 8.50887 18.2805 8.60964C18.4308 8.71043 18.5352 8.86666 18.5707 9.04418C18.6062 9.2217 18.5699 9.40605 18.4699 9.55693C16.9748 11.8008 18.3695 13.2388 18.3832 13.2548C18.5107 13.3831 18.5823 13.5566 18.5823 13.7376C18.5823 13.9185 18.5107 14.092 18.3832 14.2203C18.2554 14.3482 18.0823 14.4204 17.9015 14.4212Z" fill="white"/>
<path d="M25.3332 23.7967C24.9819 23.8655 23.2822 24.4918 21.4597 24.7276C20.5286 24.8656 19.5811 24.8506 18.6547 24.6834C16.5473 24.2364 14.9311 24.1209 14.3146 23.3055C14.0911 23.0083 14.4792 22.7282 15.0736 22.517C16.169 22.124 17.5298 22.0258 18.7014 21.5861C20.2414 21.004 19.6839 19.6211 18.2102 19.8668C16.7364 20.1124 12.8065 20.6036 10.5959 20.6036C8.82005 20.6036 6.09364 22.3451 5.08905 23.0304C4.96378 23.1188 4.84344 23.1998 4.70343 23.276C4.54113 23.3714 4.40685 23.5079 4.31413 23.6718C4.22142 23.8357 4.17355 24.0211 4.17534 24.2093C4.19253 25.1918 4.50202 27.0193 6.45226 27.8102C6.59136 27.865 6.74067 27.8889 6.88994 27.8805C7.0392 27.872 7.18484 27.8312 7.31684 27.761C7.84247 27.4908 8.79057 26.9922 9.61341 26.4961C10.8415 25.7592 13.5434 27.7242 15.9996 28.2154C18.4558 28.7067 23.4247 27.427 25.3332 25.9287C27.475 24.2364 26.5613 23.5511 25.3332 23.7967Z" fill="#F7C8C8"/>
</g>
<defs>
<clipPath id="clip0_1206_5957">
<rect width="27.2026" height="23" fill="white" transform="translate(4.17529 6)"/>
</clipPath>
</defs>
</svg>
