<svg width="66" height="63" viewBox="0 0 66 63" fill="none" xmlns="http://www.w3.org/2000/svg">
<path d="M10.8604 15.1283L17.8504 30.1262L3.38281 35.1785L17.8504 41.2116L7.28416 54.0901L27.0787 50.5037L28.5819 63.0002L43.0468 50.5037L65.9998 58.9737L51.8249 37.2978L65.9998 25.8863L48.8989 23.7127L54.96 9.74735L41.2113 18.5048L32.318 1.10742L28.5819 20.8943L10.8604 15.1283Z" fill="#333333"/>
<path d="M7.47758 14.0209L14.4676 29.0188L0 34.0711L14.4676 40.1041L3.90135 52.9827L23.6959 49.3963L25.1991 61.8928L39.664 49.3963L62.617 57.8663L48.4421 36.1903L62.617 24.7789L45.5161 22.6052L51.5772 8.63993L37.8285 17.3974L28.9352 0L25.1991 19.7869L7.47758 14.0209Z" fill="#FF5454"/>
<path d="M13.2401 19.3554L18.5398 30.7264L7.5708 34.557L19.5668 38.9637L10.5287 48.8954L26.0063 46.1762L27.423 55.7541L38.8854 45.4215L54.7266 51.6211L44.2986 36.1638L56.272 26.4355L42.1051 24.7564L45.4537 15.7154L36.2516 21.9153L29.9988 8.35352L27.423 23.984L13.2401 19.3554Z" fill="white"/>
<path d="M30.2227 28.543L23.7188 29.0117C23.4062 29.0312 23.1719 29.1289 23.0352 29.3242C22.8984 29.5195 22.8398 29.7148 22.8594 29.9102C22.8594 30.1445 22.957 30.3398 23.1133 30.5156C23.2695 30.6914 23.4844 30.7695 23.7773 30.7695H24.1094L24.4609 34.207L23.7578 34.2852C23.5039 34.3242 23.3281 34.4219 23.2109 34.5977C23.0938 34.7734 23.0547 34.9492 23.0742 35.125C23.0742 35.3398 23.1523 35.5352 23.3086 35.6914C23.4648 35.8477 23.6602 35.9258 23.9141 35.9258L30.5352 35.5742C30.8086 35.5547 31.043 35.4766 31.2383 35.3203C31.4336 35.1641 31.5312 34.9883 31.5312 34.7539C31.5312 34.5391 31.4727 34.3242 31.375 34.1094C31.2773 33.9141 31.0625 33.8164 30.7305 33.8359L30.0859 33.8555V30.2812L30.5156 30.2617C30.75 30.2617 30.9453 30.1836 31.0625 29.9883C31.1797 29.793 31.2188 29.5977 31.2188 29.3633C31.1797 29.168 31.1016 28.9727 30.9648 28.7773C30.8086 28.6016 30.5742 28.5234 30.2227 28.543ZM31.5703 43.7969C32.0586 43.7969 32.5469 43.7383 33.0156 43.582C33.4844 43.4453 33.9336 43.2305 34.3242 42.957C34.7148 42.6836 35.0273 42.3516 35.3008 41.9609C35.5547 41.5703 35.7109 41.1211 35.7891 40.6133C35.8477 40.1445 35.7891 39.7344 35.6328 39.3438C35.4766 38.9531 35.2227 38.6211 34.9102 38.3281C34.5977 38.0547 34.207 37.8203 33.7383 37.6641C33.2695 37.5078 32.7812 37.4297 32.2539 37.4297C31.7461 37.4297 31.2383 37.5078 30.7695 37.6445C30.3008 37.8008 29.8711 37.9961 29.4805 38.2695C29.0898 38.543 28.7773 38.875 28.5234 39.2656C28.2695 39.6562 28.1133 40.1055 28.0547 40.6133C27.9766 41.082 28.0156 41.5117 28.1523 41.9023C28.2891 42.293 28.5039 42.625 28.8164 42.8984C29.1289 43.1914 29.5 43.4062 29.9688 43.5625C30.4375 43.7188 30.9648 43.7969 31.5703 43.7969ZM33.5039 31.2383L31.6289 31.4336C31.3164 31.4531 31.082 31.5508 30.9648 31.7461C30.8477 31.9414 30.7891 32.1562 30.8281 32.3711C30.8281 32.6055 30.9258 32.8203 31.1211 32.9961C31.2969 33.1914 31.5508 33.2695 31.8633 33.2305L33.5625 33.0938L33.6406 36.3945C33.6406 36.6094 33.7773 36.7461 34.0508 36.8047C34.3242 36.8828 34.6367 36.8828 34.9883 36.8438C35.2812 36.8242 35.5742 36.7656 35.8477 36.668C36.1211 36.5703 36.2578 36.4531 36.2578 36.3164L36.1016 28.6211C36.1016 28.4258 35.9453 28.3086 35.6523 28.25C35.3594 28.1914 35.0469 28.1719 34.7344 28.1914C34.4023 28.2305 34.1094 28.3086 33.8555 28.4062C33.6016 28.5234 33.4844 28.6406 33.4844 28.7773L33.5039 31.2383ZM32.0391 39.1094C32.3906 39.1094 32.6836 39.2656 32.8789 39.5586C33.0742 39.8711 33.1719 40.2617 33.1523 40.7305C33.1133 41.1211 32.9961 41.4531 32.7617 41.7461C32.5273 42.0586 32.2148 42.1953 31.8047 42.1953C31.6484 42.1953 31.5117 42.1758 31.375 42.1172C31.2188 42.0781 31.1016 41.9805 30.9844 41.8633C30.8672 41.7461 30.7891 41.6094 30.7305 41.4141C30.6523 41.2383 30.6328 41.0039 30.6523 40.7305C30.6719 40.1836 30.8281 39.7734 31.1016 39.5C31.375 39.2461 31.6875 39.1094 32.0391 39.1094ZM26.5508 30.6133L27.7227 30.4961V32.2734C27.7227 32.6641 27.7031 33.0156 27.7031 33.3477C27.6836 33.6992 27.6641 33.9336 27.6641 34.0508L26.8242 34.0898C26.7852 33.8945 26.7656 33.6406 26.7461 33.3281C26.707 33.0156 26.6875 32.7031 26.668 32.3516C26.6289 32.0195 26.6094 31.6875 26.5898 31.375C26.5703 31.0625 26.5508 30.8086 26.5508 30.6133ZM39.4219 38.25C39.6953 38.25 39.9688 38.2109 40.2227 38.0938C40.457 37.9961 40.5938 37.8203 40.6133 37.5664C40.6133 37.3906 40.6328 37.0781 40.6328 36.6289C40.6328 36.1992 40.6523 35.6719 40.6523 35.0664C40.6523 34.6562 40.6328 34.2266 40.6328 33.7578C40.6328 33.3086 40.6328 32.8594 40.6328 32.3906V28.8945C40.6328 28.6992 40.4961 28.543 40.2617 28.4258C40.0078 28.3281 39.7344 28.2695 39.4414 28.2695C39.0898 28.2695 38.7969 28.3281 38.5234 28.4453C38.25 28.5625 38.1133 28.7188 38.1133 28.9141C38.0938 29.0703 38.0742 29.3633 38.0742 29.793C38.0742 30.2227 38.0742 30.7109 38.0742 31.2578C38.0742 31.8438 38.0742 32.4688 38.0742 33.1328C38.0742 33.7969 38.0938 34.4414 38.0938 35.0469C38.0938 35.6523 38.1133 36.1797 38.1133 36.6484C38.1133 37.1172 38.1328 37.4297 38.1328 37.6055C38.1328 37.8203 38.2695 37.9766 38.543 38.0938C38.7969 38.2109 39.0898 38.25 39.4219 38.25ZM37.918 40.6133C37.918 40.7891 37.957 40.9453 38.0352 41.1016C38.1133 41.2578 38.2305 41.375 38.3867 41.4922C38.5234 41.6094 38.6797 41.707 38.875 41.7852C39.0508 41.8633 39.2461 41.8828 39.4414 41.8828C39.8516 41.8828 40.2031 41.7656 40.4961 41.5117C40.7891 41.2578 40.9453 40.9258 40.9453 40.5156C40.9453 40.1641 40.7891 39.8906 40.4766 39.6758C40.1641 39.4609 39.832 39.3438 39.4609 39.3438C39.0703 39.3438 38.6992 39.4609 38.3867 39.6758C38.0742 39.8906 37.918 40.2031 37.918 40.6133Z" fill="black"/>
</svg>
