<?xml version="1.0" encoding="utf-8"?>
<svg width="141" height="55" viewBox="0 0 141 55" fill="none" xmlns="http://www.w3.org/2000/svg">
<style type="text/css">
  .st9 {
    cursor: pointer;
  }
</style>
<path class="st9" fill-rule="evenodd" clip-rule="evenodd" d="M72 0V12H12C5.37258 12 0 17.3726 0 24V43C0 49.6274 5.37258 55 12 55H129C135.627 55 141 49.6274 141 43V24C141 17.3726 135.627 12 129 12H82L72 0Z" fill="#333333"/>
<path class="st9"  d="M23.1367 26.9727C22.7656 28.0664 22.3945 29.1211 22.043 30.1562C21.6914 31.2109 21.2812 32.2852 20.8516 33.3789C20.7734 33.5156 20.832 33.6523 21.0078 33.7891C21.1836 33.9453 21.3984 34.0625 21.6523 34.1602C21.9453 34.2773 22.2383 34.3555 22.5508 34.3555C22.8633 34.375 23.0391 34.2969 23.1172 34.1211L24.0742 31.6797L25.6953 33.3789C25.9492 33.6133 26.2227 33.6914 26.5156 33.6133C26.7891 33.5352 27.043 33.3594 27.2578 33.125C27.375 32.9688 27.4727 32.793 27.5117 32.5977C27.5508 32.4023 27.5117 32.2266 27.3945 32.0898C26.9648 31.6992 26.5352 31.2695 26.125 30.7812C25.6953 30.293 25.3047 29.7461 24.9336 29.1602H24.9727L25.5586 27.5586C25.5781 27.4219 25.4805 27.2852 25.2852 27.1289C25.0898 26.9922 24.8555 26.875 24.6016 26.7773C24.2891 26.6797 23.9766 26.6406 23.6836 26.6602C23.3711 26.6797 23.1953 26.7773 23.1367 26.9727ZM28.2734 27.4805L28.4688 34.3164C28.4883 34.5117 28.625 34.6484 28.8984 34.7266C29.1719 34.8047 29.4648 34.8047 29.7969 34.7656C30.0703 34.7461 30.3438 34.6875 30.6172 34.5898C30.8711 34.5117 31.0078 34.3945 31.0078 34.2383L30.9883 31.4648L32.2969 31.3281L32.4531 34.5312C32.4727 34.7266 32.6094 34.8438 32.8828 34.9219C33.1367 35 33.4297 35.0391 33.7812 35C34.0547 34.9609 34.3281 34.9023 34.582 34.7852C34.8164 34.6875 34.9531 34.5703 34.9531 34.4141L34.7773 26.8164C34.7773 26.6602 34.6211 26.543 34.3477 26.4844C34.0547 26.4258 33.7422 26.4062 33.4102 26.4062C33.0781 26.4453 32.7852 26.5234 32.5508 26.6211C32.3164 26.7383 32.1992 26.8555 32.1992 27.0117L32.2578 29.5898L30.8906 29.7461L30.8516 27.2461C30.8516 27.0703 30.6953 26.9531 30.4219 26.875C30.1289 26.8164 29.8164 26.7969 29.5039 26.8164C29.1914 26.8555 28.8984 26.9531 28.6445 27.0703C28.3906 27.1875 28.2734 27.3242 28.2734 27.4805ZM29.1914 41.7969C29.7383 41.7969 30.2656 41.7383 30.7734 41.582C31.2812 41.4453 31.7305 41.2305 32.1602 40.957C32.5703 40.6836 32.9219 40.3516 33.1953 39.9609C33.4688 39.5703 33.6641 39.1211 33.7812 38.6133C33.8594 38.1445 33.8203 37.7344 33.6836 37.3438C33.5469 36.9531 33.3125 36.6211 33 36.3281C32.668 36.0547 32.2578 35.8203 31.7891 35.6641C31.3203 35.5078 30.793 35.4297 30.207 35.4297C29.6406 35.4297 29.1133 35.5078 28.6055 35.6445C28.0977 35.8008 27.6289 35.9961 27.2188 36.2695C26.8086 36.543 26.4766 36.875 26.2031 37.2656C25.9297 37.6562 25.7344 38.1055 25.6562 38.6133C25.5781 39.082 25.5781 39.5117 25.6953 39.9023C25.8125 40.293 26.0078 40.625 26.3203 40.8984C26.6133 41.1914 27.0039 41.4062 27.4922 41.5625C27.9609 41.7188 28.5273 41.7969 29.1914 41.7969ZM29.8359 37.1094C30.2461 37.1094 30.5781 37.2656 30.8125 37.5586C31.0469 37.8711 31.1641 38.2617 31.1445 38.7305C31.1055 39.1211 30.9688 39.4531 30.6953 39.7461C30.4219 40.0586 30.0703 40.1953 29.6016 40.1953C29.4258 40.1953 29.25 40.1758 29.0938 40.1172C28.918 40.0781 28.7617 39.9805 28.6445 39.8633C28.5273 39.7461 28.4297 39.6094 28.3516 39.4141C28.2734 39.2383 28.2344 39.0039 28.2539 38.7305C28.2539 38.457 28.3125 38.2227 28.4102 38.0078C28.4883 37.8125 28.6055 37.6367 28.7617 37.5C28.918 37.3828 29.0742 37.2852 29.2695 37.207C29.4453 37.1484 29.6406 37.1094 29.8359 37.1094ZM37.375 29.3164L37.8047 32.5977C37.8633 32.9102 38.0586 33.1445 38.3711 33.3203C38.6836 33.5156 39.0938 33.6133 39.582 33.6328C39.9141 33.6719 40.2852 33.6719 40.6758 33.6523C41.0664 33.6523 41.4766 33.6328 41.8867 33.5938C42.2773 33.5742 42.668 33.5352 43.0586 33.4766C43.4492 33.4375 43.8008 33.3594 44.1328 33.2812C44.25 33.2617 44.3672 33.2031 44.4648 33.1055C44.5625 33.0273 44.6406 32.9297 44.6992 32.8125C44.7578 32.6953 44.7969 32.5781 44.8164 32.4609C44.8359 32.3438 44.8359 32.2461 44.8359 32.1484C44.7969 31.9336 44.6602 31.7773 44.4453 31.6602C44.2305 31.5625 43.9766 31.5625 43.6836 31.6406C43.4492 31.7188 43.1953 31.7578 42.9219 31.7969C42.6484 31.8359 42.3555 31.875 42.043 31.8945C41.7305 31.9336 41.4375 31.9336 41.1445 31.9336C40.832 31.9336 40.5586 31.9336 40.3242 31.9141L40.0312 29.2383C40.5 29.1992 41.0078 29.1602 41.5938 29.1211C42.1602 29.1016 42.7852 29.0625 43.4492 29.0039C43.7031 28.9844 43.8984 28.8867 44.0352 28.7109C44.1719 28.5352 44.25 28.3398 44.25 28.1055C44.25 27.9102 44.1719 27.7148 44.0352 27.5391C43.8789 27.3828 43.6445 27.2852 43.3125 27.2852L38.5859 27.5781C38.293 27.6172 38.0586 27.6758 37.9023 27.793C37.7266 27.9102 37.5898 28.0664 37.5117 28.2227C37.4141 28.3789 37.3555 28.5547 37.3555 28.75C37.3359 28.9453 37.3359 29.1211 37.375 29.3164ZM37.1211 36.6992C36.8477 36.7383 36.6719 36.8359 36.5547 37.0117C36.4375 37.207 36.3984 37.4023 36.4375 37.5977C36.4375 37.8125 36.5156 38.0078 36.6719 38.1836C36.8281 38.3789 37.043 38.457 37.3359 38.418L45.3242 38.1836C45.6367 38.1836 45.8516 38.0859 46.0078 37.8906C46.1641 37.7148 46.2422 37.5195 46.2422 37.3242C46.2227 37.1289 46.1445 36.9336 45.9883 36.7578C45.832 36.6016 45.6172 36.5039 45.3438 36.5039L37.1211 36.6992ZM53.332 26.3281C53 26.3672 52.707 26.4062 52.4727 26.4844C52.2188 26.5625 52.1016 26.6797 52.1016 26.8164C52.1016 27.207 52.1016 27.5977 52.1016 27.9883C52.1016 28.3984 52.1016 28.7695 52.0625 29.1211C51.75 29.1992 51.4766 29.2578 51.2227 29.3164C50.9688 29.3945 50.6953 29.4336 50.3828 29.4727C50.3438 29.1016 50.3242 28.6523 50.3242 28.1055C50.3047 27.5586 50.3047 27.0703 50.3438 26.6211C50.3438 26.4648 50.207 26.3477 49.9727 26.25C49.7188 26.1719 49.4258 26.1133 49.0938 26.1133C48.7617 26.1133 48.4688 26.1523 48.1953 26.2305C47.9219 26.3086 47.8047 26.4258 47.8047 26.582C47.8047 27.0898 47.8047 27.6367 47.8242 28.2422C47.8242 28.8672 47.8438 29.4531 47.8828 30.0391C47.9023 30.625 47.9414 31.2109 47.9805 31.7773C48.0195 32.3633 48.0781 32.8516 48.1562 33.2617C48.1953 33.6523 48.3906 33.9453 48.7227 34.1602C49.0352 34.375 49.4453 34.4727 49.9531 34.4727C50.8516 34.4727 51.8672 34.3555 53.0391 34.1211C53.4883 34.0039 53.8398 33.8477 54.0742 33.6133C54.3086 33.3789 54.4453 33.0664 54.4844 32.6758L54.5625 29.6875V26.7383C54.5625 26.582 54.4258 26.4648 54.1719 26.4062C53.8984 26.3477 53.625 26.3281 53.332 26.3281ZM51.9453 30.8594V32.4414C51.7305 32.5586 51.5352 32.6367 51.3398 32.6953C51.1445 32.7539 50.8906 32.793 50.6172 32.8125C50.5977 32.7734 50.5781 32.6758 50.5586 32.5195C50.5391 32.3828 50.5195 32.2266 50.5195 32.0508C50.5 31.8945 50.4805 31.7188 50.4805 31.5625C50.4805 31.4062 50.4805 31.2891 50.5 31.1914C50.6562 31.1523 50.793 31.1328 50.9102 31.0938C51.0273 31.0742 51.125 31.0547 51.2227 31.0156C51.3203 30.9961 51.418 30.9766 51.5352 30.9375C51.6523 30.918 51.7891 30.8984 51.9453 30.8594ZM55.5781 27.4805L55.7734 34.3164C55.793 34.5117 55.9297 34.6484 56.2031 34.7266C56.4766 34.8047 56.7695 34.8047 57.1016 34.7656C57.375 34.7461 57.6484 34.6875 57.9219 34.5898C58.1758 34.5117 58.3125 34.3945 58.3125 34.2383L58.293 31.4648L59.6016 31.3281L59.7578 34.5312C59.7773 34.7266 59.9141 34.8438 60.1875 34.9219C60.4414 35 60.7344 35.0391 61.0859 35C61.3594 34.9609 61.6328 34.9023 61.8867 34.7852C62.1211 34.6875 62.2578 34.5703 62.2578 34.4141L62.082 26.8164C62.082 26.6602 61.9258 26.543 61.6523 26.4844C61.3594 26.4258 61.0469 26.4062 60.7148 26.4062C60.3828 26.4453 60.0898 26.5234 59.8555 26.6211C59.6211 26.7383 59.5039 26.8555 59.5039 27.0117L59.5625 29.5898L58.1953 29.7461L58.1562 27.2461C58.1562 27.0703 58 26.9531 57.7266 26.875C57.4336 26.8164 57.1211 26.7969 56.8086 26.8164C56.4961 26.8555 56.2031 26.9531 55.9492 27.0703C55.6953 27.1875 55.5781 27.3242 55.5781 27.4805ZM58.957 35.5273L53.4883 35.7227C53.1562 35.7422 52.9219 35.8398 52.7656 36.0156C52.6094 36.1914 52.5508 36.3867 52.5703 36.582C52.5703 36.8164 52.668 37.0117 52.8242 37.168C52.9805 37.3242 53.2344 37.4023 53.5664 37.3633L58.1172 37.2461L58.0781 40.8789C58.0781 41.1133 58.2148 41.2695 58.4883 41.3672C58.7617 41.4648 59.0547 41.4844 59.4062 41.4258C59.6797 41.3867 59.9531 41.3086 60.2266 41.1523C60.4805 40.9961 60.6172 40.8398 60.6172 40.6445L60.6562 36.4648C60.6172 36.1328 60.4414 35.8789 60.0898 35.7227C59.7383 35.5664 59.3672 35.5078 58.957 35.5273ZM68.5469 28.9453L69.0938 36.1133C69.1523 36.543 69.3086 36.8555 69.582 37.0898C69.8555 37.3242 70.2266 37.4219 70.7344 37.4219C71.4375 37.4219 72.1797 37.3828 72.9805 37.2656C73.7617 37.1484 74.582 36.9727 75.4023 36.7383C75.6758 36.6797 75.8516 36.543 75.9297 36.3477C76.0078 36.1523 76.0273 35.957 75.9883 35.7617C75.9102 35.5273 75.793 35.332 75.6367 35.1953C75.4805 35.0586 75.2461 35.0391 74.9531 35.1367C74.6797 35.2148 74.3867 35.2734 74.0742 35.3125C73.7617 35.3711 73.4688 35.4297 73.1758 35.4688C72.8633 35.5078 72.5703 35.5469 72.2969 35.5859C72.0234 35.625 71.7695 35.6445 71.5742 35.6445L71.3789 33.2422L74.25 32.9492C74.5625 32.9492 74.8164 32.832 74.9727 32.6367C75.1289 32.4414 75.207 32.2461 75.207 32.0117C75.207 31.7969 75.1094 31.6016 74.9531 31.4258C74.7969 31.2695 74.5625 31.1719 74.2695 31.1719L71.3008 31.4258L71.1836 29.3945L74.6406 29.1211C74.8359 29.1016 75.0117 29.0039 75.168 28.8281C75.3242 28.6523 75.4023 28.457 75.4023 28.2617C75.4023 28.0664 75.3242 27.8711 75.168 27.6953C75.0117 27.5391 74.7969 27.4414 74.5039 27.4414L69.8945 27.6758C69.4258 27.7148 69.0742 27.832 68.8203 28.0273C68.5664 28.2227 68.4688 28.5352 68.5469 28.9453ZM78.2344 31.1328L76.2617 31.2891C75.9492 31.3477 75.7539 31.4648 75.6367 31.6602C75.5195 31.8555 75.4609 32.0508 75.5 32.2461C75.5 32.5 75.6172 32.7148 75.8125 32.8906C76.0078 33.0664 76.2617 33.125 76.5742 33.0859L78.2734 32.9492L78.4297 38.8867C78.4492 39.082 78.5859 39.2383 78.8594 39.3164C79.1328 39.4141 79.4258 39.4336 79.7578 39.3945C80.0508 39.375 80.3242 39.3164 80.5977 39.1992C80.8711 39.1016 81.0078 38.9844 81.0078 38.8477L80.8125 26.8164C80.8125 26.6602 80.6562 26.543 80.3828 26.4844C80.0898 26.4258 79.7773 26.4062 79.4453 26.4062C79.1133 26.4453 78.8203 26.5234 78.5664 26.6211C78.3125 26.7383 78.1953 26.8555 78.1953 27.0117L78.2344 31.1328ZM83.7227 28.3398L84.2695 33.5938C84.3281 34.0234 84.4844 34.3359 84.7578 34.5703C85.0312 34.8047 85.4023 34.9023 85.9102 34.9023C86.6133 34.9023 87.3164 34.8633 88.0586 34.7461C88.7812 34.6289 89.5625 34.4531 90.3828 34.2188C90.6562 34.1602 90.832 34.0234 90.9102 33.8281C90.9883 33.6328 91.0078 33.4375 90.9688 33.2422C90.8906 33.0078 90.7734 32.8125 90.6172 32.6758C90.4609 32.5391 90.2266 32.5195 89.9336 32.6172C89.3672 32.7539 88.8008 32.8711 88.2344 32.9492C87.668 33.0469 87.1797 33.1055 86.75 33.125L86.5547 31.8164L89.2305 31.5234C89.543 31.5234 89.7969 31.4062 89.9531 31.2109C90.1094 31.0156 90.1875 30.8203 90.1875 30.5859C90.1875 30.3711 90.0898 30.1758 89.9336 30C89.7773 29.8438 89.543 29.7461 89.25 29.7461L86.4766 30L86.3594 28.7891L89.6211 28.5156C89.8164 28.4961 89.9922 28.3984 90.1484 28.2227C90.3047 28.0469 90.3828 27.8516 90.3828 27.6562C90.3828 27.4609 90.3047 27.2656 90.1484 27.0898C89.9922 26.9336 89.7773 26.8359 89.4844 26.8359L85.0703 27.0703C84.6016 27.1094 84.25 27.2266 83.9961 27.4219C83.7422 27.6172 83.6445 27.9297 83.7227 28.3398ZM83.293 36.6992C83.0195 36.7383 82.8438 36.8359 82.7266 37.0117C82.6094 37.207 82.5703 37.4023 82.6094 37.5977C82.6094 37.8125 82.6875 38.0078 82.8438 38.1836C83 38.3789 83.2148 38.457 83.5078 38.418L91.4961 38.1836C91.8086 38.1836 92.0234 38.0859 92.1797 37.8906C92.3359 37.7148 92.4141 37.5195 92.4141 37.3242C92.3945 37.1289 92.3164 36.9336 92.1602 36.7578C92.0039 36.6016 91.7891 36.5039 91.5156 36.5039L83.293 36.6992ZM93.7812 32.9688L94.4062 36.6211C94.4844 36.9727 94.6797 37.2266 94.9922 37.3828C95.2852 37.5586 95.6367 37.6367 96.0664 37.6367C96.418 37.6367 96.8086 37.6367 97.2383 37.5977C97.668 37.5781 98.0781 37.5391 98.5078 37.5C98.9375 37.4609 99.3477 37.4219 99.7383 37.3633C100.129 37.3242 100.5 37.2656 100.812 37.1875C101.047 37.1289 101.223 36.9922 101.32 36.7969C101.398 36.6016 101.457 36.4453 101.457 36.2891C101.457 36.0156 101.359 35.8008 101.164 35.625C100.969 35.4688 100.715 35.4102 100.383 35.4688H100.402L96.7891 35.8398L96.3398 33.3008L97.1211 33.125C97.4141 33.0664 97.707 33.0078 98 32.9297C98.293 32.8516 98.5859 32.793 98.8594 32.7148C99.1328 32.6562 99.3672 32.5977 99.6016 32.5195C99.9922 32.4219 100.305 32.3047 100.539 32.1484C100.773 32.0117 100.91 31.8164 100.949 31.543L101.262 28.3789C101.262 28.2617 101.242 28.125 101.164 27.9688C101.086 27.8125 100.93 27.6758 100.715 27.5195C100.559 27.4023 100.383 27.3438 100.148 27.3242C99.9141 27.3047 99.6992 27.3047 99.4844 27.3242C98.7812 27.3633 98.1953 27.4023 97.7656 27.4219C97.3164 27.4414 96.9453 27.4609 96.6719 27.4609C96.3984 27.4609 96.1641 27.4805 95.9883 27.4805C95.8125 27.4805 95.6562 27.4805 95.5 27.4805C95.168 27.5 94.9336 27.5977 94.7773 27.793C94.6211 27.9883 94.5625 28.1836 94.5625 28.3984C94.5625 28.6328 94.6406 28.8477 94.7969 29.0234C94.9531 29.1992 95.207 29.2773 95.5391 29.2383L98.6445 29.1211L98.4102 30.8789L95.0703 31.6211C94.6992 31.6797 94.3672 31.8164 94.0938 32.0312C93.8203 32.2656 93.7031 32.5781 93.7812 32.9688ZM103.02 26.8359L103.215 38.8477C103.215 39.0625 103.352 39.1992 103.625 39.2578C103.898 39.3359 104.191 39.3359 104.543 39.2969C104.836 39.2773 105.109 39.2188 105.383 39.1211C105.656 39.0234 105.793 38.9062 105.793 38.7695L105.637 26.6797C105.637 26.4844 105.48 26.3672 105.188 26.3086C104.895 26.25 104.582 26.2305 104.27 26.25C103.938 26.2891 103.645 26.3672 103.391 26.4648C103.137 26.582 103.02 26.6992 103.02 26.8359ZM113.156 27.4805L108.469 27.6758C108.137 27.6953 107.902 27.793 107.746 27.9688C107.59 28.1641 107.531 28.3594 107.551 28.5742C107.551 28.7891 107.629 28.9844 107.805 29.1602C107.961 29.3555 108.195 29.4336 108.508 29.3945L112.082 29.2188L110.91 36.5039C110.91 36.6992 111.008 36.8555 111.223 36.9727C111.418 37.0898 111.672 37.168 111.965 37.207C112.297 37.2656 112.629 37.2656 112.941 37.1875C113.254 37.1094 113.43 36.9727 113.488 36.7383L114.855 28.418C114.855 28.3203 114.797 28.2031 114.699 28.0664C114.602 27.9297 114.465 27.8125 114.27 27.6953C113.977 27.5391 113.605 27.4609 113.156 27.4805ZM116.77 26.8359L116.965 38.8477C116.965 39.0625 117.102 39.1992 117.375 39.2578C117.648 39.3359 117.941 39.3359 118.293 39.2969C118.586 39.2773 118.859 39.2188 119.133 39.1211C119.406 39.0234 119.543 38.9062 119.543 38.7695L119.387 26.6797C119.387 26.4844 119.23 26.3672 118.938 26.3086C118.645 26.25 118.332 26.2305 118.02 26.25C117.688 26.2891 117.395 26.3672 117.141 26.4648C116.887 26.582 116.77 26.6992 116.77 26.8359Z" fill="white"/>
</svg>
