<?xml version="1.0" encoding="utf-8"?>
<!-- Generator: Adobe Illustrator 26.0.2, SVG Export Plug-In . SVG Version: 6.00 Build 0)  -->
<svg version="1.1" id="레이어_1" xmlns="http://www.w3.org/2000/svg" xmlns:xlink="http://www.w3.org/1999/xlink" x="0px"
	 y="0px" viewBox="0 0 24 24" style="enable-background:new 0 0 24 24;" xml:space="preserve">
<style type="text/css">
	.st0{
    fill:current;
    stroke-width: 0;
  }
	.st1{
    fill-rule:evenodd;
    clip-rule:evenodd;
    fill: current;
  }
</style>
<path class="st0" d="M24,12c0,6.6-5.4,12-12,12C5.4,24,0,18.6,0,12C0,5.4,5.4,0,12,0C18.6,0,24,5.4,24,12z"/>
<path class="st1" d="M17.8,7.7c0.4,0.3,0.4,0.9,0,1.3l-7.1,7.5l-4.6-4.6c-0.3-0.3-0.3-0.9,0-1.3c0.3-0.3,0.9-0.3,1.3,0l3.3,3.3
	l5.8-6.2C16.9,7.4,17.5,7.4,17.8,7.7z"/>
</svg>
