<svg width="24" height="24" viewBox="0 0 24 24" fill="none" xmlns="http://www.w3.org/2000/svg">
<path d="M24 12C24 18.6274 18.6274 24 12 24C5.37258 24 0 18.6274 0 12C0 5.37258 5.37258 0 12 0C18.6274 0 24 5.37258 24 12Z" fill="#FBF7F7"/>
<path fill-rule="evenodd" clip-rule="evenodd" d="M17.8272 7.74236C18.1844 8.07931 18.2008 8.64202 17.8639 8.99921L10.788 16.5L6.15446 11.8664C5.80724 11.5192 5.80724 10.9563 6.15446 10.609C6.50167 10.2618 7.06462 10.2618 7.41184 10.609L10.7508 13.948L16.5704 7.779C16.9073 7.42182 17.4701 7.40541 17.8272 7.74236Z" fill="#333333"/>
</svg>
