<?xml version="1.0" encoding="utf-8"?>
<!-- Generator: Adobe Illustrator 26.0.2, SVG Export Plug-In . SVG Version: 6.00 Build 0)  -->
<svg version="1.1" id="레이어_1" xmlns="http://www.w3.org/2000/svg" xmlns:xlink="http://www.w3.org/1999/xlink" x="0px"
	 y="0px" viewBox="0 0 1000 1000" style="enable-background:new 0 0 1000 1000;" xml:space="preserve">
<style type="text/css">
	.st0{fill:#FFFFFF;}
</style>
<g>
	<path class="st0" d="M638.6,500l322.7-322.7c38.3-38.3,38.3-100.3,0-138.6S861,0.4,822.7,38.7L500,361.4L177.3,38.7
		C139,0.4,77,0.4,38.7,38.7S0.4,139,38.7,177.3L361.4,500L38.7,822.7C0.4,861,0.4,923,38.7,961.3C57.9,980.4,82.9,990,108,990
		s50.1-9.6,69.3-28.7L500,638.6l322.7,322.7c19.1,19.1,44.2,28.7,69.3,28.7s50.1-9.6,69.3-28.7c38.3-38.3,38.3-100.3,0-138.6
		L638.6,500z"/>
</g>
</svg>
