<?xml version="1.0" encoding="utf-8"?>
<!-- Generator: Adobe Illustrator 26.0.2, SVG Export Plug-In . SVG Version: 6.00 Build 0)  -->
<svg version="1.1" id="레이어_1" xmlns="http://www.w3.org/2000/svg" xmlns:xlink="http://www.w3.org/1999/xlink" x="0px"
	 y="0px" viewBox="0 0 30 30" style="enable-background:new 0 0 30 30;" xml:space="preserve">
<style type="text/css">
	.st5{
    fill:#333333;
    stroke:#333333;
    stroke-width: 1;
    stroke-miterlimit:10;
  }
</style>
<g>
	<path class="st5" d="M14.8,25.8L14.8,25.8C8.9,25.8,4.2,20.9,4.2,15C4.2,9,9,4.2,14.8,4.2c5.9,0,10.6,4.9,10.6,10.8
		c0,1.7-0.5,4.1-1.6,5.7l1.9,3.8c0.2,0.3,0.1,0.6-0.1,0.9c-0.2,0.3-0.5,0.3-0.9,0.3L20,24.4C18.4,25.3,16.6,25.8,14.8,25.8z
		 M14.8,5.8c-5,0-9.1,4.1-9.1,9.2c0,5,4,9.2,9.1,9.2l0,0c1.6,0,3.2-0.4,4.6-1.3c0.2-0.1,0.4-0.2,0.6-0.1l3.4,0.9l-1.3-2.7
		c-0.2-0.3-0.1-0.6,0.1-0.9c1.1-1.4,1.5-3.7,1.5-5.1C23.9,9.9,19.8,5.8,14.8,5.8z"/>
</g>
</svg>
