<svg width="24" height="24" viewBox="0 0 24 24" fill="none" xmlns="http://www.w3.org/2000/svg">
<path fill-rule="evenodd" clip-rule="evenodd" d="M5 3.85797H19C19.8284 3.85797 20.5 4.52954 20.5 5.35797V15.358C20.5 16.1864 19.8284 16.858 19 16.858H14.7905L14.67 17.0062L14.6683 17.0047L12.1939 20.0497C12.0939 20.1728 11.9059 20.1728 11.8059 20.0497L9.33157 17.0047L9.32978 17.0062L9.20932 16.858H5C4.17157 16.858 3.5 16.1864 3.5 15.358V5.35797C3.5 4.52954 4.17157 3.85797 5 3.85797ZM19 18.358H15.5014L13.358 20.9957C12.6577 21.8575 11.3421 21.8575 10.6417 20.9956L8.4984 18.358H5C3.34315 18.358 2 17.0148 2 15.358V5.35797C2 3.70112 3.34315 2.35797 5 2.35797H19C20.6569 2.35797 22 3.70112 22 5.35797V15.358C22 17.0148 20.6569 18.358 19 18.358ZM6.49902 8.42914C6.49902 8.01492 6.83481 7.67914 7.24902 7.67914H16.7511C17.1653 7.67914 17.5011 8.01492 17.5011 8.42914C17.5011 8.84335 17.1653 9.17914 16.7511 9.17914H7.24902C6.83481 9.17914 6.49902 8.84335 6.49902 8.42914ZM6.49902 12.2868C6.49902 11.8726 6.83481 11.5368 7.24902 11.5368H13.5837C13.9979 11.5368 14.3337 11.8726 14.3337 12.2868C14.3337 12.701 13.9979 13.0368 13.5837 13.0368H7.24902C6.83481 13.0368 6.49902 12.701 6.49902 12.2868Z" fill="#333333"/>
</svg>
