<?xml version="1.0" encoding="utf-8"?>
<!-- Generator: Adobe Illustrator 26.0.2, SVG Export Plug-In . SVG Version: 6.00 Build 0)  -->
<svg version="1.1" id="레이어_1" xmlns="http://www.w3.org/2000/svg" xmlns:xlink="http://www.w3.org/1999/xlink" x="0px"
	 y="0px" viewBox="0 0 16 19" style="enable-background:new 0 0 16 19;" xml:space="preserve">
<style type="text/css">
	.st601{
    fill:#eee;
    cursor:pointer;
    transition: 0.4s;
  }
  .st601:hover{
    fill:#FF5454;
  }
</style>
<path class="st601" d="M11.7,2.4c0,0.1,0.2,0.2,0.3,0.2h3c0.5,0,1,0.4,1,0.9c0,0.4-0.3,0.7-0.7,0.9l-0.5,12.7c0,1-1,1.9-2.1,1.9H3.4
	c-1.1,0-2.1-0.8-2.1-1.9L0.7,4.4C0.3,4.3,0,4,0,3.5c0-0.5,0.4-0.9,1-0.9h3c0.2,0,0.3-0.1,0.3-0.2l0.2-0.8C4.8,0.7,5.8,0,6.9,0h2.2
	c1.1,0,2.1,0.7,2.3,1.7L11.7,2.4z M7.3,6.7v8.6C7.3,15.7,7.6,16,8,16c0.4,0,0.7-0.3,0.7-0.6V6.7c0-0.3-0.3-0.6-0.7-0.6
	C7.6,6.1,7.3,6.4,7.3,6.7z M4.1,6.7l0.3,8.6c0,0.3,0.3,0.6,0.7,0.6c0.4,0,0.7-0.3,0.7-0.7L5.5,6.7c0-0.3-0.3-0.6-0.7-0.6
	C4.4,6.1,4.1,6.4,4.1,6.7z M10.5,6.7l-0.3,8.6c0,0.3,0.3,0.6,0.7,0.7c0.4,0,0.7-0.3,0.7-0.6l0.3-8.6c0-0.3-0.3-0.6-0.7-0.7
	C10.9,6.1,10.5,6.3,10.5,6.7z M6.4,2.7h3.2c0.1,0,0.1-0.1,0.1-0.1L9.6,2.1c0-0.1-0.3-0.3-0.4-0.3H6.9c-0.2,0-0.4,0.2-0.4,0.3
	L6.3,2.5C6.3,2.6,6.3,2.7,6.4,2.7L6.4,2.7z"/>
</svg>
