<svg width="20" height="20" viewBox="0 0 20 20" fill="none" xmlns="http://www.w3.org/2000/svg">
<path d="M5.64697 3.54169H9.99984H14.3527C15.1811 3.54169 15.8527 4.21326 15.8527 5.04169V5.91031C15.8527 6.32372 15.6821 6.7188 15.3811 7.00225L11.7254 10.4453C11.4245 10.7288 11.2539 11.1238 11.2539 11.5373V15.2043C11.2539 15.8969 10.6924 16.4584 9.99984 16.4584C9.30725 16.4584 8.7458 15.8969 8.7458 15.2043V11.5373C8.7458 11.1238 8.57518 10.7288 8.27423 10.4453L4.61854 7.00225C4.31759 6.7188 4.14697 6.32372 4.14697 5.91031V5.04169C4.14697 4.21326 4.81855 3.54169 5.64697 3.54169Z" stroke="#333333" stroke-width="1.5"/>
</svg>
