<svg width="24" height="25" viewBox="0 0 24 25" fill="none" xmlns="http://www.w3.org/2000/svg">
<path fill-rule="evenodd" clip-rule="evenodd" d="M17.4678 12.0708C17.4678 15.5134 14.677 18.3042 11.2344 18.3042C7.79176 18.3042 5.00098 15.5134 5.00098 12.0708C5.00098 8.62819 7.79176 5.8374 11.2344 5.8374C14.677 5.8374 17.4678 8.62819 17.4678 12.0708ZM16.1467 18.0438C14.8109 19.1437 13.0998 19.8042 11.2344 19.8042C6.96333 19.8042 3.50098 16.3418 3.50098 12.0708C3.50098 7.79976 6.96333 4.3374 11.2344 4.3374C15.5054 4.3374 18.9678 7.79976 18.9678 12.0708C18.9678 13.9362 18.3073 15.6474 17.2074 16.9832L20.2792 20.055C20.5721 20.3479 20.5721 20.8228 20.2792 21.1157C19.9863 21.4086 19.5115 21.4086 19.2186 21.1157L16.1467 18.0438Z" fill="white"/>
</svg>
