<?xml version="1.0" encoding="utf-8"?>
<!-- Generator: Adobe Illustrator 26.0.2, SVG Export Plug-In . SVG Version: 6.00 Build 0)  -->
<svg version="1.1" id="레이어_1" xmlns="http://www.w3.org/2000/svg" xmlns:xlink="http://www.w3.org/1999/xlink" x="0px"
	 y="0px" viewBox="0 0 24 24" style="enable-background:new 0 0 24 24;" xml:space="preserve">
<style type="text/css">
	.st0{fill:#555555;}
</style>
<path class="st0" d="M12,2C6.5,2,2,6.5,2,12s4.5,10,10,10s10-4.5,10-10S17.5,2,12,2z M7.1,18.3c0.4-0.9,3-1.8,4.9-1.8
	s4.5,0.9,4.9,1.8C15.6,19.4,13.9,20,12,20S8.4,19.4,7.1,18.3z M18.4,16.8c-1.4-1.7-4.9-2.3-6.4-2.3s-4.9,0.6-6.4,2.3
	c-1-1.3-1.6-3-1.6-4.8c0-4.4,3.6-8,8-8s8,3.6,8,8C20,13.8,19.4,15.5,18.4,16.8z M12,6c-1.9,0-3.5,1.6-3.5,3.5S10.1,13,12,13
	s3.5-1.6,3.5-3.5S13.9,6,12,6z M12,11c-0.8,0-1.5-0.7-1.5-1.5S11.2,8,12,8s1.5,0.7,1.5,1.5S12.8,11,12,11z"/>
</svg>
