<?xml version="1.0" encoding="utf-8"?>
<!-- Generator: Adobe Illustrator 26.0.2, SVG Export Plug-In . SVG Version: 6.00 Build 0)  -->
<svg version="1.1" id="레이어_1" xmlns="http://www.w3.org/2000/svg" xmlns:xlink="http://www.w3.org/1999/xlink" x="0px"
	 y="0px" viewBox="0 0 24 25" style="enable-background:new 0 0 24 25;" xml:space="preserve">
<style type="text/css">
	.st0{fill-rule:evenodd;clip-rule:evenodd;fill:#333333;stroke:#333333;stroke-miterlimit:10;}
</style>
<path class="st0" d="M17.5,12.1c0,3.4-2.8,6.2-6.2,6.2s-6.2-2.8-6.2-6.2s2.8-6.2,6.2-6.2C14.7,5.8,17.5,8.6,17.5,12.1z M16.1,18
	c-1.3,1.1-3,1.8-4.9,1.8c-4.3,0-7.7-3.5-7.7-7.7c0-4.3,3.5-7.7,7.7-7.7c4.3,0,7.7,3.5,7.7,7.7c0,1.9-0.7,3.6-1.8,4.9l3.1,3.1
	c0.3,0.3,0.3,0.8,0,1.1s-0.8,0.3-1.1,0L16.1,18z"/>
</svg>
