<?xml version="1.0" encoding="utf-8"?>
<!-- Generator: Adobe Illustrator 26.0.2, SVG Export Plug-In . SVG Version: 6.00 Build 0)  -->
<svg version="1.1" id="레이어_1" xmlns="http://www.w3.org/2000/svg" xmlns:xlink="http://www.w3.org/1999/xlink" x="0px"
	 y="0px" viewBox="0 0 24 24" style="enable-background:new 0 0 24 24;" xml:space="preserve">
<style type="text/css">
	.st0{fill:#555555;}
</style>
<path class="st0" d="M12,22c-1.1,0-2-0.9-2-2h4C14,21.1,13.1,22,12,22z M20,19H4v-2l2-1v-5.5C6,7,7.4,4.8,10,4.2V2h4v2.2
	c2.6,0.6,4,2.9,4,6.3V16l2,1V19z M12,5.8c-1.2-0.1-2.4,0.5-3.1,1.4c-0.6,1-0.9,2.1-0.9,3.3V17h8v-6.5c0.1-1.2-0.3-2.3-0.9-3.3
	C14.4,6.2,13.2,5.7,12,5.8z"/>
</svg>
