<?xml version="1.0" encoding="utf-8"?>
<!-- Generator: Adobe Illustrator 26.0.2, SVG Export Plug-In . SVG Version: 6.00 Build 0)  -->
<svg version="1.1" id="레이어_1" xmlns="http://www.w3.org/2000/svg" xmlns:xlink="http://www.w3.org/1999/xlink" x="0px"
	 y="0px" viewBox="0 0 24 24" style="enable-background:new 0 0 24 24;" xml:space="preserve">
<style type="text/css">
	.st0{fill:#555555;}
</style>
<path class="st0" d="M12,4L6,8.6V7H4v3.1l-3,2.3L2.2,14L4,12.6V22h16v-9.4l1.8,1.4l1.2-1.6L12,4z M18,20h-5v-4h-2v4H6v-8.9l6-4.6
	l6,4.6V20z M10,2c0,1.7-1.3,3-3,3C6.4,5,6,5.4,6,6H4c0-1.7,1.3-3,3-3c0.6,0,1-0.5,1-1H10z"/>
</svg>
