<?xml version="1.0" encoding="utf-8"?>
<!-- Generator: Adobe Illustrator 26.0.2, SVG Export Plug-In . SVG Version: 6.00 Build 0)  -->
<svg version="1.1" id="레이어_1" xmlns="http://www.w3.org/2000/svg" xmlns:xlink="http://www.w3.org/1999/xlink" x="0px"
	 y="0px" viewBox="0 0 20 20" style="enable-background:new 0 0 20 20;" xml:space="preserve">
<style type="text/css">
	.st800{fill: #ccc;}
</style>
<path class="st800" d="M14.5,0.8c-1.7,0-3.4,0.8-4.5,2.1C8.9,1.6,7.2,0.8,5.5,0.8C2.4,0.8,0,3.2,0,6.3c0,3.8,3.4,6.9,8.6,11.5l1.4,1.3
	l1.4-1.3c5.2-4.7,8.6-7.8,8.6-11.5C20,3.2,17.6,0.8,14.5,0.8z M10.1,16.4L10,16.5l-0.1-0.1C5.1,12.1,2,9.2,2,6.3
	c0-2,1.5-3.5,3.5-3.5c1.5,0,3,1,3.6,2.4h1.9c0.5-1.4,2-2.4,3.6-2.4c2,0,3.5,1.5,3.5,3.5C18,9.2,14.9,12.1,10.1,16.4z"/>
</svg>
