<svg width="24" height="24" viewBox="0 0 24 24" fill="none" xmlns="http://www.w3.org/2000/svg">
<path d="M9.42822 16.3393V20.5481H14.5711V16.3393C14.5711 15.2182 13.6911 13.954 11.9997 13.954C10.3082 13.954 9.42822 15.2182 9.42822 16.3393Z" fill="#F7C8C8"/>
<path fill-rule="evenodd" clip-rule="evenodd" d="M12.5302 4.35444C12.2373 4.06154 11.7624 4.06154 11.4695 4.35444L5.77096 10.053V17.6152C5.77096 18.8579 6.77832 19.8652 8.02096 19.8652H8.67822V19.8639V19.8558V19.8476V19.8394V19.8311V19.8228V19.8145V19.8061V19.7977V19.7893V19.7808V19.7723V19.7638V19.7552V19.7466V19.738V19.7293V19.7206V19.7119V19.7031V19.6943V19.6855V19.6766V19.6677V19.6588V19.6499V19.6409V19.6319V19.6228V19.6138V19.6046V19.5955V19.5863V19.5772V19.5679V19.5587V19.5494V19.5401V19.5308V19.5214V19.512V19.5026V19.4931V19.4837V19.4742V19.4646V19.4551V19.4455V19.4359V19.4263V19.4166V19.407V19.3973V19.3875V19.3778V19.368V19.3582V19.3484V19.3385V19.3287V19.3188V19.3089V19.2989V19.289V19.279V19.269V19.2589V19.2489V19.2388V19.2287V19.2186V19.2085V19.1983V19.1882V19.178V19.1678V19.1575V19.1473V19.137V19.1267V19.1164V19.1061V19.0958V19.0854V19.075V19.0646V19.0542V19.0438V19.0333V19.0229V19.0124V19.0019V18.9914V18.9809V18.9703V18.9598V18.9492V18.9386V18.928V18.9174V18.9068V18.8961V18.8855V18.8748V18.8641V18.8534V18.8427V18.832V18.8213V18.8105V18.7998V18.789V18.7782V18.7674V18.7566V18.7458V18.735V18.7242V18.7133V18.7025V18.6916V18.6808V18.6699V18.659V18.6481V18.6372V18.6263V18.6154V18.6044V18.5935V18.5826V18.5716V18.5607V18.5497V18.5387V18.5278V18.5168V18.5058V18.4948V18.4838V18.4728V18.4618V18.4508V18.4398V18.4288V18.4177V18.4067V18.3957V18.3846V18.3736V18.3626V18.3515V18.3405V18.3294V18.3184V18.3074V18.2963V18.2853V18.2742V18.2631V18.2521V18.241V18.23V18.2189V18.2079V18.1968V18.1858V18.1747V18.1637V18.1526V18.1416V18.1306V18.1195V18.1085V18.0975V18.0864V18.0754V18.0644V18.0533V18.0423V18.0313V18.0203V18.0093V17.9983V17.9873V17.9763V17.9653V17.9544V17.9434V17.9324V17.9215V17.9105V17.8996V17.8886V17.8777V17.8668V17.8559V17.8449V17.834V17.8232V17.8123V17.8014V17.7905V17.7797V17.7688V17.758V17.7472V17.7364V17.7255V17.7148V17.704V17.6932V17.6824V17.6717V17.6609V17.6502V17.6395V17.6288V17.6181V17.6074V17.5968V17.5861V17.5755V17.5649V17.5543V17.5437V17.5331V17.5225V17.512V17.5014V17.4909V17.4804V17.4699V17.4595V17.449V17.4386V17.4281V17.4177V17.4073V17.397V17.3866V17.3763V17.366V17.3557V17.3454V17.3351V17.3249V17.3147V17.3045V17.2943V17.2841V17.274V17.2639V17.2538V17.2437V17.2336V17.2236V17.2136V17.2036V17.1936V17.1836V17.1737V17.1638V17.1539V17.1441V17.1342V17.1244V17.1146V17.1048V17.0951V17.0854V17.0757V17.066V17.0564V17.0468V17.0372V17.0276V17.0181V17.0086V16.9991V16.9896V16.9802V16.9708V16.9614V16.952V16.9427V16.9334V16.9242V16.9149V16.9057V16.8965V16.8874V16.8783V16.8692V16.8601V16.8511V16.8421V16.8331V16.8242V16.8152V16.8064V16.7975V16.7887V16.7799V16.7712V16.7624V16.7538V16.7451V16.7365V16.7279V16.7193V16.7108V16.7023V16.6939V16.6855V16.6771V16.6687V16.6604V16.6521V16.6439V16.6357V16.6275V16.6194V16.6113V16.6032V16.5952V16.5872V16.5793V16.5714V16.5635V16.5556V16.5478V16.5401V16.5324V16.5247V16.517V16.5094V16.5019V16.4943V16.4869V16.4794V16.472V16.4646V16.4573V16.45V16.4428V16.4356V16.4284V16.4213V16.4143V16.4072V16.4002V16.3933V16.3864V16.3795V16.3727V16.366V16.3592V16.3525V16.3459V16.3393C8.67822 14.8439 9.85513 13.204 11.9997 13.204C14.1442 13.204 15.3211 14.8439 15.3211 16.3393V19.8652H16.7728C17.5578 19.8652 18.2285 19.2057 18.2285 18.3492V10.0528L12.5302 4.35444ZM13.8211 19.8652V16.3393C13.8211 15.5924 13.238 14.704 11.9997 14.704C10.7613 14.704 10.1782 15.5924 10.1782 16.3393V16.3459V16.3525V16.3592V16.366V16.3727V16.3795V16.3864V16.3933V16.4002V16.4072V16.4143V16.4213V16.4284V16.4356V16.4428V16.45V16.4573V16.4646V16.472V16.4794V16.4869V16.4943V16.5019V16.5094V16.517V16.5247V16.5324V16.5401V16.5478V16.5556V16.5635V16.5714V16.5793V16.5872V16.5952V16.6032V16.6113V16.6194V16.6275V16.6357V16.6439V16.6521V16.6604V16.6687V16.6771V16.6855V16.6939V16.7023V16.7108V16.7193V16.7279V16.7365V16.7451V16.7538V16.7624V16.7712V16.7799V16.7887V16.7975V16.8064V16.8152V16.8242V16.8331V16.8421V16.8511V16.8601V16.8692V16.8783V16.8874V16.8965V16.9057V16.9149V16.9242V16.9334V16.9427V16.952V16.9614V16.9708V16.9802V16.9896V16.9991V17.0086V17.0181V17.0276V17.0372V17.0468V17.0564V17.066V17.0757V17.0854V17.0951V17.1048V17.1146V17.1244V17.1342V17.1441V17.1539V17.1638V17.1737V17.1836V17.1936V17.2036V17.2136V17.2236V17.2336V17.2437V17.2538V17.2639V17.274V17.2841V17.2943V17.3045V17.3147V17.3249V17.3351V17.3454V17.3557V17.366V17.3763V17.3866V17.397V17.4073V17.4177V17.4281V17.4386V17.449V17.4595V17.4699V17.4804V17.4909V17.5014V17.512V17.5225V17.5331V17.5437V17.5543V17.5649V17.5755V17.5861V17.5968V17.6074V17.6181V17.6288V17.6395V17.6502V17.6609V17.6717V17.6824V17.6932V17.704V17.7148V17.7255V17.7364V17.7472V17.758V17.7688V17.7797V17.7905V17.8014V17.8123V17.8232V17.834V17.8449V17.8559V17.8668V17.8777V17.8886V17.8996V17.9105V17.9215V17.9324V17.9434V17.9544V17.9653V17.9763V17.9873V17.9983V18.0093V18.0203V18.0313V18.0423V18.0533V18.0644V18.0754V18.0864V18.0975V18.1085V18.1195V18.1306V18.1416V18.1526V18.1637V18.1747V18.1858V18.1968V18.2079V18.2189V18.23V18.241V18.2521V18.2631V18.2742V18.2853V18.2963V18.3074V18.3184V18.3294V18.3405V18.3515V18.3626V18.3736V18.3846V18.3957V18.4067V18.4177V18.4288V18.4398V18.4508V18.4618V18.4728V18.4838V18.4948V18.5058V18.5168V18.5278V18.5387V18.5497V18.5607V18.5716V18.5826V18.5935V18.6044V18.6154V18.6263V18.6372V18.6481V18.659V18.6699V18.6808V18.6916V18.7025V18.7133V18.7242V18.735V18.7458V18.7566V18.7674V18.7782V18.789V18.7998V18.8105V18.8213V18.832V18.8427V18.8534V18.8641V18.8748V18.8855V18.8961V18.9068V18.9174V18.928V18.9386V18.9492V18.9598V18.9703V18.9809V18.9914V19.0019V19.0124V19.0229V19.0333V19.0438V19.0542V19.0646V19.075V19.0854V19.0958V19.1061V19.1164V19.1267V19.137V19.1473V19.1575V19.1678V19.178V19.1882V19.1983V19.2085V19.2186V19.2287V19.2388V19.2489V19.2589V19.269V19.279V19.289V19.2989V19.3089V19.3188V19.3287V19.3385V19.3484V19.3582V19.368V19.3778V19.3875V19.3973V19.407V19.4166V19.4263V19.4359V19.4455V19.4551V19.4646V19.4742V19.4837V19.4931V19.5026V19.512V19.5214V19.5308V19.5401V19.5494V19.5587V19.5679V19.5772V19.5863V19.5955V19.6046V19.6138V19.6228V19.6319V19.6409V19.6499V19.6588V19.6677V19.6766V19.6855V19.6943V19.7031V19.7119V19.7206V19.7293V19.738V19.7466V19.7552V19.7638V19.7723V19.7808V19.7893V19.7977V19.8061V19.8145V19.8228V19.8311V19.8394V19.8476V19.8558V19.8639V19.8652H11.9997H13.8211ZM3.22515 12.5988L4.27096 11.553V17.6152C4.27096 19.6863 5.9499 21.3652 8.02096 21.3652H11.9997H16.7728C18.4241 21.3652 19.7285 19.9957 19.7285 18.3492V11.5528L20.7745 12.5988C21.0674 12.8917 21.5423 12.8917 21.8352 12.5988C22.1281 12.3059 22.1281 11.831 21.8352 11.5381L13.5908 3.29378C12.7121 2.4151 11.2875 2.4151 10.4088 3.29378L2.16449 11.5381C1.8716 11.831 1.8716 12.3059 2.16449 12.5988C2.45739 12.8917 2.93226 12.8917 3.22515 12.5988Z" fill="#currentColor"/>
</svg>
