<svg width="24" height="25" viewBox="0 0 24 25" fill="none" xmlns="http://www.w3.org/2000/svg">
<path d="M12.0012 20.6909C10.0417 20.6909 9.20703 19.006 9.03467 18.1636L14.9678 18.1631C14.7954 19.0056 13.9608 20.6909 12.0012 20.6909Z" fill="#F7C8C8"/>
<path fill-rule="evenodd" clip-rule="evenodd" d="M5.13485 16.9431H3.67285C3.25864 16.9431 2.92285 17.2789 2.92285 17.6931C2.92285 18.1073 3.25864 18.4431 3.67285 18.4431H8.46966C8.63443 18.8778 8.90012 19.3652 9.29073 19.798C9.88598 20.4576 10.7781 20.9933 12.001 20.9933C13.224 20.9933 14.1161 20.4575 14.7113 19.7977C15.1018 19.365 15.3674 18.8778 15.5322 18.4431H20.3275C20.7417 18.4431 21.0775 18.1073 21.0775 17.6931C21.0775 17.2789 20.7417 16.9431 20.3275 16.9431H18.8657V10.9763V10.96L18.865 10.9437C18.8157 9.81041 18.4231 8.12967 17.3846 6.71142C16.3209 5.25891 14.5962 4.11145 12.0003 4.11145C9.40437 4.11145 7.67967 5.25891 6.61604 6.71142C5.5775 8.12967 5.18493 9.81041 5.13556 10.9437L5.13485 10.96V10.9763V16.9431ZM6.63485 16.9431H17.3657V10.9933C17.3233 10.0881 16.9967 8.72072 16.1743 7.59763C15.3722 6.50228 14.0836 5.61145 12.0003 5.61145C9.91698 5.61145 8.62835 6.50228 7.82626 7.59763C7.00386 8.72072 6.67734 10.0881 6.63485 10.9932V16.9431ZM13.8628 18.4431H10.139C10.2152 18.5627 10.3034 18.6812 10.4043 18.7931C10.7594 19.1865 11.2644 19.4933 12.001 19.4933C12.7375 19.4933 13.2425 19.1865 13.5976 18.7929C13.6985 18.6811 13.7866 18.5626 13.8628 18.4431Z" fill="#currentColor"/>
</svg>
