<svg width="24" height="25" viewBox="0 0 24 25" fill="none" xmlns="http://www.w3.org/2000/svg">
<path fill-rule="evenodd" clip-rule="evenodd" d="M14.673 7.73908C14.673 9.21533 13.4763 10.4121 12 10.4121C10.5238 10.4121 9.32703 9.21533 9.32703 7.73908C9.32703 6.26284 10.5238 5.0661 12 5.0661C13.4763 5.0661 14.673 6.26284 14.673 7.73908ZM16.173 7.73908C16.173 10.0438 14.3047 11.9121 12 11.9121C9.69534 11.9121 7.82703 10.0438 7.82703 7.73908C7.82703 5.43441 9.69534 3.5661 12 3.5661C14.3047 3.5661 16.173 5.43441 16.173 7.73908ZM5.81649 17.8678C6.50218 16.2585 8.22005 14.217 11.9982 14.217C15.7767 14.217 17.4969 16.2588 18.1835 17.8683C18.4098 18.3987 18.1554 18.9994 17.5461 19.2201C16.4443 19.6193 14.6457 20.0387 12.0002 20.0387C9.35475 20.0387 7.5562 19.6193 6.45436 19.2201C5.84512 18.9994 5.59037 18.3985 5.81649 17.8678ZM11.9982 12.717C7.52344 12.717 5.31806 15.2108 4.43652 17.2799C3.84539 18.6673 4.59234 20.1409 5.94343 20.6304C7.22182 21.0935 9.19461 21.5387 12.0002 21.5387C14.8059 21.5387 16.7786 21.0935 18.057 20.6304C19.4081 20.1409 20.1552 18.6671 19.5632 17.2797C18.6805 15.2107 16.4729 12.717 11.9982 12.717Z" fill="#currentColor"/>
</svg>
