<svg width="24" height="25" viewBox="0 0 24 25" fill="none" xmlns="http://www.w3.org/2000/svg">
<path fill-rule="evenodd" clip-rule="evenodd" d="M12.2284 21.5522V21.5504H4.74658C3.78008 21.5504 2.99658 20.7669 2.99658 19.8004V12.5499C2.99658 12.5196 2.99838 12.4897 3.00187 12.4604C3.05196 7.53213 7.06256 3.55249 12.0027 3.55249C16.9739 3.55249 21.0039 7.58249 21.0039 12.5537C21.0039 17.4495 17.0953 21.4324 12.2284 21.5522ZM19.5039 12.5537C19.5039 16.6096 16.2851 19.9136 12.2626 20.0506L12.2456 20.0504H4.74658C4.60851 20.0504 4.49658 19.9385 4.49658 19.8004V12.5537H4.5014C4.5014 8.41092 7.85982 5.05249 12.0027 5.05249C16.1455 5.05249 19.5039 8.41092 19.5039 12.5537ZM7.39301 10.6235C7.39301 10.2092 7.72879 9.87346 8.14301 9.87346H15.8584C16.2726 9.87346 16.6084 10.2092 16.6084 10.6235C16.6084 11.0377 16.2726 11.3735 15.8584 11.3735H8.14301C7.72879 11.3735 7.39301 11.0377 7.39301 10.6235ZM7.39301 14.4811C7.39301 14.0669 7.72879 13.7311 8.14301 13.7311H13.2866C13.7008 13.7311 14.0366 14.0669 14.0366 14.4811C14.0366 14.8953 13.7008 15.2311 13.2866 15.2311H8.14301C7.72879 15.2311 7.39301 14.8953 7.39301 14.4811Z" fill="#currentColor"/>
</svg>
