<svg width="24" height="25" viewBox="0 0 24 25" fill="none" xmlns="http://www.w3.org/2000/svg">
<path d="M9.42822 17.3393V21.5481H14.5711V17.3393C14.5711 16.2182 13.6911 14.954 11.9997 14.954C10.3082 14.954 9.42822 16.2182 9.42822 17.3393Z" fill="#F7C8C8"/>
<path fill-rule="evenodd" clip-rule="evenodd" d="M12.5302 4.9068C12.2373 4.61391 11.7624 4.61391 11.4695 4.9068L5.77096 10.6053V18.1676C5.77096 19.4103 6.77832 20.4176 8.02096 20.4176H8.67822V20.416V20.4098V20.4067V20.4035V20.397V20.0992V19.1195V16.8917C8.67822 15.3963 9.85513 13.7563 11.9997 13.7563C14.1442 13.7563 15.3211 15.3963 15.3211 16.8917V20.4176H16.7728C17.5578 20.4176 18.2285 19.7581 18.2285 18.9016V10.6051L12.5302 4.9068ZM13.8211 20.4176V16.8917C13.8211 16.1448 13.238 15.2563 11.9997 15.2563C10.7613 15.2563 10.1782 16.1448 10.1782 16.8917V19.1195V20.0992V20.397V20.4035V20.4067V20.4098V20.416V20.4176H11.9997H13.8211ZM3.22515 13.1512L4.27096 12.1053V18.1676C4.27096 20.2387 5.9499 21.9176 8.02096 21.9176H11.9997H16.7728C18.4241 21.9176 19.7285 20.5481 19.7285 18.9016V12.1051L20.7745 13.1512C21.0674 13.444 21.5423 13.444 21.8352 13.1512C22.1281 12.8583 22.1281 12.3834 21.8352 12.0905L13.5908 3.84614C12.7121 2.96746 11.2875 2.96746 10.4088 3.84614L2.16449 12.0905C1.8716 12.3834 1.8716 12.8583 2.16449 13.1512C2.45739 13.444 2.93226 13.444 3.22515 13.1512Z" fill="#currentColor"/>
</svg>
