<svg width="24" height="24" viewBox="0 0 24 24" fill="none" xmlns="http://www.w3.org/2000/svg">
<path fill-rule="evenodd" clip-rule="evenodd" d="M14.673 7.18672C14.673 8.66296 13.4763 9.8597 12 9.8597C10.5238 9.8597 9.32703 8.66296 9.32703 7.18672C9.32703 5.71047 10.5238 4.51373 12 4.51373C13.4763 4.51373 14.673 5.71047 14.673 7.18672ZM16.173 7.18672C16.173 9.49139 14.3047 11.3597 12 11.3597C9.69534 11.3597 7.82703 9.49139 7.82703 7.18672C7.82703 4.88204 9.69534 3.01373 12 3.01373C14.3047 3.01373 16.173 4.88204 16.173 7.18672ZM5.81649 17.3154C6.50218 15.7061 8.22005 13.6646 11.9982 13.6646C15.7767 13.6646 17.4969 15.7064 18.1835 17.316C18.4098 17.8463 18.1554 18.447 17.5461 18.6677C16.4443 19.0669 14.6457 19.4863 12.0002 19.4863C9.35475 19.4863 7.5562 19.0669 6.45436 18.6677C5.84512 18.447 5.59037 17.8462 5.81649 17.3154ZM11.9982 12.1646C7.52344 12.1646 5.31806 14.6584 4.43652 16.7275C3.84539 18.1149 4.59234 19.5885 5.94343 20.078C7.22182 20.5412 9.19461 20.9863 12.0002 20.9863C14.8059 20.9863 16.7786 20.5412 18.057 20.078C19.4081 19.5885 20.1552 18.1147 19.5632 16.7273C18.6805 14.6584 16.4729 12.1646 11.9982 12.1646Z" fill="#currentColor" />
</svg>
