<svg width="24" height="25" viewBox="0 0 24 25" fill="none" xmlns="http://www.w3.org/2000/svg">
<style type="text/css">
  .st8 {
    cursor: pointer;
  }
</style>
<path class="st8" d="M12 22.3242C9.34711 22.3266 6.80218 21.2738 4.9263 19.3979C3.05042 17.5221 1.99762 14.9771 2 12.3242V12.1242C2.08179 8.11645 4.5478 4.54438 8.26637 3.04729C11.9849 1.55019 16.2381 2.41712 19.074 5.25023C21.9365 8.11031 22.7932 12.4136 21.2443 16.1519C19.6955 19.8902 16.0465 22.3266 12 22.3242ZM12 13.7342L14.59 16.3242L16 14.9142L13.41 12.3242L16 9.73423L14.59 8.32423L12 10.9142L9.41001 8.32423L8.00001 9.73423L10.59 12.3242L8.00001 14.9142L9.41001 16.3242L12 13.7352V13.7342Z" fill="#2E3A59"/>
</svg>
