<?xml version="1.0" encoding="utf-8"?>
<!-- Generator: Adobe Illustrator 26.0.2, SVG Export Plug-In . SVG Version: 6.00 Build 0)  -->
<svg version="1.1" id="레이어_1" xmlns="http://www.w3.org/2000/svg" xmlns:xlink="http://www.w3.org/1999/xlink" x="0px"
	 y="0px" viewBox="0 0 300 130" style="enable-background:new 0 0 300 130;" xml:space="preserve">
<style type="text/css">
	.st0{fill-rule:evenodd;clip-rule:evenodd;fill:#FFFFFF;}
	.st1{fill:#F5E8D6;}
	.st2{fill:#333333;}
</style>
<path class="st0" d="M202.1,15.4c0.1,0,0.2,0,0.3,0c1.8,0,3.6,0.3,5.3,0.9c1.6,0.6,2.3,1.3,2.3,2.3v17.8c1.8-0.2,3.5-0.5,5.2-1
	l5.1-1.1c0-0.6,0.1-1.1,0.1-1.7v-3.9c0-0.6,0-1.1-0.1-1.7v-7.2c0-0.9,0.8-1.6,2.3-2.1c1.4-0.4,2.8-0.7,4.3-0.9
	c0.4,0,0.8-0.1,1.1-0.1l0.1,0l0.1,0c1.6-0.2,3.3-0.2,4.9,0c1.6,0.4,2.4,1.1,2.4,2.2v18.5l0,0.2v0l-0.4,18.6c-0.1,2.2-1,4.2-2.5,5.8
	c-1.7,1.6-3.8,2.7-6.1,3.3c-1.5,0.3-3.1,0.6-4.7,0.9c-5.1,0.9-10.2,1.4-15.4,1.4c-2.7,0.1-5.3-0.6-7.6-2c-1-0.6-1.8-1.4-2.4-2.4
	c-0.6-1-1-2.1-1.1-3.2c-0.4-2.6-0.8-5.6-1.1-9.3c-0.3-3.6-0.6-6.9-0.6-10.9V28.7V18.3c0-1,0.9-1.7,2.5-2.2c1.8-0.5,3.7-0.8,5.5-0.7
	C201.9,15.4,202,15.4,202.1,15.4z M219.5,54.4c-1.2,0.6-2.5,1.1-3.7,1.5c-1.5,0.4-3,0.7-4.5,0.8c0-0.1,0-0.2-0.1-0.3v-1.5v-3v-3
	c0-0.7,0-1.4,0-2.1l2.3-0.5l1.9-0.5l1.9-0.5l1.8-0.3L219.5,54.4z M113.2,19.4l0-0.3c-0.4-0.8-1.3-1.5-3.1-1.9
	c-1.9-0.4-3.9-0.5-5.8-0.4c-1.8,0.2-3.6,0.7-5.3,1.4c-1.5,0.7-2.2,1.4-2.2,2.5l0.4,16.1l-8.3,1V22.4c0-0.4-0.1-0.8-0.4-1.1
	c-0.3-0.7-1.1-1.3-2.5-1.6c-1.9-0.5-3.8-0.6-5.7-0.4c-1.8,0.2-3.6,0.7-5.3,1.5c-1.6,0.7-2.4,1.7-2.4,2.6l1.2,42.7
	c0,0.3,0.1,0.6,0.2,0.8c0.1,1.1,1.2,1.8,2.7,2.2c1.8,0.4,3.7,0.4,5.5,0c1.7-0.2,3.5-0.6,5.1-1.2c1.6-0.5,2.4-1.2,2.4-2.2V48.7l8-0.9
	l1,19.4c0,0.2,0.1,0.5,0.2,0.7c0.2,1,1.2,1.7,2.6,2.2c1.8,0.5,3.7,0.7,5.6,0.5c1.7-0.2,3.4-0.7,5-1.4c1.5-0.6,2.3-1.4,2.3-2.3
	l-1.1-47.2C113.3,19.6,113.2,19.5,113.2,19.4z M67.3,111.4c3.4,1.1,6.9,1.6,10.4,1.5l0.3,0c0.1,0,0.3,0,0.4,0c3.3,0,6.5-0.4,9.6-1.3
	c3.1-0.8,6-2.1,8.6-3.9c2.5-1.6,4.7-3.8,6.5-6.2c1.8-2.5,3-5.4,3.6-8.4c0.5-2.7,0.3-5.5-0.6-8c-0.8-2.4-2.2-4.5-4.2-6.2
	c-0.3-0.3-0.7-0.5-1-0.8c-0.3-0.2-0.6-0.5-1-0.7c-1.7-1.2-3.6-2.2-5.5-2.9c-3.2-1-6.5-1.5-9.9-1.4c-3.4,0-6.8,0.4-10,1.4
	c-3,0.8-5.9,2.1-8.5,3.9c-2.5,1.6-4.7,3.7-6.4,6.2C58,87.1,56.8,90,56.3,93c-0.6,2.6-0.6,5.3,0,8c0.7,2.4,2,4.6,3.8,6.3
	C62.2,109.2,64.7,110.6,67.3,111.4z M80.1,102.9c-0.3,0-0.6,0-0.9,0c-0.5-0.1-1-0.2-1.6-0.3c-1-0.3-1.9-0.9-2.7-1.6
	c-0.8-0.8-1.4-1.8-1.9-2.8c-0.5-1.4-0.7-2.8-0.6-4.3c0.1-1.6,0.4-3.1,0.9-4.5c0.5-1.2,1.3-2.3,2.3-3.1c0.9-0.8,1.9-1.5,3.1-1.9
	c1.1-0.4,2.3-0.6,3.5-0.6c0.7,0,1.4,0,2.1,0.2c0.2,0.1,0.5,0.2,0.7,0.3c1.1,0.5,2,1.2,2.7,2.2c1.6,2.1,2.3,4.7,2,7.2
	c-0.1,2.3-0.9,4.6-2.3,6.4h-0.1c-0.9,1-2,1.7-3.3,2.2C82.8,102.8,81.4,103,80.1,102.9z M182.8,81.8c0.1,0.1,0.1,0.2,0.2,0.2
	c0.6,0.9,1,1.9,1.1,3c0,1.3-0.5,2.6-1.4,3.5c-0.5,0.6-1.2,1.1-2,1.4c-0.7,0.3-1.6,0.5-2.4,0.5l-49.5,1.4c-0.7,0.1-1.5,0-2.2-0.2
	c-0.3-0.1-0.6-0.2-0.8-0.4c-0.1-0.1-0.2-0.1-0.3-0.2c-0.1-0.1-0.3-0.2-0.4-0.3c-0.2-0.2-0.4-0.3-0.5-0.5c-0.8-1.1-1.4-2.3-1.5-3.7
	c-0.1-1.3,0.1-2.5,0.8-3.6c0.4-0.6,0.9-1.1,1.5-1.4c0.6-0.3,1.3-0.5,2-0.5l51.1-1.2c0.4,0,0.8,0,1.2,0c0.3,0.1,0.7,0.1,1,0.3
	c0.7,0.3,1.3,0.7,1.8,1.3C182.6,81.6,182.7,81.7,182.8,81.8z M130.8,50.1l0.7,5.4c0.3,1,0.7,1.8,1.3,2.6c0.2,0.3,0.4,0.5,0.7,0.7
	l0.1,0.1c0.1,0,0.1,0.1,0.1,0.1c0.3,0.3,0.7,0.6,1.1,0.9c0.2,0.1,0.3,0.2,0.5,0.3c2.2,1.2,4.7,1.9,7.2,1.9h6.8l7.2-0.4
	c2.4-0.1,4.8-0.3,7.2-0.8l1-0.2c1.9-0.3,3.9-0.6,5.6-1c0.8-0.2,1.5-0.6,2.2-1.1c0.6-0.5,1.1-1.2,1.4-1.9c0.3-0.7,0.6-1.4,0.7-2.1
	c0.1-0.6,0.1-1.3,0-1.9c-0.1-0.7-0.4-1.3-0.8-1.8c-0.1-0.1-0.1-0.2-0.2-0.2l0,0c-0.4-0.5-1-0.9-1.6-1.2c-1.5-0.6-3.2-0.6-4.8,0
	c-1.5,0.4-3.1,0.8-4.7,1l-5.5,0.6h-5.6h-4.4l-1.8-16.4c0.4,0,0.9,0,1.3-0.1c0.4,0,0.8-0.1,1.2-0.1c0.6-0.1,1.3-0.1,1.9-0.2l0,0l0,0
	c1.5-0.2,3.1-0.3,4.7-0.4c3.5-0.1,7.2-0.4,11.5-0.8c0.7,0,1.4-0.2,2.1-0.5c0.2-0.1,0.5-0.2,0.7-0.4c0.6-0.3,1.1-0.8,1.5-1.3
	c0.9-1,1.3-2.3,1.3-3.7c0-1.3-0.5-2.6-1.4-3.5c-0.3-0.4-0.7-0.7-1.2-0.9c-0.3-0.2-0.6-0.3-0.9-0.4c-0.8-0.3-1.6-0.4-2.4-0.3
	l-29.4,1.8c-1.5,0.1-3,0.6-4.2,1.4c-0.3,0.2-0.6,0.4-0.8,0.6c-0.8,0.6-1.5,1.4-2,2.3c-0.6,1-0.9,2.2-1,3.3c-0.1,1.2-0.1,2.4,0,3.5
	L130.8,50.1z M283.9,66.4c0,0.1,0,0.2,0,0.2l0,0.5c0,0.9-0.8,1.7-2.4,2.3c-1.6,0.7-3.3,1.2-5,1.4c-1.9,0.2-3.7,0-5.5-0.5
	c-1.7-0.5-2.7-1.3-2.7-2.4l-1-19.9l-8.1,0.9v16.5c0,0.2,0,0.3-0.1,0.4v0.3c0,0.9-0.8,1.7-2.5,2.2c-1.6,0.6-3.3,1-5,1.2
	c-1.8,0.4-3.7,0.4-5.5,0c-1.7-0.4-2.7-1.2-2.7-2.4l-1.2-42.5c0-0.1,0-0.2,0-0.4l0-0.6c0-0.9,0.8-1.9,2.4-2.6
	c1.6-0.8,3.4-1.3,5.3-1.5c1.9-0.2,3.9-0.1,5.8,0.4c1.7,0.4,2.7,1.2,2.7,2.3v15.6l8.5-1l-0.4-16.1c0-1,0.7-1.8,2.2-2.5
	c1.7-0.7,3.5-1.2,5.3-1.4c1.9-0.1,3.9,0.1,5.8,0.4c1.8,0.4,2.7,1.1,2.7,2.2L283.9,66.4z M62.3,68.7c0.9-0.2,1.8-0.8,2.4-1.5
	c0.6-0.7,0.9-1.6,1-2.6V46.2c0-4-1.2-8-3.4-11.3c-0.4-0.6-0.9-1.3-1.3-1.9c-1.7-1.7-3.7-3.1-5.9-3.9c-2.2-0.9-4.6-1.2-7-1.1
	c-1.7,0-3.4,0.1-5,0.5V23c0-0.8-0.3-1.6-0.7-2.3c-0.1-0.2-0.2-0.4-0.4-0.6c-0.5-0.7-1.3-1.3-2.2-1.5c-2.7-1-5.7-1-8.4,0
	c-0.9,0.2-1.8,0.7-2.4,1.5c-0.6,0.7-0.9,1.7-1,2.6v8.5l-0.7-0.5c-0.4-0.2-0.8-0.3-1.3-0.3c-0.4-0.1-0.9,0-1.3,0h-1.9v-7.9
	c0-0.9-0.3-1.8-0.9-2.5c-0.5-0.7-1.3-1.3-2.2-1.5c-2.7-1-5.7-1-8.5,0c-0.9,0.2-1.8,0.7-2.4,1.5c-0.6,0.7-0.9,1.6-1,2.6
	c0,0.1,0,0.2,0,0.3v7.6H5.5c-0.9,0-1.7,0.2-2.5,0.6s-1.4,1-1.9,1.8C0.4,34,0,35.4,0,36.8c0,0.1,0,0.2,0,0.3c0,0.1,0,0.2,0,0.4
	c0,1.4,0.5,2.8,1.3,4c0.5,0.8,1.1,1.4,1.9,1.8C4,43.8,4.9,44,5.8,44H8v20.7c0,0.9,0.3,1.8,0.8,2.5c0.5,0.7,1.2,1.3,2.1,1.6
	c1.3,0.5,2.6,0.7,4,0.7c0.8,0.1,1.5,0.1,2.3,0c0.2,0,0.5-0.1,0.7-0.1c0.6-0.1,1.1-0.3,1.7-0.5c0.8-0.3,1.5-0.8,2.1-1.4
	c0.6-0.8,1-1.7,1.1-2.8c0-0.3,0-0.6,0-0.9v-2.9V44h2.8c1.1-0.1,2.1-0.5,3-1.2v21.7c0,0.2,0,0.3,0,0.5c0,0.9,0.3,1.7,0.8,2.5
	c0.5,0.7,1.2,1.3,2.1,1.6c1.3,0.5,2.6,0.8,4,0.7h2.2c0.8-0.1,1.7-0.3,2.5-0.7c0.8-0.3,1.4-0.8,2-1.4c0.8-0.8,1.2-1.9,1.2-3V45
	c0.6-1.1,1.4-2.1,2.4-2.9c0.8-0.6,1.8-0.9,2.9-0.9c0.3,0,0.7,0.1,1,0.2c0.3,0.2,0.5,0.4,0.7,0.7c0.8,1.4,1.1,3,1.1,4.5v18.4
	c0,0.9,0.3,1.8,0.8,2.6c0.5,0.8,1.3,1.3,2.2,1.6C57,70,59.8,69.8,62.3,68.7z M273.4,79.1c-0.1-0.8-0.5-1.6-1-2.3
	c-0.6-0.8-1.4-1.5-2.3-1.9c-2.3-1-4.7-1.4-7.2-1.2l-34,1.2c-0.8,0-1.7,0.1-2.4,0.4c-0.8,0.3-1.5,0.8-2,1.4c-0.1,0.1-0.1,0.2-0.2,0.2
	c-0.1,0.1-0.2,0.2-0.2,0.3c-0.2,0.4-0.4,0.7-0.6,1.1c-0.2,0.5-0.3,1-0.3,1.6c0,0.2,0,0.3,0,0.5c0,0.1,0,0.3,0,0.4c0,0.1,0,0.2,0,0.3
	c0.1,0.5,0.3,1,0.5,1.4c0.5,1,1.3,1.8,2.4,2.3c1,0.5,2.2,0.6,3.3,0.4l28.3-0.7v22.5c0,0.1,0,0.2,0,0.2c0,0.1,0,0.1,0,0.2
	c0.1,1.2,1,2.1,2.5,2.7c0.2,0.1,0.4,0.1,0.6,0.1c1.7,0.4,3.5,0.5,5.2,0.3c1.8-0.3,3.5-0.9,5-1.8c1.7-0.9,2.4-2,2.4-3.1V79.5l0-0.1
	l0-0.1v0c0,0,0-0.1,0-0.1L273.4,79.1z"/>
<path class="st1" d="M291.8,20.1c-0.7,0.6-1.4,1.1-2.1,1.7c-0.2,0.2-0.4,0.4-0.4,0.7c0,0.2,0.2,0.4,0.3,0.5l8.1,7.1
	c-3.7-0.3-11.6-1.4-11.6-1.4s-2.2,8.5-3.4,11.5c-1.3-2.9-4.5-9.4-4.5-9.4s-6.7,2-9.8,2c1.9-3.8,3.7-6,5.3-9.9
	c-1.9-3.9-4.2-7.5-6.7-11c3.7,2.3,7.5,4.4,11.5,6.2c0-4.3,0-12.7,0-16.6c3.1,5.9,5.6,12.1,7.1,14.7c4.5-0.2,9-0.7,13.4-1.5
	C296.5,16.5,294.1,18.3,291.8,20.1z"/>
<path class="st2" d="M299.5,16.1c0.8-0.5,0.7-3.2-0.6-3c-4.3,0.6-8.6,1.2-12.9,1.4c-2.5-4.5-4.3-9.3-6.6-13.9
	c-0.8-1.5-1.9-0.4-1.9,0.8c0,5-0.4,8.5-0.9,13.3c-3.4-1.6-5.9-2.4-9.1-4.4c-1.5-0.9-1.8,1.7-1.2,2.6c2.3,3.2,4.3,6.5,6.1,9.9
	c-1.4,3-3.2,5.8-4.7,8.7c-0.4,0.7-0.4,2.8,0.8,2.7c3.2-0.2,6.3-0.8,9.3-1.8c1.4,2.8,2.8,5.7,4.1,8.5c0,0.2,0.2,0.4,0.3,0.5
	c0.2,0.1,0.4,0.2,0.6,0.2c0.2,0,0.4-0.1,0.6-0.2c0.2-0.1,0.3-0.3,0.3-0.6c1.3-3.5,2.3-7,3.2-10.6c3.6,0.5,7.3,1,10.9,1.3
	c1.4,0.1,1.1-2.4,0.5-3l-4.3-3.8l-2-1.8c-0.2-0.2-0.5-0.4-0.8-0.7c0.5-0.4,1.1-0.8,1.3-1C294.7,19.7,297.1,17.9,299.5,16.1z
	 M292.6,27.5l0.7,0.6c-2.4-0.3-4.8-0.6-7.2-0.9c-0.4-0.1-0.8,0.5-0.9,0.8c-0.8,3.1-1.7,6.2-2.7,9.3c-1.1-2.4-2.3-4.8-3.4-7.2
	c-0.2-0.5-0.6-0.9-1.2-0.7c-2.3,0.7-4.7,1.3-7.1,1.7c0.5-0.9,1.1-1.9,1.6-2.8c0.8-1.5,2.5-3.8,2.3-5.5c-0.2-1.7-2-4.2-2.9-5.7
	c-0.2-0.3-0.4-0.6-0.6-1c2.3,1.3,3.6,1.6,6,2.4c1.7,0.6,1.6-0.8,1.7-1.4c0.3-3.9,0.4-6.7,0.6-10.7c1.7,3.7,3.3,7.5,5.3,11
	c0.1,0.1,0.2,0.2,0.3,0.3c0.1,0.1,0.3,0.1,0.4,0.1c2.6-0.2,5.2-0.4,7.9-0.7c-0.7,0.6-1.5,1.1-2.2,1.7c-1.7,1.4-4.2,3.1-2.3,5.5
	C290.1,25.4,291.3,26.5,292.6,27.5z"/>
<path class="st1" d="M229.3,99.8c2.2,2.6,4.7,5,7.5,6.9c-1.8-5.2-3.4-10.4-4.7-15.7l9.3-7.9c-4.1-0.2-8.3-0.2-12.4,0l3.8-15.9
	c-3.9,3.4-7,7.2-10.8,10.7c-4.4,0.2-8.9,0.1-13.3-0.3c2.8,2.3,5.6,6,8.3,8.3c-3.3,3.6-6.8,7-10.6,10.1l12.9-2.3
	c-0.1,4.2,0.5,8.4,1.6,12.4l4.4-11.1C226.6,96.5,227.9,98.2,229.3,99.8z"/>
<path class="st2" d="M241.5,81.3c-3.4-0.1-7.2-0.2-10.8,0c1.1-4.6,2.1-9.1,3.2-13.8c0-0.8-0.6-3-1.6-1.9c-2.3,2.1-4.3,4.2-6.4,6.4
	c-1,1.2-2.1,2.3-3.3,3.4c-1.1,0.8-2.5,1.1-3.8,0.9c-3.3,0.1-6.7,0.1-10-0.2c-1.4,0-1.3,2.6-0.5,3.2c2.5,2.1,4.5,4.6,6.7,6.8
	c-2.9,3-6,5.9-9.2,8.6c-0.7,0.6-0.8,3.4,0.6,3.2l11.9-2.1c0.1,3.7,0.7,7.4,1.6,11c0.3,1.2,1.5,1.8,2.1,0.4l3.7-9.5
	c1,1.3,2.1,2.6,3.1,3.8c2.2,2.6,4.7,4.9,7.5,6.9c1.4,1,1.9-1.4,1.5-2.3c-1.6-4.6-3-9.3-4.2-13.9l8.6-7.2
	C242.9,83.8,242.8,81.4,241.5,81.3z M221.2,102c-0.5-2.8-0.8-5.6-0.8-8.4c0-0.5-0.3-1.8-1.1-1.7l-7.8,1.5c2.1-1.9,4.1-3.9,6-5.9
	c0.4-0.4,0.6-0.9,0.6-1.5c0-0.5-0.2-1.1-0.5-1.5c-1.7-1.5-3.3-3.1-4.8-4.9l6.9,0.2c1.5,0,2.4,0.1,3.5-0.8c1-0.8,2.3-2.2,3.5-3.4
	c1.2-1.2,2.7-2.9,4.2-4.3c-0.9,3.8-1.8,7.6-2.7,11.4c0,0.7-0.1,2.2,1.1,2.2c2.7-0.1,5.5-0.2,8.2-0.1l-5.7,4.8
	c-0.2,0.3-0.4,0.6-0.5,0.9c-0.1,0.3-0.1,0.7,0,1.1c0.9,3.8,2,7.5,3.2,11.3c-1.6-1.4-3-2.8-4.4-4.3c-1.3-1.5-2.5-3.1-3.8-4.6
	c-0.6-0.8-1.4-0.5-1.7,0.3C223.3,96.7,222.3,99.3,221.2,102z"/>
<path class="st1" d="M48.9,101.5c1-0.4,2-0.8,3-1.2c1-0.4,0.7-0.3,0.7-0.6c0-0.3-0.1-0.5-0.2-0.7L45.5,88l12.4,4.6
	c0.4,0.2,0.9,0.3,1.4,0.2c0.5-0.3,0.9-0.8,1-1.4c1.4-3.6,3.4-7,5.8-10.1l1.5,11.2c0,0.2,0,0.4,0.1,0.6c0.1,0.2,0.2,0.4,0.4,0.5
	c0.3,0.2,0.6,0.3,0.9,0.3c3.7-0.4,7.4-0.1,11,0.9c-3.4,3.7-6.2,5.7-9.4,9.6c0.9,5.1,2.3,10.1,4,14.9c-3.5-3.9-7.2-7.6-11.1-11
	c-0.7,4.2-2.6,8.1-5.6,11.2c0.5-3.6,0.3-7.2-0.5-10.7c-6.1-1.6-12.3-2.7-18.5-3.4C42.2,104.2,45.6,102.9,48.9,101.5z"/>
<path class="st2" d="M58.9,124.8c2.4-2.5,4.9-10.1,5.9-13.4c2.9,2.7,5.7,5.5,8.3,8.5c0.8,0.9,4,1.2,3.3-0.7c-0.7-1.9-1.6-4.5-2.2-7
	l-0.8-3.4c-0.4-1.1-0.6-2.3-0.7-3.4c0.2-1.7,2.9-3.6,4.1-4.7c1.7-1.6,3.3-3.1,5-4.9c0.8-0.9-0.8-1.8-1.4-2c-2.1-0.6-4.2-1-6.3-1.1
	c-1-0.1-1.9-0.1-2.9-0.1c-1,0-1.2,0.1-1.8,0.2c-0.1-0.7-0.1-1.6-0.2-2l-0.4-3l-0.8-6c-0.1-0.4-0.3-0.7-0.6-1c-0.3-0.3-0.6-0.5-1-0.6
	c-0.4-0.1-0.8-0.1-1.2,0c-0.4,0.1-0.7,0.3-1,0.5c-1.3,1.7-2.5,3.6-3.6,5.5c-0.5,1-1,1.9-1.5,2.9l-0.4,1.4l-0.3,1.2
	c-0.2-0.1-0.5-0.1-0.7-0.2c-0.2-0.1-1.2-0.3-1.7-0.5l-3.1-1.2c-2.2-0.7-4.4-1.6-6.6-2.5c-0.7-0.2-3.5-0.3-2.6,1.2l4.5,7.1
	c0.8,1,1.4,2.1,2,3.2c0.4,1,0.4,0.7-0.6,1.1l-1.8,0.7c-3.3,1.4-6.6,2.6-10,3.8c-2,0.7,0.2,2.4,1.3,2.5c5.6,0.7,9.4,1.8,14.9,3.2
	c0.6,3.1,1,9.8,1.3,13.6C55.3,125,57.9,125.8,58.9,124.8z M54,100.8c0.9-1,0.1-2.1-0.5-3.1c-1.4-2.4-2.9-4.7-4.4-7.1
	c1.3,0.4,2.6,1,3.9,1.5c2.1,1.2,4.4,1.8,6.8,2c2.2-0.3,2.5-2.5,3.3-4.2c0.6-1.2,1.2-2.4,1.9-3.5l0.3,2.3c0.2,1.7,0,4.5,1.5,5.7
	c1.5,1.2,3.9,0.6,5.5,0.6c1.6,0,3.1,0.2,4.7,0.4l-3.8,3.7c-1.3,1.3-4.3,3.5-4.2,5.4c0.3,2.6,0.9,5.1,1.8,7.6l0.3,1.1
	c-2-2-4-3.9-6.1-5.8c-0.6-0.5-2.9-0.8-3,0.3c-0.4,1.9-2.8,9.6-3.6,11.4c-0.1-1.4-0.3-8.6-0.7-9.9c-0.1-0.3-0.3-0.7-0.6-0.9
	c-0.3-0.2-0.6-0.4-1-0.5c-4.4-1.1-7.1-2.2-11.6-2.8c1.9-0.7,3.7-1.4,5.6-2.1C51.9,102.1,53.1,101.7,54,100.8z"/>
</svg>
