<svg width="93" height="40" viewBox="0 0 93 40" fill="none" xmlns="http://www.w3.org/2000/svg">
<path fill-rule="evenodd" clip-rule="evenodd" d="M62.4868 4.72522C62.517 4.72522 62.5472 4.72552 62.5773 4.72612C63.133 4.71741 63.6859 4.80763 64.2106 4.99272C64.6959 5.17188 64.9169 5.39432 64.9169 5.70321V11.1708C65.4604 11.1097 65.9984 11.0064 66.5261 10.8619L68.0885 10.5123C68.0995 10.3414 68.1079 10.1703 68.1138 9.99911V8.80508C68.1079 8.6329 68.0994 8.4608 68.0883 8.28877V6.06214C68.0883 5.77262 68.3312 5.57228 68.795 5.4164C69.2218 5.28652 69.6599 5.19833 70.1029 5.15273C70.2185 5.13801 70.3345 5.12591 70.4508 5.1163L70.4954 5.11449L70.5253 5.11344C71.0289 5.04734 71.5393 5.05177 72.0419 5.12689C72.5278 5.26053 72.7929 5.46095 72.7929 5.79493V11.4728L72.7908 11.5476V11.5508L72.6589 17.2718C72.6378 17.9419 72.3606 18.5781 71.8849 19.0479C71.353 19.537 70.7097 19.887 70.0117 20.0673C69.5378 20.1689 69.0619 20.259 68.5841 20.3376C67.027 20.6083 65.4507 20.7565 63.8695 20.7802C63.0478 20.813 62.2344 20.6041 61.5283 20.1791C61.2315 19.9939 60.9801 19.7434 60.7927 19.4465C60.6053 19.1497 60.4867 18.814 60.4459 18.4646C60.3134 17.6629 60.203 16.7277 60.1146 15.6144C60.0263 14.5011 59.9159 13.499 59.9159 12.2744V8.82311V5.63906C59.9159 5.32731 60.1809 5.10465 60.6889 4.94878C61.242 4.7911 61.815 4.71606 62.3896 4.72612C62.4221 4.72552 62.4545 4.72522 62.4868 4.72522ZM67.8012 16.75C67.4311 16.9362 67.0471 17.0926 66.6525 17.2176C66.2048 17.3451 65.7454 17.4266 65.2814 17.4611C65.2759 17.432 65.2688 17.4031 65.261 17.3746V16.9059V15.993V15.0577C65.2494 14.8439 65.2483 14.6298 65.2576 14.416L65.9764 14.2568L66.5691 14.1023L67.1649 13.9448L67.7133 13.8507L67.8012 16.75ZM35.2023 5.95389L35.2002 5.86216C35.0677 5.61727 34.8027 5.39462 34.2505 5.28321C33.6613 5.16911 33.0609 5.12426 32.4614 5.14965C31.9079 5.21883 31.3658 5.36104 30.849 5.57273C30.3852 5.77315 30.1643 6.01804 30.1643 6.32979L30.2747 11.2729L27.737 11.5764V6.89229C27.737 6.75903 27.6994 6.64131 27.6233 6.5405C27.5264 6.31003 27.2723 6.14747 26.8512 6.06259C26.2804 5.92316 25.6899 5.88545 25.1062 5.95118C24.5454 6.00887 23.9994 6.1673 23.4939 6.41888C23.008 6.64154 22.765 6.93098 22.765 7.22041L23.1405 20.3576C23.1405 20.4498 23.1601 20.5341 23.1972 20.6111C23.2414 20.942 23.5607 21.1582 24.0303 21.2843C24.5907 21.3986 25.1682 21.3986 25.7285 21.2843C26.2621 21.2251 26.7875 21.1058 27.2947 20.929C27.78 20.7745 28.044 20.5522 28.044 20.2649V14.9702L30.4828 14.7074L30.7828 20.6916C30.7828 20.7679 30.7989 20.8408 30.8299 20.9093C30.8788 21.2188 31.1948 21.4362 31.6401 21.5809C32.1995 21.7355 32.7821 21.7877 33.3599 21.7353C33.8839 21.6675 34.3958 21.525 34.88 21.3121C35.3437 21.1144 35.5863 20.8919 35.5863 20.6046L35.2547 6.08602C35.24 6.03975 35.2227 5.99573 35.2023 5.95389ZM21.1526 34.2742C22.1823 34.598 23.2559 34.756 24.3342 34.743L24.4204 34.7418C24.4614 34.7415 24.5024 34.741 24.5434 34.7403C25.5402 34.7394 26.5324 34.6055 27.4943 34.3418C28.4342 34.0887 29.3272 33.6839 30.1384 33.1434C30.9127 32.6366 31.5866 31.9892 32.1253 31.2343C32.6687 30.4641 33.0443 29.5873 33.2278 28.6611C33.386 27.836 33.3245 26.9834 33.0497 26.1898C32.8041 25.4494 32.3624 24.7904 31.7721 24.2838C31.6733 24.1983 31.5723 24.1159 31.469 24.0364C31.3733 23.9628 31.2758 23.8917 31.1765 23.8233C30.657 23.4488 30.0856 23.151 29.4795 22.9407C28.4995 22.6367 27.4788 22.4867 26.4535 22.4954C25.4152 22.4859 24.381 22.6283 23.3833 22.9183C22.4554 23.1734 21.575 23.5797 20.777 24.1207C20.0033 24.6226 19.3352 25.2733 18.8112 26.0356C18.2847 26.8112 17.9306 27.6923 17.7732 28.6186C17.5935 29.4251 17.5935 30.2615 17.7732 31.0679C17.991 31.8046 18.3942 32.4719 18.9437 33.005C19.574 33.5929 20.3297 34.0271 21.1526 34.2742ZM25.062 31.6468C24.9647 31.6468 24.8676 31.6423 24.7709 31.634C24.6103 31.6118 24.4512 31.5795 24.2943 31.537C23.9859 31.4309 23.7011 31.2651 23.456 31.0489C23.219 30.7947 23.026 30.5023 22.8848 30.1839C22.7399 29.7636 22.6795 29.3184 22.7067 28.8743C22.7271 28.3961 22.8246 27.9246 22.9953 27.4779C23.1533 27.1094 23.394 26.7826 23.6986 26.5235C23.974 26.27 24.2965 26.0736 24.6475 25.9458C24.9894 25.8319 25.3468 25.7724 25.707 25.7697C25.9236 25.7611 26.1398 25.7831 26.349 25.8346C26.4245 25.86 26.4988 25.8896 26.5715 25.9233C26.8987 26.0745 27.1842 26.3043 27.4033 26.5924C27.8789 27.2302 28.0997 28.0248 28.0217 28.819C28.0058 29.5394 27.7577 30.235 27.3149 30.8007H27.2708C26.9886 31.099 26.6437 31.3298 26.2615 31.4761C25.8793 31.6226 25.4695 31.6809 25.062 31.6468ZM56.5487 25.1754C56.5678 25.2001 56.5863 25.2254 56.6041 25.2511C56.8031 25.5155 56.9214 25.8343 56.9417 26.1681C56.9378 26.57 56.7883 26.9568 56.521 27.2554C56.3552 27.4426 56.151 27.5912 55.9225 27.691C55.6939 27.7907 55.4464 27.8393 55.1974 27.8331L40.0023 28.2748C39.773 28.311 39.5383 28.2895 39.3192 28.2125C39.2295 28.1809 39.1436 28.1405 39.0626 28.0918C39.0345 28.075 39.0069 28.0571 38.98 28.0383C38.9379 28.0116 38.8971 27.9828 38.8581 27.9518C38.7981 27.9042 38.7419 27.8516 38.69 27.7947C38.4328 27.4674 38.2721 27.0739 38.2262 26.6591C38.1823 26.2711 38.2678 25.8794 38.4691 25.5457C38.584 25.3662 38.7406 25.2176 38.9254 25.1127C39.1101 25.008 39.3174 24.9503 39.5293 24.9444L55.2115 24.566C55.3342 24.5556 55.4573 24.5606 55.5781 24.5803C55.6833 24.5974 55.7867 24.6259 55.8866 24.6654C56.1011 24.7505 56.2933 24.884 56.4483 25.0559C56.4835 25.0944 56.517 25.1343 56.5487 25.1754ZM40.6093 15.4147L40.8322 17.0621C40.9126 17.3562 41.0521 17.6306 41.2421 17.868C41.3046 17.9459 41.372 18.0196 41.4438 18.0881L41.4692 18.1141C41.4843 18.1294 41.4997 18.1444 41.5153 18.1591C41.6196 18.2584 41.7334 18.3471 41.8552 18.424C41.9038 18.4546 41.9536 18.4833 42.0046 18.5102C42.6831 18.8803 43.4381 19.0855 44.2095 19.1095H46.3039L48.5089 18.9984C49.2492 18.977 49.9866 18.8955 50.7138 18.7544L51.018 18.7053C51.6101 18.61 52.2172 18.5123 52.7437 18.3991C52.9891 18.3444 53.2164 18.2275 53.404 18.0594C53.5865 17.8968 53.7366 17.7007 53.8462 17.4817C53.9535 17.2753 54.0282 17.0533 54.0673 16.8237C54.098 16.6251 54.098 16.4229 54.0673 16.2244C54.0347 16.0203 53.9508 15.828 53.8233 15.6657C53.8035 15.6405 53.7827 15.6162 53.761 15.5926L53.7547 15.5844C53.6269 15.4205 53.4589 15.2928 53.2675 15.214C52.8004 15.021 52.2768 15.021 51.8097 15.214C51.3387 15.3506 50.859 15.4548 50.374 15.5258L48.6954 15.7039H46.9725H45.6252L45.0839 10.6621C45.2192 10.659 45.3563 10.6524 45.4954 10.6433C45.6193 10.6353 45.7447 10.6252 45.8717 10.614C46.0623 10.5971 46.2565 10.5773 46.4541 10.5572L46.4562 10.557L46.4577 10.5567C46.9168 10.5101 47.3949 10.4616 47.8916 10.4416C48.9726 10.3985 50.0965 10.3088 51.4202 10.1977C51.6407 10.1878 51.8568 10.1313 52.0542 10.0318C52.1245 9.99633 52.1919 9.95569 52.2559 9.91025C52.4326 9.80898 52.5886 9.67452 52.7153 9.51384C52.9762 9.1942 53.117 8.79208 53.1129 8.37817C53.1043 7.97612 52.9557 7.59001 52.6933 7.28712C52.586 7.17684 52.4643 7.08249 52.3321 7.0064C52.247 6.95742 52.1576 6.91595 52.0646 6.88275C51.8273 6.79786 51.5739 6.76864 51.3237 6.79726L42.312 7.35398C41.8499 7.38523 41.4024 7.53051 41.0089 7.77698C40.9181 7.8367 40.8319 7.90258 40.7505 7.97395C40.4988 8.1652 40.287 8.40544 40.1282 8.6809C39.9563 8.99656 39.8517 9.34482 39.8211 9.70336C39.7873 10.0651 39.7873 10.4291 39.8211 10.7907L40.6093 15.4147ZM87.5473 20.4459C87.5473 20.47 87.5457 20.4936 87.5423 20.5167L87.5469 20.6665C87.5469 20.9569 87.3042 21.1763 86.8191 21.377C86.3303 21.5915 85.813 21.733 85.2835 21.7972C84.7128 21.8525 84.1369 21.8001 83.5854 21.6428C83.0786 21.4883 82.7715 21.2442 82.7715 20.889L82.4644 14.7665L79.9934 15.03V20.112C79.9934 20.1594 79.9869 20.205 79.9739 20.2488V20.336C79.9739 20.6234 79.7313 20.8457 79.2215 21.0002C78.7242 21.1751 78.2093 21.2942 77.686 21.3555C77.1257 21.4697 76.5481 21.4697 75.9878 21.3555C75.4811 21.2195 75.1494 20.9785 75.1494 20.6017L74.7747 7.51331C74.7747 7.4747 74.7785 7.43684 74.7859 7.39965L74.7807 7.21966C74.7807 6.93015 75.0237 6.64071 75.5096 6.41805C76.0151 6.16655 76.5612 6.00812 77.122 5.95043C77.7129 5.88433 78.3108 5.92204 78.889 6.06176C79.4191 6.17316 79.7062 6.41798 79.7062 6.77428V11.5838L82.3126 11.2722L82.2021 6.32896C82.2021 6.01729 82.423 5.77232 82.8868 5.5719C83.4104 5.35758 83.9601 5.2153 84.5213 5.1489C85.1134 5.12253 85.7067 5.16738 86.2883 5.28246C86.8405 5.39379 87.1277 5.61645 87.1277 5.95043L87.5473 20.4459ZM19.6203 21.1485C19.9061 21.0747 20.161 20.9112 20.3482 20.682C20.5319 20.4581 20.6395 20.1811 20.6553 19.8912V14.2104C20.6655 12.9652 20.2945 11.752 19.6002 10.7324C19.4738 10.5345 19.3357 10.3432 19.1864 10.1596C18.6777 9.6293 18.0604 9.21711 17.3776 8.95179C16.6948 8.68646 15.9629 8.57431 15.2328 8.62321C14.7159 8.61322 14.2001 8.66693 13.6965 8.78322V7.09008C13.69 6.84263 13.6153 6.6024 13.4814 6.39604C13.447 6.32701 13.4063 6.26083 13.3598 6.19833C13.1929 5.97394 12.9591 5.80928 12.6926 5.72853C11.8571 5.42782 10.9441 5.42782 10.1084 5.72853C9.82386 5.79726 9.56983 5.95907 9.38602 6.18871C9.20222 6.41828 9.09897 6.70276 9.09238 6.99768V9.62516L8.87152 9.46929C8.74649 9.42114 8.61644 9.38929 8.48452 9.37411C8.34938 9.35856 8.21221 9.36044 8.0764 9.38027H7.48006V6.95321C7.4743 6.67361 7.38168 6.40296 7.21525 6.17925C7.04881 5.95554 6.81694 5.79012 6.55235 5.70629C5.70909 5.40573 4.78924 5.40573 3.94598 5.70629C3.6614 5.77503 3.40737 5.93683 3.22357 6.16648C3.04238 6.39274 2.93958 6.67234 2.93038 6.96283C2.92731 6.9907 2.92498 7.01872 2.92356 7.04689V9.38027H2.17898C1.90968 9.3696 1.64247 9.43218 1.40543 9.56146C1.16839 9.69074 0.970209 9.88193 0.831626 10.115C0.609786 10.4758 0.494861 10.893 0.500327 11.3174C0.499728 11.3526 0.499952 11.3876 0.501001 11.4226C0.500177 11.4603 0.500252 11.4981 0.5013 11.5358C0.513279 11.98 0.650441 12.4114 0.896762 12.7801C1.04111 13.0132 1.24266 13.2049 1.48202 13.3369C1.7213 13.4689 1.99039 13.5368 2.26336 13.5339H2.94819V19.8912C2.94947 20.1663 3.03467 20.4344 3.19227 20.6593C3.34987 20.884 3.57231 21.0549 3.82956 21.1485C4.22098 21.3014 4.63801 21.3768 5.05788 21.3708C5.29289 21.3925 5.52926 21.3925 5.7642 21.3708C5.83847 21.3621 5.91221 21.3501 5.98514 21.3348C6.15928 21.2984 6.32924 21.2431 6.49208 21.1701C6.73346 21.0657 6.95403 20.918 7.14307 20.7345C7.34066 20.4933 7.45573 20.1962 7.4737 19.8867C7.48463 19.7995 7.4868 19.711 7.48006 19.6228V18.7321V13.5246H8.33463C8.6657 13.4832 8.98008 13.3556 9.24699 13.1545V19.8456C9.24721 19.8959 9.25028 19.9459 9.25597 19.9957C9.25822 20.2669 9.34275 20.5313 9.49848 20.753C9.6554 20.9809 9.88009 21.153 10.1403 21.2442C10.5301 21.4031 10.9484 21.4788 11.3687 21.4667H12.0566C12.3156 21.4357 12.5689 21.3681 12.809 21.2658C13.0421 21.1618 13.2512 21.0104 13.4232 20.8209C13.6533 20.5756 13.7799 20.25 13.7763 19.9127V13.8583C13.9572 13.5129 14.2083 13.2098 14.5134 12.9686C14.77 12.7823 15.0783 12.6819 15.3948 12.6813C15.4975 12.6767 15.5994 12.7012 15.6889 12.752C15.7786 12.8028 15.8522 12.8778 15.9014 12.9686C16.1342 13.3969 16.2487 13.8801 16.2331 14.368V20.0241C16.229 20.3094 16.3165 20.5884 16.4824 20.8199C16.6484 21.0513 16.884 21.2228 17.1544 21.3091C17.9711 21.5344 18.8394 21.4778 19.6203 21.1485ZM84.3287 24.34C84.2874 24.0812 84.1869 23.8349 84.0344 23.6211C83.8553 23.3698 83.6113 23.173 83.3288 23.0517C82.6351 22.7439 81.8745 22.6213 81.1201 22.6955L70.6948 23.0517C70.4407 23.0437 70.1877 23.0891 69.9519 23.185C69.7162 23.2807 69.5029 23.4249 69.3254 23.6083C69.3047 23.6318 69.2848 23.6558 69.2656 23.6805C69.2408 23.7125 69.2173 23.7454 69.1952 23.779C69.1245 23.8869 69.0675 24.0038 69.026 24.1268C68.9735 24.2823 68.9466 24.4453 68.9461 24.6093C68.9438 24.6561 68.9439 24.7033 68.9461 24.7503C68.9479 24.7954 68.9516 24.8403 68.9571 24.8848C68.9608 24.9141 68.9652 24.9434 68.9705 24.9724C68.9981 25.1258 69.0477 25.2747 69.118 25.4144C69.276 25.724 69.5297 25.9737 69.841 26.1259C70.1523 26.278 70.5043 26.3242 70.8439 26.2577L79.5077 26.0353V32.9602C79.5077 32.9859 79.5087 33.0112 79.5106 33.0359C79.5121 33.054 79.514 33.0717 79.5164 33.0893C79.5592 33.4544 79.8194 33.7289 80.281 33.9063C80.3395 33.9215 80.3984 33.9351 80.4574 33.9472C80.9755 34.0854 81.5171 34.1135 82.0477 34.029C82.5931 33.9425 83.1176 33.7538 83.5939 33.4724C84.102 33.1829 84.3449 32.8713 84.3449 32.5149V24.4767L84.343 24.4547L84.3407 24.4308V24.4166C84.3388 24.4021 84.3367 24.3876 84.3343 24.3732L84.3287 24.34Z" fill="#333333"/>
<path d="M89.9925 6.19907C89.779 6.3704 89.5654 6.54684 89.3519 6.72329C89.2883 6.77699 89.2146 6.84603 89.2248 6.93298C89.2386 6.99774 89.2769 7.05458 89.3316 7.09152L91.8051 9.2907C90.6713 9.20631 88.246 8.87132 88.246 8.87132C88.246 8.87132 87.5571 11.4899 87.1936 12.4233C86.7995 11.5334 85.8081 9.51573 85.8081 9.51573C85.8081 9.51573 83.7464 10.1167 82.8007 10.1167C83.3727 8.96082 83.9294 8.26016 84.42 7.06595C83.8291 5.87948 83.1412 4.74445 82.3634 3.67257C83.4937 4.38778 84.668 5.03007 85.8793 5.59557C85.8793 4.27351 85.8945 1.68819 85.8945 0.481201C86.8402 2.29169 87.6054 4.19935 88.0681 4.99719C89.4432 4.92221 90.8131 4.76939 92.1712 4.53945C91.4289 5.07135 90.7026 5.62455 89.9925 6.19907Z" fill="#F5E8D6"/>
<path d="M92.3518 4.95893C92.5882 4.79015 92.5526 3.98208 92.1662 4.03834C90.8519 4.2378 89.5427 4.40146 88.2157 4.48329C87.453 3.10752 86.8963 1.61669 86.1819 0.220464C85.9506 -0.2296 85.587 0.0874907 85.587 0.476183C85.587 2.01573 85.4775 3.09326 85.3202 4.57614C84.2745 4.07358 83.5103 3.84696 82.5237 3.23539C82.0763 2.9541 81.9593 3.74682 82.15 4.02044C82.8461 4.99142 83.4715 6.01185 84.021 7.07372C83.5939 7.99942 83.0321 8.86375 82.5694 9.76388C82.455 9.99147 82.4322 10.6129 82.8237 10.6052C83.7964 10.5424 84.7574 10.3559 85.6836 10.0503C86.1107 10.9197 86.5378 11.7892 86.9318 12.6739C86.946 12.7391 86.9823 12.7973 87.0345 12.8384C87.0867 12.8796 87.1515 12.9011 87.2178 12.8993C87.2841 12.8974 87.3477 12.8724 87.3976 12.8285C87.4475 12.7845 87.4806 12.7245 87.4911 12.6586C87.876 11.5862 88.2027 10.4935 88.4699 9.38541C89.5834 9.53884 90.7019 9.68971 91.823 9.77666C92.2399 9.8099 92.1611 9.02741 91.9628 8.85096L90.6333 7.68488L90.0155 7.13765C89.9596 7.0865 89.8554 7.00723 89.7613 6.9254C89.9164 6.80521 90.0943 6.68758 90.1731 6.62621C90.885 6.04999 91.6112 5.49423 92.3518 4.95893ZM90.2392 8.46483L90.4553 8.65662C89.7164 8.57138 88.9783 8.47761 88.2411 8.37532C88.1165 8.35742 87.9869 8.5262 87.9691 8.63104C87.7148 9.58231 87.4606 10.5413 87.1454 11.4797C86.8064 10.7348 86.4539 9.99488 86.0878 9.26011C86.0116 9.10412 85.8997 8.98905 85.7192 9.04275C85.0043 9.26516 84.2745 9.43607 83.5355 9.55419C83.6982 9.26778 83.866 8.98393 84.0287 8.69497C84.2829 8.24491 84.7913 7.52634 84.743 6.98933C84.6947 6.45232 84.1354 5.71074 83.8583 5.25044C83.7973 5.1456 83.7236 5.05098 83.66 4.94614C84.3543 5.3425 84.7568 5.43154 85.5105 5.68726C86.0212 5.86055 86.009 5.43605 86.0212 5.25044C86.101 4.03834 86.1501 3.20035 86.2099 1.94912C86.7386 3.08963 87.2267 4.25059 87.847 5.3425C87.871 5.38339 87.9047 5.41765 87.9451 5.4422C87.9854 5.46675 88.0312 5.48082 88.0784 5.48315C88.8868 5.43456 89.6876 5.35018 90.4884 5.253C90.2647 5.42689 90.0308 5.59055 89.8096 5.76444C89.2859 6.18893 88.5207 6.72083 89.1003 7.44195C89.452 7.81312 89.8329 8.15518 90.2392 8.46483Z" fill="#333333"/>
<path d="M70.8369 30.717C71.5092 31.5262 72.2858 32.2417 73.1463 32.8444C72.5821 31.2584 72.1012 29.6438 71.7053 28.0073L74.5701 25.5797C73.3027 25.5116 72.0327 25.5139 70.7658 25.5864L71.9281 20.6835C70.7429 21.7166 69.7671 22.9056 68.6125 23.9725C67.2486 24.0478 65.8806 24.016 64.5212 23.8775C65.3751 24.5761 66.2258 25.7219 67.0797 26.4205C66.074 27.5305 64.9927 28.5689 63.8437 29.5282L67.8106 28.8231C67.7949 30.1166 67.9632 31.4061 68.3102 32.6524L69.6524 29.2303C70.0045 29.7053 70.4065 30.2143 70.8369 30.717Z" fill="#F5E8D6"/>
<path d="M74.558 25.0208C73.501 24.9961 72.3497 24.9708 71.2478 25.0186C71.5756 23.6133 71.9044 22.2051 72.2391 20.7893C72.244 20.5325 72.0675 19.881 71.7342 20.1914C71.0441 20.8237 70.4041 21.49 69.7678 22.1642C69.4522 22.5315 69.1134 22.878 68.7537 23.2018C68.4096 23.4327 67.9946 23.5326 67.5831 23.4837C66.5581 23.5231 65.5315 23.499 64.5092 23.4114C64.0759 23.4018 64.1227 24.2102 64.3414 24.3957C65.0945 25.039 65.7153 25.8088 66.4112 26.5038C65.5231 27.4307 64.5856 28.3085 63.6028 29.1334C63.3882 29.3093 63.3581 30.1886 63.7821 30.1131L67.423 29.467C67.4641 30.6083 67.6312 31.7419 67.9211 32.8468C68.0079 33.2048 68.377 33.4076 68.5528 32.9694L69.6725 30.0616C69.9832 30.4597 70.3031 30.8502 70.6322 31.233C71.3063 32.0355 72.0787 32.7491 72.9311 33.3568C73.3677 33.6556 73.4995 32.9236 73.4009 32.6367C72.9019 31.2099 72.4673 29.7666 72.0964 28.3558L74.7197 26.135C74.9982 25.7854 74.9482 25.0512 74.558 25.0208ZM68.3527 31.3868C68.1873 30.534 68.1069 29.667 68.1126 28.7986C68.116 28.6395 68.0066 28.2342 67.7649 28.2827L65.3573 28.7379C65.9932 28.1486 66.608 27.5453 67.1941 26.9122C67.3108 26.7905 67.3776 26.6291 67.3811 26.46C67.3846 26.2908 67.3246 26.1264 67.213 25.9995C66.6865 25.5335 66.1934 25.0306 65.7375 24.4948L67.8516 24.5441C68.3043 24.5541 68.6016 24.5613 68.9126 24.3052C69.2237 24.049 69.614 23.6311 69.9919 23.2678C70.3697 22.9044 70.8345 22.3853 71.2667 21.9594C71.001 23.1217 70.7215 24.2953 70.4529 25.4565C70.4478 25.6576 70.4376 26.135 70.7876 26.1217C71.6261 26.0786 72.4611 26.0671 73.2927 26.0871L71.5517 27.5639C71.4796 27.6412 71.4278 27.7352 71.4007 27.8376C71.3715 27.9441 71.3705 28.0565 71.3977 28.1637C71.6779 29.3395 72.0248 30.4834 72.3803 31.6303C71.9022 31.2111 71.4489 30.7641 71.0228 30.2917C70.6315 29.8258 70.2511 29.3474 69.8696 28.8718C69.6857 28.6332 69.4376 28.7186 69.3384 28.9747C68.9911 29.7546 68.6657 30.5652 68.3527 31.3868Z" fill="#333333"/>
<path d="M15.4842 31.2261C15.791 31.1054 16.0978 30.9847 16.3966 30.8491C16.6954 30.7136 16.5991 30.7474 16.6143 30.6525C16.6193 30.5727 16.5935 30.4939 16.5421 30.4327L14.4369 27.0821L18.2476 28.514C18.3811 28.579 18.5324 28.5973 18.6774 28.5659C18.8336 28.475 18.9479 28.3258 18.9955 28.1506C19.4323 27.0355 20.0269 25.9896 20.7609 25.0454L21.2301 28.4979C21.2286 28.5622 21.2411 28.6261 21.2667 28.6851C21.2923 28.7441 21.3303 28.7968 21.3783 28.8394C21.4631 28.8944 21.562 28.9235 21.6629 28.9232C22.7916 28.7956 23.9346 28.8956 25.0251 29.2175C23.98 30.3499 23.1103 30.9629 22.1464 32.1565C22.4306 33.7172 22.8456 35.2513 23.3869 36.7421C22.3201 35.5464 21.1831 34.4159 19.9819 33.3567C19.773 34.6537 19.1747 35.8549 18.267 36.7995C18.4129 35.7019 18.3551 34.5864 18.0965 33.5094C16.2292 33.0192 14.3297 32.6634 12.4124 32.4448C13.4553 32.0442 14.4835 31.6516 15.4842 31.2261Z" fill="#F5E8D6"/>
<path d="M18.5694 38.382C19.2998 37.6058 20.0689 35.2783 20.3647 34.2518C21.2596 35.0862 22.1104 35.9448 22.9219 36.854C23.1729 37.1389 24.1629 37.2192 23.9345 36.643C23.7062 36.0669 23.4351 35.2547 23.2517 34.4807L22.998 33.4378C22.8772 33.0961 22.8018 32.74 22.7738 32.3786C22.8367 31.8633 23.6623 31.2746 24.0208 30.9332C24.5382 30.4275 25.047 29.9938 25.5615 29.4128C25.8104 29.1509 25.3184 28.8447 25.1362 28.7911C24.5069 28.6121 23.8614 28.4969 23.2093 28.4474C22.9081 28.4209 22.6117 28.4205 22.3152 28.4202C22.0187 28.4198 21.9566 28.4636 21.7659 28.482C21.7279 28.2722 21.7326 28.0004 21.7121 27.8579L21.5833 26.9385L21.3289 25.0885C21.2994 24.9717 21.2402 24.8646 21.157 24.7778C21.0738 24.6911 20.9695 24.6276 20.8545 24.5937C20.7394 24.5599 20.6176 24.5568 20.5011 24.5848C20.3846 24.6128 20.2775 24.6709 20.1903 24.7534C19.7858 25.2907 19.4162 25.8536 19.0838 26.4388C18.9226 26.7389 18.7761 27.031 18.6377 27.3379L18.515 27.7611L18.4088 28.1271C18.3405 28.107 18.2608 28.0836 18.1925 28.0634C18.1242 28.0433 17.8282 27.9562 17.6574 27.906L16.6982 27.5492C16.0151 27.3482 15.3618 27.0442 14.6806 26.794C14.4529 26.727 13.5961 26.6983 13.8918 27.1702L15.262 29.3486C15.493 29.6577 15.6998 29.9843 15.8809 30.3253C16.0048 30.6224 16.0052 30.5357 15.7064 30.6712L15.1596 30.8951C14.1475 31.3172 13.1225 31.6983 12.0895 32.0647C11.4824 32.2833 12.1363 32.7984 12.483 32.8384C14.206 33.0415 15.3774 33.3985 17.0597 33.8255C17.2468 34.7641 17.3655 36.8498 17.475 38.0227C17.4753 38.4596 18.2664 38.7025 18.5694 38.382ZM17.0518 31.0174C17.3401 30.705 17.0796 30.3677 16.8921 30.0766C16.4479 29.35 15.9889 28.6315 15.5333 27.9015C15.9432 28.0222 16.3332 28.2114 16.7364 28.3549C17.3738 28.7101 18.0816 28.9184 18.8085 28.9647C19.4769 28.8759 19.5896 28.1891 19.8251 27.6749C19.998 27.307 20.1923 26.9496 20.4072 26.6048L20.5014 27.3029C20.5703 27.8322 20.5123 28.6716 20.9583 29.0512C21.4043 29.4307 22.1399 29.2376 22.6498 29.2263C23.1298 29.2298 23.6087 29.2752 24.081 29.3619L22.9088 30.5066C22.4963 30.9066 21.5839 31.5816 21.6102 32.1727C21.7105 32.9663 21.8988 33.7462 22.1716 34.498L22.2709 34.8376C21.6697 34.2261 21.0471 33.6457 20.4051 33.0471C20.2187 32.8805 19.5285 32.7891 19.4745 33.1456C19.3641 33.7339 18.6303 36.0993 18.3726 36.6388C18.3385 36.1986 18.2775 34.0087 18.1686 33.5808C18.1366 33.4735 18.0758 33.3772 17.9928 33.3024C17.9098 33.2276 17.8079 33.1773 17.6984 33.1569C16.3482 32.8086 15.5178 32.4897 14.1393 32.2831C14.7089 32.0659 15.2865 31.8635 15.8481 31.6315C16.4096 31.3995 16.7881 31.2874 17.0518 31.0174Z" fill="#333333"/>
</svg>
