<svg width="28" height="28" viewBox="0 0 28 28" fill="none" xmlns="http://www.w3.org/2000/svg">
<rect x="19.3838" y="4.487" width="5.82251" height="4.29019" transform="rotate(45 19.3838 4.487)" fill="#F7C8C8"/>
<path fill-rule="evenodd" clip-rule="evenodd" d="M19.5127 11.9982L9.04685 22.4641L5.43204 22.5681L5.53612 18.9533L12.624 11.8655L16.0021 8.48732L19.5127 11.9982ZM20.5734 10.9375L22.5834 8.92748L19.0727 5.41675L17.0628 7.42666L20.5734 10.9375ZM4.03674 18.9102C4.04776 18.5274 4.20472 18.1634 4.47546 17.8927L11.5633 10.8048L18.012 4.35609C18.5978 3.7703 19.5476 3.7703 20.1334 4.35609L23.6441 7.86682C24.2299 8.4526 24.2299 9.40235 23.6441 9.98814L10.1075 23.5247C9.83677 23.7955 9.47274 23.9524 9.09002 23.9634L4.94578 24.0828C4.37112 24.0993 3.90087 23.6291 3.91742 23.0544L4.03674 18.9102Z" fill="#current-color"/>
</svg>
