<svg width="51" height="16" viewBox="0 0 51 16" fill="none" xmlns="http://www.w3.org/2000/svg">
<rect x="0.5" width="50" height="16" rx="8" fill="#333333"/>
<path d="M21.4548 4.1543V5.52148C21.4548 5.87695 21.4548 6.27344 21.4548 6.71094C21.4548 7.14844 21.4684 7.59961 21.4684 8.03711V11.6465C21.4684 11.7832 21.5368 11.8926 21.6872 11.9473C21.8376 12.0156 22.0153 12.043 22.2341 12.043C22.3298 12.043 22.4255 12.043 22.5212 12.0293C22.6169 12.0293 22.7126 12.002 22.7946 11.9609C23.2595 11.9473 23.7106 11.9336 24.1755 11.9199L25.5427 11.8926H25.7614C25.9528 11.8926 26.0895 11.8242 26.1852 11.6875C26.2809 11.5508 26.3356 11.3867 26.3356 11.1953C26.3356 11.0176 26.2809 10.8535 26.1716 10.6895C26.0622 10.5254 25.9255 10.457 25.7477 10.4707C25.447 10.498 25.1325 10.5117 24.7907 10.5117C24.4352 10.5117 24.0934 10.5117 23.7517 10.5117C23.6423 10.5117 23.5466 10.5254 23.4645 10.5254C23.3688 10.5254 23.2731 10.5254 23.1774 10.5254V8.0918C23.1774 7.55859 23.1774 7.03906 23.1911 6.54688V4.12695C23.1911 3.99023 23.1091 3.89453 22.945 3.83984C22.7809 3.78516 22.5895 3.74414 22.3845 3.74414C22.152 3.74414 21.9333 3.78516 21.7419 3.85352C21.5505 3.92188 21.4548 4.01758 21.4548 4.1543ZM31.8317 4.01758L30.0954 9.36328C30.0134 9.17188 29.9587 8.98047 29.904 8.81641C29.8493 8.65234 29.7946 8.50195 29.7399 8.33789C29.6852 8.17383 29.6169 8.00977 29.5622 7.83203C29.5075 7.66797 29.4392 7.46289 29.3571 7.23047L28.2634 4.05859C28.2224 3.96289 28.1403 3.89453 28.0309 3.83984C27.9079 3.79883 27.7712 3.77148 27.6071 3.77148C27.4704 3.77148 27.3474 3.79883 27.2243 3.82617C27.0876 3.86719 26.9782 3.92188 26.8825 3.97656C26.7731 4.04492 26.7048 4.12695 26.6501 4.20898C26.5954 4.29102 26.5954 4.38672 26.6227 4.46875C26.8688 5.15234 27.1013 5.82227 27.3474 6.47852C27.5934 7.14844 27.8259 7.79102 28.0446 8.41992C28.2634 9.04883 28.4821 9.65039 28.6872 10.2246C28.8786 10.7988 29.07 11.332 29.2341 11.8105C29.2751 11.9473 29.3708 12.0293 29.5349 12.084C29.6989 12.1387 29.863 12.1523 30.0544 12.1523C30.2458 12.1523 30.4372 12.125 30.6286 12.0566C30.8063 11.9883 30.9157 11.8926 30.9704 11.7559V11.7695L31.2575 10.8945C31.4079 10.4434 31.572 9.95117 31.7497 9.43164C31.9138 8.91211 32.0915 8.37891 32.2829 7.83203C32.4743 7.28516 32.6657 6.73828 32.8571 6.17773C33.0485 5.63086 33.2399 5.08398 33.4313 4.55078C33.4587 4.44141 33.404 4.3457 33.2673 4.23633C33.1306 4.14062 32.9528 4.05859 32.7614 3.99023C32.57 3.93555 32.3786 3.89453 32.1872 3.89453C31.9958 3.89453 31.8864 3.93555 31.8317 4.01758ZM33.9235 12.0293C33.9235 12.1523 33.9509 12.2617 34.0056 12.3711C34.0602 12.4805 34.1423 12.5625 34.2517 12.6445C34.3474 12.7266 34.4567 12.7949 34.5934 12.8496C34.7165 12.9043 34.8395 12.918 34.9763 12.918C35.2634 12.918 35.5095 12.8359 35.7145 12.6582C35.9196 12.4805 36.029 12.248 36.029 11.9609C36.029 11.7148 35.9196 11.5234 35.7009 11.373C35.4821 11.2227 35.2497 11.1406 34.9899 11.1406C34.7165 11.1406 34.4704 11.2227 34.2517 11.373C34.0329 11.5234 33.9235 11.7422 33.9235 12.0293ZM37.0954 6.05469C37.1227 6.05469 37.1638 6.05469 37.2184 6.02734C37.3688 5.97266 37.5329 5.91797 37.697 5.83594C37.861 5.75391 38.0114 5.68555 38.1481 5.60352C38.1481 6.01367 38.1481 6.45117 38.1481 6.88867C38.1481 7.32617 38.1618 7.80469 38.1618 8.32422V11.6465C38.1618 11.8105 38.2575 11.9199 38.4489 12.002C38.6403 12.084 38.8454 12.1113 39.0642 12.1113C39.2692 12.1113 39.4606 12.0703 39.6384 11.9883C39.8161 11.9062 39.9118 11.7832 39.9118 11.5918C39.9118 11.5508 39.8981 11.3867 39.8981 11.1133C39.8981 10.8398 39.8981 10.5391 39.8981 10.1836V8.37891C39.8981 7.96875 39.9118 7.54492 39.9118 7.12109V5.20703C39.9118 4.96094 39.8981 4.75586 39.8981 4.5918C39.8845 4.48242 39.8434 4.37305 39.7751 4.27734C39.6931 4.18164 39.611 4.09961 39.5017 4.03125C39.3923 3.97656 39.2692 3.92188 39.1462 3.88086C39.0095 3.85352 38.8864 3.82617 38.777 3.82617C38.5856 3.82617 38.4079 3.88086 38.2438 3.97656C38.0661 4.07227 37.9157 4.1543 37.779 4.22266C37.6149 4.30469 37.4372 4.40039 37.2458 4.48242C37.0544 4.57812 36.8493 4.66016 36.6306 4.71484C36.5075 4.75586 36.4392 4.79688 36.4118 4.85156C36.3845 4.90625 36.3708 4.98828 36.3708 5.07031C36.3708 5.17969 36.3845 5.28906 36.4392 5.39844C36.4938 5.52148 36.5485 5.63086 36.6306 5.72656C36.7126 5.82227 36.7946 5.9043 36.8767 5.95898C36.9587 6.02734 37.027 6.05469 37.0954 6.05469Z" fill="white"/>
<circle cx="11.6368" cy="6.96274" r="3.62704" fill="white"/>
<path d="M7.50005 11.6694L8.91309 9.22192L9.90021 10.1731L11.2175 10.5524L9.80451 12.9999L9.14261 11.4838L7.50005 11.6694Z" fill="#FF5454"/>
<path d="M16.0878 11.6694L14.6748 9.22192L13.6877 10.1731L12.3703 10.5524L13.7834 12.9999L14.4453 11.4838L16.0878 11.6694Z" fill="#FF5454"/>
<path fill-rule="evenodd" clip-rule="evenodd" d="M11.6367 10.2645C13.4604 10.2645 14.9388 8.78609 14.9388 6.96243C14.9388 5.13877 13.4604 3.66041 11.6367 3.66041C9.81309 3.66041 8.33472 5.13877 8.33472 6.96243C8.33472 8.78609 9.81309 10.2645 11.6367 10.2645ZM11.6367 10.9249C13.8251 10.9249 15.5992 9.15082 15.5992 6.96243C15.5992 4.77404 13.8251 3 11.6367 3C9.44836 3 7.67432 4.77404 7.67432 6.96243C7.67432 9.15082 9.44836 10.9249 11.6367 10.9249Z" fill="#BF7869"/>
<path d="M14.1137 6.96212C14.1137 8.32986 13.0049 9.43864 11.6372 9.43864C10.2694 9.43864 9.16064 8.32986 9.16064 6.96212C9.16064 5.59437 10.2694 4.4856 11.6372 4.4856C13.0049 4.4856 14.1137 5.59437 14.1137 6.96212Z" fill="#BF7869"/>
<path d="M11.6371 5.71198L12.1245 6.42314L12.9515 6.66691L12.4257 7.35021L12.4494 8.21203L11.6371 7.92317L10.8248 8.21203L10.8485 7.35021L10.3228 6.66691L11.1497 6.42314L11.6371 5.71198Z" fill="white"/>
</svg>
