<svg width="51" height="16" viewBox="0 0 51 16" fill="none" xmlns="http://www.w3.org/2000/svg">
<rect x="0.5" width="50" height="16" rx="8" fill="#333333"/>
<path d="M20.6686 4.1543V5.52148C20.6686 5.87695 20.6686 6.27344 20.6686 6.71094C20.6686 7.14844 20.6823 7.59961 20.6823 8.03711V11.6465C20.6823 11.7832 20.7507 11.8926 20.9011 11.9473C21.0515 12.0156 21.2292 12.043 21.4479 12.043C21.5436 12.043 21.6393 12.043 21.7351 12.0293C21.8308 12.0293 21.9265 12.002 22.0085 11.9609C22.4733 11.9473 22.9245 11.9336 23.3893 11.9199L24.7565 11.8926H24.9753C25.1667 11.8926 25.3034 11.8242 25.3991 11.6875C25.4948 11.5508 25.5495 11.3867 25.5495 11.1953C25.5495 11.0176 25.4948 10.8535 25.3854 10.6895C25.2761 10.5254 25.1393 10.457 24.9616 10.4707C24.6608 10.498 24.3464 10.5117 24.0046 10.5117C23.6491 10.5117 23.3073 10.5117 22.9655 10.5117C22.8561 10.5117 22.7604 10.5254 22.6784 10.5254C22.5827 10.5254 22.487 10.5254 22.3913 10.5254V8.0918C22.3913 7.55859 22.3913 7.03906 22.405 6.54688V4.12695C22.405 3.99023 22.3229 3.89453 22.1589 3.83984C21.9948 3.78516 21.8034 3.74414 21.5983 3.74414C21.3659 3.74414 21.1472 3.78516 20.9558 3.85352C20.7643 3.92188 20.6686 4.01758 20.6686 4.1543ZM31.0456 4.01758L29.3093 9.36328C29.2272 9.17188 29.1726 8.98047 29.1179 8.81641C29.0632 8.65234 29.0085 8.50195 28.9538 8.33789C28.8991 8.17383 28.8308 8.00977 28.7761 7.83203C28.7214 7.66797 28.653 7.46289 28.571 7.23047L27.4772 4.05859C27.4362 3.96289 27.3542 3.89453 27.2448 3.83984C27.1218 3.79883 26.9851 3.77148 26.821 3.77148C26.6843 3.77148 26.5612 3.79883 26.4382 3.82617C26.3015 3.86719 26.1921 3.92188 26.0964 3.97656C25.987 4.04492 25.9186 4.12695 25.864 4.20898C25.8093 4.29102 25.8093 4.38672 25.8366 4.46875C26.0827 5.15234 26.3151 5.82227 26.5612 6.47852C26.8073 7.14844 27.0397 7.79102 27.2585 8.41992C27.4772 9.04883 27.696 9.65039 27.9011 10.2246C28.0925 10.7988 28.2839 11.332 28.4479 11.8105C28.489 11.9473 28.5847 12.0293 28.7487 12.084C28.9128 12.1387 29.0768 12.1523 29.2683 12.1523C29.4597 12.1523 29.6511 12.125 29.8425 12.0566C30.0202 11.9883 30.1296 11.8926 30.1843 11.7559V11.7695L30.4714 10.8945C30.6218 10.4434 30.7858 9.95117 30.9636 9.43164C31.1276 8.91211 31.3054 8.37891 31.4968 7.83203C31.6882 7.28516 31.8796 6.73828 32.071 6.17773C32.2624 5.63086 32.4538 5.08398 32.6452 4.55078C32.6726 4.44141 32.6179 4.3457 32.4811 4.23633C32.3444 4.14062 32.1667 4.05859 31.9753 3.99023C31.7839 3.93555 31.5925 3.89453 31.4011 3.89453C31.2097 3.89453 31.1003 3.93555 31.0456 4.01758ZM33.1374 12.0293C33.1374 12.1523 33.1647 12.2617 33.2194 12.3711C33.2741 12.4805 33.3561 12.5625 33.4655 12.6445C33.5612 12.7266 33.6706 12.7949 33.8073 12.8496C33.9304 12.9043 34.0534 12.918 34.1901 12.918C34.4772 12.918 34.7233 12.8359 34.9284 12.6582C35.1335 12.4805 35.2429 12.248 35.2429 11.9609C35.2429 11.7148 35.1335 11.5234 34.9147 11.373C34.696 11.2227 34.4636 11.1406 34.2038 11.1406C33.9304 11.1406 33.6843 11.2227 33.4655 11.373C33.2468 11.5234 33.1374 11.7422 33.1374 12.0293ZM41.4362 11.2363C41.4362 11.1543 41.4226 11.0586 41.4089 10.9766C41.3952 10.8945 41.3679 10.8262 41.3405 10.7578C41.2995 10.7031 41.2448 10.6484 41.1765 10.6074C41.1081 10.5801 41.0261 10.5664 40.9304 10.5664C40.5749 10.5938 40.1921 10.6074 39.7683 10.6074C39.3444 10.6074 38.9616 10.6074 38.6061 10.6074H37.9499C37.9909 10.498 38.0593 10.3613 38.1686 10.1973C38.278 10.0469 38.4011 9.88281 38.5515 9.71875C38.6882 9.55469 38.8522 9.39062 39.03 9.21289C39.2077 9.04883 39.3854 8.88477 39.5768 8.7207C39.7819 8.54297 39.987 8.35156 40.1921 8.13281C40.3972 7.92773 40.5749 7.70898 40.739 7.47656C40.903 7.25781 41.0261 7.01172 41.1354 6.76562C41.2311 6.51953 41.2858 6.25977 41.2858 5.98633C41.2858 5.63086 41.2175 5.31641 41.0944 5.04297C40.9577 4.76953 40.78 4.53711 40.5476 4.3457C40.3151 4.1543 40.0417 4.01758 39.7136 3.9082C39.3854 3.8125 39.03 3.75781 38.6472 3.75781C38.278 3.75781 37.9362 3.8125 37.6218 3.92188C37.2936 4.03125 37.0202 4.18164 36.7878 4.40039C36.5417 4.61914 36.364 4.89258 36.2272 5.2207C36.0905 5.54883 36.0222 5.93164 36.0358 6.35547C36.0358 6.51953 36.1179 6.62891 36.2956 6.69727C36.4733 6.7793 36.6784 6.80664 36.9108 6.80664C37.1296 6.80664 37.321 6.7793 37.5124 6.69727C37.7038 6.62891 37.7858 6.50586 37.7722 6.3418C37.7448 5.93164 37.8132 5.61719 37.9909 5.38477C38.155 5.16602 38.3737 5.05664 38.6472 5.05664C38.9069 5.07031 39.1257 5.15234 39.2897 5.30273C39.4538 5.45312 39.5495 5.67188 39.5495 5.97266C39.5495 6.15039 39.5085 6.32812 39.4265 6.49219C39.3444 6.65625 39.2351 6.82031 39.0983 6.98438C38.9616 7.14844 38.8249 7.3125 38.6608 7.47656C38.4968 7.64062 38.3327 7.80469 38.1823 7.94141L38.0456 8.07812H38.0593C37.8679 8.26953 37.6491 8.47461 37.4304 8.69336C37.2116 8.91211 36.9929 9.14453 36.8015 9.39062C36.5964 9.63672 36.4186 9.89648 36.2819 10.1562C36.1452 10.416 36.0495 10.6758 36.0222 10.9219C35.9948 11.0312 36.0085 11.1543 36.0632 11.2637C36.1179 11.373 36.1862 11.4824 36.2819 11.5781C36.3776 11.6875 36.5007 11.7695 36.6374 11.8379C36.7741 11.9062 36.9245 11.9473 37.0886 11.9473C37.2253 11.9609 37.403 11.9609 37.5944 11.9609H38.8522C39.0983 11.9609 39.3308 11.9609 39.5358 11.9473C39.7819 11.9473 40.0417 11.9473 40.2878 11.9473C40.5339 11.9473 40.7526 11.9336 40.944 11.9336C41.1354 11.9336 41.2722 11.8652 41.3405 11.7285C41.3952 11.5918 41.4362 11.4277 41.4362 11.2363Z" fill="white"/>
<circle cx="11.6368" cy="6.96274" r="3.62704" fill="white"/>
<path d="M7.50005 11.6694L8.91309 9.22192L9.90021 10.1731L11.2175 10.5524L9.80451 12.9999L9.14261 11.4838L7.50005 11.6694Z" fill="#FF5454"/>
<path d="M16.0878 11.6694L14.6748 9.22192L13.6877 10.1731L12.3703 10.5524L13.7834 12.9999L14.4453 11.4838L16.0878 11.6694Z" fill="#FF5454"/>
<path fill-rule="evenodd" clip-rule="evenodd" d="M11.6367 10.2645C13.4604 10.2645 14.9388 8.78609 14.9388 6.96243C14.9388 5.13877 13.4604 3.66041 11.6367 3.66041C9.81309 3.66041 8.33472 5.13877 8.33472 6.96243C8.33472 8.78609 9.81309 10.2645 11.6367 10.2645ZM11.6367 10.9249C13.8251 10.9249 15.5992 9.15082 15.5992 6.96243C15.5992 4.77404 13.8251 3 11.6367 3C9.44836 3 7.67432 4.77404 7.67432 6.96243C7.67432 9.15082 9.44836 10.9249 11.6367 10.9249Z" fill="#CCCCCC"/>
<path d="M14.1137 6.96212C14.1137 8.32986 13.0049 9.43864 11.6372 9.43864C10.2694 9.43864 9.16064 8.32986 9.16064 6.96212C9.16064 5.59437 10.2694 4.4856 11.6372 4.4856C13.0049 4.4856 14.1137 5.59437 14.1137 6.96212Z" fill="#CCCCCC"/>
<path d="M11.6371 5.66266L12.0271 6.28717L12.763 6.31267L12.4171 6.96269L12.763 7.61271L12.0271 7.63821L11.6371 8.26272L11.2471 7.63821L10.5112 7.61271L10.8571 6.96269L10.5112 6.31267L11.2471 6.28717L11.6371 5.66266Z" fill="white"/>
</svg>
