<svg width="51" height="16" viewBox="0 0 51 16" fill="none" xmlns="http://www.w3.org/2000/svg">
<rect x="0.5" width="50" height="16" rx="8" fill="#333333"/>
<circle cx="11.6373" cy="6.96249" r="3.62704" fill="white"/>
<path d="M7.50005 11.6696L8.91309 9.22217L9.90021 10.1734L11.2175 10.5526L9.80451 13.0001L9.14261 11.4841L7.50005 11.6696Z" fill="#FF5454"/>
<path d="M16.0878 11.6696L14.6748 9.22217L13.6877 10.1734L12.3703 10.5526L13.7834 13.0001L14.4453 11.4841L16.0878 11.6696Z" fill="#FF5454"/>
<path fill-rule="evenodd" clip-rule="evenodd" d="M11.6372 10.2645C13.4609 10.2645 14.9393 8.78609 14.9393 6.96243C14.9393 5.13877 13.4609 3.66041 11.6372 3.66041C9.81358 3.66041 8.33521 5.13877 8.33521 6.96243C8.33521 8.78609 9.81358 10.2645 11.6372 10.2645ZM11.6372 10.9249C13.8256 10.9249 15.5997 9.15082 15.5997 6.96243C15.5997 4.77404 13.8256 3 11.6372 3C9.44885 3 7.6748 4.77404 7.6748 6.96243C7.6748 9.15082 9.44885 10.9249 11.6372 10.9249Z" fill="#FFD500"/>
<path d="M14.1137 6.96236C14.1137 8.3301 13.0049 9.43888 11.6372 9.43888C10.2694 9.43888 9.16064 8.3301 9.16064 6.96236C9.16064 5.59462 10.2694 4.48584 11.6372 4.48584C13.0049 4.48584 14.1137 5.59462 14.1137 6.96236Z" fill="#FFD500"/>
<path d="M11.6372 5.46289L12.0481 6.18794L12.8711 6.05709L12.5604 6.83036L13.1759 7.39225L12.3776 7.63146L12.322 8.46296L11.6372 7.98798L10.9525 8.46296L10.8969 7.63146L10.0986 7.39225L10.7141 6.83036L10.4034 6.05709L11.2264 6.18794L11.6372 5.46289Z" fill="white"/>
<path d="M20.6686 4.1543V5.52148C20.6686 5.87695 20.6686 6.27344 20.6686 6.71094C20.6686 7.14844 20.6823 7.59961 20.6823 8.03711V11.6465C20.6823 11.7832 20.7507 11.8926 20.9011 11.9473C21.0515 12.0156 21.2292 12.043 21.4479 12.043C21.5436 12.043 21.6393 12.043 21.7351 12.0293C21.8308 12.0293 21.9265 12.002 22.0085 11.9609C22.4733 11.9473 22.9245 11.9336 23.3893 11.9199L24.7565 11.8926H24.9753C25.1667 11.8926 25.3034 11.8242 25.3991 11.6875C25.4948 11.5508 25.5495 11.3867 25.5495 11.1953C25.5495 11.0176 25.4948 10.8535 25.3854 10.6895C25.2761 10.5254 25.1393 10.457 24.9616 10.4707C24.6608 10.498 24.3464 10.5117 24.0046 10.5117C23.6491 10.5117 23.3073 10.5117 22.9655 10.5117C22.8561 10.5117 22.7604 10.5254 22.6784 10.5254C22.5827 10.5254 22.487 10.5254 22.3913 10.5254V8.0918C22.3913 7.55859 22.3913 7.03906 22.405 6.54688V4.12695C22.405 3.99023 22.3229 3.89453 22.1589 3.83984C21.9948 3.78516 21.8034 3.74414 21.5983 3.74414C21.3659 3.74414 21.1472 3.78516 20.9558 3.85352C20.7643 3.92188 20.6686 4.01758 20.6686 4.1543ZM31.0456 4.01758L29.3093 9.36328C29.2272 9.17188 29.1726 8.98047 29.1179 8.81641C29.0632 8.65234 29.0085 8.50195 28.9538 8.33789C28.8991 8.17383 28.8308 8.00977 28.7761 7.83203C28.7214 7.66797 28.653 7.46289 28.571 7.23047L27.4772 4.05859C27.4362 3.96289 27.3542 3.89453 27.2448 3.83984C27.1218 3.79883 26.9851 3.77148 26.821 3.77148C26.6843 3.77148 26.5612 3.79883 26.4382 3.82617C26.3015 3.86719 26.1921 3.92188 26.0964 3.97656C25.987 4.04492 25.9186 4.12695 25.864 4.20898C25.8093 4.29102 25.8093 4.38672 25.8366 4.46875C26.0827 5.15234 26.3151 5.82227 26.5612 6.47852C26.8073 7.14844 27.0397 7.79102 27.2585 8.41992C27.4772 9.04883 27.696 9.65039 27.9011 10.2246C28.0925 10.7988 28.2839 11.332 28.4479 11.8105C28.489 11.9473 28.5847 12.0293 28.7487 12.084C28.9128 12.1387 29.0768 12.1523 29.2683 12.1523C29.4597 12.1523 29.6511 12.125 29.8425 12.0566C30.0202 11.9883 30.1296 11.8926 30.1843 11.7559V11.7695L30.4714 10.8945C30.6218 10.4434 30.7858 9.95117 30.9636 9.43164C31.1276 8.91211 31.3054 8.37891 31.4968 7.83203C31.6882 7.28516 31.8796 6.73828 32.071 6.17773C32.2624 5.63086 32.4538 5.08398 32.6452 4.55078C32.6726 4.44141 32.6179 4.3457 32.4811 4.23633C32.3444 4.14062 32.1667 4.05859 31.9753 3.99023C31.7839 3.93555 31.5925 3.89453 31.4011 3.89453C31.2097 3.89453 31.1003 3.93555 31.0456 4.01758ZM33.1374 12.0293C33.1374 12.1523 33.1647 12.2617 33.2194 12.3711C33.2741 12.4805 33.3561 12.5625 33.4655 12.6445C33.5612 12.7266 33.6706 12.7949 33.8073 12.8496C33.9304 12.9043 34.0534 12.918 34.1901 12.918C34.4772 12.918 34.7233 12.8359 34.9284 12.6582C35.1335 12.4805 35.2429 12.248 35.2429 11.9609C35.2429 11.7148 35.1335 11.5234 34.9147 11.373C34.696 11.2227 34.4636 11.1406 34.2038 11.1406C33.9304 11.1406 33.6843 11.2227 33.4655 11.373C33.2468 11.5234 33.1374 11.7422 33.1374 12.0293ZM37.8542 7.66797C37.8542 7.80469 37.8815 7.91406 37.9499 8.00977C38.0183 8.11914 38.1276 8.17383 38.2643 8.1875C38.7429 8.26953 39.1257 8.44727 39.3991 8.70703C39.6726 8.9668 39.8229 9.29492 39.8229 9.70508C39.8229 10.0059 39.7136 10.2656 39.4948 10.457C39.2761 10.6621 38.989 10.7578 38.6472 10.7578C38.319 10.7578 38.0729 10.6348 37.8815 10.3887C37.6901 10.1426 37.6081 9.8418 37.6354 9.48633C37.6218 9.33594 37.5261 9.21289 37.362 9.11719C37.1843 9.03516 36.9929 8.98047 36.7878 8.98047C36.569 8.98047 36.364 9.03516 36.1726 9.11719C35.9811 9.19922 35.8991 9.32227 35.8991 9.47266C35.8854 9.88281 35.9538 10.252 36.0905 10.5664C36.2272 10.8945 36.4186 11.1543 36.6647 11.373C36.9108 11.5918 37.1979 11.7695 37.5397 11.8789C37.8679 12.002 38.237 12.0566 38.6472 12.0566C39.0573 12.0566 39.4538 12.002 39.8093 11.8926C40.1647 11.7832 40.4655 11.6191 40.7253 11.4004C40.9851 11.1953 41.1901 10.9492 41.3405 10.6621C41.4772 10.375 41.5593 10.0469 41.5593 9.69141C41.5593 9.13086 41.4089 8.67969 41.1354 8.32422C40.8483 7.98242 40.4792 7.73633 40.0417 7.57227C40.4518 7.38086 40.739 7.13477 40.9304 6.84766C41.1081 6.57422 41.2038 6.25977 41.2038 5.9043C41.2038 5.58984 41.1354 5.30273 41.0124 5.0293C40.8893 4.76953 40.7253 4.55078 40.5065 4.35938C40.2878 4.16797 40.0143 4.03125 39.7136 3.92188C39.3991 3.8125 39.0573 3.75781 38.7018 3.75781C38.3464 3.75781 38.0046 3.8125 37.7038 3.89453C37.3893 3.97656 37.1159 4.11328 36.8972 4.30469C36.6647 4.49609 36.487 4.74219 36.3503 5.0293C36.2136 5.31641 36.1589 5.6582 36.1726 6.04102C36.1726 6.20508 36.2546 6.32812 36.446 6.41016C36.6374 6.49219 36.8288 6.5332 37.0476 6.5332C37.2526 6.5332 37.444 6.49219 37.6218 6.39648C37.7995 6.31445 37.8952 6.19141 37.9089 6.02734C37.8815 5.71289 37.9499 5.4668 38.1003 5.30273C38.2507 5.13867 38.4558 5.05664 38.7018 5.05664C38.9343 5.07031 39.1257 5.15234 39.2624 5.30273C39.3991 5.45312 39.4675 5.64453 39.4675 5.89062C39.4675 6.17773 39.3718 6.42383 39.1804 6.64258C38.989 6.86133 38.6745 7.01172 38.237 7.12109C38.1003 7.17578 38.0046 7.24414 37.9499 7.35352C37.8815 7.46289 37.8542 7.55859 37.8542 7.66797Z" fill="white"/>
</svg>
