<svg width="36" height="36" viewBox="0 0 36 36" fill="none" xmlns="http://www.w3.org/2000/svg">
<circle cx="18" cy="18" r="18" fill="#FBF7F7"/>
<path d="M13.2771 12.419L4.88378 16.2123C4.62625 16.3287 4.51183 16.6318 4.62822 16.8893L11.0206 31.0337C11.137 31.2912 11.4401 31.4056 11.6976 31.2892L20.091 27.496C20.3485 27.3796 20.4629 27.0765 20.3465 26.8189L13.9542 12.6746C13.8378 12.4171 13.5347 12.3026 13.2771 12.419Z" fill="#EEEEEE" stroke="#2F83F9" stroke-width="1.5" stroke-miterlimit="10"/>
<path d="M4.88329 16.2111L13.2766 12.4179C13.4003 12.362 13.5411 12.3575 13.6681 12.4054C13.7951 12.4534 13.8978 12.5498 13.9537 12.6734L14.6997 14.3241L5.37374 18.5389L4.62773 16.8882C4.57184 16.7645 4.56737 16.6237 4.61529 16.4967C4.66322 16.3698 4.75962 16.267 4.88329 16.2111Z" fill="#2F83F9"/>
<path d="M9.97119 28.711L19.2971 24.4963L20.3466 26.8184C20.4025 26.9421 20.407 27.0829 20.359 27.2099C20.3111 27.3368 20.2147 27.4396 20.091 27.4954L11.6977 31.2887C11.574 31.3446 11.4332 31.3491 11.3063 31.3012C11.1793 31.2532 11.0766 31.1568 11.0207 31.0332L9.97119 28.711Z" fill="#2F83F9"/>
<path fill-rule="evenodd" clip-rule="evenodd" d="M16.886 27.2648C17.0695 27.6708 16.8891 28.1486 16.4832 28.332L14.7093 29.1337C14.3033 29.3172 13.8255 29.1368 13.6421 28.7309C13.4586 28.3249 13.639 27.8471 14.0449 27.6637L15.8188 26.862C16.2248 26.6785 16.7026 26.8589 16.886 27.2648Z" fill="white"/>
<path d="M22.2678 4.50667C20.0463 4.60025 17.9378 5.5123 16.3484 7.06724C14.759 8.62217 13.8009 10.7101 13.6587 12.9291C13.6411 13.2629 13.6411 13.5974 13.6587 13.9312H13.6476V20.7727C13.6476 21.2141 13.8229 21.6373 14.135 21.9494C14.4471 22.2615 14.8704 22.4368 15.3117 22.4368H22.6154C24.9939 22.4368 27.2749 21.492 28.9567 19.8102C30.6385 18.1284 31.5833 15.8474 31.5833 13.469C31.5832 12.262 31.3395 11.0675 30.8668 9.95692C30.3941 8.84637 29.7022 7.84263 28.8324 7.00582C27.9626 6.16902 26.9329 5.51635 25.8049 5.08693C24.6769 4.6575 23.4739 4.46014 22.2678 4.50667Z" fill="white"/>
<path d="M17.1311 11.9417C17.7061 8.87597 21.26 8.46363 22.558 10.8896C22.5641 10.9003 22.573 10.9093 22.5837 10.9155C22.5944 10.9217 22.6066 10.925 22.619 10.925C22.6314 10.925 22.6436 10.9217 22.6543 10.9155C22.665 10.9093 22.6739 10.9003 22.68 10.8896C23.9744 8.46363 27.5171 8.87597 28.0922 11.9435C28.7098 15.233 24.8822 18.1508 22.6098 18.7369H22.5783C20.304 18.1452 16.5135 15.2274 17.1311 11.9417Z" fill="#FF5454"/>
<path d="M20.1877 16.0206C20.4584 16.0206 20.6777 15.8013 20.6777 15.5306C20.6777 15.26 20.4584 15.0406 20.1877 15.0406C19.9171 15.0406 19.6978 15.26 19.6978 15.5306C19.6978 15.8013 19.9171 16.0206 20.1877 16.0206Z" fill="white"/>
<path d="M18.8561 14.8558C18.792 14.8565 18.7284 14.8444 18.669 14.8203C18.6097 14.7962 18.5557 14.7605 18.5103 14.7152C17.9556 14.1605 17.24 12.648 18.4493 10.8323C18.5215 10.7245 18.6335 10.6498 18.7607 10.6245C18.8879 10.5992 19.0199 10.6254 19.1279 10.6973C19.2356 10.7695 19.3103 10.8815 19.3356 11.0087C19.3609 11.1359 19.3347 11.2679 19.2628 11.3759C18.1922 12.9808 19.1907 14.0108 19.2018 14.0219C19.2933 14.1137 19.3446 14.238 19.3446 14.3676C19.3446 14.4972 19.2933 14.6216 19.2018 14.7134C19.1564 14.7588 19.1025 14.7947 19.0432 14.8191C18.9838 14.8436 18.9202 14.856 18.8561 14.8558Z" fill="white"/>
</svg>
