<svg width="73" height="73" viewBox="0 0 73 73" fill="none" xmlns="http://www.w3.org/2000/svg">
<path d="M53.6849 15.8542L42.1385 18.0409L41.1239 9.53237L33.3022 18.6584L28.3863 12.7023L28.5183 26.6122L19.2849 27.5574L26.1672 35.8959L13.5806 48.9547L34.0327 45.4257L35.8224 57.2998L42.5222 48.4322L50.06 57.5649L50.117 45.5016L62.3692 47.4053L54.8315 38.2726L63.5167 27.7664L50.0039 27.5707L53.6849 15.8542Z" fill="#333333" stroke="#333333" stroke-width="3"/>
<path d="M51.1659 15.9438L39.9525 18.0675L38.9672 9.80434L31.3711 18.6671L26.597 12.8828L26.7252 26.3915L17.7582 27.3094L24.442 35.4074L12.2184 48.0895L32.0805 44.6622L33.8186 56.1939L40.3252 47.5821L47.6455 56.4513L47.7009 44.736L59.5997 46.5848L52.2794 37.7156L60.7141 27.5123L47.5911 27.3223L51.1659 15.9438Z" fill="white" stroke="#FF5454" stroke-width="3"/>
</svg>
