<?xml version="1.0" encoding="utf-8"?>
<!-- Generator: Adobe Illustrator 26.0.2, SVG Export Plug-In . SVG Version: 6.00 Build 0)  -->
<svg version="1.1" id="레이어_1" xmlns="http://www.w3.org/2000/svg" xmlns:xlink="http://www.w3.org/1999/xlink" x="0px"
	 y="0px" viewBox="0 0 195 178.2" style="enable-background:new 0 0 195 178.2;" xml:space="preserve">
<style type="text/css">
	.st0{fill:#333333;}
	.st1{fill-rule:evenodd;clip-rule:evenodd;fill:#FF5454;}
	.st2{fill:#FFFFFF;}
</style>
<path class="st0" d="M40.9,125c9.4,11.3,3.9,30.8,0,39.1c5.6-5.8,19.6-17.1,31.5-15.6c11.9,1.5,22.7,18.2,26.6,26.4
	c0.6-7.4,4.8-23,16.7-26.4c11.9-3.4,26.9,9,32.9,15.6c-0.1-6.6,0.7-22,5.4-30.6c4.7-8.7,24.8-11.8,34.2-12.3
	c-5.9-6.1-17.1-14.1-16.2-26.4c0.7-9.8,12.2-21.7,18-25c-8.9-1.3-27.6-4.7-31.5-8.5c-7.9-8.7,0-27.5,5-35.8
	c-8,6-26.8,16.9-38.7,12.7c-11.9-4.1-20.9-19.9-23.9-27.3c-3.3,6.8-12.9,21-24.8,24c-11.9,3-23.9-8.2-28.4-14.1
	c1.1,7.2,1.5,23.8-5,32.5c-6.5,8.7-22.5,7.4-29.7,5.7c7.1,6.3,20.5,21.7,18,33c-2.5,11.3-17.6,18.8-24.8,21.2
	C13.9,112.5,31.6,113.7,40.9,125z"/>
<path class="st1" d="M38.7,156.2c3.9-8.3,9.4-27.8,0-39.1c-9.4-11.3-27-12.6-34.7-11.8c7.2-2.4,22.2-9.9,24.8-21.2
	c2.5-11.3-11-26.7-18-33c7.2,1.7,23.2,3,29.7-5.7c6.5-8.7,6-25.3,5-32.5c4.5,6,16.5,17.2,28.4,14.1C85.7,24,95.3,9.8,98.6,3
	c3,7.4,12,23.2,23.9,27.3c11.9,4.1,30.8-6.8,38.7-12.7c-5,8.3-12.9,27.1-5,35.8c4,3.8,22.7,7.2,31.5,8.5c-5.9,3.3-17.3,15.2-18,25
	c-0.7,10.2,6.9,17.4,12.8,23.1c1.2,1.2,2.4,2.3,3.4,3.3c-9.5,0.5-29.5,3.6-34.2,12.3c-4.7,8.7-5.6,24-5.4,30.6
	c-6-6.6-21-18.9-32.9-15.6c-11.9,3.4-16.1,19-16.7,26.4c-3.9-8.2-14.7-24.9-26.6-26.4C58.3,139.1,44.2,150.3,38.7,156.2z M51.7,28.9
	l0,0.2C50.8,41.8,49.8,55.8,27.4,60c6.3,7.2,15.1,25.4,0,40.5c10.1,1.4,28.5,11,21.6,38.2c9-7.4,30.5-15.7,44.6,9.9
	c4.7-10.1,20.2-25.7,45-8c0-10.4,6.3-31.6,31.5-33.5c-7.1-6.8-16.9-24.5,0-41.5c-11.3,0.5-31.8-5.4-23.9-32.5c0-0.3-0.7,0.1-2,0.8
	C138,37.7,117,49.9,98.6,20C92.9,29.7,75.5,45.1,51.7,28.9z"/>
<path class="st2" d="M51.7,29.1l0-0.2c23.8,16.2,41.1,0.8,46.8-9c22.1,35.8,47.7,11.3,47.7,13.2c-7.9,27.1,12.6,33,23.9,32.5
	c-16.9,17-7.1,34.7,0,41.5c-25.2,1.9-31.5,23.1-31.5,33.5c-24.9-17.7-40.4-2-45,8C79.6,123,58,131.3,49,138.7
	c6.8-27.1-11.6-36.8-21.6-38.2c15.1-15.1,6.3-33.3,0-40.5C49.8,55.8,50.8,41.8,51.7,29.1z"/>
</svg>
