<svg width="224" height="60" viewBox="0 0 224 60" fill="none" xmlns="http://www.w3.org/2000/svg">
<rect x="0.75" width="223" height="60" rx="16" fill="#F6E24C"/>
<path d="M70.7344 28.3535L66.6523 29.2129C66.3945 29.2773 66.2441 29.4062 66.1582 29.5996C66.0723 29.8145 66.0723 30.0078 66.1367 30.2012C66.2227 30.459 66.3516 30.6953 66.5449 30.8887C66.7383 31.082 67.0176 31.125 67.3613 31.0176L70.4121 30.3945L69.7891 34.1543C69.7891 34.3691 69.918 34.541 70.1758 34.6699C70.4336 34.8203 70.7129 34.9062 71.0352 34.9492C71.4004 35.0137 71.7441 34.9922 72.0664 34.9062C72.3672 34.8203 72.5605 34.6699 72.625 34.4121L74.1289 25.2598C74.0859 25.0664 74 24.8945 73.8711 24.7656C73.7422 24.6367 73.5703 24.5078 73.3984 24.4219C73.2051 24.3359 73.0117 24.293 72.7969 24.25C72.582 24.2285 72.4102 24.2285 72.2598 24.2285L67.1035 24.4434C66.7383 24.4648 66.4805 24.5723 66.3086 24.7656C66.1367 24.9805 66.0723 25.1953 66.0938 25.4316C66.0938 25.668 66.1797 25.8828 66.3516 26.0762C66.5234 26.291 66.7812 26.377 67.125 26.334L71.0781 26.1406L70.7344 28.3535ZM76.1484 23.6699L76.4922 36.8184C76.4922 37.0547 76.6426 37.2051 76.9434 37.2695C77.2441 37.3555 77.5879 37.377 77.9746 37.334C78.2754 37.291 78.5762 37.2266 78.8555 37.1191C79.1348 37.0332 79.2852 36.9043 79.2852 36.7324L79.1777 29.4707L81.4121 29.2988C81.7559 29.2988 82.0137 29.1914 82.1855 28.9766C82.3574 28.7617 82.4648 28.5469 82.4648 28.2891C82.4648 28.0527 82.3574 27.8379 82.1855 27.623C82.0137 27.4297 81.7773 27.3223 81.4766 27.3223L79.1348 27.4727L79.0703 23.541C79.0703 23.3691 78.8984 23.2402 78.5977 23.1543C78.2969 23.0684 77.9531 23.0469 77.5879 23.0469C77.2012 23.0898 76.8789 23.1543 76.5781 23.2617C76.2773 23.3691 76.1484 23.498 76.1484 23.6699ZM88.2441 28.3535L84.1621 29.2129C83.9043 29.2773 83.7539 29.4062 83.668 29.5996C83.582 29.8145 83.582 30.0078 83.6465 30.2012C83.7324 30.459 83.8613 30.6953 84.0547 30.8887C84.248 31.082 84.5273 31.125 84.8711 31.0176L87.9219 30.3945L87.2988 34.1543C87.2988 34.3691 87.4277 34.541 87.6855 34.6699C87.9434 34.8203 88.2227 34.9062 88.5449 34.9492C88.9102 35.0137 89.2539 34.9922 89.5762 34.9062C89.877 34.8203 90.0703 34.6699 90.1348 34.4121L91.6387 25.2598C91.5957 25.0664 91.5098 24.8945 91.3809 24.7656C91.252 24.6367 91.0801 24.5078 90.9082 24.4219C90.7148 24.3359 90.5215 24.293 90.3066 24.25C90.0918 24.2285 89.9199 24.2285 89.7695 24.2285L84.6133 24.4434C84.248 24.4648 83.9902 24.5723 83.8184 24.7656C83.6465 24.9805 83.582 25.1953 83.6035 25.4316C83.6035 25.668 83.6895 25.8828 83.8613 26.0762C84.0332 26.291 84.291 26.377 84.6348 26.334L88.5879 26.1406L88.2441 28.3535ZM93.6582 23.6699L94.002 36.8184C94.002 37.0547 94.1523 37.2051 94.4531 37.2695C94.7539 37.3555 95.0977 37.377 95.4844 37.334C95.7852 37.291 96.0859 37.2266 96.3652 37.1191C96.6445 37.0332 96.7949 36.9043 96.7949 36.7324L96.6875 29.4707L98.9219 29.2988C99.2656 29.2988 99.5234 29.1914 99.6953 28.9766C99.8672 28.7617 99.9746 28.5469 99.9746 28.2891C99.9746 28.0527 99.8672 27.8379 99.6953 27.623C99.5234 27.4297 99.2871 27.3223 98.9863 27.3223L96.6445 27.4727L96.5801 23.541C96.5801 23.3691 96.4082 23.2402 96.1074 23.1543C95.8066 23.0684 95.4629 23.0469 95.0977 23.0469C94.7109 23.0898 94.3887 23.1543 94.0879 23.2617C93.7871 23.3691 93.6582 23.498 93.6582 23.6699ZM105.604 35.2715L102.188 35.3574C101.887 35.4004 101.693 35.5078 101.564 35.7012C101.436 35.8945 101.371 36.1094 101.414 36.3457C101.414 36.582 101.5 36.7969 101.672 36.9902C101.844 37.2051 102.08 37.291 102.402 37.248L111.189 36.9902C111.533 36.9902 111.77 36.8828 111.941 36.668C112.113 36.4746 112.199 36.2598 112.199 36.0449C112.178 35.8086 112.092 35.5938 111.92 35.4004C111.748 35.207 111.512 35.0996 111.211 35.0996L108.568 35.2285L108.74 30.5879C108.74 30.5234 108.719 30.459 108.697 30.373C109.041 30.2227 109.363 30.0293 109.664 29.7715C110.094 29.4277 110.438 28.9766 110.738 28.4609C111.018 27.9453 111.189 27.3652 111.254 26.6992C111.297 26.0547 111.232 25.4531 111.039 24.9375C110.846 24.4219 110.566 23.9922 110.223 23.627C109.857 23.2832 109.428 23.0039 108.934 22.832C108.439 22.6602 107.924 22.5527 107.365 22.5527C106.807 22.5527 106.248 22.6602 105.732 22.8535C105.195 23.0469 104.723 23.3262 104.293 23.6699C103.863 24.0137 103.52 24.4434 103.24 24.959C102.961 25.4746 102.789 26.0547 102.746 26.6992C102.682 27.3438 102.725 27.9238 102.896 28.4395C103.047 28.9551 103.283 29.3848 103.627 29.7285C103.971 30.0938 104.379 30.373 104.895 30.5664C105.152 30.6738 105.453 30.7598 105.797 30.8027L105.604 35.2715ZM107.129 24.4004C107.516 24.4004 107.838 24.6367 108.053 25.0664C108.268 25.4961 108.375 26.0977 108.354 26.8281C108.332 27.4727 108.203 28.0098 107.945 28.4395C107.688 28.8691 107.322 29.084 106.871 29.084C106.527 29.084 106.227 28.9121 105.969 28.5684C105.689 28.2246 105.561 27.6445 105.604 26.8281C105.625 26.0117 105.797 25.4102 106.098 25.002C106.398 24.6152 106.742 24.4004 107.129 24.4004ZM118.623 31.834L114.906 31.9199C114.605 31.9629 114.412 32.0703 114.283 32.2637C114.154 32.457 114.09 32.6719 114.133 32.9082C114.133 33.1445 114.219 33.3594 114.391 33.5527C114.562 33.7676 114.799 33.8535 115.121 33.8105L123.908 33.5527C124.252 33.5527 124.488 33.4453 124.66 33.2305C124.832 33.0371 124.918 32.8223 124.918 32.6074C124.896 32.3711 124.811 32.1562 124.639 31.9629C124.467 31.7695 124.23 31.6621 123.93 31.6621L121.438 31.791L121.652 29.6426C121.652 29.5996 121.631 29.5566 121.631 29.5137C122.018 29.4277 122.426 29.3203 122.834 29.1914C123.135 29.127 123.328 28.9766 123.414 28.7617C123.5 28.5469 123.521 28.332 123.479 28.1172C123.393 27.8594 123.264 27.6445 123.092 27.4941C122.92 27.3438 122.662 27.3223 122.34 27.4297C122.039 27.5156 121.717 27.5801 121.373 27.623C121.029 27.6875 120.707 27.752 120.385 27.7949C120.041 27.8379 119.719 27.8809 119.418 27.9238C119.117 27.9668 118.838 27.9883 118.623 27.9883L118.408 26.7637L121.566 26.4414C121.91 26.4414 122.189 26.3125 122.361 26.0977C122.533 25.8828 122.619 25.668 122.619 25.4102C122.619 25.1738 122.512 24.959 122.34 24.7656C122.168 24.5938 121.91 24.4863 121.588 24.4863L118.322 24.7656L118.193 23.6484L121.996 23.3477C122.211 23.3262 122.404 23.2188 122.576 23.0254C122.748 22.832 122.834 22.6172 122.834 22.4023C122.834 22.1875 122.748 21.9727 122.576 21.7793C122.404 21.6074 122.168 21.5 121.846 21.5L116.775 21.7578C116.26 21.8008 115.873 21.9297 115.594 22.1445C115.314 22.3594 115.207 22.7031 115.293 23.1543L115.895 28.5039C115.959 28.9766 116.131 29.3203 116.432 29.5781C116.732 29.8359 117.141 29.9434 117.699 29.9434C118.086 29.9434 118.473 29.9434 118.881 29.9004L118.623 31.834ZM121.824 35.207L116.496 35.4219C116.131 35.4434 115.873 35.5508 115.701 35.7656C115.529 35.9805 115.465 36.1953 115.486 36.4102C115.486 36.6465 115.572 36.8613 115.787 37.0332C115.98 37.2051 116.238 37.2695 116.582 37.2266L120.9 37.1191V40.707C120.9 40.8359 120.943 40.9219 121.029 41.0078C121.115 41.0938 121.223 41.1797 121.373 41.2227C121.502 41.2656 121.652 41.3086 121.824 41.3301C121.996 41.3516 122.168 41.3516 122.34 41.3086C122.684 41.2871 122.984 41.2012 123.264 41.0723C123.521 40.9434 123.672 40.793 123.672 40.5781L123.715 36.1953C123.672 35.8945 123.457 35.6367 123.07 35.4434C122.684 35.2715 122.275 35.1855 121.824 35.207ZM131.879 31.9199C132.416 31.9199 132.953 31.834 133.49 31.6406C134.006 31.4688 134.5 31.1895 134.93 30.8457C135.359 30.502 135.703 30.0508 136.004 29.5352C136.283 29.0195 136.455 28.4395 136.52 27.7734C136.562 27.1289 136.498 26.5273 136.305 26.0117C136.111 25.4961 135.832 25.0664 135.488 24.7012C135.123 24.3574 134.693 24.0781 134.199 23.9062C133.705 23.7344 133.189 23.627 132.631 23.627C132.072 23.627 131.514 23.7344 130.998 23.9277C130.461 24.1211 129.988 24.4004 129.559 24.7441C129.129 25.0879 128.785 25.5176 128.506 26.0332C128.227 26.5488 128.055 27.1289 128.012 27.7734C127.947 28.418 127.99 28.998 128.162 29.5137C128.312 30.0293 128.549 30.459 128.893 30.8027C129.236 31.168 129.645 31.4473 130.16 31.6406C130.654 31.834 131.234 31.9199 131.879 31.9199ZM132.395 25.4746C132.781 25.4746 133.104 25.7109 133.318 26.1406C133.533 26.5703 133.641 27.1719 133.619 27.9023C133.598 28.5469 133.469 29.084 133.211 29.5137C132.953 29.9434 132.588 30.1582 132.137 30.1582C131.793 30.1582 131.492 29.9863 131.234 29.6426C130.955 29.2988 130.826 28.7188 130.869 27.9023C130.891 27.0859 131.062 26.4844 131.363 26.0762C131.664 25.6895 132.008 25.4746 132.395 25.4746ZM127.432 34.3691C127.131 34.4121 126.938 34.5195 126.809 34.7129C126.68 34.9277 126.637 35.1426 126.68 35.3574C126.68 35.5938 126.766 35.8086 126.938 36.002C127.109 36.2168 127.346 36.3027 127.668 36.2598L136.455 36.002C136.799 36.002 137.035 35.8945 137.207 35.6797C137.379 35.4863 137.465 35.2715 137.465 35.0566C137.443 34.8418 137.357 34.627 137.186 34.4336C137.014 34.2617 136.777 34.1543 136.477 34.1543L127.432 34.3691ZM143.416 35.2715L140 35.3574C139.699 35.4004 139.506 35.5078 139.377 35.7012C139.248 35.8945 139.184 36.1094 139.227 36.3457C139.227 36.582 139.312 36.7969 139.484 36.9902C139.656 37.2051 139.893 37.291 140.215 37.248L149.002 36.9902C149.346 36.9902 149.582 36.8828 149.754 36.668C149.926 36.4746 150.012 36.2598 150.012 36.0449C149.99 35.8086 149.904 35.5938 149.732 35.4004C149.561 35.207 149.324 35.0996 149.023 35.0996L146.381 35.2285L146.553 31.2324C146.553 31.1895 146.531 31.1465 146.531 31.1035C147.068 31.0176 147.584 30.9316 148.057 30.8457C148.379 30.7812 148.594 30.6309 148.723 30.416C148.83 30.2012 148.873 29.9863 148.83 29.7285C148.744 29.4492 148.615 29.2129 148.4 29.0195C148.186 28.8477 147.885 28.7832 147.541 28.8691C146.961 29.0625 146.359 29.2129 145.758 29.2988C145.156 29.3848 144.576 29.4492 144.018 29.4707L143.717 28.0957L146.424 27.709C147.326 27.666 147.842 27.3438 147.928 26.7207L148.143 23.9707C148.143 23.8203 148.078 23.6699 147.971 23.541C147.842 23.4121 147.691 23.2832 147.52 23.1758C147.326 23.0898 147.111 23.0039 146.875 22.9395C146.617 22.8965 146.381 22.8535 146.145 22.8535C145.393 22.875 144.77 22.8965 144.297 22.8965C143.803 22.918 143.395 22.9395 143.094 22.9395C142.771 22.9609 142.514 22.9824 142.32 22.9824C142.105 22.9824 141.934 22.9824 141.762 22.9824C141.396 23.0039 141.139 23.1113 140.988 23.3262C140.816 23.541 140.752 23.7559 140.773 23.9922C140.773 24.25 140.859 24.4648 141.053 24.6797C141.246 24.8945 141.504 24.959 141.848 24.873C142.557 24.8301 143.158 24.8086 143.674 24.7871C144.189 24.7656 144.705 24.7441 145.221 24.7441C145.221 25.002 145.199 25.2383 145.199 25.4531C145.199 25.668 145.178 25.8613 145.178 26.0332L142.471 26.334C142.02 26.3984 141.633 26.5488 141.332 26.7852C141.031 27.043 140.881 27.3438 140.881 27.709C140.881 27.8809 140.881 28.0742 140.924 28.3105C140.967 28.5469 141.01 28.7832 141.074 29.041C141.117 29.2988 141.182 29.5352 141.225 29.7715C141.268 30.0078 141.332 30.2012 141.375 30.3301C141.461 30.6738 141.654 30.9316 141.998 31.1035C142.342 31.2754 142.729 31.3613 143.201 31.3613H143.609L143.416 35.2715ZM160.689 35.2715L157.273 35.3574C156.973 35.4004 156.779 35.5078 156.65 35.7012C156.521 35.8945 156.457 36.1094 156.5 36.3457C156.5 36.582 156.586 36.7969 156.758 36.9902C156.93 37.2051 157.166 37.291 157.488 37.248L166.275 36.9902C166.619 36.9902 166.855 36.8828 167.027 36.668C167.199 36.4746 167.285 36.2598 167.285 36.0449C167.264 35.8086 167.178 35.5938 167.006 35.4004C166.834 35.207 166.598 35.0996 166.297 35.0996L163.654 35.2285L163.826 31.2324C163.826 31.1895 163.805 31.1465 163.805 31.1035C164.342 31.0176 164.857 30.9316 165.33 30.8457C165.652 30.7812 165.867 30.6309 165.996 30.416C166.104 30.2012 166.146 29.9863 166.104 29.7285C166.018 29.4492 165.889 29.2129 165.674 29.0195C165.459 28.8477 165.158 28.7832 164.814 28.8691C164.234 29.0625 163.633 29.2129 163.031 29.2988C162.43 29.3848 161.85 29.4492 161.291 29.4707L160.99 28.0957L163.697 27.709C164.6 27.666 165.115 27.3438 165.201 26.7207L165.416 23.9707C165.416 23.8203 165.352 23.6699 165.244 23.541C165.115 23.4121 164.965 23.2832 164.793 23.1758C164.6 23.0898 164.385 23.0039 164.148 22.9395C163.891 22.8965 163.654 22.8535 163.418 22.8535C162.666 22.875 162.043 22.8965 161.57 22.8965C161.076 22.918 160.668 22.9395 160.367 22.9395C160.045 22.9609 159.787 22.9824 159.594 22.9824C159.379 22.9824 159.207 22.9824 159.035 22.9824C158.67 23.0039 158.412 23.1113 158.262 23.3262C158.09 23.541 158.025 23.7559 158.047 23.9922C158.047 24.25 158.133 24.4648 158.326 24.6797C158.52 24.8945 158.777 24.959 159.121 24.873C159.83 24.8301 160.432 24.8086 160.947 24.7871C161.463 24.7656 161.979 24.7441 162.494 24.7441C162.494 25.002 162.473 25.2383 162.473 25.4531C162.473 25.668 162.451 25.8613 162.451 26.0332L159.744 26.334C159.293 26.3984 158.906 26.5488 158.605 26.7852C158.305 27.043 158.154 27.3438 158.154 27.709C158.154 27.8809 158.154 28.0742 158.197 28.3105C158.24 28.5469 158.283 28.7832 158.348 29.041C158.391 29.2988 158.455 29.5352 158.498 29.7715C158.541 30.0078 158.605 30.2012 158.648 30.3301C158.734 30.6738 158.928 30.9316 159.271 31.1035C159.615 31.2754 160.002 31.3613 160.475 31.3613H160.883L160.689 35.2715ZM176.609 24.1426L170.701 24.3145C170.357 24.3574 170.1 24.4648 169.928 24.6582C169.756 24.8516 169.691 25.0664 169.734 25.2812C169.734 25.5176 169.842 25.7324 170.035 25.9258C170.229 26.1191 170.486 26.2051 170.83 26.1621L175.535 26.0117L175.857 30.7812C175.879 31.0391 176.051 31.1895 176.352 31.2754C176.652 31.3613 176.975 31.3613 177.34 31.2969C177.662 31.2539 177.963 31.1465 178.264 30.9961C178.543 30.8672 178.693 30.6953 178.693 30.4805L178.457 25.1738C178.414 25.002 178.35 24.8301 178.221 24.6797C178.092 24.5508 177.963 24.4219 177.791 24.3359C177.619 24.25 177.426 24.1855 177.211 24.1426C176.996 24.0996 176.803 24.0996 176.609 24.1426ZM169.799 34.3691C169.498 34.4121 169.305 34.5195 169.176 34.7129C169.047 34.9277 169.004 35.1426 169.047 35.3574C169.047 35.5938 169.133 35.8086 169.305 36.002C169.477 36.2168 169.713 36.3027 170.035 36.2598L178.822 36.002C179.166 36.002 179.402 35.8945 179.574 35.6797C179.746 35.4863 179.832 35.2715 179.832 35.0566C179.811 34.8418 179.725 34.627 179.553 34.4336C179.381 34.2617 179.145 34.1543 178.844 34.1543L169.799 34.3691ZM185.096 31.8125C185.633 31.8125 186.17 31.7266 186.707 31.5332C187.223 31.3613 187.717 31.082 188.146 30.7383C188.576 30.3945 188.92 29.9434 189.221 29.4277C189.5 28.9121 189.672 28.332 189.736 27.666C189.779 27.0215 189.715 26.4199 189.521 25.9043C189.328 25.3887 189.049 24.959 188.705 24.5938C188.34 24.25 187.91 23.9707 187.416 23.7988C186.922 23.627 186.406 23.5195 185.848 23.5195C185.289 23.5195 184.73 23.627 184.215 23.8203C183.678 24.0137 183.205 24.293 182.775 24.6367C182.346 24.9805 182.002 25.4102 181.723 25.9258C181.443 26.4414 181.271 27.0215 181.229 27.666C181.164 28.3105 181.207 28.8906 181.379 29.4062C181.529 29.9219 181.766 30.3516 182.109 30.6953C182.453 31.0605 182.861 31.3398 183.377 31.5332C183.871 31.7266 184.451 31.8125 185.096 31.8125ZM185.611 25.3672C185.998 25.3672 186.32 25.6035 186.535 26.0332C186.75 26.4629 186.857 27.0645 186.836 27.7949C186.814 28.4395 186.686 28.9766 186.428 29.4062C186.17 29.8359 185.805 30.0508 185.354 30.0508C185.01 30.0508 184.709 29.8789 184.451 29.5352C184.172 29.1914 184.043 28.6113 184.086 27.7949C184.107 26.9785 184.279 26.377 184.58 25.9688C184.881 25.582 185.225 25.3672 185.611 25.3672ZM192.1 23.4551L192.314 33.2949C192.314 33.5312 192.465 33.6816 192.766 33.7461C193.066 33.832 193.389 33.832 193.775 33.7891C194.098 33.7676 194.398 33.7031 194.699 33.5957C195 33.4883 195.15 33.3594 195.15 33.209L194.979 23.2832C194.979 23.0684 194.807 22.9395 194.484 22.875C194.162 22.8105 193.818 22.7891 193.475 22.8105C193.109 22.8535 192.787 22.9395 192.508 23.0469C192.229 23.1758 192.1 23.3047 192.1 23.4551ZM189.564 39.5254H189.543L190.961 39.4609L195.021 39.2246C195.344 39.2246 195.602 39.1172 195.773 38.9238C195.945 38.7305 196.053 38.5156 196.053 38.3008C196.053 38.0859 195.967 37.8711 195.795 37.6992C195.623 37.5273 195.344 37.4414 195 37.4629L190.639 37.6348L190.854 33.6387C190.854 33.4453 190.725 33.2949 190.424 33.166C190.123 33.0371 189.801 32.9727 189.457 32.9297C189.264 32.9297 189.07 32.9512 188.898 32.9512C188.727 32.9727 188.555 32.9941 188.426 33.0371C188.275 33.0801 188.146 33.1445 188.061 33.2305C187.975 33.3164 187.932 33.4023 187.932 33.5098L187.631 38.4941C187.609 38.666 187.652 38.8379 187.781 38.9668C187.889 39.1172 188.039 39.2246 188.232 39.3105C188.404 39.3965 188.619 39.4609 188.855 39.5039C189.092 39.5469 189.328 39.5684 189.564 39.5254Z" fill="#381E1F"/>
<g clip-path="url(#clip0_438_1812)">
<path d="M40.9649 18.5C34.35 18.5 28.9857 22.9313 28.9857 28.3965C28.9857 31.954 31.2594 35.0709 34.6686 36.8159C34.4291 37.7923 33.763 40.3559 33.6312 40.9042C33.4683 41.5851 33.8708 41.5776 34.132 41.4049L38.7487 38.1202C39.4847 38.2352 40.2279 38.293 40.9721 38.293C47.5894 38.293 52.9512 33.8617 52.9512 28.3965C52.9512 22.9313 47.5822 18.5 40.9649 18.5Z" fill="#381E1F"/>
</g>
<defs>
<clipPath id="clip0_438_1812">
<rect width="23.9583" height="23" fill="white" transform="translate(28.9857 18.5)"/>
</clipPath>
</defs>
</svg>
