<svg width="36" height="36" viewBox="0 0 36 36" fill="none" xmlns="http://www.w3.org/2000/svg">
<circle cx="18" cy="18" r="18" fill="#FBF7F7"/>
<path d="M28.3431 25.7464C28.3732 25.719 28.4095 25.6993 28.449 25.6892C28.4884 25.679 28.5298 25.6787 28.5694 25.6883C28.609 25.6978 28.6456 25.717 28.6761 25.744C28.7066 25.771 28.73 25.8051 28.7443 25.8433L29.0486 26.6664C29.0688 26.7199 29.105 26.7658 29.1524 26.7978L29.9063 27.2405C29.9392 27.2642 29.9659 27.2954 29.9844 27.3315C30.0028 27.3676 30.0125 27.4075 30.0125 27.448C30.0125 27.4886 30.0028 27.5285 29.9844 27.5646C29.9659 27.6007 29.9392 27.6318 29.9063 27.6556L29.2146 28.1951C29.1709 28.2307 29.1395 28.279 29.1247 28.3334L28.9379 29.1842C28.9294 29.2246 28.9111 29.2622 28.8844 29.2938C28.8578 29.3253 28.8237 29.3497 28.7853 29.3648C28.7469 29.3799 28.7053 29.3852 28.6644 29.3802C28.6234 29.3753 28.5843 29.3602 28.5506 29.3364L27.8589 28.8522C27.8131 28.8185 27.7562 28.8036 27.6998 28.8107L26.8282 28.8937C26.7881 28.896 26.748 28.8888 26.7112 28.8728C26.6743 28.8567 26.6418 28.8322 26.6162 28.8012C26.5906 28.7702 26.5727 28.7336 26.5638 28.6944C26.555 28.6552 26.5555 28.6145 26.5654 28.5755L26.8006 27.7316C26.8214 27.6783 26.8214 27.619 26.8006 27.5656L26.4547 26.7633C26.439 26.726 26.4325 26.6855 26.436 26.6452C26.4394 26.6049 26.4525 26.5661 26.4743 26.5321C26.4961 26.498 26.5259 26.4698 26.561 26.4498C26.5962 26.4298 26.6357 26.4187 26.6761 26.4174L27.5476 26.3828C27.6039 26.3799 27.6576 26.3579 27.6998 26.3206L28.3431 25.7464Z" fill="#FFD500"/>
<path d="M6.43692 9.61492C6.45192 9.56905 6.47785 9.52752 6.51248 9.49391C6.54711 9.46029 6.5894 9.43561 6.6357 9.422C6.682 9.40838 6.73092 9.40623 6.77823 9.41574C6.82555 9.42525 6.86984 9.44613 6.90728 9.47658L7.70965 10.1268C7.76376 10.1668 7.82915 10.1885 7.89642 10.189H8.93397C8.9818 10.1894 9.02883 10.2012 9.0711 10.2236C9.11336 10.246 9.1496 10.2782 9.17676 10.3176C9.20391 10.357 9.22117 10.4023 9.22707 10.4498C9.23297 10.4972 9.22734 10.5454 9.21065 10.5902L8.84405 11.5724C8.81961 11.6371 8.81961 11.7084 8.84405 11.773L9.16915 12.7553C9.18371 12.801 9.187 12.8495 9.17872 12.8968C9.17045 12.944 9.15087 12.9886 9.12165 13.0267C9.09243 13.0647 9.05444 13.0951 9.01092 13.1153C8.9674 13.1355 8.91964 13.1449 8.87172 13.1426L7.84108 13.0942C7.80783 13.0904 7.77415 13.0933 7.74206 13.1028C7.70997 13.1123 7.68013 13.1282 7.65432 13.1495L6.81736 13.7582C6.7786 13.7869 6.73345 13.8057 6.6858 13.8131C6.63815 13.8205 6.58943 13.8161 6.54382 13.8005C6.49822 13.7848 6.45711 13.7583 6.42402 13.7232C6.39094 13.6882 6.36688 13.6456 6.35391 13.5991L6.08415 12.6031C6.06919 12.5359 6.02973 12.4767 5.97348 12.4371L5.1296 11.8353C5.08965 11.808 5.05697 11.7714 5.03439 11.7286C5.0118 11.6858 5 11.6381 5 11.5897C5 11.5414 5.0118 11.4937 5.03439 11.4509C5.05697 11.4081 5.08965 11.3715 5.1296 11.3442L6.03573 10.7562C6.06595 10.7392 6.09251 10.7164 6.11388 10.6891C6.13525 10.6618 6.151 10.6306 6.16024 10.5971L6.43692 9.61492Z" fill="#FFD500"/>
<path d="M18.8863 24.7574C21.9035 23.0154 22.9373 19.1573 21.1953 16.1401C19.4533 13.1228 15.5952 12.0891 12.5779 13.8311C9.5607 15.5731 8.52692 19.4312 10.2689 22.4484C12.0109 25.4657 15.869 26.4994 18.8863 24.7574Z" fill="white"/>
<path d="M13.5874 29.9812L13.587 25.0694L15.8992 25.6434L18.2166 25.0642L18.2214 29.9975L15.9093 28.2893L13.5874 29.9812Z" fill="#FF5454"/>
<path d="M26.5268 22.5108L22.2672 20.058L21.6082 22.3474L19.954 24.0613L24.2179 26.5355L23.8946 23.6791L26.5268 22.5108Z" fill="#FF5454"/>
<path fill-rule="evenodd" clip-rule="evenodd" d="M18.5974 24.2696C19.5829 23.7022 20.378 22.8553 20.882 21.8359C21.386 20.8166 21.5764 19.6706 21.429 18.5431C21.2815 17.4155 20.803 16.357 20.0539 15.5015C19.3047 14.646 18.3187 14.0319 17.2204 13.7369C16.1222 13.4419 14.9612 13.4793 13.8842 13.8444C12.8072 14.2094 11.8627 14.8857 11.1702 15.7876C10.4777 16.6896 10.0682 17.7767 9.99369 18.9114C9.91914 20.0461 10.1828 21.1774 10.7514 22.1622C11.5131 23.4814 12.7672 24.4444 14.2383 24.8395C15.7095 25.2347 17.2773 25.0297 18.5974 24.2696ZM19.1715 25.264C20.3563 24.58 21.3117 23.56 21.9167 22.333C22.5218 21.1061 22.7495 19.7272 22.5709 18.3708C22.3923 17.0145 21.8156 15.7415 20.9135 14.713C20.0115 13.6844 18.8247 12.9464 17.5033 12.5923C16.1818 12.2383 14.7851 12.284 13.4896 12.7237C12.1941 13.1635 11.0582 13.9775 10.2254 15.0629C9.39254 16.1482 8.90026 17.4562 8.81079 18.8213C8.72131 20.1864 9.03865 21.5474 9.72269 22.7322C10.1769 23.5189 10.7815 24.2084 11.5022 24.7614C12.2228 25.3143 13.0454 25.72 13.9228 25.9551C14.8002 26.1902 15.7153 26.2501 16.6159 26.1316C17.5165 26.013 18.3849 25.7182 19.1715 25.264Z" fill="#CCCCCC"/>
<path d="M19.4555 17.1371C19.883 17.8748 20.082 18.7227 20.0275 19.5735C19.9729 20.4244 19.6672 21.2399 19.1489 21.9169C18.6307 22.594 17.9233 23.1021 17.1163 23.3769C16.3092 23.6518 15.4387 23.6811 14.615 23.4611C13.7913 23.2411 13.0513 22.7817 12.4888 22.141C11.9262 21.5003 11.5664 20.7072 11.4547 19.8619C11.3431 19.0167 11.4847 18.1573 11.8617 17.3925C12.2386 16.6278 12.8339 15.992 13.5723 15.5657C14.5611 14.9949 15.7359 14.8397 16.839 15.1343C17.942 15.429 18.883 16.1492 19.4555 17.1371Z" fill="#CCCCCC"/>
<path d="M25.161 12.9922L19.7933 4L14.4326 12.9922L16.9988 12.5287L17.8981 20.6009L18.3338 20.4557C19.4357 20.1006 20.6284 20.1522 21.6955 20.6009L22.5878 12.5564L25.161 12.9922Z" fill="#FF5454"/>
<path d="M18.296 9.59958C18.2043 9.59958 18.1164 9.56314 18.0515 9.49828C17.9866 9.43342 17.9502 9.34545 17.9502 9.25372C17.9502 7.74581 19.3751 6.30015 19.4374 6.24481C19.5016 6.1806 19.5887 6.14453 19.6795 6.14453C19.7703 6.14453 19.8573 6.1806 19.9216 6.24481C19.9858 6.30902 20.0218 6.3961 20.0218 6.48691C20.0218 6.57771 19.9858 6.66479 19.9216 6.729C19.9216 6.729 18.6419 8.02941 18.6419 9.25372C18.6419 9.34545 18.6055 9.43342 18.5406 9.49828C18.4757 9.56314 18.3878 9.59958 18.296 9.59958Z" fill="white"/>
<path d="M17.7766 11.6746C18.0631 11.6746 18.2954 11.4424 18.2954 11.1559C18.2954 10.8693 18.0631 10.6371 17.7766 10.6371C17.4901 10.6371 17.2578 10.8693 17.2578 11.1559C17.2578 11.4424 17.4901 11.6746 17.7766 11.6746Z" fill="white"/>
</svg>
