<svg width="24" height="24" viewBox="0 0 24 24" fill="none" xmlns="http://www.w3.org/2000/svg">
<path fill-rule="evenodd" clip-rule="evenodd" d="M12.2284 20.9999V20.998H4.74658C3.78008 20.998 2.99658 20.2145 2.99658 19.248V11.9975C2.99658 11.9672 2.99838 11.9374 3.00187 11.908C3.05196 6.97976 7.06256 3.00012 12.0027 3.00012C16.9739 3.00012 21.0039 7.03012 21.0039 12.0014C21.0039 16.8972 17.0953 20.8801 12.2284 20.9999ZM19.5039 12.0014C19.5039 16.0572 16.2851 19.3612 12.2626 19.4982L12.2456 19.498H4.74658C4.60851 19.498 4.49658 19.3861 4.49658 19.248V12.0014H4.5014C4.5014 7.85855 7.85982 4.50012 12.0027 4.50012C16.1455 4.50012 19.5039 7.85855 19.5039 12.0014ZM7.39301 10.0711C7.39301 9.65687 7.72879 9.32109 8.14301 9.32109H15.8584C16.2726 9.32109 16.6084 9.65687 16.6084 10.0711C16.6084 10.4853 16.2726 10.8211 15.8584 10.8211H8.14301C7.72879 10.8211 7.39301 10.4853 7.39301 10.0711ZM7.39301 13.9288C7.39301 13.5146 7.72879 13.1788 8.14301 13.1788H13.2866C13.7008 13.1788 14.0366 13.5146 14.0366 13.9288C14.0366 14.343 13.7008 14.6788 13.2866 14.6788H8.14301C7.72879 14.6788 7.39301 14.343 7.39301 13.9288Z" fill="#currentColor"/>
</svg>
