<svg width="24" height="24" viewBox="0 0 24 24" fill="none" xmlns="http://www.w3.org/2000/svg">
<path d="M12.0012 19.6909C10.0417 19.6909 9.20703 18.006 9.03467 17.1636L14.9678 17.1631C14.7954 18.0056 13.9608 19.6909 12.0012 19.6909Z" fill="#F7C8C8"/>
<path fill-rule="evenodd" clip-rule="evenodd" d="M5.13485 16.3907H3.67285C3.25864 16.3907 2.92285 16.7265 2.92285 17.1407C2.92285 17.5549 3.25864 17.8907 3.67285 17.8907H8.46966C8.63443 18.3255 8.90012 18.8128 9.29073 19.2457C9.88598 19.9053 10.7781 20.4409 12.001 20.4409C13.224 20.4409 14.1161 19.9051 14.7113 19.2454C15.1018 18.8126 15.3674 18.3254 15.5322 17.8907H20.3275C20.7417 17.8907 21.0775 17.5549 21.0775 17.1407C21.0775 16.7265 20.7417 16.3907 20.3275 16.3907H18.8657V10.4239V10.4076L18.865 10.3913C18.8157 9.25805 18.4231 7.5773 17.3846 6.15905C16.3209 4.70654 14.5962 3.55908 12.0003 3.55908C9.40437 3.55908 7.67967 4.70654 6.61604 6.15905C5.5775 7.5773 5.18493 9.25805 5.13556 10.3913L5.13485 10.4076V10.4239V16.3907ZM6.63485 16.3907H17.3657V10.4409C17.3233 9.53569 16.9967 8.16835 16.1743 7.04526C15.3722 5.94991 14.0836 5.05908 12.0003 5.05908C9.91698 5.05908 8.62835 5.94991 7.82626 7.04526C7.00386 8.16835 6.67734 9.53569 6.63485 10.4409V16.3907ZM13.8628 17.8907H10.139C10.2152 18.0103 10.3034 18.1289 10.4043 18.2407C10.7594 18.6342 11.2644 18.9409 12.001 18.9409C12.7375 18.9409 13.2425 18.6341 13.5976 18.2406C13.6985 18.1288 13.7866 18.0103 13.8628 17.8907Z" fill="#currentColor"/>
</svg>
