<svg width="24" height="25" viewBox="0 0 24 25" fill="none" xmlns="http://www.w3.org/2000/svg">
<path d="M22 11.2185C22 9.81339 21.3467 9.00615 20.6144 8.57284C19.8861 8.14187 19.1475 8.83535 19.1475 9.6816V12.7554C19.1475 13.6016 19.8861 14.2951 20.6144 13.8642C21.3467 13.4308 22 12.6236 22 11.2185Z" fill="#F7C8C8"/>
<path d="M19.1475 8.13541C20.0983 8.16425 22 8.82125 22 11.2185C22 13.6157 20.0983 14.2727 19.1475 14.3016" stroke="#333333" stroke-width="1.5"/>
<path d="M8.30069 14.5141L6.40215 14.5046C5.43934 14.4999 4.43914 14.4648 3.61717 13.9634C2.78849 13.4579 2 12.5852 2 11.2185C2 9.85183 2.78849 8.97914 3.61717 8.47364C4.43914 7.97224 5.43934 7.93717 6.40215 7.93239L8.30069 7.92297" stroke="#333333" stroke-width="1.5" stroke-linecap="round"/>
<path d="M5.14209 14.3016L7.63491 21.3993C7.84593 22.0001 8.41334 22.4022 9.05016 22.4022H9.28651C10.336 22.4022 11.061 21.3522 10.6892 20.3708L8.51759 14.6392" stroke="#333333" stroke-width="1.5"/>
<path d="M9.51892 7.06506C7.63195 7.90824 6.97875 10.0164 6.979 11.211C6.97875 12.4056 7.63195 14.5137 9.51892 15.3569C11.0739 16.0518 15.217 17.4384 18.0552 18.5087C18.8274 18.7999 19.681 18.2523 19.681 17.45L19.681 11.211V5.53608C19.681 4.46163 18.5788 3.72044 17.5714 4.09418C14.7653 5.13529 10.9877 6.40876 9.51892 7.06506Z" stroke="#333333" stroke-width="1.5"/>
</svg>
