<svg width="52" height="19" viewBox="0 0 52 19" fill="none" xmlns="http://www.w3.org/2000/svg">
<rect width="52" height="19" rx="9.5" fill="#B9B0F9"/>
<path d="M13.2734 12.9688C13.2734 13.1875 13.3203 13.3906 13.4297 13.5781C13.5234 13.7656 13.6797 13.8438 13.8984 13.8125C14.4141 13.7969 14.9609 13.7812 15.5391 13.7656C16.1172 13.7656 16.6797 13.75 17.2109 13.7344H17.5859C17.8047 13.7344 17.9766 13.6562 18.0859 13.5C18.1953 13.3438 18.2578 13.1562 18.2578 12.9531C18.2578 12.75 18.1953 12.5625 18.0703 12.375C17.9453 12.2031 17.7891 12.125 17.5703 12.1406C17.4453 12.1562 17.3359 12.1719 17.2109 12.1719C17.0859 12.1719 16.9766 12.1719 16.8516 12.1719H16.7422V6.07812H17.1797C17.3047 6.07812 17.4453 6.07812 17.5703 6.0625C17.7734 6.04688 17.9297 5.95312 18.0547 5.79688C18.1641 5.64062 18.2266 5.46875 18.2266 5.26562C18.2266 5.07812 18.1484 4.89062 18.0234 4.73438C17.8984 4.57812 17.7422 4.48438 17.5547 4.46875C17.1797 4.5 16.7578 4.51562 16.2891 4.51562C15.8203 4.51562 15.3516 4.51562 14.8984 4.51562C14.7109 4.51562 14.5234 4.53125 14.3516 4.53125C14.1641 4.53125 14.0078 4.53125 13.8516 4.53125C13.6328 4.53125 13.4766 4.60938 13.3828 4.76562C13.2891 4.92188 13.2422 5.10938 13.2422 5.29688C13.2422 5.51562 13.2891 5.70312 13.4141 5.875C13.5234 6.04688 13.6797 6.14062 13.8672 6.14062C13.9766 6.14062 14.1172 6.125 14.2891 6.125C14.4453 6.125 14.6016 6.10938 14.7578 6.10938C14.7578 6.39062 14.7578 6.70312 14.7578 7.04688C14.7578 7.39062 14.7734 7.78125 14.7734 8.21875V12.2031H13.8828C13.6641 12.2031 13.5078 12.2812 13.4141 12.4375C13.3203 12.5938 13.2734 12.7812 13.2734 12.9688ZM23.7578 4.89062V6.01562C23.7578 6.51562 23.7578 7.10938 23.7578 7.76562C23.7578 8.42188 23.7734 9.09375 23.7734 9.78125C23.6172 9.5625 23.4922 9.34375 23.3672 9.14062C23.2422 8.9375 23.1016 8.73438 22.9766 8.51562C22.8516 8.3125 22.7109 8.09375 22.5703 7.85938C22.4141 7.625 22.2578 7.35938 22.0859 7.07812C21.7422 6.54688 21.4453 6.0625 21.1641 5.625C20.8828 5.1875 20.6953 4.875 20.5859 4.65625C20.4609 4.5 20.2266 4.42188 19.9141 4.42188C19.6641 4.42188 19.4453 4.46875 19.2266 4.5625C19.0078 4.65625 18.8984 4.79688 18.8984 4.96875V6.53125C18.8984 6.9375 18.8984 7.39062 18.8984 7.875C18.8984 8.375 18.9141 8.875 18.9141 9.375V13.4531C18.9141 13.6094 18.9922 13.7188 19.1797 13.7969C19.3672 13.875 19.5703 13.9062 19.8047 13.9062C20.0547 13.9062 20.2891 13.8594 20.5234 13.75C20.7422 13.6562 20.8672 13.5156 20.8984 13.3594C20.8828 13.2188 20.8672 12.8906 20.8672 12.3594C20.8672 11.8438 20.8672 11.25 20.8672 10.5625C20.8672 10.2188 20.8672 9.875 20.8672 9.53125C20.8672 9.1875 20.8828 8.84375 20.8828 8.46875C21.1641 8.90625 21.4609 9.39062 21.7891 9.89062C22.1016 10.4062 22.4141 10.9062 22.7266 11.3906C23.0234 11.875 23.3047 12.3125 23.5547 12.7188C23.8047 13.125 23.9922 13.4531 24.1484 13.6719H24.1328C24.1797 13.7656 24.2578 13.8125 24.3828 13.8438C24.4922 13.875 24.6328 13.8906 24.7891 13.8906C24.8984 13.8906 25.0078 13.8906 25.1328 13.8594C25.2422 13.8281 25.3516 13.7969 25.4453 13.75C25.5391 13.7031 25.6016 13.6406 25.6641 13.5781C25.7266 13.5156 25.7578 13.4531 25.7578 13.3594C25.7266 13.2344 25.7266 12.9531 25.7266 12.5469V9.26562C25.7266 8.625 25.7266 8 25.7422 7.40625V4.85938C25.7422 4.70312 25.6484 4.59375 25.4609 4.53125C25.2734 4.46875 25.0703 4.42188 24.8359 4.42188C24.5547 4.42188 24.3047 4.46875 24.0859 4.54688C23.8672 4.625 23.7578 4.73438 23.7578 4.89062ZM26.9453 6.14062L28.5391 6.09375C28.5391 6.40625 28.5391 6.75 28.5391 7.14062C28.5391 7.54688 28.5547 7.98438 28.5547 8.48438C28.5547 9.07812 28.5703 9.6875 28.5703 10.2812V11.9375C28.5703 12.1875 28.5547 12.4062 28.5547 12.5938C28.5547 12.7969 28.5547 12.9688 28.5547 13.1094V13.4688C28.5547 13.625 28.6328 13.7344 28.8203 13.7969C29.0078 13.875 29.2109 13.9062 29.4453 13.9062C29.7109 13.9062 29.9609 13.8594 30.1953 13.7656C30.4141 13.6719 30.5391 13.5469 30.5391 13.3594V12.8594C30.5391 12.625 30.5234 12.3281 30.5234 11.9844C30.5234 11.6406 30.5234 11.2812 30.5234 10.875V6.0625C30.8672 6.0625 31.1797 6.0625 31.4453 6.0625C31.6953 6.0625 31.9297 6.0625 32.1484 6.0625C32.3672 6.0625 32.5234 5.98438 32.5859 5.82812C32.6484 5.67188 32.6797 5.48438 32.6797 5.26562C32.6797 5.0625 32.6328 4.875 32.5703 4.71875C32.4922 4.5625 32.3516 4.46875 32.1328 4.46875C31.8672 4.5 31.5078 4.51562 31.0391 4.51562C30.5703 4.51562 30.0703 4.53125 29.5547 4.53125C29.0391 4.53125 28.5391 4.53125 28.0703 4.53125H26.9453C26.7266 4.53125 26.6016 4.60938 26.5391 4.76562C26.4766 4.92188 26.4609 5.10938 26.4609 5.29688C26.4609 5.51562 26.4922 5.71875 26.5547 5.89062C26.6172 6.0625 26.7578 6.14062 26.9453 6.14062ZM34.1172 10.8438C33.9922 10.8438 33.8516 10.8594 33.7266 10.8906C33.5859 10.9219 33.4609 10.9531 33.3516 10.9844C33.2422 11.0312 33.1484 11.0781 33.0859 11.1406C33.0078 11.2031 32.9766 11.25 32.9766 11.3125C32.9766 11.5938 33.0391 11.875 33.1328 12.1719C33.2266 12.4844 33.3828 12.75 33.6016 13C33.8047 13.25 34.0859 13.4688 34.4297 13.625C34.7734 13.7969 35.1953 13.875 35.7109 13.875C36.1641 13.875 36.5547 13.8125 36.8984 13.6562C37.2422 13.5 37.5234 13.2969 37.7422 13.0469C37.9609 12.7969 38.1328 12.4844 38.2422 12.1406C38.3359 11.7969 38.3828 11.4062 38.3828 11V5.46875C38.3828 5.375 38.3516 5.26562 38.3047 5.14062C38.2422 5.01562 38.1797 4.90625 38.0859 4.8125C37.9922 4.71875 37.8828 4.625 37.7578 4.5625C37.6328 4.5 37.4922 4.46875 37.3359 4.46875C37.1953 4.46875 37.0234 4.48438 36.8047 4.48438C36.5859 4.48438 36.3516 4.5 36.1172 4.5C35.8672 4.5 35.6328 4.51562 35.4141 4.51562C35.1953 4.51562 35.0078 4.51562 34.8828 4.51562C34.7266 4.51562 34.5859 4.53125 34.4453 4.53125C34.3047 4.53125 34.1641 4.53125 34.0234 4.53125C33.8047 4.53125 33.6484 4.60938 33.5547 4.76562C33.4609 4.92188 33.4141 5.10938 33.4141 5.29688C33.4141 5.51562 33.4609 5.70312 33.5859 5.875C33.7109 6.04688 33.8516 6.14062 34.0391 6.14062C34.3203 6.125 34.6641 6.10938 35.0703 6.10938C35.4609 6.10938 35.8203 6.10938 36.1484 6.09375H36.3984C36.3984 6.375 36.4141 6.65625 36.4141 6.95312V10.8906C36.4141 11.375 36.3516 11.75 36.2266 12C36.1016 12.2656 35.9297 12.3906 35.7109 12.3906C35.2109 12.3906 34.9453 11.9844 34.8828 11.1562C34.8672 11.0469 34.7891 10.9688 34.6484 10.9219C34.4922 10.875 34.3203 10.8438 34.1172 10.8438Z" fill="white"/>
</svg>
