<svg width="52" height="19" viewBox="0 0 52 19" fill="none" xmlns="http://www.w3.org/2000/svg">
<rect width="52" height="19" rx="9.5" fill="#407965"/>
<path d="M12.8672 12.9688C12.8672 13.1875 12.9141 13.3906 13.0234 13.5781C13.1172 13.7656 13.2734 13.8438 13.4922 13.8125C14.0078 13.7969 14.5547 13.7812 15.1328 13.7656C15.7109 13.7656 16.2734 13.75 16.8047 13.7344H17.1797C17.3984 13.7344 17.5703 13.6562 17.6797 13.5C17.7891 13.3438 17.8516 13.1562 17.8516 12.9531C17.8516 12.75 17.7891 12.5625 17.6641 12.375C17.5391 12.2031 17.3828 12.125 17.1641 12.1406C17.0391 12.1562 16.9297 12.1719 16.8047 12.1719C16.6797 12.1719 16.5703 12.1719 16.4453 12.1719H16.3359V6.07812H16.7734C16.8984 6.07812 17.0391 6.07812 17.1641 6.0625C17.3672 6.04688 17.5234 5.95312 17.6484 5.79688C17.7578 5.64062 17.8203 5.46875 17.8203 5.26562C17.8203 5.07812 17.7422 4.89062 17.6172 4.73438C17.4922 4.57812 17.3359 4.48438 17.1484 4.46875C16.7734 4.5 16.3516 4.51562 15.8828 4.51562C15.4141 4.51562 14.9453 4.51562 14.4922 4.51562C14.3047 4.51562 14.1172 4.53125 13.9453 4.53125C13.7578 4.53125 13.6016 4.53125 13.4453 4.53125C13.2266 4.53125 13.0703 4.60938 12.9766 4.76562C12.8828 4.92188 12.8359 5.10938 12.8359 5.29688C12.8359 5.51562 12.8828 5.70312 13.0078 5.875C13.1172 6.04688 13.2734 6.14062 13.4609 6.14062C13.5703 6.14062 13.7109 6.125 13.8828 6.125C14.0391 6.125 14.1953 6.10938 14.3516 6.10938C14.3516 6.39062 14.3516 6.70312 14.3516 7.04688C14.3516 7.39062 14.3672 7.78125 14.3672 8.21875V12.2031H13.4766C13.2578 12.2031 13.1016 12.2812 13.0078 12.4375C12.9141 12.5938 12.8672 12.7812 12.8672 12.9688ZM23.3516 4.89062V6.01562C23.3516 6.51562 23.3516 7.10938 23.3516 7.76562C23.3516 8.42188 23.3672 9.09375 23.3672 9.78125C23.2109 9.5625 23.0859 9.34375 22.9609 9.14062C22.8359 8.9375 22.6953 8.73438 22.5703 8.51562C22.4453 8.3125 22.3047 8.09375 22.1641 7.85938C22.0078 7.625 21.8516 7.35938 21.6797 7.07812C21.3359 6.54688 21.0391 6.0625 20.7578 5.625C20.4766 5.1875 20.2891 4.875 20.1797 4.65625C20.0547 4.5 19.8203 4.42188 19.5078 4.42188C19.2578 4.42188 19.0391 4.46875 18.8203 4.5625C18.6016 4.65625 18.4922 4.79688 18.4922 4.96875V6.53125C18.4922 6.9375 18.4922 7.39062 18.4922 7.875C18.4922 8.375 18.5078 8.875 18.5078 9.375V13.4531C18.5078 13.6094 18.5859 13.7188 18.7734 13.7969C18.9609 13.875 19.1641 13.9062 19.3984 13.9062C19.6484 13.9062 19.8828 13.8594 20.1172 13.75C20.3359 13.6562 20.4609 13.5156 20.4922 13.3594C20.4766 13.2188 20.4609 12.8906 20.4609 12.3594C20.4609 11.8438 20.4609 11.25 20.4609 10.5625C20.4609 10.2188 20.4609 9.875 20.4609 9.53125C20.4609 9.1875 20.4766 8.84375 20.4766 8.46875C20.7578 8.90625 21.0547 9.39062 21.3828 9.89062C21.6953 10.4062 22.0078 10.9062 22.3203 11.3906C22.6172 11.875 22.8984 12.3125 23.1484 12.7188C23.3984 13.125 23.5859 13.4531 23.7422 13.6719H23.7266C23.7734 13.7656 23.8516 13.8125 23.9766 13.8438C24.0859 13.875 24.2266 13.8906 24.3828 13.8906C24.4922 13.8906 24.6016 13.8906 24.7266 13.8594C24.8359 13.8281 24.9453 13.7969 25.0391 13.75C25.1328 13.7031 25.1953 13.6406 25.2578 13.5781C25.3203 13.5156 25.3516 13.4531 25.3516 13.3594C25.3203 13.2344 25.3203 12.9531 25.3203 12.5469V9.26562C25.3203 8.625 25.3203 8 25.3359 7.40625V4.85938C25.3359 4.70312 25.2422 4.59375 25.0547 4.53125C24.8672 4.46875 24.6641 4.42188 24.4297 4.42188C24.1484 4.42188 23.8984 4.46875 23.6797 4.54688C23.4609 4.625 23.3516 4.73438 23.3516 4.89062ZM26.3672 4.89062V6.45312C26.3672 6.85938 26.3672 7.3125 26.3672 7.8125C26.3672 8.3125 26.3828 8.82812 26.3828 9.32812V13.4531C26.3828 13.6094 26.4609 13.7188 26.6484 13.7969C26.8203 13.875 27.0234 13.9062 27.2734 13.9062C27.3984 13.9062 27.5234 13.9062 27.6641 13.875C27.7891 13.8438 27.9141 13.8125 28.0234 13.7656C28.1172 13.7188 28.2109 13.6562 28.2734 13.5938C28.3359 13.5312 28.3672 13.4531 28.3672 13.3594C28.3516 13.2656 28.3359 13.1094 28.3359 12.875C28.3359 12.6562 28.3359 12.375 28.3359 12.0469V9.73438C28.7734 9.71875 29.1797 9.71875 29.5859 9.71875C29.9922 9.71875 30.4141 9.71875 30.8672 9.70312C30.9922 9.70312 31.1172 9.70312 31.2422 9.70312C31.3516 9.70312 31.4609 9.6875 31.5859 9.6875C31.8047 9.6875 31.9766 9.60938 32.0859 9.4375C32.1797 9.28125 32.2422 9.09375 32.2422 8.875C32.2422 8.67188 32.1797 8.48438 32.0703 8.29688C31.9453 8.125 31.7891 8.04688 31.5703 8.04688C31.2266 8.07812 30.8516 8.09375 30.4141 8.09375C29.9766 8.09375 29.5391 8.09375 29.1016 8.09375C28.9453 8.09375 28.8203 8.10938 28.6953 8.10938C28.5703 8.10938 28.4609 8.10938 28.3359 8.10938C28.3359 7.85938 28.3359 7.64062 28.3359 7.46875C28.3359 7.29688 28.3516 7.10938 28.3516 6.90625V6.125C28.8047 6.10938 29.2266 6.10938 29.6172 6.10938C30.0078 6.10938 30.4297 6.10938 30.8828 6.09375C30.9766 6.09375 31.0859 6.09375 31.1953 6.09375C31.2891 6.09375 31.3828 6.07812 31.4766 6.07812C31.6953 6.07812 31.8672 6 31.9766 5.82812C32.0859 5.67188 32.1484 5.48438 32.1484 5.26562C32.1484 5.17188 32.1328 5.0625 32.1016 4.96875C32.0703 4.875 32.0234 4.78125 31.9609 4.70312C31.8984 4.64062 31.8359 4.57812 31.7578 4.53125C31.6641 4.48438 31.5703 4.46875 31.4766 4.46875C31.1172 4.5 30.7266 4.51562 30.2891 4.51562C29.8516 4.51562 29.3984 4.51562 28.9609 4.51562C28.8047 4.51562 28.6641 4.53125 28.5078 4.53125C28.3516 4.53125 28.1953 4.53125 28.0547 4.53125C27.9922 4.48438 27.8984 4.45312 27.7891 4.4375C27.6797 4.4375 27.5547 4.42188 27.4141 4.42188C27.1484 4.42188 26.9141 4.46875 26.6953 4.54688C26.4766 4.625 26.3672 4.73438 26.3672 4.89062ZM32.9922 4.89062V6.45312C32.9922 6.85938 32.9922 7.3125 32.9922 7.8125C32.9922 8.3125 33.0078 8.82812 33.0078 9.32812V13.4531C33.0078 13.6094 33.0859 13.7188 33.2734 13.7969C33.4453 13.875 33.6484 13.9062 33.8984 13.9062C34.0234 13.9062 34.1484 13.9062 34.2891 13.875C34.4141 13.8438 34.5391 13.8125 34.6484 13.7656C34.7422 13.7188 34.8359 13.6562 34.8984 13.5938C34.9609 13.5312 34.9922 13.4531 34.9922 13.3594C34.9766 13.2812 34.9609 13.125 34.9609 12.9062C34.9609 12.6875 34.9609 12.4375 34.9609 12.125V9.92188C35.0234 9.9375 35.1016 9.9375 35.1641 9.9375H35.3984C35.4766 9.9375 35.5547 9.9375 35.6328 9.9375C35.6953 9.9375 35.7734 9.92188 35.8672 9.92188C36.3984 9.90625 36.8516 9.8125 37.2578 9.625C37.6484 9.4375 37.9766 9.21875 38.2422 8.9375C38.4922 8.65625 38.6953 8.35938 38.8203 8.04688C38.9453 7.73438 39.0234 7.42188 39.0234 7.10938C39.0234 6.70312 38.9453 6.32812 38.7891 6C38.6328 5.6875 38.3984 5.40625 38.1172 5.17188C37.8203 4.95312 37.4766 4.76562 37.0703 4.64062C36.6641 4.51562 36.2266 4.45312 35.7422 4.42188C35.5547 4.42188 35.3672 4.42188 35.1484 4.4375C34.9297 4.45312 34.7422 4.46875 34.5703 4.48438C34.4766 4.45312 34.3984 4.4375 34.3203 4.4375C34.2422 4.4375 34.1484 4.42188 34.0547 4.42188C33.7891 4.42188 33.5391 4.46875 33.3203 4.54688C33.1016 4.625 32.9922 4.73438 32.9922 4.89062ZM34.9766 5.92188C35.1016 5.90625 35.2422 5.89062 35.3672 5.89062C35.4922 5.89062 35.6016 5.90625 35.7109 5.90625C36.1328 5.9375 36.4609 6.03125 36.6953 6.21875C36.9141 6.40625 37.0391 6.6875 37.0391 7.07812C37.0391 7.46875 36.9297 7.78125 36.7109 8.03125C36.4922 8.28125 36.1953 8.42188 35.8359 8.4375C35.7422 8.4375 35.6641 8.45312 35.5859 8.45312C35.5078 8.45312 35.4297 8.45312 35.3672 8.45312H35.1641C35.1016 8.45312 35.0234 8.45312 34.9609 8.4375C34.9609 8.10938 34.9609 7.82812 34.9609 7.57812C34.9609 7.34375 34.9766 7.09375 34.9766 6.84375V5.92188Z" fill="white"/>
</svg>
