<svg width="41" height="16" viewBox="0 0 41 16" fill="none" xmlns="http://www.w3.org/2000/svg">
<rect width="41" height="16" rx="8" fill="#F19C81"/>
<path d="M8.78906 4.1543V5.52148C8.78906 5.87695 8.78906 6.27344 8.78906 6.71094C8.78906 7.14844 8.80273 7.59961 8.80273 8.03711V11.6465C8.80273 11.7832 8.87109 11.8926 9.03516 11.9473C9.18555 12.0156 9.36328 12.043 9.58203 12.043C9.66406 12.043 9.75977 12.043 9.85547 12.0293C9.95117 12.0293 10.0469 12.002 10.1289 11.9609C10.5391 11.9473 11.0039 11.9336 11.4961 11.9199C11.9883 11.9199 12.4531 11.9062 12.918 11.8926H13.3965C13.5879 11.8926 13.7383 11.8242 13.834 11.6875C13.916 11.5508 13.9707 11.3867 13.9707 11.209C13.9707 11.0312 13.916 10.8672 13.8203 10.7031C13.7109 10.5527 13.5742 10.4844 13.3828 10.498C13.082 10.5254 12.7402 10.5391 12.3574 10.5391C11.9746 10.5391 11.5781 10.5391 11.1953 10.5391C11.0586 10.5391 10.9492 10.5527 10.8398 10.5527C10.7305 10.5527 10.6348 10.5527 10.5254 10.5527C10.5117 10.2383 10.5117 9.89648 10.5117 9.52734V8.29688C10.9629 8.29688 11.373 8.2832 11.7285 8.2832C12.084 8.2832 12.4941 8.26953 12.9316 8.25586C13.123 8.25586 13.2598 8.1875 13.3555 8.05078C13.4512 7.91406 13.5059 7.75 13.5059 7.55859C13.5059 7.47656 13.4922 7.38086 13.4648 7.29883C13.4375 7.2168 13.3965 7.13477 13.3418 7.06641C13.2871 7.01172 13.2324 6.95703 13.1641 6.91602C13.082 6.875 13 6.86133 12.918 6.86133C12.6172 6.88867 12.3164 6.90234 12.002 6.90234C11.6738 6.90234 11.3594 6.90234 11.0449 6.90234C10.9492 6.90234 10.8535 6.91602 10.7715 6.91602C10.6895 6.91602 10.5938 6.91602 10.5117 6.91602C10.5117 6.69727 10.5117 6.50586 10.5117 6.35547C10.5117 6.21875 10.5254 6.05469 10.5254 5.87695V5.2207C10.9219 5.20703 11.291 5.20703 11.6328 5.20703C11.9746 5.20703 12.3438 5.20703 12.7402 5.19336C12.8223 5.19336 12.918 5.19336 13.0137 5.19336C13.0957 5.19336 13.1914 5.17969 13.2734 5.17969C13.4648 5.17969 13.6016 5.11133 13.6973 4.97461C13.793 4.83789 13.8477 4.67383 13.8477 4.48242C13.8477 4.40039 13.834 4.30469 13.8066 4.22266C13.7793 4.14062 13.7383 4.05859 13.6836 3.99023C13.6289 3.93555 13.5742 3.88086 13.5059 3.83984C13.4238 3.79883 13.3418 3.78516 13.2598 3.78516C12.959 3.8125 12.6035 3.82617 12.2207 3.82617C11.8379 3.82617 11.4414 3.82617 11.0586 3.82617C10.9219 3.82617 10.7988 3.83984 10.6621 3.83984C10.5254 3.83984 10.3887 3.83984 10.2656 3.83984C10.2109 3.79883 10.1289 3.77148 10.0332 3.75781C9.9375 3.75781 9.82812 3.74414 9.70508 3.74414C9.47266 3.74414 9.26758 3.78516 9.07617 3.85352C8.88477 3.92188 8.78906 4.01758 8.78906 4.1543ZM15.2148 8.95312C14.9961 8.95312 14.8047 8.99414 14.6406 9.07617C14.4629 9.1582 14.3672 9.28125 14.3672 9.43164C14.3398 9.82812 14.3945 10.1836 14.5039 10.498C14.6133 10.8262 14.791 11.0996 15.0234 11.3184C15.2422 11.5508 15.5293 11.7285 15.8711 11.8516C16.1992 11.9746 16.582 12.0293 17.0195 12.0293C17.4297 12.0293 17.7988 11.9883 18.127 11.8789C18.4551 11.7695 18.7422 11.6191 18.9883 11.4277C19.2207 11.2363 19.3984 11.0039 19.5352 10.7305C19.6582 10.457 19.7266 10.1426 19.7266 9.80078C19.7266 9.25391 19.5488 8.77539 19.1934 8.37891C18.8379 7.99609 18.291 7.59961 17.5664 7.18945C17.1562 6.98438 16.8281 6.7793 16.5957 6.56055C16.3633 6.35547 16.2539 6.0957 16.2539 5.78125C16.2539 5.54883 16.3223 5.37109 16.4727 5.24805C16.623 5.13867 16.8281 5.07031 17.1016 5.05664C17.3613 5.05664 17.5664 5.15234 17.7168 5.37109C17.8672 5.58984 17.9355 5.89062 17.9082 6.30078C17.8809 6.46484 17.9766 6.60156 18.168 6.68359C18.3594 6.76562 18.5645 6.80664 18.7832 6.80664C19.002 6.80664 19.1934 6.76562 19.3711 6.68359C19.5488 6.60156 19.6445 6.47852 19.6445 6.31445C19.6445 5.89062 19.5898 5.52148 19.4668 5.19336C19.3301 4.86523 19.1523 4.60547 18.9199 4.38672C18.6875 4.18164 18.4141 4.03125 18.1133 3.92188C17.7988 3.8125 17.457 3.75781 17.1016 3.75781C16.2949 3.77148 15.666 3.96289 15.2012 4.33203C14.7363 4.71484 14.5176 5.23438 14.5176 5.91797C14.5176 6.42383 14.668 6.84766 14.9961 7.18945C15.3105 7.54492 15.8164 7.88672 16.5 8.22852C17.0195 8.50195 17.4023 8.74805 17.6348 8.99414C17.8672 9.24023 17.9902 9.51367 17.9902 9.81445C17.9902 10.1152 17.8945 10.3477 17.7305 10.498C17.5527 10.6484 17.3203 10.7305 17.0195 10.7305C16.7324 10.7441 16.5 10.6484 16.3223 10.457C16.1445 10.2656 16.0625 9.92383 16.0625 9.43164C16.0625 9.28125 15.9668 9.1582 15.7891 9.07617C15.6113 8.99414 15.4199 8.95312 15.2148 8.95312ZM20.4648 5.24805L21.8594 5.20703C21.8594 5.48047 21.8594 5.78125 21.8594 6.12305C21.8594 6.47852 21.873 6.86133 21.873 7.29883C21.873 7.81836 21.8867 8.35156 21.8867 8.87109V10.3203C21.8867 10.5391 21.873 10.7305 21.873 10.8945C21.873 11.0723 21.873 11.2227 21.873 11.3457V11.6602C21.873 11.7969 21.9414 11.8926 22.1055 11.9473C22.2695 12.0156 22.4473 12.043 22.6523 12.043C22.8848 12.043 23.1035 12.002 23.3086 11.9199C23.5 11.8379 23.6094 11.7285 23.6094 11.5645V11.127C23.6094 10.9219 23.5957 10.6621 23.5957 10.3613C23.5957 10.0605 23.5957 9.74609 23.5957 9.39062V5.17969C23.8965 5.17969 24.1699 5.17969 24.4023 5.17969C24.6211 5.17969 24.8262 5.17969 25.0176 5.17969C25.209 5.17969 25.3457 5.11133 25.4004 4.97461C25.4551 4.83789 25.4824 4.67383 25.4824 4.48242C25.4824 4.30469 25.4414 4.14062 25.3867 4.00391C25.3184 3.86719 25.1953 3.78516 25.0039 3.78516C24.7715 3.8125 24.457 3.82617 24.0469 3.82617C23.6367 3.82617 23.1992 3.83984 22.748 3.83984C22.2969 3.83984 21.8594 3.83984 21.4492 3.83984H20.4648C20.2734 3.83984 20.1641 3.9082 20.1094 4.04492C20.0547 4.18164 20.041 4.3457 20.041 4.50977C20.041 4.70117 20.0684 4.87891 20.123 5.0293C20.1777 5.17969 20.3008 5.24805 20.4648 5.24805ZM26.0703 4.1543V5.52148C26.0703 5.87695 26.0703 6.27344 26.0703 6.71094C26.0703 7.14844 26.084 7.59961 26.084 8.03711V11.6465C26.084 11.7832 26.1523 11.8789 26.3164 11.9473C26.4668 12.0156 26.6445 12.043 26.8633 12.043C26.9727 12.043 27.082 12.043 27.2051 12.0156C27.3145 11.9883 27.4238 11.9609 27.5195 11.9199C27.6016 11.8789 27.6836 11.8242 27.7383 11.7695C27.793 11.7148 27.8203 11.6465 27.8203 11.5645C27.8066 11.4961 27.793 11.3594 27.793 11.168C27.793 10.9766 27.793 10.7578 27.793 10.4844V8.55664C27.8477 8.57031 27.916 8.57031 27.9707 8.57031H28.1758C28.2441 8.57031 28.3125 8.57031 28.3809 8.57031C28.4355 8.57031 28.5039 8.55664 28.5859 8.55664C29.0508 8.54297 29.4473 8.46094 29.8027 8.29688C30.1445 8.13281 30.4316 7.94141 30.6641 7.69531C30.8828 7.44922 31.0605 7.18945 31.1699 6.91602C31.2793 6.64258 31.3477 6.36914 31.3477 6.0957C31.3477 5.74023 31.2793 5.41211 31.1426 5.125C31.0059 4.85156 30.8008 4.60547 30.5547 4.40039C30.2949 4.20898 29.9941 4.04492 29.6387 3.93555C29.2832 3.82617 28.9004 3.77148 28.4766 3.74414C28.3125 3.74414 28.1484 3.74414 27.957 3.75781C27.7656 3.77148 27.6016 3.78516 27.4512 3.79883C27.3691 3.77148 27.3008 3.75781 27.2324 3.75781C27.1641 3.75781 27.082 3.74414 27 3.74414C26.7676 3.74414 26.5488 3.78516 26.3574 3.85352C26.166 3.92188 26.0703 4.01758 26.0703 4.1543ZM27.8066 5.05664C27.916 5.04297 28.0391 5.0293 28.1484 5.0293C28.2578 5.0293 28.3535 5.04297 28.4492 5.04297C28.8184 5.07031 29.1055 5.15234 29.3105 5.31641C29.502 5.48047 29.6113 5.72656 29.6113 6.06836C29.6113 6.41016 29.5156 6.68359 29.3242 6.90234C29.1328 7.12109 28.873 7.24414 28.5586 7.25781C28.4766 7.25781 28.4082 7.27148 28.3398 7.27148C28.2715 7.27148 28.2031 7.27148 28.1484 7.27148H27.9707C27.916 7.27148 27.8477 7.27148 27.793 7.25781C27.793 6.9707 27.793 6.72461 27.793 6.50586C27.793 6.30078 27.8066 6.08203 27.8066 5.86328V5.05664Z" fill="white"/>
</svg>
