<svg width="52" height="19" viewBox="0 0 52 19" fill="none" xmlns="http://www.w3.org/2000/svg">
<rect width="52" height="19" rx="9.5" fill="#8EC0EF"/>
<path d="M12.8906 12.9688C12.8906 13.1875 12.9375 13.3906 13.0469 13.5781C13.1406 13.7656 13.2969 13.8438 13.5156 13.8125C14.0312 13.7969 14.5781 13.7812 15.1562 13.7656C15.7344 13.7656 16.2969 13.75 16.8281 13.7344H17.2031C17.4219 13.7344 17.5938 13.6562 17.7031 13.5C17.8125 13.3438 17.875 13.1562 17.875 12.9531C17.875 12.75 17.8125 12.5625 17.6875 12.375C17.5625 12.2031 17.4062 12.125 17.1875 12.1406C17.0625 12.1562 16.9531 12.1719 16.8281 12.1719C16.7031 12.1719 16.5938 12.1719 16.4688 12.1719H16.3594V6.07812H16.7969C16.9219 6.07812 17.0625 6.07812 17.1875 6.0625C17.3906 6.04688 17.5469 5.95312 17.6719 5.79688C17.7812 5.64062 17.8438 5.46875 17.8438 5.26562C17.8438 5.07812 17.7656 4.89062 17.6406 4.73438C17.5156 4.57812 17.3594 4.48438 17.1719 4.46875C16.7969 4.5 16.375 4.51562 15.9062 4.51562C15.4375 4.51562 14.9688 4.51562 14.5156 4.51562C14.3281 4.51562 14.1406 4.53125 13.9688 4.53125C13.7812 4.53125 13.625 4.53125 13.4688 4.53125C13.25 4.53125 13.0938 4.60938 13 4.76562C12.9062 4.92188 12.8594 5.10938 12.8594 5.29688C12.8594 5.51562 12.9062 5.70312 13.0312 5.875C13.1406 6.04688 13.2969 6.14062 13.4844 6.14062C13.5938 6.14062 13.7344 6.125 13.9062 6.125C14.0625 6.125 14.2188 6.10938 14.375 6.10938C14.375 6.39062 14.375 6.70312 14.375 7.04688C14.375 7.39062 14.3906 7.78125 14.3906 8.21875V12.2031H13.5C13.2812 12.2031 13.125 12.2812 13.0312 12.4375C12.9375 12.5938 12.8906 12.7812 12.8906 12.9688ZM23.375 4.89062V6.01562C23.375 6.51562 23.375 7.10938 23.375 7.76562C23.375 8.42188 23.3906 9.09375 23.3906 9.78125C23.2344 9.5625 23.1094 9.34375 22.9844 9.14062C22.8594 8.9375 22.7188 8.73438 22.5938 8.51562C22.4688 8.3125 22.3281 8.09375 22.1875 7.85938C22.0312 7.625 21.875 7.35938 21.7031 7.07812C21.3594 6.54688 21.0625 6.0625 20.7812 5.625C20.5 5.1875 20.3125 4.875 20.2031 4.65625C20.0781 4.5 19.8438 4.42188 19.5312 4.42188C19.2812 4.42188 19.0625 4.46875 18.8438 4.5625C18.625 4.65625 18.5156 4.79688 18.5156 4.96875V6.53125C18.5156 6.9375 18.5156 7.39062 18.5156 7.875C18.5156 8.375 18.5312 8.875 18.5312 9.375V13.4531C18.5312 13.6094 18.6094 13.7188 18.7969 13.7969C18.9844 13.875 19.1875 13.9062 19.4219 13.9062C19.6719 13.9062 19.9062 13.8594 20.1406 13.75C20.3594 13.6562 20.4844 13.5156 20.5156 13.3594C20.5 13.2188 20.4844 12.8906 20.4844 12.3594C20.4844 11.8438 20.4844 11.25 20.4844 10.5625C20.4844 10.2188 20.4844 9.875 20.4844 9.53125C20.4844 9.1875 20.5 8.84375 20.5 8.46875C20.7812 8.90625 21.0781 9.39062 21.4062 9.89062C21.7188 10.4062 22.0312 10.9062 22.3438 11.3906C22.6406 11.875 22.9219 12.3125 23.1719 12.7188C23.4219 13.125 23.6094 13.4531 23.7656 13.6719H23.75C23.7969 13.7656 23.875 13.8125 24 13.8438C24.1094 13.875 24.25 13.8906 24.4062 13.8906C24.5156 13.8906 24.625 13.8906 24.75 13.8594C24.8594 13.8281 24.9688 13.7969 25.0625 13.75C25.1562 13.7031 25.2188 13.6406 25.2812 13.5781C25.3438 13.5156 25.375 13.4531 25.375 13.3594C25.3438 13.2344 25.3438 12.9531 25.3438 12.5469V9.26562C25.3438 8.625 25.3438 8 25.3594 7.40625V4.85938C25.3594 4.70312 25.2656 4.59375 25.0781 4.53125C24.8906 4.46875 24.6875 4.42188 24.4531 4.42188C24.1719 4.42188 23.9219 4.46875 23.7031 4.54688C23.4844 4.625 23.375 4.73438 23.375 4.89062ZM26.5625 6.14062L28.1562 6.09375C28.1562 6.40625 28.1562 6.75 28.1562 7.14062C28.1562 7.54688 28.1719 7.98438 28.1719 8.48438C28.1719 9.07812 28.1875 9.6875 28.1875 10.2812V11.9375C28.1875 12.1875 28.1719 12.4062 28.1719 12.5938C28.1719 12.7969 28.1719 12.9688 28.1719 13.1094V13.4688C28.1719 13.625 28.25 13.7344 28.4375 13.7969C28.625 13.875 28.8281 13.9062 29.0625 13.9062C29.3281 13.9062 29.5781 13.8594 29.8125 13.7656C30.0312 13.6719 30.1562 13.5469 30.1562 13.3594V12.8594C30.1562 12.625 30.1406 12.3281 30.1406 11.9844C30.1406 11.6406 30.1406 11.2812 30.1406 10.875V6.0625C30.4844 6.0625 30.7969 6.0625 31.0625 6.0625C31.3125 6.0625 31.5469 6.0625 31.7656 6.0625C31.9844 6.0625 32.1406 5.98438 32.2031 5.82812C32.2656 5.67188 32.2969 5.48438 32.2969 5.26562C32.2969 5.0625 32.25 4.875 32.1875 4.71875C32.1094 4.5625 31.9688 4.46875 31.75 4.46875C31.4844 4.5 31.125 4.51562 30.6562 4.51562C30.1875 4.51562 29.6875 4.53125 29.1719 4.53125C28.6562 4.53125 28.1562 4.53125 27.6875 4.53125H26.5625C26.3438 4.53125 26.2188 4.60938 26.1562 4.76562C26.0938 4.92188 26.0781 5.10938 26.0781 5.29688C26.0781 5.51562 26.1094 5.71875 26.1719 5.89062C26.2344 6.0625 26.375 6.14062 26.5625 6.14062ZM32.9688 4.89062V6.45312C32.9688 6.85938 32.9688 7.3125 32.9688 7.8125C32.9688 8.3125 32.9844 8.82812 32.9844 9.32812V13.4531C32.9844 13.6094 33.0625 13.7188 33.25 13.7969C33.4219 13.875 33.625 13.9062 33.875 13.9062C34 13.9062 34.125 13.9062 34.2656 13.875C34.3906 13.8438 34.5156 13.8125 34.625 13.7656C34.7188 13.7188 34.8125 13.6562 34.875 13.5938C34.9375 13.5312 34.9688 13.4531 34.9688 13.3594C34.9531 13.2812 34.9375 13.125 34.9375 12.9062C34.9375 12.6875 34.9375 12.4375 34.9375 12.125V9.92188C35 9.9375 35.0781 9.9375 35.1406 9.9375H35.375C35.4531 9.9375 35.5312 9.9375 35.6094 9.9375C35.6719 9.9375 35.75 9.92188 35.8438 9.92188C36.375 9.90625 36.8281 9.8125 37.2344 9.625C37.625 9.4375 37.9531 9.21875 38.2188 8.9375C38.4688 8.65625 38.6719 8.35938 38.7969 8.04688C38.9219 7.73438 39 7.42188 39 7.10938C39 6.70312 38.9219 6.32812 38.7656 6C38.6094 5.6875 38.375 5.40625 38.0938 5.17188C37.7969 4.95312 37.4531 4.76562 37.0469 4.64062C36.6406 4.51562 36.2031 4.45312 35.7188 4.42188C35.5312 4.42188 35.3438 4.42188 35.125 4.4375C34.9062 4.45312 34.7188 4.46875 34.5469 4.48438C34.4531 4.45312 34.375 4.4375 34.2969 4.4375C34.2188 4.4375 34.125 4.42188 34.0312 4.42188C33.7656 4.42188 33.5156 4.46875 33.2969 4.54688C33.0781 4.625 32.9688 4.73438 32.9688 4.89062ZM34.9531 5.92188C35.0781 5.90625 35.2188 5.89062 35.3438 5.89062C35.4688 5.89062 35.5781 5.90625 35.6875 5.90625C36.1094 5.9375 36.4375 6.03125 36.6719 6.21875C36.8906 6.40625 37.0156 6.6875 37.0156 7.07812C37.0156 7.46875 36.9062 7.78125 36.6875 8.03125C36.4688 8.28125 36.1719 8.42188 35.8125 8.4375C35.7188 8.4375 35.6406 8.45312 35.5625 8.45312C35.4844 8.45312 35.4062 8.45312 35.3438 8.45312H35.1406C35.0781 8.45312 35 8.45312 34.9375 8.4375C34.9375 8.10938 34.9375 7.82812 34.9375 7.57812C34.9375 7.34375 34.9531 7.09375 34.9531 6.84375V5.92188Z" fill="white"/>
</svg>
