<svg width="41" height="16" viewBox="0 0 41 16" fill="none" xmlns="http://www.w3.org/2000/svg">
<rect width="41" height="16" rx="8" fill="#F2A75A"/>
<path d="M8.66699 4.1543V5.52148C8.66699 5.87695 8.66699 6.27344 8.66699 6.71094C8.66699 7.14844 8.68066 7.59961 8.68066 8.03711V11.6465C8.68066 11.7832 8.74902 11.8926 8.91309 11.9473C9.06348 12.0156 9.24121 12.043 9.45996 12.043C9.54199 12.043 9.6377 12.043 9.7334 12.0293C9.8291 12.0293 9.9248 12.002 10.0068 11.9609C10.417 11.9473 10.8818 11.9336 11.374 11.9199C11.8662 11.9199 12.3311 11.9062 12.7959 11.8926H13.2744C13.4658 11.8926 13.6162 11.8242 13.7119 11.6875C13.7939 11.5508 13.8486 11.3867 13.8486 11.209C13.8486 11.0312 13.7939 10.8672 13.6982 10.7031C13.5889 10.5527 13.4521 10.4844 13.2607 10.498C12.96 10.5254 12.6182 10.5391 12.2354 10.5391C11.8525 10.5391 11.4561 10.5391 11.0732 10.5391C10.9365 10.5391 10.8271 10.5527 10.7178 10.5527C10.6084 10.5527 10.5127 10.5527 10.4033 10.5527C10.3896 10.2383 10.3896 9.89648 10.3896 9.52734V8.29688C10.8408 8.29688 11.251 8.2832 11.6064 8.2832C11.9619 8.2832 12.3721 8.26953 12.8096 8.25586C13.001 8.25586 13.1377 8.1875 13.2334 8.05078C13.3291 7.91406 13.3838 7.75 13.3838 7.55859C13.3838 7.47656 13.3701 7.38086 13.3428 7.29883C13.3154 7.2168 13.2744 7.13477 13.2197 7.06641C13.165 7.01172 13.1104 6.95703 13.042 6.91602C12.96 6.875 12.8779 6.86133 12.7959 6.86133C12.4951 6.88867 12.1943 6.90234 11.8799 6.90234C11.5518 6.90234 11.2373 6.90234 10.9229 6.90234C10.8271 6.90234 10.7314 6.91602 10.6494 6.91602C10.5674 6.91602 10.4717 6.91602 10.3896 6.91602C10.3896 6.69727 10.3896 6.50586 10.3896 6.35547C10.3896 6.21875 10.4033 6.05469 10.4033 5.87695V5.2207C10.7998 5.20703 11.1689 5.20703 11.5107 5.20703C11.8525 5.20703 12.2217 5.20703 12.6182 5.19336C12.7002 5.19336 12.7959 5.19336 12.8916 5.19336C12.9736 5.19336 13.0693 5.17969 13.1514 5.17969C13.3428 5.17969 13.4795 5.11133 13.5752 4.97461C13.6709 4.83789 13.7256 4.67383 13.7256 4.48242C13.7256 4.40039 13.7119 4.30469 13.6846 4.22266C13.6572 4.14062 13.6162 4.05859 13.5615 3.99023C13.5068 3.93555 13.4521 3.88086 13.3838 3.83984C13.3018 3.79883 13.2197 3.78516 13.1377 3.78516C12.8369 3.8125 12.4814 3.82617 12.0986 3.82617C11.7158 3.82617 11.3193 3.82617 10.9365 3.82617C10.7998 3.82617 10.6768 3.83984 10.54 3.83984C10.4033 3.83984 10.2666 3.83984 10.1436 3.83984C10.0889 3.79883 10.0068 3.77148 9.91113 3.75781C9.81543 3.75781 9.70605 3.74414 9.58301 3.74414C9.35059 3.74414 9.14551 3.78516 8.9541 3.85352C8.7627 3.92188 8.66699 4.01758 8.66699 4.1543ZM18.7568 4.1543V5.13867C18.7568 5.57617 18.7568 6.0957 18.7568 6.66992C18.7568 7.24414 18.7705 7.83203 18.7705 8.43359C18.6338 8.24219 18.5244 8.05078 18.415 7.87305C18.3057 7.69531 18.1826 7.51758 18.0732 7.32617C17.9639 7.14844 17.8408 6.95703 17.7178 6.75195C17.5811 6.54688 17.4443 6.31445 17.2939 6.06836C16.9932 5.60352 16.7334 5.17969 16.4873 4.79688C16.2412 4.41406 16.0771 4.14062 15.9814 3.94922C15.8721 3.8125 15.667 3.74414 15.3936 3.74414C15.1748 3.74414 14.9834 3.78516 14.792 3.86719C14.6006 3.94922 14.5049 4.07227 14.5049 4.22266V5.58984C14.5049 5.94531 14.5049 6.3418 14.5049 6.76562C14.5049 7.20312 14.5186 7.64062 14.5186 8.07812V11.6465C14.5186 11.7832 14.5869 11.8789 14.751 11.9473C14.915 12.0156 15.0928 12.043 15.2979 12.043C15.5166 12.043 15.7217 12.002 15.9268 11.9062C16.1182 11.8242 16.2275 11.7012 16.2549 11.5645C16.2412 11.4414 16.2275 11.1543 16.2275 10.6895C16.2275 10.2383 16.2275 9.71875 16.2275 9.11719C16.2275 8.81641 16.2275 8.51562 16.2275 8.21484C16.2275 7.91406 16.2412 7.61328 16.2412 7.28516C16.4873 7.66797 16.7471 8.0918 17.0342 8.5293C17.3076 8.98047 17.5811 9.41797 17.8545 9.8418C18.1143 10.2656 18.3604 10.6484 18.5791 11.0039C18.7979 11.3594 18.9619 11.6465 19.0986 11.8379H19.085C19.126 11.9199 19.1943 11.9609 19.3037 11.9883C19.3994 12.0156 19.5225 12.0293 19.6592 12.0293C19.7549 12.0293 19.8506 12.0293 19.96 12.002C20.0557 11.9746 20.1514 11.9473 20.2334 11.9062C20.3154 11.8652 20.3701 11.8105 20.4248 11.7559C20.4795 11.7012 20.5068 11.6465 20.5068 11.5645C20.4795 11.4551 20.4795 11.209 20.4795 10.8535V7.98242C20.4795 7.42188 20.4795 6.875 20.4932 6.35547V4.12695C20.4932 3.99023 20.4111 3.89453 20.2471 3.83984C20.083 3.78516 19.9053 3.74414 19.7002 3.74414C19.4541 3.74414 19.2354 3.78516 19.0439 3.85352C18.8525 3.92188 18.7568 4.01758 18.7568 4.1543ZM21.3955 4.1543V5.52148C21.3955 5.87695 21.3955 6.27344 21.3955 6.71094C21.3955 7.14844 21.4092 7.59961 21.4092 8.03711V11.6465C21.4092 11.7832 21.4775 11.8789 21.6416 11.9473C21.792 12.0156 21.9697 12.043 22.1885 12.043C22.2979 12.043 22.4072 12.043 22.5303 12.0156C22.6396 11.9883 22.749 11.9609 22.8447 11.9199C22.9268 11.8789 23.0088 11.8242 23.0635 11.7695C23.1182 11.7148 23.1455 11.6465 23.1455 11.5645C23.1318 11.4824 23.1182 11.3457 23.1182 11.1406C23.1182 10.9492 23.1182 10.7031 23.1182 10.416V8.39258C23.501 8.37891 23.8564 8.37891 24.2119 8.37891C24.5674 8.37891 24.9365 8.37891 25.333 8.36523C25.4424 8.36523 25.5518 8.36523 25.6611 8.36523C25.7568 8.36523 25.8525 8.35156 25.9619 8.35156C26.1533 8.35156 26.3037 8.2832 26.3994 8.13281C26.4814 7.99609 26.5361 7.83203 26.5361 7.64062C26.5361 7.46289 26.4814 7.29883 26.3857 7.13477C26.2764 6.98438 26.1396 6.91602 25.9482 6.91602C25.6475 6.94336 25.3193 6.95703 24.9365 6.95703C24.5537 6.95703 24.1709 6.95703 23.7881 6.95703C23.6514 6.95703 23.542 6.9707 23.4326 6.9707C23.3232 6.9707 23.2275 6.9707 23.1182 6.9707C23.1182 6.75195 23.1182 6.56055 23.1182 6.41016C23.1182 6.25977 23.1318 6.0957 23.1318 5.91797V5.23438C23.5283 5.2207 23.8975 5.2207 24.2393 5.2207C24.5811 5.2207 24.9502 5.2207 25.3467 5.20703C25.4287 5.20703 25.5244 5.20703 25.6201 5.20703C25.7021 5.20703 25.7842 5.19336 25.8662 5.19336C26.0576 5.19336 26.208 5.125 26.3037 4.97461C26.3994 4.83789 26.4541 4.67383 26.4541 4.48242C26.4541 4.40039 26.4404 4.30469 26.4131 4.22266C26.3857 4.14062 26.3447 4.05859 26.29 3.99023C26.2354 3.93555 26.1807 3.88086 26.1123 3.83984C26.0303 3.79883 25.9482 3.78516 25.8662 3.78516C25.5518 3.8125 25.21 3.82617 24.8271 3.82617C24.4443 3.82617 24.0479 3.82617 23.665 3.82617C23.5283 3.82617 23.4053 3.83984 23.2686 3.83984C23.1318 3.83984 22.9951 3.83984 22.8721 3.83984C22.8174 3.79883 22.7354 3.77148 22.6396 3.75781C22.5439 3.75781 22.4346 3.74414 22.3115 3.74414C22.0791 3.74414 21.874 3.78516 21.6826 3.85352C21.4912 3.92188 21.3955 4.01758 21.3955 4.1543ZM27.1924 4.1543V5.52148C27.1924 5.87695 27.1924 6.27344 27.1924 6.71094C27.1924 7.14844 27.2061 7.59961 27.2061 8.03711V11.6465C27.2061 11.7832 27.2744 11.8789 27.4385 11.9473C27.5889 12.0156 27.7666 12.043 27.9854 12.043C28.0947 12.043 28.2041 12.043 28.3271 12.0156C28.4365 11.9883 28.5459 11.9609 28.6416 11.9199C28.7236 11.8789 28.8057 11.8242 28.8604 11.7695C28.915 11.7148 28.9424 11.6465 28.9424 11.5645C28.9287 11.4961 28.915 11.3594 28.915 11.168C28.915 10.9766 28.915 10.7578 28.915 10.4844V8.55664C28.9697 8.57031 29.0381 8.57031 29.0928 8.57031H29.2979C29.3662 8.57031 29.4346 8.57031 29.5029 8.57031C29.5576 8.57031 29.626 8.55664 29.708 8.55664C30.1729 8.54297 30.5693 8.46094 30.9248 8.29688C31.2666 8.13281 31.5537 7.94141 31.7861 7.69531C32.0049 7.44922 32.1826 7.18945 32.292 6.91602C32.4014 6.64258 32.4697 6.36914 32.4697 6.0957C32.4697 5.74023 32.4014 5.41211 32.2646 5.125C32.1279 4.85156 31.9229 4.60547 31.6768 4.40039C31.417 4.20898 31.1162 4.04492 30.7607 3.93555C30.4053 3.82617 30.0225 3.77148 29.5986 3.74414C29.4346 3.74414 29.2705 3.74414 29.0791 3.75781C28.8877 3.77148 28.7236 3.78516 28.5732 3.79883C28.4912 3.77148 28.4229 3.75781 28.3545 3.75781C28.2861 3.75781 28.2041 3.74414 28.1221 3.74414C27.8896 3.74414 27.6709 3.78516 27.4795 3.85352C27.2881 3.92188 27.1924 4.01758 27.1924 4.1543ZM28.9287 5.05664C29.0381 5.04297 29.1611 5.0293 29.2705 5.0293C29.3799 5.0293 29.4756 5.04297 29.5713 5.04297C29.9404 5.07031 30.2275 5.15234 30.4326 5.31641C30.624 5.48047 30.7334 5.72656 30.7334 6.06836C30.7334 6.41016 30.6377 6.68359 30.4463 6.90234C30.2549 7.12109 29.9951 7.24414 29.6807 7.25781C29.5986 7.25781 29.5303 7.27148 29.4619 7.27148C29.3936 7.27148 29.3252 7.27148 29.2705 7.27148H29.0928C29.0381 7.27148 28.9697 7.27148 28.915 7.25781C28.915 6.9707 28.915 6.72461 28.915 6.50586C28.915 6.30078 28.9287 6.08203 28.9287 5.86328V5.05664Z" fill="white"/>
</svg>
