<svg width="52" height="19" viewBox="0 0 52 19" fill="none" xmlns="http://www.w3.org/2000/svg">
<rect width="52" height="19" rx="9.5" fill="#D3767F"/>
<path d="M13.1641 4.89062V6.45312C13.1641 6.85938 13.1641 7.3125 13.1641 7.8125C13.1641 8.3125 13.1797 8.82812 13.1797 9.32812V13.4531C13.1797 13.6094 13.2578 13.7344 13.4453 13.7969C13.6172 13.875 13.8203 13.9062 14.0703 13.9062C14.1641 13.9062 14.2734 13.9062 14.3828 13.8906C14.4922 13.8906 14.6016 13.8594 14.6953 13.8125C15.1641 13.7969 15.6953 13.7812 16.2578 13.7656C16.8203 13.7656 17.3516 13.75 17.8828 13.7344H18.4297C18.6484 13.7344 18.8203 13.6562 18.9297 13.5C19.0234 13.3438 19.0859 13.1562 19.0859 12.9531C19.0859 12.75 19.0234 12.5625 18.9141 12.375C18.7891 12.2031 18.6328 12.125 18.4141 12.1406C18.0703 12.1719 17.6797 12.1875 17.2422 12.1875C16.8047 12.1875 16.3516 12.1875 15.9141 12.1875C15.7578 12.1875 15.6328 12.2031 15.5078 12.2031C15.3828 12.2031 15.2734 12.2031 15.1484 12.2031C15.1328 11.8438 15.1328 11.4531 15.1328 11.0312V9.625C15.6484 9.625 16.1172 9.60938 16.5234 9.60938C16.9297 9.60938 17.3984 9.59375 17.8984 9.57812C18.1172 9.57812 18.2734 9.5 18.3828 9.34375C18.4922 9.1875 18.5547 9 18.5547 8.78125C18.5547 8.6875 18.5391 8.57812 18.5078 8.48438C18.4766 8.39062 18.4297 8.29688 18.3672 8.21875C18.3047 8.15625 18.2422 8.09375 18.1641 8.04688C18.0703 8 17.9766 7.98438 17.8828 7.98438C17.5391 8.01562 17.1953 8.03125 16.8359 8.03125C16.4609 8.03125 16.1016 8.03125 15.7422 8.03125C15.6328 8.03125 15.5234 8.04688 15.4297 8.04688C15.3359 8.04688 15.2266 8.04688 15.1328 8.04688C15.1328 7.79688 15.1328 7.57812 15.1328 7.40625C15.1328 7.25 15.1484 7.0625 15.1484 6.85938V6.10938C15.6016 6.09375 16.0234 6.09375 16.4141 6.09375C16.8047 6.09375 17.2266 6.09375 17.6797 6.07812C17.7734 6.07812 17.8828 6.07812 17.9922 6.07812C18.0859 6.07812 18.1953 6.0625 18.2891 6.0625C18.5078 6.0625 18.6641 5.98438 18.7734 5.82812C18.8828 5.67188 18.9453 5.48438 18.9453 5.26562C18.9453 5.17188 18.9297 5.0625 18.8984 4.96875C18.8672 4.875 18.8203 4.78125 18.7578 4.70312C18.6953 4.64062 18.6328 4.57812 18.5547 4.53125C18.4609 4.48438 18.3672 4.46875 18.2734 4.46875C17.9297 4.5 17.5234 4.51562 17.0859 4.51562C16.6484 4.51562 16.1953 4.51562 15.7578 4.51562C15.6016 4.51562 15.4609 4.53125 15.3047 4.53125C15.1484 4.53125 14.9922 4.53125 14.8516 4.53125C14.7891 4.48438 14.6953 4.45312 14.5859 4.4375C14.4766 4.4375 14.3516 4.42188 14.2109 4.42188C13.9453 4.42188 13.7109 4.46875 13.4922 4.54688C13.2734 4.625 13.1641 4.73438 13.1641 4.89062ZM20.5078 10.375C20.2578 10.375 20.0391 10.4219 19.8516 10.5156C19.6484 10.6094 19.5391 10.75 19.5391 10.9219C19.5078 11.375 19.5703 11.7812 19.6953 12.1406C19.8203 12.5156 20.0234 12.8281 20.2891 13.0781C20.5391 13.3438 20.8672 13.5469 21.2578 13.6875C21.6328 13.8281 22.0703 13.8906 22.5703 13.8906C23.0391 13.8906 23.4609 13.8438 23.8359 13.7188C24.2109 13.5938 24.5391 13.4219 24.8203 13.2031C25.0859 12.9844 25.2891 12.7188 25.4453 12.4062C25.5859 12.0938 25.6641 11.7344 25.6641 11.3438C25.6641 10.7188 25.4609 10.1719 25.0547 9.71875C24.6484 9.28125 24.0234 8.82812 23.1953 8.35938C22.7266 8.125 22.3516 7.89062 22.0859 7.64062C21.8203 7.40625 21.6953 7.10938 21.6953 6.75C21.6953 6.48438 21.7734 6.28125 21.9453 6.14062C22.1172 6.01562 22.3516 5.9375 22.6641 5.92188C22.9609 5.92188 23.1953 6.03125 23.3672 6.28125C23.5391 6.53125 23.6172 6.875 23.5859 7.34375C23.5547 7.53125 23.6641 7.6875 23.8828 7.78125C24.1016 7.875 24.3359 7.92188 24.5859 7.92188C24.8359 7.92188 25.0547 7.875 25.2578 7.78125C25.4609 7.6875 25.5703 7.54688 25.5703 7.35938C25.5703 6.875 25.5078 6.45312 25.3672 6.07812C25.2109 5.70312 25.0078 5.40625 24.7422 5.15625C24.4766 4.92188 24.1641 4.75 23.8203 4.625C23.4609 4.5 23.0703 4.4375 22.6641 4.4375C21.7422 4.45312 21.0234 4.67188 20.4922 5.09375C19.9609 5.53125 19.7109 6.125 19.7109 6.90625C19.7109 7.48438 19.8828 7.96875 20.2578 8.35938C20.6172 8.76562 21.1953 9.15625 21.9766 9.54688C22.5703 9.85938 23.0078 10.1406 23.2734 10.4219C23.5391 10.7031 23.6797 11.0156 23.6797 11.3594C23.6797 11.7031 23.5703 11.9688 23.3828 12.1406C23.1797 12.3125 22.9141 12.4062 22.5703 12.4062C22.2422 12.4219 21.9766 12.3125 21.7734 12.0938C21.5703 11.875 21.4766 11.4844 21.4766 10.9219C21.4766 10.75 21.3672 10.6094 21.1641 10.5156C20.9609 10.4219 20.7422 10.375 20.5078 10.375ZM26.3359 4.89062V6.45312C26.3359 6.85938 26.3359 7.3125 26.3359 7.8125C26.3359 8.3125 26.3516 8.82812 26.3516 9.32812V13.4531C26.3516 13.6094 26.4297 13.7188 26.6172 13.7969C26.7891 13.875 26.9922 13.9062 27.2422 13.9062C27.3672 13.9062 27.4922 13.9062 27.6328 13.875C27.7578 13.8438 27.8828 13.8125 27.9922 13.7656C28.0859 13.7188 28.1797 13.6562 28.2422 13.5938C28.3047 13.5312 28.3359 13.4531 28.3359 13.3594C28.3203 13.2656 28.3047 13.1094 28.3047 12.875C28.3047 12.6562 28.3047 12.375 28.3047 12.0469V9.73438C28.7422 9.71875 29.1484 9.71875 29.5547 9.71875C29.9609 9.71875 30.3828 9.71875 30.8359 9.70312C30.9609 9.70312 31.0859 9.70312 31.2109 9.70312C31.3203 9.70312 31.4297 9.6875 31.5547 9.6875C31.7734 9.6875 31.9453 9.60938 32.0547 9.4375C32.1484 9.28125 32.2109 9.09375 32.2109 8.875C32.2109 8.67188 32.1484 8.48438 32.0391 8.29688C31.9141 8.125 31.7578 8.04688 31.5391 8.04688C31.1953 8.07812 30.8203 8.09375 30.3828 8.09375C29.9453 8.09375 29.5078 8.09375 29.0703 8.09375C28.9141 8.09375 28.7891 8.10938 28.6641 8.10938C28.5391 8.10938 28.4297 8.10938 28.3047 8.10938C28.3047 7.85938 28.3047 7.64062 28.3047 7.46875C28.3047 7.29688 28.3203 7.10938 28.3203 6.90625V6.125C28.7734 6.10938 29.1953 6.10938 29.5859 6.10938C29.9766 6.10938 30.3984 6.10938 30.8516 6.09375C30.9453 6.09375 31.0547 6.09375 31.1641 6.09375C31.2578 6.09375 31.3516 6.07812 31.4453 6.07812C31.6641 6.07812 31.8359 6 31.9453 5.82812C32.0547 5.67188 32.1172 5.48438 32.1172 5.26562C32.1172 5.17188 32.1016 5.0625 32.0703 4.96875C32.0391 4.875 31.9922 4.78125 31.9297 4.70312C31.8672 4.64062 31.8047 4.57812 31.7266 4.53125C31.6328 4.48438 31.5391 4.46875 31.4453 4.46875C31.0859 4.5 30.6953 4.51562 30.2578 4.51562C29.8203 4.51562 29.3672 4.51562 28.9297 4.51562C28.7734 4.51562 28.6328 4.53125 28.4766 4.53125C28.3203 4.53125 28.1641 4.53125 28.0234 4.53125C27.9609 4.48438 27.8672 4.45312 27.7578 4.4375C27.6484 4.4375 27.5234 4.42188 27.3828 4.42188C27.1172 4.42188 26.8828 4.46875 26.6641 4.54688C26.4453 4.625 26.3359 4.73438 26.3359 4.89062ZM32.9609 4.89062V6.45312C32.9609 6.85938 32.9609 7.3125 32.9609 7.8125C32.9609 8.3125 32.9766 8.82812 32.9766 9.32812V13.4531C32.9766 13.6094 33.0547 13.7188 33.2422 13.7969C33.4141 13.875 33.6172 13.9062 33.8672 13.9062C33.9922 13.9062 34.1172 13.9062 34.2578 13.875C34.3828 13.8438 34.5078 13.8125 34.6172 13.7656C34.7109 13.7188 34.8047 13.6562 34.8672 13.5938C34.9297 13.5312 34.9609 13.4531 34.9609 13.3594C34.9453 13.2812 34.9297 13.125 34.9297 12.9062C34.9297 12.6875 34.9297 12.4375 34.9297 12.125V9.92188C34.9922 9.9375 35.0703 9.9375 35.1328 9.9375H35.3672C35.4453 9.9375 35.5234 9.9375 35.6016 9.9375C35.6641 9.9375 35.7422 9.92188 35.8359 9.92188C36.3672 9.90625 36.8203 9.8125 37.2266 9.625C37.6172 9.4375 37.9453 9.21875 38.2109 8.9375C38.4609 8.65625 38.6641 8.35938 38.7891 8.04688C38.9141 7.73438 38.9922 7.42188 38.9922 7.10938C38.9922 6.70312 38.9141 6.32812 38.7578 6C38.6016 5.6875 38.3672 5.40625 38.0859 5.17188C37.7891 4.95312 37.4453 4.76562 37.0391 4.64062C36.6328 4.51562 36.1953 4.45312 35.7109 4.42188C35.5234 4.42188 35.3359 4.42188 35.1172 4.4375C34.8984 4.45312 34.7109 4.46875 34.5391 4.48438C34.4453 4.45312 34.3672 4.4375 34.2891 4.4375C34.2109 4.4375 34.1172 4.42188 34.0234 4.42188C33.7578 4.42188 33.5078 4.46875 33.2891 4.54688C33.0703 4.625 32.9609 4.73438 32.9609 4.89062ZM34.9453 5.92188C35.0703 5.90625 35.2109 5.89062 35.3359 5.89062C35.4609 5.89062 35.5703 5.90625 35.6797 5.90625C36.1016 5.9375 36.4297 6.03125 36.6641 6.21875C36.8828 6.40625 37.0078 6.6875 37.0078 7.07812C37.0078 7.46875 36.8984 7.78125 36.6797 8.03125C36.4609 8.28125 36.1641 8.42188 35.8047 8.4375C35.7109 8.4375 35.6328 8.45312 35.5547 8.45312C35.4766 8.45312 35.3984 8.45312 35.3359 8.45312H35.1328C35.0703 8.45312 34.9922 8.45312 34.9297 8.4375C34.9297 8.10938 34.9297 7.82812 34.9297 7.57812C34.9297 7.34375 34.9453 7.09375 34.9453 6.84375V5.92188Z" fill="white"/>
</svg>
