<svg width="52" height="19" viewBox="0 0 52 19" fill="none" xmlns="http://www.w3.org/2000/svg">
<rect width="52" height="19" rx="9.5" fill="#598EB0"/>
<path d="M13.5781 12.9688C13.5781 13.1875 13.625 13.3906 13.7344 13.5781C13.8281 13.7656 13.9844 13.8438 14.2031 13.8125C14.7188 13.7969 15.2656 13.7812 15.8438 13.7656C16.4219 13.7656 16.9844 13.75 17.5156 13.7344H17.8906C18.1094 13.7344 18.2812 13.6562 18.3906 13.5C18.5 13.3438 18.5625 13.1562 18.5625 12.9531C18.5625 12.75 18.5 12.5625 18.375 12.375C18.25 12.2031 18.0938 12.125 17.875 12.1406C17.75 12.1562 17.6406 12.1719 17.5156 12.1719C17.3906 12.1719 17.2812 12.1719 17.1562 12.1719H17.0469V6.07812H17.4844C17.6094 6.07812 17.75 6.07812 17.875 6.0625C18.0781 6.04688 18.2344 5.95312 18.3594 5.79688C18.4688 5.64062 18.5312 5.46875 18.5312 5.26562C18.5312 5.07812 18.4531 4.89062 18.3281 4.73438C18.2031 4.57812 18.0469 4.48438 17.8594 4.46875C17.4844 4.5 17.0625 4.51562 16.5938 4.51562C16.125 4.51562 15.6562 4.51562 15.2031 4.51562C15.0156 4.51562 14.8281 4.53125 14.6562 4.53125C14.4688 4.53125 14.3125 4.53125 14.1562 4.53125C13.9375 4.53125 13.7812 4.60938 13.6875 4.76562C13.5938 4.92188 13.5469 5.10938 13.5469 5.29688C13.5469 5.51562 13.5938 5.70312 13.7188 5.875C13.8281 6.04688 13.9844 6.14062 14.1719 6.14062C14.2812 6.14062 14.4219 6.125 14.5938 6.125C14.75 6.125 14.9062 6.10938 15.0625 6.10938C15.0625 6.39062 15.0625 6.70312 15.0625 7.04688C15.0625 7.39062 15.0781 7.78125 15.0781 8.21875V12.2031H14.1875C13.9688 12.2031 13.8125 12.2812 13.7188 12.4375C13.625 12.5938 13.5781 12.7812 13.5781 12.9688ZM19.875 10.375C19.625 10.375 19.4062 10.4219 19.2188 10.5156C19.0156 10.6094 18.9062 10.75 18.9062 10.9219C18.875 11.375 18.9375 11.7812 19.0625 12.1406C19.1875 12.5156 19.3906 12.8281 19.6562 13.0781C19.9062 13.3438 20.2344 13.5469 20.625 13.6875C21 13.8281 21.4375 13.8906 21.9375 13.8906C22.4062 13.8906 22.8281 13.8438 23.2031 13.7188C23.5781 13.5938 23.9062 13.4219 24.1875 13.2031C24.4531 12.9844 24.6562 12.7188 24.8125 12.4062C24.9531 12.0938 25.0312 11.7344 25.0312 11.3438C25.0312 10.7188 24.8281 10.1719 24.4219 9.71875C24.0156 9.28125 23.3906 8.82812 22.5625 8.35938C22.0938 8.125 21.7188 7.89062 21.4531 7.64062C21.1875 7.40625 21.0625 7.10938 21.0625 6.75C21.0625 6.48438 21.1406 6.28125 21.3125 6.14062C21.4844 6.01562 21.7188 5.9375 22.0312 5.92188C22.3281 5.92188 22.5625 6.03125 22.7344 6.28125C22.9062 6.53125 22.9844 6.875 22.9531 7.34375C22.9219 7.53125 23.0312 7.6875 23.25 7.78125C23.4688 7.875 23.7031 7.92188 23.9531 7.92188C24.2031 7.92188 24.4219 7.875 24.625 7.78125C24.8281 7.6875 24.9375 7.54688 24.9375 7.35938C24.9375 6.875 24.875 6.45312 24.7344 6.07812C24.5781 5.70312 24.375 5.40625 24.1094 5.15625C23.8438 4.92188 23.5312 4.75 23.1875 4.625C22.8281 4.5 22.4375 4.4375 22.0312 4.4375C21.1094 4.45312 20.3906 4.67188 19.8594 5.09375C19.3281 5.53125 19.0781 6.125 19.0781 6.90625C19.0781 7.48438 19.25 7.96875 19.625 8.35938C19.9844 8.76562 20.5625 9.15625 21.3438 9.54688C21.9375 9.85938 22.375 10.1406 22.6406 10.4219C22.9062 10.7031 23.0469 11.0156 23.0469 11.3594C23.0469 11.7031 22.9375 11.9688 22.75 12.1406C22.5469 12.3125 22.2812 12.4062 21.9375 12.4062C21.6094 12.4219 21.3438 12.3125 21.1406 12.0938C20.9375 11.875 20.8438 11.4844 20.8438 10.9219C20.8438 10.75 20.7344 10.6094 20.5312 10.5156C20.3281 10.4219 20.1094 10.375 19.875 10.375ZM25.875 6.14062L27.4688 6.09375C27.4688 6.40625 27.4688 6.75 27.4688 7.14062C27.4688 7.54688 27.4844 7.98438 27.4844 8.48438C27.4844 9.07812 27.5 9.6875 27.5 10.2812V11.9375C27.5 12.1875 27.4844 12.4062 27.4844 12.5938C27.4844 12.7969 27.4844 12.9688 27.4844 13.1094V13.4688C27.4844 13.625 27.5625 13.7344 27.75 13.7969C27.9375 13.875 28.1406 13.9062 28.375 13.9062C28.6406 13.9062 28.8906 13.8594 29.125 13.7656C29.3438 13.6719 29.4688 13.5469 29.4688 13.3594V12.8594C29.4688 12.625 29.4531 12.3281 29.4531 11.9844C29.4531 11.6406 29.4531 11.2812 29.4531 10.875V6.0625C29.7969 6.0625 30.1094 6.0625 30.375 6.0625C30.625 6.0625 30.8594 6.0625 31.0781 6.0625C31.2969 6.0625 31.4531 5.98438 31.5156 5.82812C31.5781 5.67188 31.6094 5.48438 31.6094 5.26562C31.6094 5.0625 31.5625 4.875 31.5 4.71875C31.4219 4.5625 31.2812 4.46875 31.0625 4.46875C30.7969 4.5 30.4375 4.51562 29.9688 4.51562C29.5 4.51562 29 4.53125 28.4844 4.53125C27.9688 4.53125 27.4688 4.53125 27 4.53125H25.875C25.6562 4.53125 25.5312 4.60938 25.4688 4.76562C25.4062 4.92188 25.3906 5.10938 25.3906 5.29688C25.3906 5.51562 25.4219 5.71875 25.4844 5.89062C25.5469 6.0625 25.6875 6.14062 25.875 6.14062ZM32.2812 4.89062V6.45312C32.2812 6.85938 32.2812 7.3125 32.2812 7.8125C32.2812 8.3125 32.2969 8.82812 32.2969 9.32812V13.4531C32.2969 13.6094 32.375 13.7188 32.5625 13.7969C32.7344 13.875 32.9375 13.9062 33.1875 13.9062C33.3125 13.9062 33.4375 13.9062 33.5781 13.875C33.7031 13.8438 33.8281 13.8125 33.9375 13.7656C34.0312 13.7188 34.125 13.6562 34.1875 13.5938C34.25 13.5312 34.2812 13.4531 34.2812 13.3594C34.2656 13.2812 34.25 13.125 34.25 12.9062C34.25 12.6875 34.25 12.4375 34.25 12.125V9.92188C34.3125 9.9375 34.3906 9.9375 34.4531 9.9375H34.6875C34.7656 9.9375 34.8438 9.9375 34.9219 9.9375C34.9844 9.9375 35.0625 9.92188 35.1562 9.92188C35.6875 9.90625 36.1406 9.8125 36.5469 9.625C36.9375 9.4375 37.2656 9.21875 37.5312 8.9375C37.7812 8.65625 37.9844 8.35938 38.1094 8.04688C38.2344 7.73438 38.3125 7.42188 38.3125 7.10938C38.3125 6.70312 38.2344 6.32812 38.0781 6C37.9219 5.6875 37.6875 5.40625 37.4062 5.17188C37.1094 4.95312 36.7656 4.76562 36.3594 4.64062C35.9531 4.51562 35.5156 4.45312 35.0312 4.42188C34.8438 4.42188 34.6562 4.42188 34.4375 4.4375C34.2188 4.45312 34.0312 4.46875 33.8594 4.48438C33.7656 4.45312 33.6875 4.4375 33.6094 4.4375C33.5312 4.4375 33.4375 4.42188 33.3438 4.42188C33.0781 4.42188 32.8281 4.46875 32.6094 4.54688C32.3906 4.625 32.2812 4.73438 32.2812 4.89062ZM34.2656 5.92188C34.3906 5.90625 34.5312 5.89062 34.6562 5.89062C34.7812 5.89062 34.8906 5.90625 35 5.90625C35.4219 5.9375 35.75 6.03125 35.9844 6.21875C36.2031 6.40625 36.3281 6.6875 36.3281 7.07812C36.3281 7.46875 36.2188 7.78125 36 8.03125C35.7812 8.28125 35.4844 8.42188 35.125 8.4375C35.0312 8.4375 34.9531 8.45312 34.875 8.45312C34.7969 8.45312 34.7188 8.45312 34.6562 8.45312H34.4531C34.3906 8.45312 34.3125 8.45312 34.25 8.4375C34.25 8.10938 34.25 7.82812 34.25 7.57812C34.25 7.34375 34.2656 7.09375 34.2656 6.84375V5.92188Z" fill="white"/>
</svg>
