<svg width="52" height="19" viewBox="0 0 52 19" fill="none" xmlns="http://www.w3.org/2000/svg">
<rect width="52" height="19" rx="9.5" fill="#CC604A"/>
<path d="M12.5 4.89062V6.45312C12.5 6.85938 12.5 7.3125 12.5 7.8125C12.5 8.3125 12.5156 8.82812 12.5156 9.32812V13.4531C12.5156 13.6094 12.5938 13.7344 12.7812 13.7969C12.9531 13.875 13.1562 13.9062 13.4062 13.9062C13.5 13.9062 13.6094 13.9062 13.7188 13.8906C13.8281 13.8906 13.9375 13.8594 14.0312 13.8125C14.5 13.7969 15.0312 13.7812 15.5938 13.7656C16.1562 13.7656 16.6875 13.75 17.2188 13.7344H17.7656C17.9844 13.7344 18.1562 13.6562 18.2656 13.5C18.3594 13.3438 18.4219 13.1562 18.4219 12.9531C18.4219 12.75 18.3594 12.5625 18.25 12.375C18.125 12.2031 17.9688 12.125 17.75 12.1406C17.4062 12.1719 17.0156 12.1875 16.5781 12.1875C16.1406 12.1875 15.6875 12.1875 15.25 12.1875C15.0938 12.1875 14.9688 12.2031 14.8438 12.2031C14.7188 12.2031 14.6094 12.2031 14.4844 12.2031C14.4688 11.8438 14.4688 11.4531 14.4688 11.0312V9.625C14.9844 9.625 15.4531 9.60938 15.8594 9.60938C16.2656 9.60938 16.7344 9.59375 17.2344 9.57812C17.4531 9.57812 17.6094 9.5 17.7188 9.34375C17.8281 9.1875 17.8906 9 17.8906 8.78125C17.8906 8.6875 17.875 8.57812 17.8438 8.48438C17.8125 8.39062 17.7656 8.29688 17.7031 8.21875C17.6406 8.15625 17.5781 8.09375 17.5 8.04688C17.4062 8 17.3125 7.98438 17.2188 7.98438C16.875 8.01562 16.5312 8.03125 16.1719 8.03125C15.7969 8.03125 15.4375 8.03125 15.0781 8.03125C14.9688 8.03125 14.8594 8.04688 14.7656 8.04688C14.6719 8.04688 14.5625 8.04688 14.4688 8.04688C14.4688 7.79688 14.4688 7.57812 14.4688 7.40625C14.4688 7.25 14.4844 7.0625 14.4844 6.85938V6.10938C14.9375 6.09375 15.3594 6.09375 15.75 6.09375C16.1406 6.09375 16.5625 6.09375 17.0156 6.07812C17.1094 6.07812 17.2188 6.07812 17.3281 6.07812C17.4219 6.07812 17.5312 6.0625 17.625 6.0625C17.8438 6.0625 18 5.98438 18.1094 5.82812C18.2188 5.67188 18.2812 5.48438 18.2812 5.26562C18.2812 5.17188 18.2656 5.0625 18.2344 4.96875C18.2031 4.875 18.1562 4.78125 18.0938 4.70312C18.0312 4.64062 17.9688 4.57812 17.8906 4.53125C17.7969 4.48438 17.7031 4.46875 17.6094 4.46875C17.2656 4.5 16.8594 4.51562 16.4219 4.51562C15.9844 4.51562 15.5312 4.51562 15.0938 4.51562C14.9375 4.51562 14.7969 4.53125 14.6406 4.53125C14.4844 4.53125 14.3281 4.53125 14.1875 4.53125C14.125 4.48438 14.0312 4.45312 13.9219 4.4375C13.8125 4.4375 13.6875 4.42188 13.5469 4.42188C13.2812 4.42188 13.0469 4.46875 12.8281 4.54688C12.6094 4.625 12.5 4.73438 12.5 4.89062ZM24.0312 4.89062V6.01562C24.0312 6.51562 24.0312 7.10938 24.0312 7.76562C24.0312 8.42188 24.0469 9.09375 24.0469 9.78125C23.8906 9.5625 23.7656 9.34375 23.6406 9.14062C23.5156 8.9375 23.375 8.73438 23.25 8.51562C23.125 8.3125 22.9844 8.09375 22.8438 7.85938C22.6875 7.625 22.5312 7.35938 22.3594 7.07812C22.0156 6.54688 21.7188 6.0625 21.4375 5.625C21.1562 5.1875 20.9688 4.875 20.8594 4.65625C20.7344 4.5 20.5 4.42188 20.1875 4.42188C19.9375 4.42188 19.7188 4.46875 19.5 4.5625C19.2812 4.65625 19.1719 4.79688 19.1719 4.96875V6.53125C19.1719 6.9375 19.1719 7.39062 19.1719 7.875C19.1719 8.375 19.1875 8.875 19.1875 9.375V13.4531C19.1875 13.6094 19.2656 13.7188 19.4531 13.7969C19.6406 13.875 19.8438 13.9062 20.0781 13.9062C20.3281 13.9062 20.5625 13.8594 20.7969 13.75C21.0156 13.6562 21.1406 13.5156 21.1719 13.3594C21.1562 13.2188 21.1406 12.8906 21.1406 12.3594C21.1406 11.8438 21.1406 11.25 21.1406 10.5625C21.1406 10.2188 21.1406 9.875 21.1406 9.53125C21.1406 9.1875 21.1562 8.84375 21.1562 8.46875C21.4375 8.90625 21.7344 9.39062 22.0625 9.89062C22.375 10.4062 22.6875 10.9062 23 11.3906C23.2969 11.875 23.5781 12.3125 23.8281 12.7188C24.0781 13.125 24.2656 13.4531 24.4219 13.6719H24.4062C24.4531 13.7656 24.5312 13.8125 24.6562 13.8438C24.7656 13.875 24.9062 13.8906 25.0625 13.8906C25.1719 13.8906 25.2812 13.8906 25.4062 13.8594C25.5156 13.8281 25.625 13.7969 25.7188 13.75C25.8125 13.7031 25.875 13.6406 25.9375 13.5781C26 13.5156 26.0312 13.4531 26.0312 13.3594C26 13.2344 26 12.9531 26 12.5469V9.26562C26 8.625 26 8 26.0156 7.40625V4.85938C26.0156 4.70312 25.9219 4.59375 25.7344 4.53125C25.5469 4.46875 25.3438 4.42188 25.1094 4.42188C24.8281 4.42188 24.5781 4.46875 24.3594 4.54688C24.1406 4.625 24.0312 4.73438 24.0312 4.89062ZM27.2188 6.14062L28.8125 6.09375C28.8125 6.40625 28.8125 6.75 28.8125 7.14062C28.8125 7.54688 28.8281 7.98438 28.8281 8.48438C28.8281 9.07812 28.8438 9.6875 28.8438 10.2812V11.9375C28.8438 12.1875 28.8281 12.4062 28.8281 12.5938C28.8281 12.7969 28.8281 12.9688 28.8281 13.1094V13.4688C28.8281 13.625 28.9062 13.7344 29.0938 13.7969C29.2812 13.875 29.4844 13.9062 29.7188 13.9062C29.9844 13.9062 30.2344 13.8594 30.4688 13.7656C30.6875 13.6719 30.8125 13.5469 30.8125 13.3594V12.8594C30.8125 12.625 30.7969 12.3281 30.7969 11.9844C30.7969 11.6406 30.7969 11.2812 30.7969 10.875V6.0625C31.1406 6.0625 31.4531 6.0625 31.7188 6.0625C31.9688 6.0625 32.2031 6.0625 32.4219 6.0625C32.6406 6.0625 32.7969 5.98438 32.8594 5.82812C32.9219 5.67188 32.9531 5.48438 32.9531 5.26562C32.9531 5.0625 32.9062 4.875 32.8438 4.71875C32.7656 4.5625 32.625 4.46875 32.4062 4.46875C32.1406 4.5 31.7812 4.51562 31.3125 4.51562C30.8438 4.51562 30.3438 4.53125 29.8281 4.53125C29.3125 4.53125 28.8125 4.53125 28.3438 4.53125H27.2188C27 4.53125 26.875 4.60938 26.8125 4.76562C26.75 4.92188 26.7344 5.10938 26.7344 5.29688C26.7344 5.51562 26.7656 5.71875 26.8281 5.89062C26.8906 6.0625 27.0312 6.14062 27.2188 6.14062ZM33.625 4.89062V6.45312C33.625 6.85938 33.625 7.3125 33.625 7.8125C33.625 8.3125 33.6406 8.82812 33.6406 9.32812V13.4531C33.6406 13.6094 33.7188 13.7188 33.9062 13.7969C34.0781 13.875 34.2812 13.9062 34.5312 13.9062C34.6562 13.9062 34.7812 13.9062 34.9219 13.875C35.0469 13.8438 35.1719 13.8125 35.2812 13.7656C35.375 13.7188 35.4688 13.6562 35.5312 13.5938C35.5938 13.5312 35.625 13.4531 35.625 13.3594C35.6094 13.2812 35.5938 13.125 35.5938 12.9062C35.5938 12.6875 35.5938 12.4375 35.5938 12.125V9.92188C35.6562 9.9375 35.7344 9.9375 35.7969 9.9375H36.0312C36.1094 9.9375 36.1875 9.9375 36.2656 9.9375C36.3281 9.9375 36.4062 9.92188 36.5 9.92188C37.0312 9.90625 37.4844 9.8125 37.8906 9.625C38.2812 9.4375 38.6094 9.21875 38.875 8.9375C39.125 8.65625 39.3281 8.35938 39.4531 8.04688C39.5781 7.73438 39.6562 7.42188 39.6562 7.10938C39.6562 6.70312 39.5781 6.32812 39.4219 6C39.2656 5.6875 39.0312 5.40625 38.75 5.17188C38.4531 4.95312 38.1094 4.76562 37.7031 4.64062C37.2969 4.51562 36.8594 4.45312 36.375 4.42188C36.1875 4.42188 36 4.42188 35.7812 4.4375C35.5625 4.45312 35.375 4.46875 35.2031 4.48438C35.1094 4.45312 35.0312 4.4375 34.9531 4.4375C34.875 4.4375 34.7812 4.42188 34.6875 4.42188C34.4219 4.42188 34.1719 4.46875 33.9531 4.54688C33.7344 4.625 33.625 4.73438 33.625 4.89062ZM35.6094 5.92188C35.7344 5.90625 35.875 5.89062 36 5.89062C36.125 5.89062 36.2344 5.90625 36.3438 5.90625C36.7656 5.9375 37.0938 6.03125 37.3281 6.21875C37.5469 6.40625 37.6719 6.6875 37.6719 7.07812C37.6719 7.46875 37.5625 7.78125 37.3438 8.03125C37.125 8.28125 36.8281 8.42188 36.4688 8.4375C36.375 8.4375 36.2969 8.45312 36.2188 8.45312C36.1406 8.45312 36.0625 8.45312 36 8.45312H35.7969C35.7344 8.45312 35.6562 8.45312 35.5938 8.4375C35.5938 8.10938 35.5938 7.82812 35.5938 7.57812C35.5938 7.34375 35.6094 7.09375 35.6094 6.84375V5.92188Z" fill="white"/>
</svg>
