<svg width="41" height="16" viewBox="0 0 41 16" fill="none" xmlns="http://www.w3.org/2000/svg">
<rect width="41" height="16" rx="8" fill="#B9B0F9"/>
<path d="M9.36426 11.2227C9.36426 11.4141 9.40527 11.5918 9.50098 11.7559C9.58301 11.9199 9.71973 11.9883 9.91113 11.9609C10.3623 11.9473 10.8408 11.9336 11.3467 11.9199C11.8525 11.9199 12.3447 11.9062 12.8096 11.8926H13.1377C13.3291 11.8926 13.4795 11.8242 13.5752 11.6875C13.6709 11.5508 13.7256 11.3867 13.7256 11.209C13.7256 11.0312 13.6709 10.8672 13.5615 10.7031C13.4521 10.5527 13.3154 10.4844 13.124 10.498C13.0146 10.5117 12.9189 10.5254 12.8096 10.5254C12.7002 10.5254 12.6045 10.5254 12.4951 10.5254H12.3994V5.19336H12.7822C12.8916 5.19336 13.0146 5.19336 13.124 5.17969C13.3018 5.16602 13.4385 5.08398 13.5479 4.94727C13.6436 4.81055 13.6982 4.66016 13.6982 4.48242C13.6982 4.31836 13.6299 4.1543 13.5205 4.01758C13.4111 3.88086 13.2744 3.79883 13.1104 3.78516C12.7822 3.8125 12.4131 3.82617 12.0029 3.82617C11.5928 3.82617 11.1826 3.82617 10.7861 3.82617C10.6221 3.82617 10.458 3.83984 10.3076 3.83984C10.1436 3.83984 10.0068 3.83984 9.87012 3.83984C9.67871 3.83984 9.54199 3.9082 9.45996 4.04492C9.37793 4.18164 9.33691 4.3457 9.33691 4.50977C9.33691 4.70117 9.37793 4.86523 9.4873 5.01562C9.58301 5.16602 9.71973 5.24805 9.88379 5.24805C9.97949 5.24805 10.1025 5.23438 10.2529 5.23438C10.3896 5.23438 10.5264 5.2207 10.6631 5.2207C10.6631 5.4668 10.6631 5.74023 10.6631 6.04102C10.6631 6.3418 10.6768 6.68359 10.6768 7.06641V10.5527H9.89746C9.70605 10.5527 9.56934 10.6211 9.4873 10.7578C9.40527 10.8945 9.36426 11.0586 9.36426 11.2227ZM18.5381 4.1543V5.13867C18.5381 5.57617 18.5381 6.0957 18.5381 6.66992C18.5381 7.24414 18.5518 7.83203 18.5518 8.43359C18.415 8.24219 18.3057 8.05078 18.1963 7.87305C18.0869 7.69531 17.9639 7.51758 17.8545 7.32617C17.7451 7.14844 17.6221 6.95703 17.499 6.75195C17.3623 6.54688 17.2256 6.31445 17.0752 6.06836C16.7744 5.60352 16.5146 5.17969 16.2686 4.79688C16.0225 4.41406 15.8584 4.14062 15.7627 3.94922C15.6533 3.8125 15.4482 3.74414 15.1748 3.74414C14.9561 3.74414 14.7646 3.78516 14.5732 3.86719C14.3818 3.94922 14.2861 4.07227 14.2861 4.22266V5.58984C14.2861 5.94531 14.2861 6.3418 14.2861 6.76562C14.2861 7.20312 14.2998 7.64062 14.2998 8.07812V11.6465C14.2998 11.7832 14.3682 11.8789 14.5322 11.9473C14.6963 12.0156 14.874 12.043 15.0791 12.043C15.2979 12.043 15.5029 12.002 15.708 11.9062C15.8994 11.8242 16.0088 11.7012 16.0361 11.5645C16.0225 11.4414 16.0088 11.1543 16.0088 10.6895C16.0088 10.2383 16.0088 9.71875 16.0088 9.11719C16.0088 8.81641 16.0088 8.51562 16.0088 8.21484C16.0088 7.91406 16.0225 7.61328 16.0225 7.28516C16.2686 7.66797 16.5283 8.0918 16.8154 8.5293C17.0889 8.98047 17.3623 9.41797 17.6357 9.8418C17.8955 10.2656 18.1416 10.6484 18.3604 11.0039C18.5791 11.3594 18.7432 11.6465 18.8799 11.8379H18.8662C18.9072 11.9199 18.9756 11.9609 19.085 11.9883C19.1807 12.0156 19.3037 12.0293 19.4404 12.0293C19.5361 12.0293 19.6318 12.0293 19.7412 12.002C19.8369 11.9746 19.9326 11.9473 20.0146 11.9062C20.0967 11.8652 20.1514 11.8105 20.2061 11.7559C20.2607 11.7012 20.2881 11.6465 20.2881 11.5645C20.2607 11.4551 20.2607 11.209 20.2607 10.8535V7.98242C20.2607 7.42188 20.2607 6.875 20.2744 6.35547V4.12695C20.2744 3.99023 20.1924 3.89453 20.0283 3.83984C19.8643 3.78516 19.6865 3.74414 19.4814 3.74414C19.2354 3.74414 19.0166 3.78516 18.8252 3.85352C18.6338 3.92188 18.5381 4.01758 18.5381 4.1543ZM21.3271 5.24805L22.7217 5.20703C22.7217 5.48047 22.7217 5.78125 22.7217 6.12305C22.7217 6.47852 22.7354 6.86133 22.7354 7.29883C22.7354 7.81836 22.749 8.35156 22.749 8.87109V10.3203C22.749 10.5391 22.7354 10.7305 22.7354 10.8945C22.7354 11.0723 22.7354 11.2227 22.7354 11.3457V11.6602C22.7354 11.7969 22.8037 11.8926 22.9678 11.9473C23.1318 12.0156 23.3096 12.043 23.5146 12.043C23.7471 12.043 23.9658 12.002 24.1709 11.9199C24.3623 11.8379 24.4717 11.7285 24.4717 11.5645V11.127C24.4717 10.9219 24.458 10.6621 24.458 10.3613C24.458 10.0605 24.458 9.74609 24.458 9.39062V5.17969C24.7588 5.17969 25.0322 5.17969 25.2646 5.17969C25.4834 5.17969 25.6885 5.17969 25.8799 5.17969C26.0713 5.17969 26.208 5.11133 26.2627 4.97461C26.3174 4.83789 26.3447 4.67383 26.3447 4.48242C26.3447 4.30469 26.3037 4.14062 26.249 4.00391C26.1807 3.86719 26.0576 3.78516 25.8662 3.78516C25.6338 3.8125 25.3193 3.82617 24.9092 3.82617C24.499 3.82617 24.0615 3.83984 23.6104 3.83984C23.1592 3.83984 22.7217 3.83984 22.3115 3.83984H21.3271C21.1357 3.83984 21.0264 3.9082 20.9717 4.04492C20.917 4.18164 20.9033 4.3457 20.9033 4.50977C20.9033 4.70117 20.9307 4.87891 20.9854 5.0293C21.04 5.17969 21.1631 5.24805 21.3271 5.24805ZM27.6025 9.36328C27.4932 9.36328 27.3701 9.37695 27.2607 9.4043C27.1377 9.43164 27.0283 9.45898 26.9326 9.48633C26.8369 9.52734 26.7549 9.56836 26.7002 9.62305C26.6318 9.67773 26.6045 9.71875 26.6045 9.77344C26.6045 10.0195 26.6592 10.2656 26.7412 10.5254C26.8232 10.7988 26.96 11.0312 27.1514 11.25C27.3291 11.4688 27.5752 11.6602 27.876 11.7969C28.1768 11.9473 28.5459 12.0156 28.9971 12.0156C29.3936 12.0156 29.7354 11.9609 30.0361 11.8242C30.3369 11.6875 30.583 11.5098 30.7744 11.291C30.9658 11.0723 31.1162 10.7988 31.2119 10.498C31.2939 10.1973 31.335 9.85547 31.335 9.5V4.66016C31.335 4.57812 31.3076 4.48242 31.2666 4.37305C31.2119 4.26367 31.1572 4.16797 31.0752 4.08594C30.9932 4.00391 30.8975 3.92188 30.7881 3.86719C30.6787 3.8125 30.5557 3.78516 30.4189 3.78516C30.2959 3.78516 30.1455 3.79883 29.9541 3.79883C29.7627 3.79883 29.5576 3.8125 29.3525 3.8125C29.1338 3.8125 28.9287 3.82617 28.7373 3.82617C28.5459 3.82617 28.3818 3.82617 28.2725 3.82617C28.1357 3.82617 28.0127 3.83984 27.8896 3.83984C27.7666 3.83984 27.6436 3.83984 27.5205 3.83984C27.3291 3.83984 27.1924 3.9082 27.1104 4.04492C27.0283 4.18164 26.9873 4.3457 26.9873 4.50977C26.9873 4.70117 27.0283 4.86523 27.1377 5.01562C27.2471 5.16602 27.3701 5.24805 27.5342 5.24805C27.7803 5.23438 28.0811 5.2207 28.4365 5.2207C28.7783 5.2207 29.0928 5.2207 29.3799 5.20703H29.5986C29.5986 5.45312 29.6123 5.69922 29.6123 5.95898V9.4043C29.6123 9.82812 29.5576 10.1562 29.4482 10.375C29.3389 10.6074 29.1885 10.7168 28.9971 10.7168C28.5596 10.7168 28.3271 10.3613 28.2725 9.63672C28.2588 9.54102 28.1904 9.47266 28.0674 9.43164C27.9307 9.39062 27.7803 9.36328 27.6025 9.36328Z" fill="white"/>
</svg>
