<svg width="52" height="19" viewBox="0 0 52 19" fill="none" xmlns="http://www.w3.org/2000/svg">
<rect width="52" height="19" rx="9.5" fill="#ABBE77"/>
<path d="M13.5547 12.9688C13.5547 13.1875 13.6016 13.3906 13.7109 13.5781C13.8047 13.7656 13.9609 13.8438 14.1797 13.8125C14.6953 13.7969 15.2422 13.7812 15.8203 13.7656C16.3984 13.7656 16.9609 13.75 17.4922 13.7344H17.8672C18.0859 13.7344 18.2578 13.6562 18.3672 13.5C18.4766 13.3438 18.5391 13.1562 18.5391 12.9531C18.5391 12.75 18.4766 12.5625 18.3516 12.375C18.2266 12.2031 18.0703 12.125 17.8516 12.1406C17.7266 12.1562 17.6172 12.1719 17.4922 12.1719C17.3672 12.1719 17.2578 12.1719 17.1328 12.1719H17.0234V6.07812H17.4609C17.5859 6.07812 17.7266 6.07812 17.8516 6.0625C18.0547 6.04688 18.2109 5.95312 18.3359 5.79688C18.4453 5.64062 18.5078 5.46875 18.5078 5.26562C18.5078 5.07812 18.4297 4.89062 18.3047 4.73438C18.1797 4.57812 18.0234 4.48438 17.8359 4.46875C17.4609 4.5 17.0391 4.51562 16.5703 4.51562C16.1016 4.51562 15.6328 4.51562 15.1797 4.51562C14.9922 4.51562 14.8047 4.53125 14.6328 4.53125C14.4453 4.53125 14.2891 4.53125 14.1328 4.53125C13.9141 4.53125 13.7578 4.60938 13.6641 4.76562C13.5703 4.92188 13.5234 5.10938 13.5234 5.29688C13.5234 5.51562 13.5703 5.70312 13.6953 5.875C13.8047 6.04688 13.9609 6.14062 14.1484 6.14062C14.2578 6.14062 14.3984 6.125 14.5703 6.125C14.7266 6.125 14.8828 6.10938 15.0391 6.10938C15.0391 6.39062 15.0391 6.70312 15.0391 7.04688C15.0391 7.39062 15.0547 7.78125 15.0547 8.21875V12.2031H14.1641C13.9453 12.2031 13.7891 12.2812 13.6953 12.4375C13.6016 12.5938 13.5547 12.7812 13.5547 12.9688ZM19.8516 10.375C19.6016 10.375 19.3828 10.4219 19.1953 10.5156C18.9922 10.6094 18.8828 10.75 18.8828 10.9219C18.8516 11.375 18.9141 11.7812 19.0391 12.1406C19.1641 12.5156 19.3672 12.8281 19.6328 13.0781C19.8828 13.3438 20.2109 13.5469 20.6016 13.6875C20.9766 13.8281 21.4141 13.8906 21.9141 13.8906C22.3828 13.8906 22.8047 13.8438 23.1797 13.7188C23.5547 13.5938 23.8828 13.4219 24.1641 13.2031C24.4297 12.9844 24.6328 12.7188 24.7891 12.4062C24.9297 12.0938 25.0078 11.7344 25.0078 11.3438C25.0078 10.7188 24.8047 10.1719 24.3984 9.71875C23.9922 9.28125 23.3672 8.82812 22.5391 8.35938C22.0703 8.125 21.6953 7.89062 21.4297 7.64062C21.1641 7.40625 21.0391 7.10938 21.0391 6.75C21.0391 6.48438 21.1172 6.28125 21.2891 6.14062C21.4609 6.01562 21.6953 5.9375 22.0078 5.92188C22.3047 5.92188 22.5391 6.03125 22.7109 6.28125C22.8828 6.53125 22.9609 6.875 22.9297 7.34375C22.8984 7.53125 23.0078 7.6875 23.2266 7.78125C23.4453 7.875 23.6797 7.92188 23.9297 7.92188C24.1797 7.92188 24.3984 7.875 24.6016 7.78125C24.8047 7.6875 24.9141 7.54688 24.9141 7.35938C24.9141 6.875 24.8516 6.45312 24.7109 6.07812C24.5547 5.70312 24.3516 5.40625 24.0859 5.15625C23.8203 4.92188 23.5078 4.75 23.1641 4.625C22.8047 4.5 22.4141 4.4375 22.0078 4.4375C21.0859 4.45312 20.3672 4.67188 19.8359 5.09375C19.3047 5.53125 19.0547 6.125 19.0547 6.90625C19.0547 7.48438 19.2266 7.96875 19.6016 8.35938C19.9609 8.76562 20.5391 9.15625 21.3203 9.54688C21.9141 9.85938 22.3516 10.1406 22.6172 10.4219C22.8828 10.7031 23.0234 11.0156 23.0234 11.3594C23.0234 11.7031 22.9141 11.9688 22.7266 12.1406C22.5234 12.3125 22.2578 12.4062 21.9141 12.4062C21.5859 12.4219 21.3203 12.3125 21.1172 12.0938C20.9141 11.875 20.8203 11.4844 20.8203 10.9219C20.8203 10.75 20.7109 10.6094 20.5078 10.5156C20.3047 10.4219 20.0859 10.375 19.8516 10.375ZM25.6797 4.89062V6.45312C25.6797 6.85938 25.6797 7.3125 25.6797 7.8125C25.6797 8.3125 25.6953 8.82812 25.6953 9.32812V13.4531C25.6953 13.6094 25.7734 13.7188 25.9609 13.7969C26.1328 13.875 26.3359 13.9062 26.5859 13.9062C26.7109 13.9062 26.8359 13.9062 26.9766 13.875C27.1016 13.8438 27.2266 13.8125 27.3359 13.7656C27.4297 13.7188 27.5234 13.6562 27.5859 13.5938C27.6484 13.5312 27.6797 13.4531 27.6797 13.3594C27.6641 13.2656 27.6484 13.1094 27.6484 12.875C27.6484 12.6562 27.6484 12.375 27.6484 12.0469V9.73438C28.0859 9.71875 28.4922 9.71875 28.8984 9.71875C29.3047 9.71875 29.7266 9.71875 30.1797 9.70312C30.3047 9.70312 30.4297 9.70312 30.5547 9.70312C30.6641 9.70312 30.7734 9.6875 30.8984 9.6875C31.1172 9.6875 31.2891 9.60938 31.3984 9.4375C31.4922 9.28125 31.5547 9.09375 31.5547 8.875C31.5547 8.67188 31.4922 8.48438 31.3828 8.29688C31.2578 8.125 31.1016 8.04688 30.8828 8.04688C30.5391 8.07812 30.1641 8.09375 29.7266 8.09375C29.2891 8.09375 28.8516 8.09375 28.4141 8.09375C28.2578 8.09375 28.1328 8.10938 28.0078 8.10938C27.8828 8.10938 27.7734 8.10938 27.6484 8.10938C27.6484 7.85938 27.6484 7.64062 27.6484 7.46875C27.6484 7.29688 27.6641 7.10938 27.6641 6.90625V6.125C28.1172 6.10938 28.5391 6.10938 28.9297 6.10938C29.3203 6.10938 29.7422 6.10938 30.1953 6.09375C30.2891 6.09375 30.3984 6.09375 30.5078 6.09375C30.6016 6.09375 30.6953 6.07812 30.7891 6.07812C31.0078 6.07812 31.1797 6 31.2891 5.82812C31.3984 5.67188 31.4609 5.48438 31.4609 5.26562C31.4609 5.17188 31.4453 5.0625 31.4141 4.96875C31.3828 4.875 31.3359 4.78125 31.2734 4.70312C31.2109 4.64062 31.1484 4.57812 31.0703 4.53125C30.9766 4.48438 30.8828 4.46875 30.7891 4.46875C30.4297 4.5 30.0391 4.51562 29.6016 4.51562C29.1641 4.51562 28.7109 4.51562 28.2734 4.51562C28.1172 4.51562 27.9766 4.53125 27.8203 4.53125C27.6641 4.53125 27.5078 4.53125 27.3672 4.53125C27.3047 4.48438 27.2109 4.45312 27.1016 4.4375C26.9922 4.4375 26.8672 4.42188 26.7266 4.42188C26.4609 4.42188 26.2266 4.46875 26.0078 4.54688C25.7891 4.625 25.6797 4.73438 25.6797 4.89062ZM32.3047 4.89062V6.45312C32.3047 6.85938 32.3047 7.3125 32.3047 7.8125C32.3047 8.3125 32.3203 8.82812 32.3203 9.32812V13.4531C32.3203 13.6094 32.3984 13.7188 32.5859 13.7969C32.7578 13.875 32.9609 13.9062 33.2109 13.9062C33.3359 13.9062 33.4609 13.9062 33.6016 13.875C33.7266 13.8438 33.8516 13.8125 33.9609 13.7656C34.0547 13.7188 34.1484 13.6562 34.2109 13.5938C34.2734 13.5312 34.3047 13.4531 34.3047 13.3594C34.2891 13.2812 34.2734 13.125 34.2734 12.9062C34.2734 12.6875 34.2734 12.4375 34.2734 12.125V9.92188C34.3359 9.9375 34.4141 9.9375 34.4766 9.9375H34.7109C34.7891 9.9375 34.8672 9.9375 34.9453 9.9375C35.0078 9.9375 35.0859 9.92188 35.1797 9.92188C35.7109 9.90625 36.1641 9.8125 36.5703 9.625C36.9609 9.4375 37.2891 9.21875 37.5547 8.9375C37.8047 8.65625 38.0078 8.35938 38.1328 8.04688C38.2578 7.73438 38.3359 7.42188 38.3359 7.10938C38.3359 6.70312 38.2578 6.32812 38.1016 6C37.9453 5.6875 37.7109 5.40625 37.4297 5.17188C37.1328 4.95312 36.7891 4.76562 36.3828 4.64062C35.9766 4.51562 35.5391 4.45312 35.0547 4.42188C34.8672 4.42188 34.6797 4.42188 34.4609 4.4375C34.2422 4.45312 34.0547 4.46875 33.8828 4.48438C33.7891 4.45312 33.7109 4.4375 33.6328 4.4375C33.5547 4.4375 33.4609 4.42188 33.3672 4.42188C33.1016 4.42188 32.8516 4.46875 32.6328 4.54688C32.4141 4.625 32.3047 4.73438 32.3047 4.89062ZM34.2891 5.92188C34.4141 5.90625 34.5547 5.89062 34.6797 5.89062C34.8047 5.89062 34.9141 5.90625 35.0234 5.90625C35.4453 5.9375 35.7734 6.03125 36.0078 6.21875C36.2266 6.40625 36.3516 6.6875 36.3516 7.07812C36.3516 7.46875 36.2422 7.78125 36.0234 8.03125C35.8047 8.28125 35.5078 8.42188 35.1484 8.4375C35.0547 8.4375 34.9766 8.45312 34.8984 8.45312C34.8203 8.45312 34.7422 8.45312 34.6797 8.45312H34.4766C34.4141 8.45312 34.3359 8.45312 34.2734 8.4375C34.2734 8.10938 34.2734 7.82812 34.2734 7.57812C34.2734 7.34375 34.2891 7.09375 34.2891 6.84375V5.92188Z" fill="white"/>
</svg>
