<svg width="52" height="19" viewBox="0 0 52 19" fill="none" xmlns="http://www.w3.org/2000/svg">
<rect width="52" height="19" rx="9.5" fill="#F7CE7F"/>
<path d="M13.9375 12.9688C13.9375 13.1875 13.9844 13.3906 14.0938 13.5781C14.1875 13.7656 14.3438 13.8438 14.5625 13.8125C15.0781 13.7969 15.625 13.7812 16.2031 13.7656C16.7812 13.7656 17.3438 13.75 17.875 13.7344H18.25C18.4688 13.7344 18.6406 13.6562 18.75 13.5C18.8594 13.3438 18.9219 13.1562 18.9219 12.9531C18.9219 12.75 18.8594 12.5625 18.7344 12.375C18.6094 12.2031 18.4531 12.125 18.2344 12.1406C18.1094 12.1562 18 12.1719 17.875 12.1719C17.75 12.1719 17.6406 12.1719 17.5156 12.1719H17.4062V6.07812H17.8438C17.9688 6.07812 18.1094 6.07812 18.2344 6.0625C18.4375 6.04688 18.5938 5.95312 18.7188 5.79688C18.8281 5.64062 18.8906 5.46875 18.8906 5.26562C18.8906 5.07812 18.8125 4.89062 18.6875 4.73438C18.5625 4.57812 18.4062 4.48438 18.2188 4.46875C17.8438 4.5 17.4219 4.51562 16.9531 4.51562C16.4844 4.51562 16.0156 4.51562 15.5625 4.51562C15.375 4.51562 15.1875 4.53125 15.0156 4.53125C14.8281 4.53125 14.6719 4.53125 14.5156 4.53125C14.2969 4.53125 14.1406 4.60938 14.0469 4.76562C13.9531 4.92188 13.9062 5.10938 13.9062 5.29688C13.9062 5.51562 13.9531 5.70312 14.0781 5.875C14.1875 6.04688 14.3438 6.14062 14.5312 6.14062C14.6406 6.14062 14.7812 6.125 14.9531 6.125C15.1094 6.125 15.2656 6.10938 15.4219 6.10938C15.4219 6.39062 15.4219 6.70312 15.4219 7.04688C15.4219 7.39062 15.4375 7.78125 15.4375 8.21875V12.2031H14.5469C14.3281 12.2031 14.1719 12.2812 14.0781 12.4375C13.9844 12.5938 13.9375 12.7812 13.9375 12.9688ZM20.2344 10.375C19.9844 10.375 19.7656 10.4219 19.5781 10.5156C19.375 10.6094 19.2656 10.75 19.2656 10.9219C19.2344 11.375 19.2969 11.7812 19.4219 12.1406C19.5469 12.5156 19.75 12.8281 20.0156 13.0781C20.2656 13.3438 20.5938 13.5469 20.9844 13.6875C21.3594 13.8281 21.7969 13.8906 22.2969 13.8906C22.7656 13.8906 23.1875 13.8438 23.5625 13.7188C23.9375 13.5938 24.2656 13.4219 24.5469 13.2031C24.8125 12.9844 25.0156 12.7188 25.1719 12.4062C25.3125 12.0938 25.3906 11.7344 25.3906 11.3438C25.3906 10.7188 25.1875 10.1719 24.7812 9.71875C24.375 9.28125 23.75 8.82812 22.9219 8.35938C22.4531 8.125 22.0781 7.89062 21.8125 7.64062C21.5469 7.40625 21.4219 7.10938 21.4219 6.75C21.4219 6.48438 21.5 6.28125 21.6719 6.14062C21.8438 6.01562 22.0781 5.9375 22.3906 5.92188C22.6875 5.92188 22.9219 6.03125 23.0938 6.28125C23.2656 6.53125 23.3438 6.875 23.3125 7.34375C23.2812 7.53125 23.3906 7.6875 23.6094 7.78125C23.8281 7.875 24.0625 7.92188 24.3125 7.92188C24.5625 7.92188 24.7812 7.875 24.9844 7.78125C25.1875 7.6875 25.2969 7.54688 25.2969 7.35938C25.2969 6.875 25.2344 6.45312 25.0938 6.07812C24.9375 5.70312 24.7344 5.40625 24.4688 5.15625C24.2031 4.92188 23.8906 4.75 23.5469 4.625C23.1875 4.5 22.7969 4.4375 22.3906 4.4375C21.4688 4.45312 20.75 4.67188 20.2188 5.09375C19.6875 5.53125 19.4375 6.125 19.4375 6.90625C19.4375 7.48438 19.6094 7.96875 19.9844 8.35938C20.3438 8.76562 20.9219 9.15625 21.7031 9.54688C22.2969 9.85938 22.7344 10.1406 23 10.4219C23.2656 10.7031 23.4062 11.0156 23.4062 11.3594C23.4062 11.7031 23.2969 11.9688 23.1094 12.1406C22.9062 12.3125 22.6406 12.4062 22.2969 12.4062C21.9688 12.4219 21.7031 12.3125 21.5 12.0938C21.2969 11.875 21.2031 11.4844 21.2031 10.9219C21.2031 10.75 21.0938 10.6094 20.8906 10.5156C20.6875 10.4219 20.4688 10.375 20.2344 10.375ZM26.0625 4.89062V6.45312C26.0625 6.85938 26.0625 7.3125 26.0625 7.8125C26.0625 8.3125 26.0781 8.82812 26.0781 9.32812V13.4531C26.0781 13.6094 26.1562 13.7188 26.3438 13.7969C26.5156 13.875 26.7188 13.9062 26.9688 13.9062C27.0938 13.9062 27.2188 13.9062 27.3594 13.875C27.4844 13.8438 27.6094 13.8125 27.7188 13.7656C27.8125 13.7188 27.9062 13.6562 27.9688 13.5938C28.0312 13.5312 28.0625 13.4531 28.0625 13.3594C28.0469 13.2656 28.0312 13.1094 28.0312 12.875C28.0312 12.6562 28.0312 12.375 28.0312 12.0469V9.73438C28.4688 9.71875 28.875 9.71875 29.2812 9.71875C29.6875 9.71875 30.1094 9.71875 30.5625 9.70312C30.6875 9.70312 30.8125 9.70312 30.9375 9.70312C31.0469 9.70312 31.1562 9.6875 31.2812 9.6875C31.5 9.6875 31.6719 9.60938 31.7812 9.4375C31.875 9.28125 31.9375 9.09375 31.9375 8.875C31.9375 8.67188 31.875 8.48438 31.7656 8.29688C31.6406 8.125 31.4844 8.04688 31.2656 8.04688C30.9219 8.07812 30.5469 8.09375 30.1094 8.09375C29.6719 8.09375 29.2344 8.09375 28.7969 8.09375C28.6406 8.09375 28.5156 8.10938 28.3906 8.10938C28.2656 8.10938 28.1562 8.10938 28.0312 8.10938C28.0312 7.85938 28.0312 7.64062 28.0312 7.46875C28.0312 7.29688 28.0469 7.10938 28.0469 6.90625V6.125C28.5 6.10938 28.9219 6.10938 29.3125 6.10938C29.7031 6.10938 30.125 6.10938 30.5781 6.09375C30.6719 6.09375 30.7812 6.09375 30.8906 6.09375C30.9844 6.09375 31.0781 6.07812 31.1719 6.07812C31.3906 6.07812 31.5625 6 31.6719 5.82812C31.7812 5.67188 31.8438 5.48438 31.8438 5.26562C31.8438 5.17188 31.8281 5.0625 31.7969 4.96875C31.7656 4.875 31.7188 4.78125 31.6562 4.70312C31.5938 4.64062 31.5312 4.57812 31.4531 4.53125C31.3594 4.48438 31.2656 4.46875 31.1719 4.46875C30.8125 4.5 30.4219 4.51562 29.9844 4.51562C29.5469 4.51562 29.0938 4.51562 28.6562 4.51562C28.5 4.51562 28.3594 4.53125 28.2031 4.53125C28.0469 4.53125 27.8906 4.53125 27.75 4.53125C27.6875 4.48438 27.5938 4.45312 27.4844 4.4375C27.375 4.4375 27.25 4.42188 27.1094 4.42188C26.8438 4.42188 26.6094 4.46875 26.3906 4.54688C26.1719 4.625 26.0625 4.73438 26.0625 4.89062ZM33.4531 10.8438C33.3281 10.8438 33.1875 10.8594 33.0625 10.8906C32.9219 10.9219 32.7969 10.9531 32.6875 10.9844C32.5781 11.0312 32.4844 11.0781 32.4219 11.1406C32.3438 11.2031 32.3125 11.25 32.3125 11.3125C32.3125 11.5938 32.375 11.875 32.4688 12.1719C32.5625 12.4844 32.7188 12.75 32.9375 13C33.1406 13.25 33.4219 13.4688 33.7656 13.625C34.1094 13.7969 34.5312 13.875 35.0469 13.875C35.5 13.875 35.8906 13.8125 36.2344 13.6562C36.5781 13.5 36.8594 13.2969 37.0781 13.0469C37.2969 12.7969 37.4688 12.4844 37.5781 12.1406C37.6719 11.7969 37.7188 11.4062 37.7188 11V5.46875C37.7188 5.375 37.6875 5.26562 37.6406 5.14062C37.5781 5.01562 37.5156 4.90625 37.4219 4.8125C37.3281 4.71875 37.2188 4.625 37.0938 4.5625C36.9688 4.5 36.8281 4.46875 36.6719 4.46875C36.5312 4.46875 36.3594 4.48438 36.1406 4.48438C35.9219 4.48438 35.6875 4.5 35.4531 4.5C35.2031 4.5 34.9688 4.51562 34.75 4.51562C34.5312 4.51562 34.3438 4.51562 34.2188 4.51562C34.0625 4.51562 33.9219 4.53125 33.7812 4.53125C33.6406 4.53125 33.5 4.53125 33.3594 4.53125C33.1406 4.53125 32.9844 4.60938 32.8906 4.76562C32.7969 4.92188 32.75 5.10938 32.75 5.29688C32.75 5.51562 32.7969 5.70312 32.9219 5.875C33.0469 6.04688 33.1875 6.14062 33.375 6.14062C33.6562 6.125 34 6.10938 34.4062 6.10938C34.7969 6.10938 35.1562 6.10938 35.4844 6.09375H35.7344C35.7344 6.375 35.75 6.65625 35.75 6.95312V10.8906C35.75 11.375 35.6875 11.75 35.5625 12C35.4375 12.2656 35.2656 12.3906 35.0469 12.3906C34.5469 12.3906 34.2812 11.9844 34.2188 11.1562C34.2031 11.0469 34.125 10.9688 33.9844 10.9219C33.8281 10.875 33.6562 10.8438 33.4531 10.8438Z" fill="white"/>
</svg>
