<svg width="24" height="24" viewBox="0 0 24 24" fill="none" xmlns="http://www.w3.org/2000/svg">
<circle cx="12" cy="12" r="3" fill="#F7C8C8"/>
<path fill-rule="evenodd" clip-rule="evenodd" d="M20.2979 12.75L16.7984 18.8113C16.5305 19.2754 16.0353 19.5613 15.4994 19.5613L8.50045 19.5613C7.96455 19.5613 7.46936 19.2754 7.20141 18.8113L3.70194 12.75C3.43399 12.2859 3.43399 11.7141 3.70194 11.25L7.20141 5.18872C7.46936 4.72462 7.96456 4.43872 8.50045 4.43872L15.4994 4.43872C16.0353 4.43872 16.5305 4.72462 16.7984 5.18872L20.2979 11.25C20.5659 11.7141 20.5659 12.2859 20.2979 12.75ZM21.597 10.5C22.1329 11.4282 22.1329 12.5718 21.597 13.5L18.0975 19.5613C17.5616 20.4895 16.5712 21.0613 15.4994 21.0613L8.50045 21.0613C7.42866 21.0613 6.43827 20.4895 5.90238 19.5613L2.4029 13.5C1.867 12.5718 1.867 11.4282 2.4029 10.5L5.90238 4.43872C6.43827 3.51052 7.42866 2.93872 8.50045 2.93872H15.4994C16.5712 2.93872 17.5616 3.51052 18.0975 4.43872L21.597 10.5ZM14.6854 12C14.6854 13.483 13.4831 14.6852 12.0001 14.6852C10.5171 14.6852 9.31492 13.483 9.31492 12C9.31492 10.517 10.5171 9.31475 12.0001 9.31475C13.4831 9.31475 14.6854 10.517 14.6854 12ZM16.1854 12C16.1854 14.3114 14.3116 16.1852 12.0001 16.1852C9.68871 16.1852 7.81492 14.3114 7.81492 12C7.81492 9.68854 9.68871 7.81475 12.0001 7.81475C14.3116 7.81475 16.1854 9.68854 16.1854 12Z" fill="#333333"/>
</svg>
