<svg width="28" height="28" viewBox="0 0 28 28" fill="none" xmlns="http://www.w3.org/2000/svg">
<style type="text/css">
	.st0{
    fill: #FBF7F7;
    fill-rule: evenodd;
    clip-rule: evenodd;
  }
	.st1{
    fill-rule: evenodd;
    clip-rule: evenodd;
    fill: #333333;
  }
</style>
<path d="M10.4095 13.4546C10.778 11.4898 13.0125 11.1887 13.9063 12.6623C13.9495 12.7336 14.06 12.7336 14.1032 12.6622C14.9964 11.1887 17.2218 11.49 17.5903 13.4549C17.9933 15.6037 15.503 17.5106 14.0121 17.902C13.996 17.9062 13.9802 17.9062 13.9641 17.902C12.4735 17.5106 10.0065 15.6034 10.4095 13.4546Z" fill="#F7C8C8"/>
<rect x="4.125" y="6" width="19.75" height="16" rx="2.25" stroke="#333333" stroke-width="1.5" stroke-linejoin="round"/>
<path fill-rule="evenodd" clip-rule="evenodd" d="M5.0112 7.03433C5.29973 6.73714 5.77455 6.73012 6.07175 7.01865L11.2459 12.042C10.8676 12.3251 10.5661 12.7619 10.4322 13.3426L5.02689 8.09488C4.7297 7.80635 4.72267 7.33153 5.0112 7.03433ZM17.5661 13.3418L22.9705 8.09488C23.2677 7.80635 23.2748 7.33153 22.9862 7.03433C22.6977 6.73714 22.2229 6.73012 21.9257 7.01865L16.7529 12.0407C17.1307 12.3236 17.4319 12.7606 17.5661 13.3418Z" fill="#333333"/>
<path d="M10.4095 13.4546C10.778 11.4898 13.0125 11.1887 13.9063 12.6623C13.9495 12.7336 14.06 12.7336 14.1032 12.6622C14.9964 11.1887 17.2218 11.49 17.5903 13.4549C17.9933 15.6037 15.503 17.5106 14.0121 17.902C13.996 17.9062 13.9802 17.9062 13.9641 17.902C12.4735 17.5106 10.0065 15.6034 10.4095 13.4546Z" stroke="#333333" stroke-width="1.5" stroke-linecap="round"/>
</svg>
