<svg width="41" height="16" viewBox="0 0 41 16" fill="none" xmlns="http://www.w3.org/2000/svg">
<rect width="41" height="16" rx="8" fill="#C4D6FB"/>
<path d="M9.34375 11.2227C9.34375 11.4141 9.38477 11.5918 9.48047 11.7559C9.5625 11.9199 9.69922 11.9883 9.89062 11.9609C10.3418 11.9473 10.8203 11.9336 11.3262 11.9199C11.832 11.9199 12.3242 11.9062 12.7891 11.8926H13.1172C13.3086 11.8926 13.459 11.8242 13.5547 11.6875C13.6504 11.5508 13.7051 11.3867 13.7051 11.209C13.7051 11.0312 13.6504 10.8672 13.541 10.7031C13.4316 10.5527 13.2949 10.4844 13.1035 10.498C12.9941 10.5117 12.8984 10.5254 12.7891 10.5254C12.6797 10.5254 12.584 10.5254 12.4746 10.5254H12.3789V5.19336H12.7617C12.8711 5.19336 12.9941 5.19336 13.1035 5.17969C13.2812 5.16602 13.418 5.08398 13.5273 4.94727C13.623 4.81055 13.6777 4.66016 13.6777 4.48242C13.6777 4.31836 13.6094 4.1543 13.5 4.01758C13.3906 3.88086 13.2539 3.79883 13.0898 3.78516C12.7617 3.8125 12.3926 3.82617 11.9824 3.82617C11.5723 3.82617 11.1621 3.82617 10.7656 3.82617C10.6016 3.82617 10.4375 3.83984 10.2871 3.83984C10.123 3.83984 9.98633 3.83984 9.84961 3.83984C9.6582 3.83984 9.52148 3.9082 9.43945 4.04492C9.35742 4.18164 9.31641 4.3457 9.31641 4.50977C9.31641 4.70117 9.35742 4.86523 9.4668 5.01562C9.5625 5.16602 9.69922 5.24805 9.86328 5.24805C9.95898 5.24805 10.082 5.23438 10.2324 5.23438C10.3691 5.23438 10.5059 5.2207 10.6426 5.2207C10.6426 5.4668 10.6426 5.74023 10.6426 6.04102C10.6426 6.3418 10.6562 6.68359 10.6562 7.06641V10.5527H9.87695C9.68555 10.5527 9.54883 10.6211 9.4668 10.7578C9.38477 10.8945 9.34375 11.0586 9.34375 11.2227ZM18.5176 4.1543V5.13867C18.5176 5.57617 18.5176 6.0957 18.5176 6.66992C18.5176 7.24414 18.5312 7.83203 18.5312 8.43359C18.3945 8.24219 18.2852 8.05078 18.1758 7.87305C18.0664 7.69531 17.9434 7.51758 17.834 7.32617C17.7246 7.14844 17.6016 6.95703 17.4785 6.75195C17.3418 6.54688 17.2051 6.31445 17.0547 6.06836C16.7539 5.60352 16.4941 5.17969 16.248 4.79688C16.002 4.41406 15.8379 4.14062 15.7422 3.94922C15.6328 3.8125 15.4277 3.74414 15.1543 3.74414C14.9355 3.74414 14.7441 3.78516 14.5527 3.86719C14.3613 3.94922 14.2656 4.07227 14.2656 4.22266V5.58984C14.2656 5.94531 14.2656 6.3418 14.2656 6.76562C14.2656 7.20312 14.2793 7.64062 14.2793 8.07812V11.6465C14.2793 11.7832 14.3477 11.8789 14.5117 11.9473C14.6758 12.0156 14.8535 12.043 15.0586 12.043C15.2773 12.043 15.4824 12.002 15.6875 11.9062C15.8789 11.8242 15.9883 11.7012 16.0156 11.5645C16.002 11.4414 15.9883 11.1543 15.9883 10.6895C15.9883 10.2383 15.9883 9.71875 15.9883 9.11719C15.9883 8.81641 15.9883 8.51562 15.9883 8.21484C15.9883 7.91406 16.002 7.61328 16.002 7.28516C16.248 7.66797 16.5078 8.0918 16.7949 8.5293C17.0684 8.98047 17.3418 9.41797 17.6152 9.8418C17.875 10.2656 18.1211 10.6484 18.3398 11.0039C18.5586 11.3594 18.7227 11.6465 18.8594 11.8379H18.8457C18.8867 11.9199 18.9551 11.9609 19.0645 11.9883C19.1602 12.0156 19.2832 12.0293 19.4199 12.0293C19.5156 12.0293 19.6113 12.0293 19.7207 12.002C19.8164 11.9746 19.9121 11.9473 19.9941 11.9062C20.0762 11.8652 20.1309 11.8105 20.1855 11.7559C20.2402 11.7012 20.2676 11.6465 20.2676 11.5645C20.2402 11.4551 20.2402 11.209 20.2402 10.8535V7.98242C20.2402 7.42188 20.2402 6.875 20.2539 6.35547V4.12695C20.2539 3.99023 20.1719 3.89453 20.0078 3.83984C19.8438 3.78516 19.666 3.74414 19.4609 3.74414C19.2148 3.74414 18.9961 3.78516 18.8047 3.85352C18.6133 3.92188 18.5176 4.01758 18.5176 4.1543ZM21.1562 4.1543V5.52148C21.1562 5.87695 21.1562 6.27344 21.1562 6.71094C21.1562 7.14844 21.1699 7.59961 21.1699 8.03711V11.6465C21.1699 11.7832 21.2383 11.8789 21.4023 11.9473C21.5527 12.0156 21.7305 12.043 21.9492 12.043C22.0586 12.043 22.168 12.043 22.291 12.0156C22.4004 11.9883 22.5098 11.9609 22.6055 11.9199C22.6875 11.8789 22.7695 11.8242 22.8242 11.7695C22.8789 11.7148 22.9062 11.6465 22.9062 11.5645C22.8926 11.4824 22.8789 11.3457 22.8789 11.1406C22.8789 10.9492 22.8789 10.7031 22.8789 10.416V8.39258C23.2617 8.37891 23.6172 8.37891 23.9727 8.37891C24.3281 8.37891 24.6973 8.37891 25.0938 8.36523C25.2031 8.36523 25.3125 8.36523 25.4219 8.36523C25.5176 8.36523 25.6133 8.35156 25.7227 8.35156C25.9141 8.35156 26.0645 8.2832 26.1602 8.13281C26.2422 7.99609 26.2969 7.83203 26.2969 7.64062C26.2969 7.46289 26.2422 7.29883 26.1465 7.13477C26.0371 6.98438 25.9004 6.91602 25.709 6.91602C25.4082 6.94336 25.0801 6.95703 24.6973 6.95703C24.3145 6.95703 23.9316 6.95703 23.5488 6.95703C23.4121 6.95703 23.3027 6.9707 23.1934 6.9707C23.084 6.9707 22.9883 6.9707 22.8789 6.9707C22.8789 6.75195 22.8789 6.56055 22.8789 6.41016C22.8789 6.25977 22.8926 6.0957 22.8926 5.91797V5.23438C23.2891 5.2207 23.6582 5.2207 24 5.2207C24.3418 5.2207 24.7109 5.2207 25.1074 5.20703C25.1895 5.20703 25.2852 5.20703 25.3809 5.20703C25.4629 5.20703 25.5449 5.19336 25.627 5.19336C25.8184 5.19336 25.9688 5.125 26.0645 4.97461C26.1602 4.83789 26.2148 4.67383 26.2148 4.48242C26.2148 4.40039 26.2012 4.30469 26.1738 4.22266C26.1465 4.14062 26.1055 4.05859 26.0508 3.99023C25.9961 3.93555 25.9414 3.88086 25.873 3.83984C25.791 3.79883 25.709 3.78516 25.627 3.78516C25.3125 3.8125 24.9707 3.82617 24.5879 3.82617C24.2051 3.82617 23.8086 3.82617 23.4258 3.82617C23.2891 3.82617 23.166 3.83984 23.0293 3.83984C22.8926 3.83984 22.7559 3.83984 22.6328 3.83984C22.5781 3.79883 22.4961 3.77148 22.4004 3.75781C22.3047 3.75781 22.1953 3.74414 22.0723 3.74414C21.8398 3.74414 21.6348 3.78516 21.4434 3.85352C21.252 3.92188 21.1562 4.01758 21.1562 4.1543ZM27.623 9.36328C27.5137 9.36328 27.3906 9.37695 27.2812 9.4043C27.1582 9.43164 27.0488 9.45898 26.9531 9.48633C26.8574 9.52734 26.7754 9.56836 26.7207 9.62305C26.6523 9.67773 26.625 9.71875 26.625 9.77344C26.625 10.0195 26.6797 10.2656 26.7617 10.5254C26.8438 10.7988 26.9805 11.0312 27.1719 11.25C27.3496 11.4688 27.5957 11.6602 27.8965 11.7969C28.1973 11.9473 28.5664 12.0156 29.0176 12.0156C29.4141 12.0156 29.7559 11.9609 30.0566 11.8242C30.3574 11.6875 30.6035 11.5098 30.7949 11.291C30.9863 11.0723 31.1367 10.7988 31.2324 10.498C31.3145 10.1973 31.3555 9.85547 31.3555 9.5V4.66016C31.3555 4.57812 31.3281 4.48242 31.2871 4.37305C31.2324 4.26367 31.1777 4.16797 31.0957 4.08594C31.0137 4.00391 30.918 3.92188 30.8086 3.86719C30.6992 3.8125 30.5762 3.78516 30.4395 3.78516C30.3164 3.78516 30.166 3.79883 29.9746 3.79883C29.7832 3.79883 29.5781 3.8125 29.373 3.8125C29.1543 3.8125 28.9492 3.82617 28.7578 3.82617C28.5664 3.82617 28.4023 3.82617 28.293 3.82617C28.1562 3.82617 28.0332 3.83984 27.9102 3.83984C27.7871 3.83984 27.6641 3.83984 27.541 3.83984C27.3496 3.83984 27.2129 3.9082 27.1309 4.04492C27.0488 4.18164 27.0078 4.3457 27.0078 4.50977C27.0078 4.70117 27.0488 4.86523 27.1582 5.01562C27.2676 5.16602 27.3906 5.24805 27.5547 5.24805C27.8008 5.23438 28.1016 5.2207 28.457 5.2207C28.7988 5.2207 29.1133 5.2207 29.4004 5.20703H29.6191C29.6191 5.45312 29.6328 5.69922 29.6328 5.95898V9.4043C29.6328 9.82812 29.5781 10.1562 29.4688 10.375C29.3594 10.6074 29.209 10.7168 29.0176 10.7168C28.5801 10.7168 28.3477 10.3613 28.293 9.63672C28.2793 9.54102 28.2109 9.47266 28.0879 9.43164C27.9512 9.39062 27.8008 9.36328 27.623 9.36328Z" fill="#7391D0"/>
</svg>
