<svg width="41" height="16" viewBox="0 0 41 16" fill="none" xmlns="http://www.w3.org/2000/svg">
<rect width="41" height="16" rx="8" fill="#ABBE77"/>
<path d="M9.61035 11.2227C9.61035 11.4141 9.65137 11.5918 9.74707 11.7559C9.8291 11.9199 9.96582 11.9883 10.1572 11.9609C10.6084 11.9473 11.0869 11.9336 11.5928 11.9199C12.0986 11.9199 12.5908 11.9062 13.0557 11.8926H13.3838C13.5752 11.8926 13.7256 11.8242 13.8213 11.6875C13.917 11.5508 13.9717 11.3867 13.9717 11.209C13.9717 11.0312 13.917 10.8672 13.8076 10.7031C13.6982 10.5527 13.5615 10.4844 13.3701 10.498C13.2607 10.5117 13.165 10.5254 13.0557 10.5254C12.9463 10.5254 12.8506 10.5254 12.7412 10.5254H12.6455V5.19336H13.0283C13.1377 5.19336 13.2607 5.19336 13.3701 5.17969C13.5479 5.16602 13.6846 5.08398 13.7939 4.94727C13.8896 4.81055 13.9443 4.66016 13.9443 4.48242C13.9443 4.31836 13.876 4.1543 13.7666 4.01758C13.6572 3.88086 13.5205 3.79883 13.3564 3.78516C13.0283 3.8125 12.6592 3.82617 12.249 3.82617C11.8389 3.82617 11.4287 3.82617 11.0322 3.82617C10.8682 3.82617 10.7041 3.83984 10.5537 3.83984C10.3896 3.83984 10.2529 3.83984 10.1162 3.83984C9.9248 3.83984 9.78809 3.9082 9.70605 4.04492C9.62402 4.18164 9.58301 4.3457 9.58301 4.50977C9.58301 4.70117 9.62402 4.86523 9.7334 5.01562C9.8291 5.16602 9.96582 5.24805 10.1299 5.24805C10.2256 5.24805 10.3486 5.23438 10.499 5.23438C10.6357 5.23438 10.7725 5.2207 10.9092 5.2207C10.9092 5.4668 10.9092 5.74023 10.9092 6.04102C10.9092 6.3418 10.9229 6.68359 10.9229 7.06641V10.5527H10.1436C9.95215 10.5527 9.81543 10.6211 9.7334 10.7578C9.65137 10.8945 9.61035 11.0586 9.61035 11.2227ZM15.1201 8.95312C14.9014 8.95312 14.71 8.99414 14.5459 9.07617C14.3682 9.1582 14.2725 9.28125 14.2725 9.43164C14.2451 9.82812 14.2998 10.1836 14.4092 10.498C14.5186 10.8262 14.6963 11.0996 14.9287 11.3184C15.1475 11.5508 15.4346 11.7285 15.7764 11.8516C16.1045 11.9746 16.4873 12.0293 16.9248 12.0293C17.335 12.0293 17.7041 11.9883 18.0322 11.8789C18.3604 11.7695 18.6475 11.6191 18.8936 11.4277C19.126 11.2363 19.3037 11.0039 19.4404 10.7305C19.5635 10.457 19.6318 10.1426 19.6318 9.80078C19.6318 9.25391 19.4541 8.77539 19.0986 8.37891C18.7432 7.99609 18.1963 7.59961 17.4717 7.18945C17.0615 6.98438 16.7334 6.7793 16.501 6.56055C16.2686 6.35547 16.1592 6.0957 16.1592 5.78125C16.1592 5.54883 16.2275 5.37109 16.3779 5.24805C16.5283 5.13867 16.7334 5.07031 17.0068 5.05664C17.2666 5.05664 17.4717 5.15234 17.6221 5.37109C17.7725 5.58984 17.8408 5.89062 17.8135 6.30078C17.7861 6.46484 17.8818 6.60156 18.0732 6.68359C18.2646 6.76562 18.4697 6.80664 18.6885 6.80664C18.9072 6.80664 19.0986 6.76562 19.2764 6.68359C19.4541 6.60156 19.5498 6.47852 19.5498 6.31445C19.5498 5.89062 19.4951 5.52148 19.3721 5.19336C19.2354 4.86523 19.0576 4.60547 18.8252 4.38672C18.5928 4.18164 18.3193 4.03125 18.0186 3.92188C17.7041 3.8125 17.3623 3.75781 17.0068 3.75781C16.2002 3.77148 15.5713 3.96289 15.1064 4.33203C14.6416 4.71484 14.4229 5.23438 14.4229 5.91797C14.4229 6.42383 14.5732 6.84766 14.9014 7.18945C15.2158 7.54492 15.7217 7.88672 16.4053 8.22852C16.9248 8.50195 17.3076 8.74805 17.54 8.99414C17.7725 9.24023 17.8955 9.51367 17.8955 9.81445C17.8955 10.1152 17.7998 10.3477 17.6357 10.498C17.458 10.6484 17.2256 10.7305 16.9248 10.7305C16.6377 10.7441 16.4053 10.6484 16.2275 10.457C16.0498 10.2656 15.9678 9.92383 15.9678 9.43164C15.9678 9.28125 15.8721 9.1582 15.6943 9.07617C15.5166 8.99414 15.3252 8.95312 15.1201 8.95312ZM20.2197 4.1543V5.52148C20.2197 5.87695 20.2197 6.27344 20.2197 6.71094C20.2197 7.14844 20.2334 7.59961 20.2334 8.03711V11.6465C20.2334 11.7832 20.3018 11.8789 20.4658 11.9473C20.6162 12.0156 20.7939 12.043 21.0127 12.043C21.1221 12.043 21.2314 12.043 21.3545 12.0156C21.4639 11.9883 21.5732 11.9609 21.6689 11.9199C21.751 11.8789 21.833 11.8242 21.8877 11.7695C21.9424 11.7148 21.9697 11.6465 21.9697 11.5645C21.9561 11.4824 21.9424 11.3457 21.9424 11.1406C21.9424 10.9492 21.9424 10.7031 21.9424 10.416V8.39258C22.3252 8.37891 22.6807 8.37891 23.0361 8.37891C23.3916 8.37891 23.7607 8.37891 24.1572 8.36523C24.2666 8.36523 24.376 8.36523 24.4854 8.36523C24.5811 8.36523 24.6768 8.35156 24.7861 8.35156C24.9775 8.35156 25.1279 8.2832 25.2236 8.13281C25.3057 7.99609 25.3604 7.83203 25.3604 7.64062C25.3604 7.46289 25.3057 7.29883 25.21 7.13477C25.1006 6.98438 24.9639 6.91602 24.7725 6.91602C24.4717 6.94336 24.1436 6.95703 23.7607 6.95703C23.3779 6.95703 22.9951 6.95703 22.6123 6.95703C22.4756 6.95703 22.3662 6.9707 22.2568 6.9707C22.1475 6.9707 22.0518 6.9707 21.9424 6.9707C21.9424 6.75195 21.9424 6.56055 21.9424 6.41016C21.9424 6.25977 21.9561 6.0957 21.9561 5.91797V5.23438C22.3525 5.2207 22.7217 5.2207 23.0635 5.2207C23.4053 5.2207 23.7744 5.2207 24.1709 5.20703C24.2529 5.20703 24.3486 5.20703 24.4443 5.20703C24.5264 5.20703 24.6084 5.19336 24.6904 5.19336C24.8818 5.19336 25.0322 5.125 25.1279 4.97461C25.2236 4.83789 25.2783 4.67383 25.2783 4.48242C25.2783 4.40039 25.2646 4.30469 25.2373 4.22266C25.21 4.14062 25.1689 4.05859 25.1143 3.99023C25.0596 3.93555 25.0049 3.88086 24.9365 3.83984C24.8545 3.79883 24.7725 3.78516 24.6904 3.78516C24.376 3.8125 24.0342 3.82617 23.6514 3.82617C23.2686 3.82617 22.8721 3.82617 22.4893 3.82617C22.3525 3.82617 22.2295 3.83984 22.0928 3.83984C21.9561 3.83984 21.8193 3.83984 21.6963 3.83984C21.6416 3.79883 21.5596 3.77148 21.4639 3.75781C21.3682 3.75781 21.2588 3.74414 21.1357 3.74414C20.9033 3.74414 20.6982 3.78516 20.5068 3.85352C20.3154 3.92188 20.2197 4.01758 20.2197 4.1543ZM26.0166 4.1543V5.52148C26.0166 5.87695 26.0166 6.27344 26.0166 6.71094C26.0166 7.14844 26.0303 7.59961 26.0303 8.03711V11.6465C26.0303 11.7832 26.0986 11.8789 26.2627 11.9473C26.4131 12.0156 26.5908 12.043 26.8096 12.043C26.9189 12.043 27.0283 12.043 27.1514 12.0156C27.2607 11.9883 27.3701 11.9609 27.4658 11.9199C27.5479 11.8789 27.6299 11.8242 27.6846 11.7695C27.7393 11.7148 27.7666 11.6465 27.7666 11.5645C27.7529 11.4961 27.7393 11.3594 27.7393 11.168C27.7393 10.9766 27.7393 10.7578 27.7393 10.4844V8.55664C27.7939 8.57031 27.8623 8.57031 27.917 8.57031H28.1221C28.1904 8.57031 28.2588 8.57031 28.3271 8.57031C28.3818 8.57031 28.4502 8.55664 28.5322 8.55664C28.9971 8.54297 29.3936 8.46094 29.749 8.29688C30.0908 8.13281 30.3779 7.94141 30.6104 7.69531C30.8291 7.44922 31.0068 7.18945 31.1162 6.91602C31.2256 6.64258 31.2939 6.36914 31.2939 6.0957C31.2939 5.74023 31.2256 5.41211 31.0889 5.125C30.9521 4.85156 30.7471 4.60547 30.501 4.40039C30.2412 4.20898 29.9404 4.04492 29.585 3.93555C29.2295 3.82617 28.8467 3.77148 28.4229 3.74414C28.2588 3.74414 28.0947 3.74414 27.9033 3.75781C27.7119 3.77148 27.5479 3.78516 27.3975 3.79883C27.3154 3.77148 27.2471 3.75781 27.1787 3.75781C27.1104 3.75781 27.0283 3.74414 26.9463 3.74414C26.7139 3.74414 26.4951 3.78516 26.3037 3.85352C26.1123 3.92188 26.0166 4.01758 26.0166 4.1543ZM27.7529 5.05664C27.8623 5.04297 27.9854 5.0293 28.0947 5.0293C28.2041 5.0293 28.2998 5.04297 28.3955 5.04297C28.7646 5.07031 29.0518 5.15234 29.2568 5.31641C29.4482 5.48047 29.5576 5.72656 29.5576 6.06836C29.5576 6.41016 29.4619 6.68359 29.2705 6.90234C29.0791 7.12109 28.8193 7.24414 28.5049 7.25781C28.4229 7.25781 28.3545 7.27148 28.2861 7.27148C28.2178 7.27148 28.1494 7.27148 28.0947 7.27148H27.917C27.8623 7.27148 27.7939 7.27148 27.7393 7.25781C27.7393 6.9707 27.7393 6.72461 27.7393 6.50586C27.7393 6.30078 27.7529 6.08203 27.7529 5.86328V5.05664Z" fill="white"/>
</svg>
