<svg width="41" height="16" viewBox="0 0 41 16" fill="none" xmlns="http://www.w3.org/2000/svg">
<rect width="41" height="16" rx="8" fill="#F7CE7F"/>
<path d="M9.44531 11.2227C9.44531 11.4141 9.48633 11.5918 9.58203 11.7559C9.66406 11.9199 9.80078 11.9883 9.99219 11.9609C10.4434 11.9473 10.9219 11.9336 11.4277 11.9199C11.9336 11.9199 12.4258 11.9062 12.8906 11.8926H13.2188C13.4102 11.8926 13.5605 11.8242 13.6562 11.6875C13.752 11.5508 13.8066 11.3867 13.8066 11.209C13.8066 11.0312 13.752 10.8672 13.6426 10.7031C13.5332 10.5527 13.3965 10.4844 13.2051 10.498C13.0957 10.5117 13 10.5254 12.8906 10.5254C12.7812 10.5254 12.6855 10.5254 12.5762 10.5254H12.4805V5.19336H12.8633C12.9727 5.19336 13.0957 5.19336 13.2051 5.17969C13.3828 5.16602 13.5195 5.08398 13.6289 4.94727C13.7246 4.81055 13.7793 4.66016 13.7793 4.48242C13.7793 4.31836 13.7109 4.1543 13.6016 4.01758C13.4922 3.88086 13.3555 3.79883 13.1914 3.78516C12.8633 3.8125 12.4941 3.82617 12.084 3.82617C11.6738 3.82617 11.2637 3.82617 10.8672 3.82617C10.7031 3.82617 10.5391 3.83984 10.3887 3.83984C10.2246 3.83984 10.0879 3.83984 9.95117 3.83984C9.75977 3.83984 9.62305 3.9082 9.54102 4.04492C9.45898 4.18164 9.41797 4.3457 9.41797 4.50977C9.41797 4.70117 9.45898 4.86523 9.56836 5.01562C9.66406 5.16602 9.80078 5.24805 9.96484 5.24805C10.0605 5.24805 10.1836 5.23438 10.334 5.23438C10.4707 5.23438 10.6074 5.2207 10.7441 5.2207C10.7441 5.4668 10.7441 5.74023 10.7441 6.04102C10.7441 6.3418 10.7578 6.68359 10.7578 7.06641V10.5527H9.97852C9.78711 10.5527 9.65039 10.6211 9.56836 10.7578C9.48633 10.8945 9.44531 11.0586 9.44531 11.2227ZM14.9551 8.95312C14.7363 8.95312 14.5449 8.99414 14.3809 9.07617C14.2031 9.1582 14.1074 9.28125 14.1074 9.43164C14.0801 9.82812 14.1348 10.1836 14.2441 10.498C14.3535 10.8262 14.5312 11.0996 14.7637 11.3184C14.9824 11.5508 15.2695 11.7285 15.6113 11.8516C15.9395 11.9746 16.3223 12.0293 16.7598 12.0293C17.1699 12.0293 17.5391 11.9883 17.8672 11.8789C18.1953 11.7695 18.4824 11.6191 18.7285 11.4277C18.9609 11.2363 19.1387 11.0039 19.2754 10.7305C19.3984 10.457 19.4668 10.1426 19.4668 9.80078C19.4668 9.25391 19.2891 8.77539 18.9336 8.37891C18.5781 7.99609 18.0312 7.59961 17.3066 7.18945C16.8965 6.98438 16.5684 6.7793 16.3359 6.56055C16.1035 6.35547 15.9941 6.0957 15.9941 5.78125C15.9941 5.54883 16.0625 5.37109 16.2129 5.24805C16.3633 5.13867 16.5684 5.07031 16.8418 5.05664C17.1016 5.05664 17.3066 5.15234 17.457 5.37109C17.6074 5.58984 17.6758 5.89062 17.6484 6.30078C17.6211 6.46484 17.7168 6.60156 17.9082 6.68359C18.0996 6.76562 18.3047 6.80664 18.5234 6.80664C18.7422 6.80664 18.9336 6.76562 19.1113 6.68359C19.2891 6.60156 19.3848 6.47852 19.3848 6.31445C19.3848 5.89062 19.3301 5.52148 19.207 5.19336C19.0703 4.86523 18.8926 4.60547 18.6602 4.38672C18.4277 4.18164 18.1543 4.03125 17.8535 3.92188C17.5391 3.8125 17.1973 3.75781 16.8418 3.75781C16.0352 3.77148 15.4062 3.96289 14.9414 4.33203C14.4766 4.71484 14.2578 5.23438 14.2578 5.91797C14.2578 6.42383 14.4082 6.84766 14.7363 7.18945C15.0508 7.54492 15.5566 7.88672 16.2402 8.22852C16.7598 8.50195 17.1426 8.74805 17.375 8.99414C17.6074 9.24023 17.7305 9.51367 17.7305 9.81445C17.7305 10.1152 17.6348 10.3477 17.4707 10.498C17.293 10.6484 17.0605 10.7305 16.7598 10.7305C16.4727 10.7441 16.2402 10.6484 16.0625 10.457C15.8848 10.2656 15.8027 9.92383 15.8027 9.43164C15.8027 9.28125 15.707 9.1582 15.5293 9.07617C15.3516 8.99414 15.1602 8.95312 14.9551 8.95312ZM20.0547 4.1543V5.52148C20.0547 5.87695 20.0547 6.27344 20.0547 6.71094C20.0547 7.14844 20.0684 7.59961 20.0684 8.03711V11.6465C20.0684 11.7832 20.1367 11.8789 20.3008 11.9473C20.4512 12.0156 20.6289 12.043 20.8477 12.043C20.957 12.043 21.0664 12.043 21.1895 12.0156C21.2988 11.9883 21.4082 11.9609 21.5039 11.9199C21.5859 11.8789 21.668 11.8242 21.7227 11.7695C21.7773 11.7148 21.8047 11.6465 21.8047 11.5645C21.791 11.4824 21.7773 11.3457 21.7773 11.1406C21.7773 10.9492 21.7773 10.7031 21.7773 10.416V8.39258C22.1602 8.37891 22.5156 8.37891 22.8711 8.37891C23.2266 8.37891 23.5957 8.37891 23.9922 8.36523C24.1016 8.36523 24.2109 8.36523 24.3203 8.36523C24.416 8.36523 24.5117 8.35156 24.6211 8.35156C24.8125 8.35156 24.9629 8.2832 25.0586 8.13281C25.1406 7.99609 25.1953 7.83203 25.1953 7.64062C25.1953 7.46289 25.1406 7.29883 25.0449 7.13477C24.9355 6.98438 24.7988 6.91602 24.6074 6.91602C24.3066 6.94336 23.9785 6.95703 23.5957 6.95703C23.2129 6.95703 22.8301 6.95703 22.4473 6.95703C22.3105 6.95703 22.2012 6.9707 22.0918 6.9707C21.9824 6.9707 21.8867 6.9707 21.7773 6.9707C21.7773 6.75195 21.7773 6.56055 21.7773 6.41016C21.7773 6.25977 21.791 6.0957 21.791 5.91797V5.23438C22.1875 5.2207 22.5566 5.2207 22.8984 5.2207C23.2402 5.2207 23.6094 5.2207 24.0059 5.20703C24.0879 5.20703 24.1836 5.20703 24.2793 5.20703C24.3613 5.20703 24.4434 5.19336 24.5254 5.19336C24.7168 5.19336 24.8672 5.125 24.9629 4.97461C25.0586 4.83789 25.1133 4.67383 25.1133 4.48242C25.1133 4.40039 25.0996 4.30469 25.0723 4.22266C25.0449 4.14062 25.0039 4.05859 24.9492 3.99023C24.8945 3.93555 24.8398 3.88086 24.7715 3.83984C24.6895 3.79883 24.6074 3.78516 24.5254 3.78516C24.2109 3.8125 23.8691 3.82617 23.4863 3.82617C23.1035 3.82617 22.707 3.82617 22.3242 3.82617C22.1875 3.82617 22.0645 3.83984 21.9277 3.83984C21.791 3.83984 21.6543 3.83984 21.5312 3.83984C21.4766 3.79883 21.3945 3.77148 21.2988 3.75781C21.2031 3.75781 21.0938 3.74414 20.9707 3.74414C20.7383 3.74414 20.5332 3.78516 20.3418 3.85352C20.1504 3.92188 20.0547 4.01758 20.0547 4.1543ZM26.5215 9.36328C26.4121 9.36328 26.2891 9.37695 26.1797 9.4043C26.0566 9.43164 25.9473 9.45898 25.8516 9.48633C25.7559 9.52734 25.6738 9.56836 25.6191 9.62305C25.5508 9.67773 25.5234 9.71875 25.5234 9.77344C25.5234 10.0195 25.5781 10.2656 25.6602 10.5254C25.7422 10.7988 25.8789 11.0312 26.0703 11.25C26.248 11.4688 26.4941 11.6602 26.7949 11.7969C27.0957 11.9473 27.4648 12.0156 27.916 12.0156C28.3125 12.0156 28.6543 11.9609 28.9551 11.8242C29.2559 11.6875 29.502 11.5098 29.6934 11.291C29.8848 11.0723 30.0352 10.7988 30.1309 10.498C30.2129 10.1973 30.2539 9.85547 30.2539 9.5V4.66016C30.2539 4.57812 30.2266 4.48242 30.1855 4.37305C30.1309 4.26367 30.0762 4.16797 29.9941 4.08594C29.9121 4.00391 29.8164 3.92188 29.707 3.86719C29.5977 3.8125 29.4746 3.78516 29.3379 3.78516C29.2148 3.78516 29.0645 3.79883 28.873 3.79883C28.6816 3.79883 28.4766 3.8125 28.2715 3.8125C28.0527 3.8125 27.8477 3.82617 27.6562 3.82617C27.4648 3.82617 27.3008 3.82617 27.1914 3.82617C27.0547 3.82617 26.9316 3.83984 26.8086 3.83984C26.6855 3.83984 26.5625 3.83984 26.4395 3.83984C26.248 3.83984 26.1113 3.9082 26.0293 4.04492C25.9473 4.18164 25.9062 4.3457 25.9062 4.50977C25.9062 4.70117 25.9473 4.86523 26.0566 5.01562C26.166 5.16602 26.2891 5.24805 26.4531 5.24805C26.6992 5.23438 27 5.2207 27.3555 5.2207C27.6973 5.2207 28.0117 5.2207 28.2988 5.20703H28.5176C28.5176 5.45312 28.5312 5.69922 28.5312 5.95898V9.4043C28.5312 9.82812 28.4766 10.1562 28.3672 10.375C28.2578 10.6074 28.1074 10.7168 27.916 10.7168C27.4785 10.7168 27.2461 10.3613 27.1914 9.63672C27.1777 9.54102 27.1094 9.47266 26.9863 9.43164C26.8496 9.39062 26.6992 9.36328 26.5215 9.36328Z" fill="white"/>
</svg>
