<svg width="41" height="16" viewBox="0 0 41 16" fill="none" xmlns="http://www.w3.org/2000/svg">
<rect width="41" height="16" rx="8" fill="#598EB0"/>
<path d="M9.63086 11.2227C9.63086 11.4141 9.67188 11.5918 9.76758 11.7559C9.84961 11.9199 9.98633 11.9883 10.1777 11.9609C10.6289 11.9473 11.1074 11.9336 11.6133 11.9199C12.1191 11.9199 12.6113 11.9062 13.0762 11.8926H13.4043C13.5957 11.8926 13.7461 11.8242 13.8418 11.6875C13.9375 11.5508 13.9922 11.3867 13.9922 11.209C13.9922 11.0312 13.9375 10.8672 13.8281 10.7031C13.7188 10.5527 13.582 10.4844 13.3906 10.498C13.2812 10.5117 13.1855 10.5254 13.0762 10.5254C12.9668 10.5254 12.8711 10.5254 12.7617 10.5254H12.666V5.19336H13.0488C13.1582 5.19336 13.2812 5.19336 13.3906 5.17969C13.5684 5.16602 13.7051 5.08398 13.8145 4.94727C13.9102 4.81055 13.9648 4.66016 13.9648 4.48242C13.9648 4.31836 13.8965 4.1543 13.7871 4.01758C13.6777 3.88086 13.541 3.79883 13.377 3.78516C13.0488 3.8125 12.6797 3.82617 12.2695 3.82617C11.8594 3.82617 11.4492 3.82617 11.0527 3.82617C10.8887 3.82617 10.7246 3.83984 10.5742 3.83984C10.4102 3.83984 10.2734 3.83984 10.1367 3.83984C9.94531 3.83984 9.80859 3.9082 9.72656 4.04492C9.64453 4.18164 9.60352 4.3457 9.60352 4.50977C9.60352 4.70117 9.64453 4.86523 9.75391 5.01562C9.84961 5.16602 9.98633 5.24805 10.1504 5.24805C10.2461 5.24805 10.3691 5.23438 10.5195 5.23438C10.6562 5.23438 10.793 5.2207 10.9297 5.2207C10.9297 5.4668 10.9297 5.74023 10.9297 6.04102C10.9297 6.3418 10.9434 6.68359 10.9434 7.06641V10.5527H10.1641C9.97266 10.5527 9.83594 10.6211 9.75391 10.7578C9.67188 10.8945 9.63086 11.0586 9.63086 11.2227ZM15.1406 8.95312C14.9219 8.95312 14.7305 8.99414 14.5664 9.07617C14.3887 9.1582 14.293 9.28125 14.293 9.43164C14.2656 9.82812 14.3203 10.1836 14.4297 10.498C14.5391 10.8262 14.7168 11.0996 14.9492 11.3184C15.168 11.5508 15.4551 11.7285 15.7969 11.8516C16.125 11.9746 16.5078 12.0293 16.9453 12.0293C17.3555 12.0293 17.7246 11.9883 18.0527 11.8789C18.3809 11.7695 18.668 11.6191 18.9141 11.4277C19.1465 11.2363 19.3242 11.0039 19.4609 10.7305C19.584 10.457 19.6523 10.1426 19.6523 9.80078C19.6523 9.25391 19.4746 8.77539 19.1191 8.37891C18.7637 7.99609 18.2168 7.59961 17.4922 7.18945C17.082 6.98438 16.7539 6.7793 16.5215 6.56055C16.2891 6.35547 16.1797 6.0957 16.1797 5.78125C16.1797 5.54883 16.248 5.37109 16.3984 5.24805C16.5488 5.13867 16.7539 5.07031 17.0273 5.05664C17.2871 5.05664 17.4922 5.15234 17.6426 5.37109C17.793 5.58984 17.8613 5.89062 17.834 6.30078C17.8066 6.46484 17.9023 6.60156 18.0938 6.68359C18.2852 6.76562 18.4902 6.80664 18.709 6.80664C18.9277 6.80664 19.1191 6.76562 19.2969 6.68359C19.4746 6.60156 19.5703 6.47852 19.5703 6.31445C19.5703 5.89062 19.5156 5.52148 19.3926 5.19336C19.2559 4.86523 19.0781 4.60547 18.8457 4.38672C18.6133 4.18164 18.3398 4.03125 18.0391 3.92188C17.7246 3.8125 17.3828 3.75781 17.0273 3.75781C16.2207 3.77148 15.5918 3.96289 15.127 4.33203C14.6621 4.71484 14.4434 5.23438 14.4434 5.91797C14.4434 6.42383 14.5938 6.84766 14.9219 7.18945C15.2363 7.54492 15.7422 7.88672 16.4258 8.22852C16.9453 8.50195 17.3281 8.74805 17.5605 8.99414C17.793 9.24023 17.916 9.51367 17.916 9.81445C17.916 10.1152 17.8203 10.3477 17.6562 10.498C17.4785 10.6484 17.2461 10.7305 16.9453 10.7305C16.6582 10.7441 16.4258 10.6484 16.248 10.457C16.0703 10.2656 15.9883 9.92383 15.9883 9.43164C15.9883 9.28125 15.8926 9.1582 15.7148 9.07617C15.5371 8.99414 15.3457 8.95312 15.1406 8.95312ZM20.3906 5.24805L21.7852 5.20703C21.7852 5.48047 21.7852 5.78125 21.7852 6.12305C21.7852 6.47852 21.7988 6.86133 21.7988 7.29883C21.7988 7.81836 21.8125 8.35156 21.8125 8.87109V10.3203C21.8125 10.5391 21.7988 10.7305 21.7988 10.8945C21.7988 11.0723 21.7988 11.2227 21.7988 11.3457V11.6602C21.7988 11.7969 21.8672 11.8926 22.0312 11.9473C22.1953 12.0156 22.373 12.043 22.5781 12.043C22.8105 12.043 23.0293 12.002 23.2344 11.9199C23.4258 11.8379 23.5352 11.7285 23.5352 11.5645V11.127C23.5352 10.9219 23.5215 10.6621 23.5215 10.3613C23.5215 10.0605 23.5215 9.74609 23.5215 9.39062V5.17969C23.8223 5.17969 24.0957 5.17969 24.3281 5.17969C24.5469 5.17969 24.752 5.17969 24.9434 5.17969C25.1348 5.17969 25.2715 5.11133 25.3262 4.97461C25.3809 4.83789 25.4082 4.67383 25.4082 4.48242C25.4082 4.30469 25.3672 4.14062 25.3125 4.00391C25.2441 3.86719 25.1211 3.78516 24.9297 3.78516C24.6973 3.8125 24.3828 3.82617 23.9727 3.82617C23.5625 3.82617 23.125 3.83984 22.6738 3.83984C22.2227 3.83984 21.7852 3.83984 21.375 3.83984H20.3906C20.1992 3.83984 20.0898 3.9082 20.0352 4.04492C19.9805 4.18164 19.9668 4.3457 19.9668 4.50977C19.9668 4.70117 19.9941 4.87891 20.0488 5.0293C20.1035 5.17969 20.2266 5.24805 20.3906 5.24805ZM25.9961 4.1543V5.52148C25.9961 5.87695 25.9961 6.27344 25.9961 6.71094C25.9961 7.14844 26.0098 7.59961 26.0098 8.03711V11.6465C26.0098 11.7832 26.0781 11.8789 26.2422 11.9473C26.3926 12.0156 26.5703 12.043 26.7891 12.043C26.8984 12.043 27.0078 12.043 27.1309 12.0156C27.2402 11.9883 27.3496 11.9609 27.4453 11.9199C27.5273 11.8789 27.6094 11.8242 27.6641 11.7695C27.7188 11.7148 27.7461 11.6465 27.7461 11.5645C27.7324 11.4961 27.7188 11.3594 27.7188 11.168C27.7188 10.9766 27.7188 10.7578 27.7188 10.4844V8.55664C27.7734 8.57031 27.8418 8.57031 27.8965 8.57031H28.1016C28.1699 8.57031 28.2383 8.57031 28.3066 8.57031C28.3613 8.57031 28.4297 8.55664 28.5117 8.55664C28.9766 8.54297 29.373 8.46094 29.7285 8.29688C30.0703 8.13281 30.3574 7.94141 30.5898 7.69531C30.8086 7.44922 30.9863 7.18945 31.0957 6.91602C31.2051 6.64258 31.2734 6.36914 31.2734 6.0957C31.2734 5.74023 31.2051 5.41211 31.0684 5.125C30.9316 4.85156 30.7266 4.60547 30.4805 4.40039C30.2207 4.20898 29.9199 4.04492 29.5645 3.93555C29.209 3.82617 28.8262 3.77148 28.4023 3.74414C28.2383 3.74414 28.0742 3.74414 27.8828 3.75781C27.6914 3.77148 27.5273 3.78516 27.377 3.79883C27.2949 3.77148 27.2266 3.75781 27.1582 3.75781C27.0898 3.75781 27.0078 3.74414 26.9258 3.74414C26.6934 3.74414 26.4746 3.78516 26.2832 3.85352C26.0918 3.92188 25.9961 4.01758 25.9961 4.1543ZM27.7324 5.05664C27.8418 5.04297 27.9648 5.0293 28.0742 5.0293C28.1836 5.0293 28.2793 5.04297 28.375 5.04297C28.7441 5.07031 29.0312 5.15234 29.2363 5.31641C29.4277 5.48047 29.5371 5.72656 29.5371 6.06836C29.5371 6.41016 29.4414 6.68359 29.25 6.90234C29.0586 7.12109 28.7988 7.24414 28.4844 7.25781C28.4023 7.25781 28.334 7.27148 28.2656 7.27148C28.1973 7.27148 28.1289 7.27148 28.0742 7.27148H27.8965C27.8418 7.27148 27.7734 7.27148 27.7188 7.25781C27.7188 6.9707 27.7188 6.72461 27.7188 6.50586C27.7188 6.30078 27.7324 6.08203 27.7324 5.86328V5.05664Z" fill="white"/>
</svg>
