<svg width="41" height="16" viewBox="0 0 41 16" fill="none" xmlns="http://www.w3.org/2000/svg">
<rect width="41" height="16" rx="8" fill="#407965"/>
<path d="M8.50879 11.2227C8.50879 11.4141 8.5498 11.5918 8.64551 11.7559C8.72754 11.9199 8.86426 11.9883 9.05566 11.9609C9.50684 11.9473 9.98535 11.9336 10.4912 11.9199C10.9971 11.9199 11.4893 11.9062 11.9541 11.8926H12.2822C12.4736 11.8926 12.624 11.8242 12.7197 11.6875C12.8154 11.5508 12.8701 11.3867 12.8701 11.209C12.8701 11.0312 12.8154 10.8672 12.7061 10.7031C12.5967 10.5527 12.46 10.4844 12.2686 10.498C12.1592 10.5117 12.0635 10.5254 11.9541 10.5254C11.8447 10.5254 11.749 10.5254 11.6396 10.5254H11.5439V5.19336H11.9268C12.0361 5.19336 12.1592 5.19336 12.2686 5.17969C12.4463 5.16602 12.583 5.08398 12.6924 4.94727C12.7881 4.81055 12.8428 4.66016 12.8428 4.48242C12.8428 4.31836 12.7744 4.1543 12.665 4.01758C12.5557 3.88086 12.4189 3.79883 12.2549 3.78516C11.9268 3.8125 11.5576 3.82617 11.1475 3.82617C10.7373 3.82617 10.3271 3.82617 9.93066 3.82617C9.7666 3.82617 9.60254 3.83984 9.45215 3.83984C9.28809 3.83984 9.15137 3.83984 9.01465 3.83984C8.82324 3.83984 8.68652 3.9082 8.60449 4.04492C8.52246 4.18164 8.48145 4.3457 8.48145 4.50977C8.48145 4.70117 8.52246 4.86523 8.63184 5.01562C8.72754 5.16602 8.86426 5.24805 9.02832 5.24805C9.12402 5.24805 9.24707 5.23438 9.39746 5.23438C9.53418 5.23438 9.6709 5.2207 9.80762 5.2207C9.80762 5.4668 9.80762 5.74023 9.80762 6.04102C9.80762 6.3418 9.82129 6.68359 9.82129 7.06641V10.5527H9.04199C8.85059 10.5527 8.71387 10.6211 8.63184 10.7578C8.5498 10.8945 8.50879 11.0586 8.50879 11.2227ZM17.6826 4.1543V5.13867C17.6826 5.57617 17.6826 6.0957 17.6826 6.66992C17.6826 7.24414 17.6963 7.83203 17.6963 8.43359C17.5596 8.24219 17.4502 8.05078 17.3408 7.87305C17.2314 7.69531 17.1084 7.51758 16.999 7.32617C16.8896 7.14844 16.7666 6.95703 16.6436 6.75195C16.5068 6.54688 16.3701 6.31445 16.2197 6.06836C15.9189 5.60352 15.6592 5.17969 15.4131 4.79688C15.167 4.41406 15.0029 4.14062 14.9072 3.94922C14.7979 3.8125 14.5928 3.74414 14.3193 3.74414C14.1006 3.74414 13.9092 3.78516 13.7178 3.86719C13.5264 3.94922 13.4307 4.07227 13.4307 4.22266V5.58984C13.4307 5.94531 13.4307 6.3418 13.4307 6.76562C13.4307 7.20312 13.4443 7.64062 13.4443 8.07812V11.6465C13.4443 11.7832 13.5127 11.8789 13.6768 11.9473C13.8408 12.0156 14.0186 12.043 14.2236 12.043C14.4424 12.043 14.6475 12.002 14.8525 11.9062C15.0439 11.8242 15.1533 11.7012 15.1807 11.5645C15.167 11.4414 15.1533 11.1543 15.1533 10.6895C15.1533 10.2383 15.1533 9.71875 15.1533 9.11719C15.1533 8.81641 15.1533 8.51562 15.1533 8.21484C15.1533 7.91406 15.167 7.61328 15.167 7.28516C15.4131 7.66797 15.6729 8.0918 15.96 8.5293C16.2334 8.98047 16.5068 9.41797 16.7803 9.8418C17.04 10.2656 17.2861 10.6484 17.5049 11.0039C17.7236 11.3594 17.8877 11.6465 18.0244 11.8379H18.0107C18.0518 11.9199 18.1201 11.9609 18.2295 11.9883C18.3252 12.0156 18.4482 12.0293 18.585 12.0293C18.6807 12.0293 18.7764 12.0293 18.8857 12.002C18.9814 11.9746 19.0771 11.9473 19.1592 11.9062C19.2412 11.8652 19.2959 11.8105 19.3506 11.7559C19.4053 11.7012 19.4326 11.6465 19.4326 11.5645C19.4053 11.4551 19.4053 11.209 19.4053 10.8535V7.98242C19.4053 7.42188 19.4053 6.875 19.4189 6.35547V4.12695C19.4189 3.99023 19.3369 3.89453 19.1729 3.83984C19.0088 3.78516 18.8311 3.74414 18.626 3.74414C18.3799 3.74414 18.1611 3.78516 17.9697 3.85352C17.7783 3.92188 17.6826 4.01758 17.6826 4.1543ZM20.3213 4.1543V5.52148C20.3213 5.87695 20.3213 6.27344 20.3213 6.71094C20.3213 7.14844 20.335 7.59961 20.335 8.03711V11.6465C20.335 11.7832 20.4033 11.8789 20.5674 11.9473C20.7178 12.0156 20.8955 12.043 21.1143 12.043C21.2236 12.043 21.333 12.043 21.4561 12.0156C21.5654 11.9883 21.6748 11.9609 21.7705 11.9199C21.8525 11.8789 21.9346 11.8242 21.9893 11.7695C22.0439 11.7148 22.0713 11.6465 22.0713 11.5645C22.0576 11.4824 22.0439 11.3457 22.0439 11.1406C22.0439 10.9492 22.0439 10.7031 22.0439 10.416V8.39258C22.4268 8.37891 22.7822 8.37891 23.1377 8.37891C23.4932 8.37891 23.8623 8.37891 24.2588 8.36523C24.3682 8.36523 24.4775 8.36523 24.5869 8.36523C24.6826 8.36523 24.7783 8.35156 24.8877 8.35156C25.0791 8.35156 25.2295 8.2832 25.3252 8.13281C25.4072 7.99609 25.4619 7.83203 25.4619 7.64062C25.4619 7.46289 25.4072 7.29883 25.3115 7.13477C25.2021 6.98438 25.0654 6.91602 24.874 6.91602C24.5732 6.94336 24.2451 6.95703 23.8623 6.95703C23.4795 6.95703 23.0967 6.95703 22.7139 6.95703C22.5771 6.95703 22.4678 6.9707 22.3584 6.9707C22.249 6.9707 22.1533 6.9707 22.0439 6.9707C22.0439 6.75195 22.0439 6.56055 22.0439 6.41016C22.0439 6.25977 22.0576 6.0957 22.0576 5.91797V5.23438C22.4541 5.2207 22.8232 5.2207 23.165 5.2207C23.5068 5.2207 23.876 5.2207 24.2725 5.20703C24.3545 5.20703 24.4502 5.20703 24.5459 5.20703C24.6279 5.20703 24.71 5.19336 24.792 5.19336C24.9834 5.19336 25.1338 5.125 25.2295 4.97461C25.3252 4.83789 25.3799 4.67383 25.3799 4.48242C25.3799 4.40039 25.3662 4.30469 25.3389 4.22266C25.3115 4.14062 25.2705 4.05859 25.2158 3.99023C25.1611 3.93555 25.1064 3.88086 25.0381 3.83984C24.9561 3.79883 24.874 3.78516 24.792 3.78516C24.4775 3.8125 24.1357 3.82617 23.7529 3.82617C23.3701 3.82617 22.9736 3.82617 22.5908 3.82617C22.4541 3.82617 22.3311 3.83984 22.1943 3.83984C22.0576 3.83984 21.9209 3.83984 21.7979 3.83984C21.7432 3.79883 21.6611 3.77148 21.5654 3.75781C21.4697 3.75781 21.3604 3.74414 21.2373 3.74414C21.0049 3.74414 20.7998 3.78516 20.6084 3.85352C20.417 3.92188 20.3213 4.01758 20.3213 4.1543ZM26.1182 4.1543V5.52148C26.1182 5.87695 26.1182 6.27344 26.1182 6.71094C26.1182 7.14844 26.1318 7.59961 26.1318 8.03711V11.6465C26.1318 11.7832 26.2002 11.8789 26.3643 11.9473C26.5146 12.0156 26.6924 12.043 26.9111 12.043C27.0205 12.043 27.1299 12.043 27.2529 12.0156C27.3623 11.9883 27.4717 11.9609 27.5674 11.9199C27.6494 11.8789 27.7314 11.8242 27.7861 11.7695C27.8408 11.7148 27.8682 11.6465 27.8682 11.5645C27.8545 11.4961 27.8408 11.3594 27.8408 11.168C27.8408 10.9766 27.8408 10.7578 27.8408 10.4844V8.55664C27.8955 8.57031 27.9639 8.57031 28.0186 8.57031H28.2236C28.292 8.57031 28.3604 8.57031 28.4287 8.57031C28.4834 8.57031 28.5518 8.55664 28.6338 8.55664C29.0986 8.54297 29.4951 8.46094 29.8506 8.29688C30.1924 8.13281 30.4795 7.94141 30.7119 7.69531C30.9307 7.44922 31.1084 7.18945 31.2178 6.91602C31.3271 6.64258 31.3955 6.36914 31.3955 6.0957C31.3955 5.74023 31.3271 5.41211 31.1904 5.125C31.0537 4.85156 30.8486 4.60547 30.6025 4.40039C30.3428 4.20898 30.042 4.04492 29.6865 3.93555C29.3311 3.82617 28.9482 3.77148 28.5244 3.74414C28.3604 3.74414 28.1963 3.74414 28.0049 3.75781C27.8135 3.77148 27.6494 3.78516 27.499 3.79883C27.417 3.77148 27.3486 3.75781 27.2803 3.75781C27.2119 3.75781 27.1299 3.74414 27.0479 3.74414C26.8154 3.74414 26.5967 3.78516 26.4053 3.85352C26.2139 3.92188 26.1182 4.01758 26.1182 4.1543ZM27.8545 5.05664C27.9639 5.04297 28.0869 5.0293 28.1963 5.0293C28.3057 5.0293 28.4014 5.04297 28.4971 5.04297C28.8662 5.07031 29.1533 5.15234 29.3584 5.31641C29.5498 5.48047 29.6592 5.72656 29.6592 6.06836C29.6592 6.41016 29.5635 6.68359 29.3721 6.90234C29.1807 7.12109 28.9209 7.24414 28.6064 7.25781C28.5244 7.25781 28.4561 7.27148 28.3877 7.27148C28.3193 7.27148 28.251 7.27148 28.1963 7.27148H28.0186C27.9639 7.27148 27.8955 7.27148 27.8408 7.25781C27.8408 6.9707 27.8408 6.72461 27.8408 6.50586C27.8408 6.30078 27.8545 6.08203 27.8545 5.86328V5.05664Z" fill="white"/>
</svg>
