<svg width="41" height="16" viewBox="0 0 41 16" fill="none" xmlns="http://www.w3.org/2000/svg">
<rect width="41" height="16" rx="8" fill="#CC604A"/>
<path d="M8.6875 4.1543V5.52148C8.6875 5.87695 8.6875 6.27344 8.6875 6.71094C8.6875 7.14844 8.70117 7.59961 8.70117 8.03711V11.6465C8.70117 11.7832 8.76953 11.8926 8.93359 11.9473C9.08398 12.0156 9.26172 12.043 9.48047 12.043C9.5625 12.043 9.6582 12.043 9.75391 12.0293C9.84961 12.0293 9.94531 12.002 10.0273 11.9609C10.4375 11.9473 10.9023 11.9336 11.3945 11.9199C11.8867 11.9199 12.3516 11.9062 12.8164 11.8926H13.2949C13.4863 11.8926 13.6367 11.8242 13.7324 11.6875C13.8145 11.5508 13.8691 11.3867 13.8691 11.209C13.8691 11.0312 13.8145 10.8672 13.7188 10.7031C13.6094 10.5527 13.4727 10.4844 13.2812 10.498C12.9805 10.5254 12.6387 10.5391 12.2559 10.5391C11.873 10.5391 11.4766 10.5391 11.0938 10.5391C10.957 10.5391 10.8477 10.5527 10.7383 10.5527C10.6289 10.5527 10.5332 10.5527 10.4238 10.5527C10.4102 10.2383 10.4102 9.89648 10.4102 9.52734V8.29688C10.8613 8.29688 11.2715 8.2832 11.627 8.2832C11.9824 8.2832 12.3926 8.26953 12.8301 8.25586C13.0215 8.25586 13.1582 8.1875 13.2539 8.05078C13.3496 7.91406 13.4043 7.75 13.4043 7.55859C13.4043 7.47656 13.3906 7.38086 13.3633 7.29883C13.3359 7.2168 13.2949 7.13477 13.2402 7.06641C13.1855 7.01172 13.1309 6.95703 13.0625 6.91602C12.9805 6.875 12.8984 6.86133 12.8164 6.86133C12.5156 6.88867 12.2148 6.90234 11.9004 6.90234C11.5723 6.90234 11.2578 6.90234 10.9434 6.90234C10.8477 6.90234 10.752 6.91602 10.6699 6.91602C10.5879 6.91602 10.4922 6.91602 10.4102 6.91602C10.4102 6.69727 10.4102 6.50586 10.4102 6.35547C10.4102 6.21875 10.4238 6.05469 10.4238 5.87695V5.2207C10.8203 5.20703 11.1895 5.20703 11.5312 5.20703C11.873 5.20703 12.2422 5.20703 12.6387 5.19336C12.7207 5.19336 12.8164 5.19336 12.9121 5.19336C12.9941 5.19336 13.0898 5.17969 13.1719 5.17969C13.3633 5.17969 13.5 5.11133 13.5957 4.97461C13.6914 4.83789 13.7461 4.67383 13.7461 4.48242C13.7461 4.40039 13.7324 4.30469 13.7051 4.22266C13.6777 4.14062 13.6367 4.05859 13.582 3.99023C13.5273 3.93555 13.4727 3.88086 13.4043 3.83984C13.3223 3.79883 13.2402 3.78516 13.1582 3.78516C12.8574 3.8125 12.502 3.82617 12.1191 3.82617C11.7363 3.82617 11.3398 3.82617 10.957 3.82617C10.8203 3.82617 10.6973 3.83984 10.5605 3.83984C10.4238 3.83984 10.2871 3.83984 10.1641 3.83984C10.1094 3.79883 10.0273 3.77148 9.93164 3.75781C9.83594 3.75781 9.72656 3.74414 9.60352 3.74414C9.37109 3.74414 9.16602 3.78516 8.97461 3.85352C8.7832 3.92188 8.6875 4.01758 8.6875 4.1543ZM18.7773 4.1543V5.13867C18.7773 5.57617 18.7773 6.0957 18.7773 6.66992C18.7773 7.24414 18.791 7.83203 18.791 8.43359C18.6543 8.24219 18.5449 8.05078 18.4355 7.87305C18.3262 7.69531 18.2031 7.51758 18.0938 7.32617C17.9844 7.14844 17.8613 6.95703 17.7383 6.75195C17.6016 6.54688 17.4648 6.31445 17.3145 6.06836C17.0137 5.60352 16.7539 5.17969 16.5078 4.79688C16.2617 4.41406 16.0977 4.14062 16.002 3.94922C15.8926 3.8125 15.6875 3.74414 15.4141 3.74414C15.1953 3.74414 15.0039 3.78516 14.8125 3.86719C14.6211 3.94922 14.5254 4.07227 14.5254 4.22266V5.58984C14.5254 5.94531 14.5254 6.3418 14.5254 6.76562C14.5254 7.20312 14.5391 7.64062 14.5391 8.07812V11.6465C14.5391 11.7832 14.6074 11.8789 14.7715 11.9473C14.9355 12.0156 15.1133 12.043 15.3184 12.043C15.5371 12.043 15.7422 12.002 15.9473 11.9062C16.1387 11.8242 16.248 11.7012 16.2754 11.5645C16.2617 11.4414 16.248 11.1543 16.248 10.6895C16.248 10.2383 16.248 9.71875 16.248 9.11719C16.248 8.81641 16.248 8.51562 16.248 8.21484C16.248 7.91406 16.2617 7.61328 16.2617 7.28516C16.5078 7.66797 16.7676 8.0918 17.0547 8.5293C17.3281 8.98047 17.6016 9.41797 17.875 9.8418C18.1348 10.2656 18.3809 10.6484 18.5996 11.0039C18.8184 11.3594 18.9824 11.6465 19.1191 11.8379H19.1055C19.1465 11.9199 19.2148 11.9609 19.3242 11.9883C19.4199 12.0156 19.543 12.0293 19.6797 12.0293C19.7754 12.0293 19.8711 12.0293 19.9805 12.002C20.0762 11.9746 20.1719 11.9473 20.2539 11.9062C20.3359 11.8652 20.3906 11.8105 20.4453 11.7559C20.5 11.7012 20.5273 11.6465 20.5273 11.5645C20.5 11.4551 20.5 11.209 20.5 10.8535V7.98242C20.5 7.42188 20.5 6.875 20.5137 6.35547V4.12695C20.5137 3.99023 20.4316 3.89453 20.2676 3.83984C20.1035 3.78516 19.9258 3.74414 19.7207 3.74414C19.4746 3.74414 19.2559 3.78516 19.0645 3.85352C18.873 3.92188 18.7773 4.01758 18.7773 4.1543ZM21.5664 5.24805L22.9609 5.20703C22.9609 5.48047 22.9609 5.78125 22.9609 6.12305C22.9609 6.47852 22.9746 6.86133 22.9746 7.29883C22.9746 7.81836 22.9883 8.35156 22.9883 8.87109V10.3203C22.9883 10.5391 22.9746 10.7305 22.9746 10.8945C22.9746 11.0723 22.9746 11.2227 22.9746 11.3457V11.6602C22.9746 11.7969 23.043 11.8926 23.207 11.9473C23.3711 12.0156 23.5488 12.043 23.7539 12.043C23.9863 12.043 24.2051 12.002 24.4102 11.9199C24.6016 11.8379 24.7109 11.7285 24.7109 11.5645V11.127C24.7109 10.9219 24.6973 10.6621 24.6973 10.3613C24.6973 10.0605 24.6973 9.74609 24.6973 9.39062V5.17969C24.998 5.17969 25.2715 5.17969 25.5039 5.17969C25.7227 5.17969 25.9277 5.17969 26.1191 5.17969C26.3105 5.17969 26.4473 5.11133 26.502 4.97461C26.5566 4.83789 26.584 4.67383 26.584 4.48242C26.584 4.30469 26.543 4.14062 26.4883 4.00391C26.4199 3.86719 26.2969 3.78516 26.1055 3.78516C25.873 3.8125 25.5586 3.82617 25.1484 3.82617C24.7383 3.82617 24.3008 3.83984 23.8496 3.83984C23.3984 3.83984 22.9609 3.83984 22.5508 3.83984H21.5664C21.375 3.83984 21.2656 3.9082 21.2109 4.04492C21.1562 4.18164 21.1426 4.3457 21.1426 4.50977C21.1426 4.70117 21.1699 4.87891 21.2246 5.0293C21.2793 5.17969 21.4023 5.24805 21.5664 5.24805ZM27.1719 4.1543V5.52148C27.1719 5.87695 27.1719 6.27344 27.1719 6.71094C27.1719 7.14844 27.1855 7.59961 27.1855 8.03711V11.6465C27.1855 11.7832 27.2539 11.8789 27.418 11.9473C27.5684 12.0156 27.7461 12.043 27.9648 12.043C28.0742 12.043 28.1836 12.043 28.3066 12.0156C28.416 11.9883 28.5254 11.9609 28.6211 11.9199C28.7031 11.8789 28.7852 11.8242 28.8398 11.7695C28.8945 11.7148 28.9219 11.6465 28.9219 11.5645C28.9082 11.4961 28.8945 11.3594 28.8945 11.168C28.8945 10.9766 28.8945 10.7578 28.8945 10.4844V8.55664C28.9492 8.57031 29.0176 8.57031 29.0723 8.57031H29.2773C29.3457 8.57031 29.4141 8.57031 29.4824 8.57031C29.5371 8.57031 29.6055 8.55664 29.6875 8.55664C30.1523 8.54297 30.5488 8.46094 30.9043 8.29688C31.2461 8.13281 31.5332 7.94141 31.7656 7.69531C31.9844 7.44922 32.1621 7.18945 32.2715 6.91602C32.3809 6.64258 32.4492 6.36914 32.4492 6.0957C32.4492 5.74023 32.3809 5.41211 32.2441 5.125C32.1074 4.85156 31.9023 4.60547 31.6562 4.40039C31.3965 4.20898 31.0957 4.04492 30.7402 3.93555C30.3848 3.82617 30.002 3.77148 29.5781 3.74414C29.4141 3.74414 29.25 3.74414 29.0586 3.75781C28.8672 3.77148 28.7031 3.78516 28.5527 3.79883C28.4707 3.77148 28.4023 3.75781 28.334 3.75781C28.2656 3.75781 28.1836 3.74414 28.1016 3.74414C27.8691 3.74414 27.6504 3.78516 27.459 3.85352C27.2676 3.92188 27.1719 4.01758 27.1719 4.1543ZM28.9082 5.05664C29.0176 5.04297 29.1406 5.0293 29.25 5.0293C29.3594 5.0293 29.4551 5.04297 29.5508 5.04297C29.9199 5.07031 30.207 5.15234 30.4121 5.31641C30.6035 5.48047 30.7129 5.72656 30.7129 6.06836C30.7129 6.41016 30.6172 6.68359 30.4258 6.90234C30.2344 7.12109 29.9746 7.24414 29.6602 7.25781C29.5781 7.25781 29.5098 7.27148 29.4414 7.27148C29.373 7.27148 29.3047 7.27148 29.25 7.27148H29.0723C29.0176 7.27148 28.9492 7.27148 28.8945 7.25781C28.8945 6.9707 28.8945 6.72461 28.8945 6.50586C28.8945 6.30078 28.9082 6.08203 28.9082 5.86328V5.05664Z" fill="white"/>
</svg>
