<svg width="41" height="16" viewBox="0 0 41 16" fill="none" xmlns="http://www.w3.org/2000/svg">
<rect width="41" height="16" rx="8" fill="#60774F"/>
<path d="M9.62402 4.1543V5.52148C9.62402 5.87695 9.62402 6.27344 9.62402 6.71094C9.62402 7.14844 9.6377 7.59961 9.6377 8.03711V11.6465C9.6377 11.7832 9.70605 11.8926 9.87012 11.9473C10.0205 12.0156 10.1982 12.043 10.417 12.043C10.499 12.043 10.5947 12.043 10.6904 12.0293C10.7861 12.0293 10.8818 12.002 10.9639 11.9609C11.374 11.9473 11.8389 11.9336 12.3311 11.9199C12.8232 11.9199 13.2881 11.9062 13.7529 11.8926H14.2314C14.4229 11.8926 14.5732 11.8242 14.6689 11.6875C14.751 11.5508 14.8057 11.3867 14.8057 11.209C14.8057 11.0312 14.751 10.8672 14.6553 10.7031C14.5459 10.5527 14.4092 10.4844 14.2178 10.498C13.917 10.5254 13.5752 10.5391 13.1924 10.5391C12.8096 10.5391 12.4131 10.5391 12.0303 10.5391C11.8936 10.5391 11.7842 10.5527 11.6748 10.5527C11.5654 10.5527 11.4697 10.5527 11.3604 10.5527C11.3467 10.2383 11.3467 9.89648 11.3467 9.52734V8.29688C11.7979 8.29688 12.208 8.2832 12.5635 8.2832C12.9189 8.2832 13.3291 8.26953 13.7666 8.25586C13.958 8.25586 14.0947 8.1875 14.1904 8.05078C14.2861 7.91406 14.3408 7.75 14.3408 7.55859C14.3408 7.47656 14.3271 7.38086 14.2998 7.29883C14.2725 7.2168 14.2314 7.13477 14.1768 7.06641C14.1221 7.01172 14.0674 6.95703 13.999 6.91602C13.917 6.875 13.835 6.86133 13.7529 6.86133C13.4521 6.88867 13.1514 6.90234 12.8369 6.90234C12.5088 6.90234 12.1943 6.90234 11.8799 6.90234C11.7842 6.90234 11.6885 6.91602 11.6064 6.91602C11.5244 6.91602 11.4287 6.91602 11.3467 6.91602C11.3467 6.69727 11.3467 6.50586 11.3467 6.35547C11.3467 6.21875 11.3604 6.05469 11.3604 5.87695V5.2207C11.7568 5.20703 12.126 5.20703 12.4678 5.20703C12.8096 5.20703 13.1787 5.20703 13.5752 5.19336C13.6572 5.19336 13.7529 5.19336 13.8486 5.19336C13.9307 5.19336 14.0264 5.17969 14.1084 5.17969C14.2998 5.17969 14.4365 5.11133 14.5322 4.97461C14.6279 4.83789 14.6826 4.67383 14.6826 4.48242C14.6826 4.40039 14.6689 4.30469 14.6416 4.22266C14.6143 4.14062 14.5732 4.05859 14.5186 3.99023C14.4639 3.93555 14.4092 3.88086 14.3408 3.83984C14.2588 3.79883 14.1768 3.78516 14.0947 3.78516C13.7939 3.8125 13.4385 3.82617 13.0557 3.82617C12.6729 3.82617 12.2764 3.82617 11.8936 3.82617C11.7568 3.82617 11.6338 3.83984 11.4971 3.83984C11.3604 3.83984 11.2236 3.83984 11.1006 3.83984C11.0459 3.79883 10.9639 3.77148 10.8682 3.75781C10.7725 3.75781 10.6631 3.74414 10.54 3.74414C10.3076 3.74414 10.1025 3.78516 9.91113 3.85352C9.71973 3.92188 9.62402 4.01758 9.62402 4.1543ZM16.0498 8.95312C15.8311 8.95312 15.6396 8.99414 15.4756 9.07617C15.2979 9.1582 15.2021 9.28125 15.2021 9.43164C15.1748 9.82812 15.2295 10.1836 15.3389 10.498C15.4482 10.8262 15.626 11.0996 15.8584 11.3184C16.0771 11.5508 16.3643 11.7285 16.7061 11.8516C17.0342 11.9746 17.417 12.0293 17.8545 12.0293C18.2646 12.0293 18.6338 11.9883 18.9619 11.8789C19.29 11.7695 19.5771 11.6191 19.8232 11.4277C20.0557 11.2363 20.2334 11.0039 20.3701 10.7305C20.4932 10.457 20.5615 10.1426 20.5615 9.80078C20.5615 9.25391 20.3838 8.77539 20.0283 8.37891C19.6729 7.99609 19.126 7.59961 18.4014 7.18945C17.9912 6.98438 17.6631 6.7793 17.4307 6.56055C17.1982 6.35547 17.0889 6.0957 17.0889 5.78125C17.0889 5.54883 17.1572 5.37109 17.3076 5.24805C17.458 5.13867 17.6631 5.07031 17.9365 5.05664C18.1963 5.05664 18.4014 5.15234 18.5518 5.37109C18.7021 5.58984 18.7705 5.89062 18.7432 6.30078C18.7158 6.46484 18.8115 6.60156 19.0029 6.68359C19.1943 6.76562 19.3994 6.80664 19.6182 6.80664C19.8369 6.80664 20.0283 6.76562 20.2061 6.68359C20.3838 6.60156 20.4795 6.47852 20.4795 6.31445C20.4795 5.89062 20.4248 5.52148 20.3018 5.19336C20.165 4.86523 19.9873 4.60547 19.7549 4.38672C19.5225 4.18164 19.249 4.03125 18.9482 3.92188C18.6338 3.8125 18.292 3.75781 17.9365 3.75781C17.1299 3.77148 16.501 3.96289 16.0361 4.33203C15.5713 4.71484 15.3525 5.23438 15.3525 5.91797C15.3525 6.42383 15.5029 6.84766 15.8311 7.18945C16.1455 7.54492 16.6514 7.88672 17.335 8.22852C17.8545 8.50195 18.2373 8.74805 18.4697 8.99414C18.7021 9.24023 18.8252 9.51367 18.8252 9.81445C18.8252 10.1152 18.7295 10.3477 18.5654 10.498C18.3877 10.6484 18.1553 10.7305 17.8545 10.7305C17.5674 10.7441 17.335 10.6484 17.1572 10.457C16.9795 10.2656 16.8975 9.92383 16.8975 9.43164C16.8975 9.28125 16.8018 9.1582 16.624 9.07617C16.4463 8.99414 16.2549 8.95312 16.0498 8.95312ZM21.2998 5.24805L22.6943 5.20703C22.6943 5.48047 22.6943 5.78125 22.6943 6.12305C22.6943 6.47852 22.708 6.86133 22.708 7.29883C22.708 7.81836 22.7217 8.35156 22.7217 8.87109V10.3203C22.7217 10.5391 22.708 10.7305 22.708 10.8945C22.708 11.0723 22.708 11.2227 22.708 11.3457V11.6602C22.708 11.7969 22.7764 11.8926 22.9404 11.9473C23.1045 12.0156 23.2822 12.043 23.4873 12.043C23.7197 12.043 23.9385 12.002 24.1436 11.9199C24.335 11.8379 24.4443 11.7285 24.4443 11.5645V11.127C24.4443 10.9219 24.4307 10.6621 24.4307 10.3613C24.4307 10.0605 24.4307 9.74609 24.4307 9.39062V5.17969C24.7314 5.17969 25.0049 5.17969 25.2373 5.17969C25.4561 5.17969 25.6611 5.17969 25.8525 5.17969C26.0439 5.17969 26.1807 5.11133 26.2354 4.97461C26.29 4.83789 26.3174 4.67383 26.3174 4.48242C26.3174 4.30469 26.2764 4.14062 26.2217 4.00391C26.1533 3.86719 26.0303 3.78516 25.8389 3.78516C25.6064 3.8125 25.292 3.82617 24.8818 3.82617C24.4717 3.82617 24.0342 3.83984 23.583 3.83984C23.1318 3.83984 22.6943 3.83984 22.2842 3.83984H21.2998C21.1084 3.83984 20.999 3.9082 20.9443 4.04492C20.8896 4.18164 20.876 4.3457 20.876 4.50977C20.876 4.70117 20.9033 4.87891 20.958 5.0293C21.0127 5.17969 21.1357 5.24805 21.2998 5.24805ZM27.5752 9.36328C27.4658 9.36328 27.3428 9.37695 27.2334 9.4043C27.1104 9.43164 27.001 9.45898 26.9053 9.48633C26.8096 9.52734 26.7275 9.56836 26.6729 9.62305C26.6045 9.67773 26.5771 9.71875 26.5771 9.77344C26.5771 10.0195 26.6318 10.2656 26.7139 10.5254C26.7959 10.7988 26.9326 11.0312 27.124 11.25C27.3018 11.4688 27.5479 11.6602 27.8486 11.7969C28.1494 11.9473 28.5186 12.0156 28.9697 12.0156C29.3662 12.0156 29.708 11.9609 30.0088 11.8242C30.3096 11.6875 30.5557 11.5098 30.7471 11.291C30.9385 11.0723 31.0889 10.7988 31.1846 10.498C31.2666 10.1973 31.3076 9.85547 31.3076 9.5V4.66016C31.3076 4.57812 31.2803 4.48242 31.2393 4.37305C31.1846 4.26367 31.1299 4.16797 31.0479 4.08594C30.9658 4.00391 30.8701 3.92188 30.7607 3.86719C30.6514 3.8125 30.5283 3.78516 30.3916 3.78516C30.2686 3.78516 30.1182 3.79883 29.9268 3.79883C29.7354 3.79883 29.5303 3.8125 29.3252 3.8125C29.1064 3.8125 28.9014 3.82617 28.71 3.82617C28.5186 3.82617 28.3545 3.82617 28.2451 3.82617C28.1084 3.82617 27.9854 3.83984 27.8623 3.83984C27.7393 3.83984 27.6162 3.83984 27.4932 3.83984C27.3018 3.83984 27.165 3.9082 27.083 4.04492C27.001 4.18164 26.96 4.3457 26.96 4.50977C26.96 4.70117 27.001 4.86523 27.1104 5.01562C27.2197 5.16602 27.3428 5.24805 27.5068 5.24805C27.7529 5.23438 28.0537 5.2207 28.4092 5.2207C28.751 5.2207 29.0654 5.2207 29.3525 5.20703H29.5713C29.5713 5.45312 29.585 5.69922 29.585 5.95898V9.4043C29.585 9.82812 29.5303 10.1562 29.4209 10.375C29.3115 10.6074 29.1611 10.7168 28.9697 10.7168C28.5322 10.7168 28.2998 10.3613 28.2451 9.63672C28.2314 9.54102 28.1631 9.47266 28.04 9.43164C27.9033 9.39062 27.7529 9.36328 27.5752 9.36328Z" fill="white"/>
</svg>
