<svg width="41" height="16" viewBox="0 0 41 16" fill="none" xmlns="http://www.w3.org/2000/svg">
<rect width="41" height="16" rx="8" fill="#8EC0EF"/>
<path d="M8.5293 11.2227C8.5293 11.4141 8.57031 11.5918 8.66602 11.7559C8.74805 11.9199 8.88477 11.9883 9.07617 11.9609C9.52734 11.9473 10.0059 11.9336 10.5117 11.9199C11.0176 11.9199 11.5098 11.9062 11.9746 11.8926H12.3027C12.4941 11.8926 12.6445 11.8242 12.7402 11.6875C12.8359 11.5508 12.8906 11.3867 12.8906 11.209C12.8906 11.0312 12.8359 10.8672 12.7266 10.7031C12.6172 10.5527 12.4805 10.4844 12.2891 10.498C12.1797 10.5117 12.084 10.5254 11.9746 10.5254C11.8652 10.5254 11.7695 10.5254 11.6602 10.5254H11.5645V5.19336H11.9473C12.0566 5.19336 12.1797 5.19336 12.2891 5.17969C12.4668 5.16602 12.6035 5.08398 12.7129 4.94727C12.8086 4.81055 12.8633 4.66016 12.8633 4.48242C12.8633 4.31836 12.7949 4.1543 12.6855 4.01758C12.5762 3.88086 12.4395 3.79883 12.2754 3.78516C11.9473 3.8125 11.5781 3.82617 11.168 3.82617C10.7578 3.82617 10.3477 3.82617 9.95117 3.82617C9.78711 3.82617 9.62305 3.83984 9.47266 3.83984C9.30859 3.83984 9.17188 3.83984 9.03516 3.83984C8.84375 3.83984 8.70703 3.9082 8.625 4.04492C8.54297 4.18164 8.50195 4.3457 8.50195 4.50977C8.50195 4.70117 8.54297 4.86523 8.65234 5.01562C8.74805 5.16602 8.88477 5.24805 9.04883 5.24805C9.14453 5.24805 9.26758 5.23438 9.41797 5.23438C9.55469 5.23438 9.69141 5.2207 9.82812 5.2207C9.82812 5.4668 9.82812 5.74023 9.82812 6.04102C9.82812 6.3418 9.8418 6.68359 9.8418 7.06641V10.5527H9.0625C8.87109 10.5527 8.73438 10.6211 8.65234 10.7578C8.57031 10.8945 8.5293 11.0586 8.5293 11.2227ZM17.7031 4.1543V5.13867C17.7031 5.57617 17.7031 6.0957 17.7031 6.66992C17.7031 7.24414 17.7168 7.83203 17.7168 8.43359C17.5801 8.24219 17.4707 8.05078 17.3613 7.87305C17.252 7.69531 17.1289 7.51758 17.0195 7.32617C16.9102 7.14844 16.7871 6.95703 16.6641 6.75195C16.5273 6.54688 16.3906 6.31445 16.2402 6.06836C15.9395 5.60352 15.6797 5.17969 15.4336 4.79688C15.1875 4.41406 15.0234 4.14062 14.9277 3.94922C14.8184 3.8125 14.6133 3.74414 14.3398 3.74414C14.1211 3.74414 13.9297 3.78516 13.7383 3.86719C13.5469 3.94922 13.4512 4.07227 13.4512 4.22266V5.58984C13.4512 5.94531 13.4512 6.3418 13.4512 6.76562C13.4512 7.20312 13.4648 7.64062 13.4648 8.07812V11.6465C13.4648 11.7832 13.5332 11.8789 13.6973 11.9473C13.8613 12.0156 14.0391 12.043 14.2441 12.043C14.4629 12.043 14.668 12.002 14.873 11.9062C15.0645 11.8242 15.1738 11.7012 15.2012 11.5645C15.1875 11.4414 15.1738 11.1543 15.1738 10.6895C15.1738 10.2383 15.1738 9.71875 15.1738 9.11719C15.1738 8.81641 15.1738 8.51562 15.1738 8.21484C15.1738 7.91406 15.1875 7.61328 15.1875 7.28516C15.4336 7.66797 15.6934 8.0918 15.9805 8.5293C16.2539 8.98047 16.5273 9.41797 16.8008 9.8418C17.0605 10.2656 17.3066 10.6484 17.5254 11.0039C17.7441 11.3594 17.9082 11.6465 18.0449 11.8379H18.0312C18.0723 11.9199 18.1406 11.9609 18.25 11.9883C18.3457 12.0156 18.4688 12.0293 18.6055 12.0293C18.7012 12.0293 18.7969 12.0293 18.9062 12.002C19.002 11.9746 19.0977 11.9473 19.1797 11.9062C19.2617 11.8652 19.3164 11.8105 19.3711 11.7559C19.4258 11.7012 19.4531 11.6465 19.4531 11.5645C19.4258 11.4551 19.4258 11.209 19.4258 10.8535V7.98242C19.4258 7.42188 19.4258 6.875 19.4395 6.35547V4.12695C19.4395 3.99023 19.3574 3.89453 19.1934 3.83984C19.0293 3.78516 18.8516 3.74414 18.6465 3.74414C18.4004 3.74414 18.1816 3.78516 17.9902 3.85352C17.7988 3.92188 17.7031 4.01758 17.7031 4.1543ZM20.4922 5.24805L21.8867 5.20703C21.8867 5.48047 21.8867 5.78125 21.8867 6.12305C21.8867 6.47852 21.9004 6.86133 21.9004 7.29883C21.9004 7.81836 21.9141 8.35156 21.9141 8.87109V10.3203C21.9141 10.5391 21.9004 10.7305 21.9004 10.8945C21.9004 11.0723 21.9004 11.2227 21.9004 11.3457V11.6602C21.9004 11.7969 21.9688 11.8926 22.1328 11.9473C22.2969 12.0156 22.4746 12.043 22.6797 12.043C22.9121 12.043 23.1309 12.002 23.3359 11.9199C23.5273 11.8379 23.6367 11.7285 23.6367 11.5645V11.127C23.6367 10.9219 23.623 10.6621 23.623 10.3613C23.623 10.0605 23.623 9.74609 23.623 9.39062V5.17969C23.9238 5.17969 24.1973 5.17969 24.4297 5.17969C24.6484 5.17969 24.8535 5.17969 25.0449 5.17969C25.2363 5.17969 25.373 5.11133 25.4277 4.97461C25.4824 4.83789 25.5098 4.67383 25.5098 4.48242C25.5098 4.30469 25.4688 4.14062 25.4141 4.00391C25.3457 3.86719 25.2227 3.78516 25.0312 3.78516C24.7988 3.8125 24.4844 3.82617 24.0742 3.82617C23.6641 3.82617 23.2266 3.83984 22.7754 3.83984C22.3242 3.83984 21.8867 3.83984 21.4766 3.83984H20.4922C20.3008 3.83984 20.1914 3.9082 20.1367 4.04492C20.082 4.18164 20.0684 4.3457 20.0684 4.50977C20.0684 4.70117 20.0957 4.87891 20.1504 5.0293C20.2051 5.17969 20.3281 5.24805 20.4922 5.24805ZM26.0977 4.1543V5.52148C26.0977 5.87695 26.0977 6.27344 26.0977 6.71094C26.0977 7.14844 26.1113 7.59961 26.1113 8.03711V11.6465C26.1113 11.7832 26.1797 11.8789 26.3438 11.9473C26.4941 12.0156 26.6719 12.043 26.8906 12.043C27 12.043 27.1094 12.043 27.2324 12.0156C27.3418 11.9883 27.4512 11.9609 27.5469 11.9199C27.6289 11.8789 27.7109 11.8242 27.7656 11.7695C27.8203 11.7148 27.8477 11.6465 27.8477 11.5645C27.834 11.4961 27.8203 11.3594 27.8203 11.168C27.8203 10.9766 27.8203 10.7578 27.8203 10.4844V8.55664C27.875 8.57031 27.9434 8.57031 27.998 8.57031H28.2031C28.2715 8.57031 28.3398 8.57031 28.4082 8.57031C28.4629 8.57031 28.5312 8.55664 28.6133 8.55664C29.0781 8.54297 29.4746 8.46094 29.8301 8.29688C30.1719 8.13281 30.459 7.94141 30.6914 7.69531C30.9102 7.44922 31.0879 7.18945 31.1973 6.91602C31.3066 6.64258 31.375 6.36914 31.375 6.0957C31.375 5.74023 31.3066 5.41211 31.1699 5.125C31.0332 4.85156 30.8281 4.60547 30.582 4.40039C30.3223 4.20898 30.0215 4.04492 29.666 3.93555C29.3105 3.82617 28.9277 3.77148 28.5039 3.74414C28.3398 3.74414 28.1758 3.74414 27.9844 3.75781C27.793 3.77148 27.6289 3.78516 27.4785 3.79883C27.3965 3.77148 27.3281 3.75781 27.2598 3.75781C27.1914 3.75781 27.1094 3.74414 27.0273 3.74414C26.7949 3.74414 26.5762 3.78516 26.3848 3.85352C26.1934 3.92188 26.0977 4.01758 26.0977 4.1543ZM27.834 5.05664C27.9434 5.04297 28.0664 5.0293 28.1758 5.0293C28.2852 5.0293 28.3809 5.04297 28.4766 5.04297C28.8457 5.07031 29.1328 5.15234 29.3379 5.31641C29.5293 5.48047 29.6387 5.72656 29.6387 6.06836C29.6387 6.41016 29.543 6.68359 29.3516 6.90234C29.1602 7.12109 28.9004 7.24414 28.5859 7.25781C28.5039 7.25781 28.4355 7.27148 28.3672 7.27148C28.2988 7.27148 28.2305 7.27148 28.1758 7.27148H27.998C27.9434 7.27148 27.875 7.27148 27.8203 7.25781C27.8203 6.9707 27.8203 6.72461 27.8203 6.50586C27.8203 6.30078 27.834 6.08203 27.834 5.86328V5.05664Z" fill="white"/>
</svg>
