<svg width="41" height="16" viewBox="0 0 41 16" fill="none" xmlns="http://www.w3.org/2000/svg">
<rect width="41" height="16" rx="8" fill="#FF5454"/>
<path d="M11.5723 11.7695C11.5723 11.8926 11.5996 12.002 11.6543 12.1113C11.709 12.2207 11.791 12.3027 11.9004 12.3848C11.9961 12.4668 12.1055 12.5352 12.2422 12.5762C12.3652 12.6309 12.4883 12.6445 12.625 12.6445C12.9121 12.6445 13.1582 12.5625 13.377 12.3848C13.582 12.2207 13.6914 11.9883 13.6914 11.7012C13.6914 11.4551 13.582 11.2637 13.3633 11.0996C13.1445 10.9492 12.8984 10.8672 12.6387 10.8672C12.3652 10.8672 12.1191 10.9492 11.9004 11.0996C11.6816 11.2637 11.5723 11.4824 11.5723 11.7695ZM10.7793 4.30469C10.6973 4.41406 10.6699 4.56445 10.7109 4.72852C10.7383 4.90625 10.8203 5.05664 10.9434 5.17969C11.0527 5.31641 11.2031 5.39844 11.3809 5.42578C11.5586 5.45312 11.7363 5.38477 11.9277 5.20703C12.0098 5.125 12.1465 5.04297 12.3379 4.94727C12.5156 4.86523 12.666 4.81055 12.7891 4.81055C12.9668 4.81055 13.1172 4.89258 13.2539 5.04297C13.377 5.19336 13.4453 5.45312 13.4453 5.80859C13.4453 5.91797 13.4043 6.05469 13.3496 6.19141C13.2949 6.32812 13.2129 6.47852 13.1309 6.62891C13.0488 6.7793 12.9395 6.92969 12.8301 7.09375C12.7207 7.25781 12.6113 7.4082 12.502 7.55859C12.4473 7.64062 12.3926 7.72266 12.3379 7.80469C12.2695 7.88672 12.2148 7.96875 12.1602 8.03711C11.9961 8.2832 11.9004 8.55664 11.8457 8.85742C11.791 9.1582 11.7637 9.43164 11.75 9.66406C11.7363 9.78711 11.75 9.89648 11.8047 9.97852C11.8457 10.0605 11.9141 10.1426 11.9961 10.1973C12.0781 10.252 12.1602 10.293 12.2695 10.3203C12.3789 10.3477 12.4883 10.3613 12.5977 10.3613C12.7617 10.3613 12.9121 10.334 13.0488 10.2656C13.1719 10.2109 13.2539 10.1152 13.2949 9.99219C13.3086 9.96484 13.3223 9.89648 13.3223 9.81445C13.3223 9.73242 13.3359 9.67773 13.3496 9.62305C13.377 9.44531 13.4043 9.25391 13.4453 9.0625C13.4863 8.87109 13.5547 8.7207 13.6641 8.58398H13.6504L13.7734 8.40625C13.9238 8.1875 14.0742 7.96875 14.2383 7.73633C14.3887 7.51758 14.5254 7.28516 14.6621 7.06641C14.7852 6.84766 14.8945 6.61523 14.9766 6.39648C15.0586 6.17773 15.0996 5.97266 15.0996 5.78125C15.0996 5.0293 14.8945 4.45508 14.498 4.05859C14.1016 3.67578 13.5273 3.4707 12.7754 3.4707C12.3926 3.4707 12.0098 3.55273 11.6406 3.70312C11.2715 3.86719 10.9844 4.05859 10.7793 4.30469ZM16.6035 11.7695C16.6035 11.8926 16.6309 12.002 16.6855 12.1113C16.7402 12.2207 16.8223 12.3027 16.9316 12.3848C17.0273 12.4668 17.1367 12.5352 17.2734 12.5762C17.3965 12.6309 17.5195 12.6445 17.6562 12.6445C17.9434 12.6445 18.1895 12.5625 18.4082 12.3848C18.6133 12.2207 18.7227 11.9883 18.7227 11.7012C18.7227 11.4551 18.6133 11.2637 18.3945 11.0996C18.1758 10.9492 17.9297 10.8672 17.6699 10.8672C17.3965 10.8672 17.1504 10.9492 16.9316 11.0996C16.7129 11.2637 16.6035 11.4824 16.6035 11.7695ZM15.8105 4.30469C15.7285 4.41406 15.7012 4.56445 15.7422 4.72852C15.7695 4.90625 15.8516 5.05664 15.9746 5.17969C16.084 5.31641 16.2344 5.39844 16.4121 5.42578C16.5898 5.45312 16.7676 5.38477 16.959 5.20703C17.041 5.125 17.1777 5.04297 17.3691 4.94727C17.5469 4.86523 17.6973 4.81055 17.8203 4.81055C17.998 4.81055 18.1484 4.89258 18.2852 5.04297C18.4082 5.19336 18.4766 5.45312 18.4766 5.80859C18.4766 5.91797 18.4355 6.05469 18.3809 6.19141C18.3262 6.32812 18.2441 6.47852 18.1621 6.62891C18.0801 6.7793 17.9707 6.92969 17.8613 7.09375C17.752 7.25781 17.6426 7.4082 17.5332 7.55859C17.4785 7.64062 17.4238 7.72266 17.3691 7.80469C17.3008 7.88672 17.2461 7.96875 17.1914 8.03711C17.0273 8.2832 16.9316 8.55664 16.877 8.85742C16.8223 9.1582 16.7949 9.43164 16.7812 9.66406C16.7676 9.78711 16.7812 9.89648 16.8359 9.97852C16.877 10.0605 16.9453 10.1426 17.0273 10.1973C17.1094 10.252 17.1914 10.293 17.3008 10.3203C17.4102 10.3477 17.5195 10.3613 17.6289 10.3613C17.793 10.3613 17.9434 10.334 18.0801 10.2656C18.2031 10.2109 18.2852 10.1152 18.3262 9.99219C18.3398 9.96484 18.3535 9.89648 18.3535 9.81445C18.3535 9.73242 18.3672 9.67773 18.3809 9.62305C18.4082 9.44531 18.4355 9.25391 18.4766 9.0625C18.5176 8.87109 18.5859 8.7207 18.6953 8.58398H18.6816L18.8047 8.40625C18.9551 8.1875 19.1055 7.96875 19.2695 7.73633C19.4199 7.51758 19.5566 7.28516 19.6934 7.06641C19.8164 6.84766 19.9258 6.61523 20.0078 6.39648C20.0898 6.17773 20.1309 5.97266 20.1309 5.78125C20.1309 5.0293 19.9258 4.45508 19.5293 4.05859C19.1328 3.67578 18.5586 3.4707 17.8066 3.4707C17.4238 3.4707 17.041 3.55273 16.6719 3.70312C16.3027 3.86719 16.0156 4.05859 15.8105 4.30469ZM21.6348 11.7695C21.6348 11.8926 21.6621 12.002 21.7168 12.1113C21.7715 12.2207 21.8535 12.3027 21.9629 12.3848C22.0586 12.4668 22.168 12.5352 22.3047 12.5762C22.4277 12.6309 22.5508 12.6445 22.6875 12.6445C22.9746 12.6445 23.2207 12.5625 23.4395 12.3848C23.6445 12.2207 23.7539 11.9883 23.7539 11.7012C23.7539 11.4551 23.6445 11.2637 23.4258 11.0996C23.207 10.9492 22.9609 10.8672 22.7012 10.8672C22.4277 10.8672 22.1816 10.9492 21.9629 11.0996C21.7441 11.2637 21.6348 11.4824 21.6348 11.7695ZM20.8418 4.30469C20.7598 4.41406 20.7324 4.56445 20.7734 4.72852C20.8008 4.90625 20.8828 5.05664 21.0059 5.17969C21.1152 5.31641 21.2656 5.39844 21.4434 5.42578C21.6211 5.45312 21.7988 5.38477 21.9902 5.20703C22.0723 5.125 22.209 5.04297 22.4004 4.94727C22.5781 4.86523 22.7285 4.81055 22.8516 4.81055C23.0293 4.81055 23.1797 4.89258 23.3164 5.04297C23.4395 5.19336 23.5078 5.45312 23.5078 5.80859C23.5078 5.91797 23.4668 6.05469 23.4121 6.19141C23.3574 6.32812 23.2754 6.47852 23.1934 6.62891C23.1113 6.7793 23.002 6.92969 22.8926 7.09375C22.7832 7.25781 22.6738 7.4082 22.5645 7.55859C22.5098 7.64062 22.4551 7.72266 22.4004 7.80469C22.332 7.88672 22.2773 7.96875 22.2227 8.03711C22.0586 8.2832 21.9629 8.55664 21.9082 8.85742C21.8535 9.1582 21.8262 9.43164 21.8125 9.66406C21.7988 9.78711 21.8125 9.89648 21.8672 9.97852C21.9082 10.0605 21.9766 10.1426 22.0586 10.1973C22.1406 10.252 22.2227 10.293 22.332 10.3203C22.4414 10.3477 22.5508 10.3613 22.6602 10.3613C22.8242 10.3613 22.9746 10.334 23.1113 10.2656C23.2344 10.2109 23.3164 10.1152 23.3574 9.99219C23.3711 9.96484 23.3848 9.89648 23.3848 9.81445C23.3848 9.73242 23.3984 9.67773 23.4121 9.62305C23.4395 9.44531 23.4668 9.25391 23.5078 9.0625C23.5488 8.87109 23.6172 8.7207 23.7266 8.58398H23.7129L23.8359 8.40625C23.9863 8.1875 24.1367 7.96875 24.3008 7.73633C24.4512 7.51758 24.5879 7.28516 24.7246 7.06641C24.8477 6.84766 24.957 6.61523 25.0391 6.39648C25.1211 6.17773 25.1621 5.97266 25.1621 5.78125C25.1621 5.0293 24.957 4.45508 24.5605 4.05859C24.1641 3.67578 23.5898 3.4707 22.8379 3.4707C22.4551 3.4707 22.0723 3.55273 21.7031 3.70312C21.334 3.86719 21.0469 4.05859 20.8418 4.30469ZM26.666 11.7695C26.666 11.8926 26.6934 12.002 26.748 12.1113C26.8027 12.2207 26.8848 12.3027 26.9941 12.3848C27.0898 12.4668 27.1992 12.5352 27.3359 12.5762C27.459 12.6309 27.582 12.6445 27.7188 12.6445C28.0059 12.6445 28.252 12.5625 28.4707 12.3848C28.6758 12.2207 28.7852 11.9883 28.7852 11.7012C28.7852 11.4551 28.6758 11.2637 28.457 11.0996C28.2383 10.9492 27.9922 10.8672 27.7324 10.8672C27.459 10.8672 27.2129 10.9492 26.9941 11.0996C26.7754 11.2637 26.666 11.4824 26.666 11.7695ZM25.873 4.30469C25.791 4.41406 25.7637 4.56445 25.8047 4.72852C25.832 4.90625 25.9141 5.05664 26.0371 5.17969C26.1465 5.31641 26.2969 5.39844 26.4746 5.42578C26.6523 5.45312 26.8301 5.38477 27.0215 5.20703C27.1035 5.125 27.2402 5.04297 27.4316 4.94727C27.6094 4.86523 27.7598 4.81055 27.8828 4.81055C28.0605 4.81055 28.2109 4.89258 28.3477 5.04297C28.4707 5.19336 28.5391 5.45312 28.5391 5.80859C28.5391 5.91797 28.498 6.05469 28.4434 6.19141C28.3887 6.32812 28.3066 6.47852 28.2246 6.62891C28.1426 6.7793 28.0332 6.92969 27.9238 7.09375C27.8145 7.25781 27.7051 7.4082 27.5957 7.55859C27.541 7.64062 27.4863 7.72266 27.4316 7.80469C27.3633 7.88672 27.3086 7.96875 27.2539 8.03711C27.0898 8.2832 26.9941 8.55664 26.9395 8.85742C26.8848 9.1582 26.8574 9.43164 26.8438 9.66406C26.8301 9.78711 26.8438 9.89648 26.8984 9.97852C26.9395 10.0605 27.0078 10.1426 27.0898 10.1973C27.1719 10.252 27.2539 10.293 27.3633 10.3203C27.4727 10.3477 27.582 10.3613 27.6914 10.3613C27.8555 10.3613 28.0059 10.334 28.1426 10.2656C28.2656 10.2109 28.3477 10.1152 28.3887 9.99219C28.4023 9.96484 28.416 9.89648 28.416 9.81445C28.416 9.73242 28.4297 9.67773 28.4434 9.62305C28.4707 9.44531 28.498 9.25391 28.5391 9.0625C28.5801 8.87109 28.6484 8.7207 28.7578 8.58398H28.7441L28.8672 8.40625C29.0176 8.1875 29.168 7.96875 29.332 7.73633C29.4824 7.51758 29.6191 7.28516 29.7559 7.06641C29.8789 6.84766 29.9883 6.61523 30.0703 6.39648C30.1523 6.17773 30.1934 5.97266 30.1934 5.78125C30.1934 5.0293 29.9883 4.45508 29.5918 4.05859C29.1953 3.67578 28.6211 3.4707 27.8691 3.4707C27.4863 3.4707 27.1035 3.55273 26.7344 3.70312C26.3652 3.86719 26.0781 4.05859 25.873 4.30469Z" fill="white"/>
</svg>
