<svg width="41" height="16" viewBox="0 0 41 16" fill="none" xmlns="http://www.w3.org/2000/svg">
<rect width="41" height="16" rx="8" fill="#DDDDDD"/>
<path d="M9.46582 11.2227C9.46582 11.4141 9.50684 11.5918 9.60254 11.7559C9.68457 11.9199 9.82129 11.9883 10.0127 11.9609C10.4639 11.9473 10.9424 11.9336 11.4482 11.9199C11.9541 11.9199 12.4463 11.9062 12.9111 11.8926H13.2393C13.4307 11.8926 13.5811 11.8242 13.6768 11.6875C13.7725 11.5508 13.8271 11.3867 13.8271 11.209C13.8271 11.0312 13.7725 10.8672 13.6631 10.7031C13.5537 10.5527 13.417 10.4844 13.2256 10.498C13.1162 10.5117 13.0205 10.5254 12.9111 10.5254C12.8018 10.5254 12.7061 10.5254 12.5967 10.5254H12.501V5.19336H12.8838C12.9932 5.19336 13.1162 5.19336 13.2256 5.17969C13.4033 5.16602 13.54 5.08398 13.6494 4.94727C13.7451 4.81055 13.7998 4.66016 13.7998 4.48242C13.7998 4.31836 13.7314 4.1543 13.6221 4.01758C13.5127 3.88086 13.376 3.79883 13.2119 3.78516C12.8838 3.8125 12.5146 3.82617 12.1045 3.82617C11.6943 3.82617 11.2842 3.82617 10.8877 3.82617C10.7236 3.82617 10.5596 3.83984 10.4092 3.83984C10.2451 3.83984 10.1084 3.83984 9.97168 3.83984C9.78027 3.83984 9.64355 3.9082 9.56152 4.04492C9.47949 4.18164 9.43848 4.3457 9.43848 4.50977C9.43848 4.70117 9.47949 4.86523 9.58887 5.01562C9.68457 5.16602 9.82129 5.24805 9.98535 5.24805C10.0811 5.24805 10.2041 5.23438 10.3545 5.23438C10.4912 5.23438 10.6279 5.2207 10.7646 5.2207C10.7646 5.4668 10.7646 5.74023 10.7646 6.04102C10.7646 6.3418 10.7783 6.68359 10.7783 7.06641V10.5527H9.99902C9.80762 10.5527 9.6709 10.6211 9.58887 10.7578C9.50684 10.8945 9.46582 11.0586 9.46582 11.2227ZM14.9756 8.95312C14.7568 8.95312 14.5654 8.99414 14.4014 9.07617C14.2236 9.1582 14.1279 9.28125 14.1279 9.43164C14.1006 9.82812 14.1553 10.1836 14.2646 10.498C14.374 10.8262 14.5518 11.0996 14.7842 11.3184C15.0029 11.5508 15.29 11.7285 15.6318 11.8516C15.96 11.9746 16.3428 12.0293 16.7803 12.0293C17.1904 12.0293 17.5596 11.9883 17.8877 11.8789C18.2158 11.7695 18.5029 11.6191 18.749 11.4277C18.9814 11.2363 19.1592 11.0039 19.2959 10.7305C19.4189 10.457 19.4873 10.1426 19.4873 9.80078C19.4873 9.25391 19.3096 8.77539 18.9541 8.37891C18.5986 7.99609 18.0518 7.59961 17.3271 7.18945C16.917 6.98438 16.5889 6.7793 16.3564 6.56055C16.124 6.35547 16.0146 6.0957 16.0146 5.78125C16.0146 5.54883 16.083 5.37109 16.2334 5.24805C16.3838 5.13867 16.5889 5.07031 16.8623 5.05664C17.1221 5.05664 17.3271 5.15234 17.4775 5.37109C17.6279 5.58984 17.6963 5.89062 17.6689 6.30078C17.6416 6.46484 17.7373 6.60156 17.9287 6.68359C18.1201 6.76562 18.3252 6.80664 18.5439 6.80664C18.7627 6.80664 18.9541 6.76562 19.1318 6.68359C19.3096 6.60156 19.4053 6.47852 19.4053 6.31445C19.4053 5.89062 19.3506 5.52148 19.2275 5.19336C19.0908 4.86523 18.9131 4.60547 18.6807 4.38672C18.4482 4.18164 18.1748 4.03125 17.874 3.92188C17.5596 3.8125 17.2178 3.75781 16.8623 3.75781C16.0557 3.77148 15.4268 3.96289 14.9619 4.33203C14.4971 4.71484 14.2783 5.23438 14.2783 5.91797C14.2783 6.42383 14.4287 6.84766 14.7568 7.18945C15.0713 7.54492 15.5771 7.88672 16.2607 8.22852C16.7803 8.50195 17.1631 8.74805 17.3955 8.99414C17.6279 9.24023 17.751 9.51367 17.751 9.81445C17.751 10.1152 17.6553 10.3477 17.4912 10.498C17.3135 10.6484 17.0811 10.7305 16.7803 10.7305C16.4932 10.7441 16.2607 10.6484 16.083 10.457C15.9053 10.2656 15.8232 9.92383 15.8232 9.43164C15.8232 9.28125 15.7275 9.1582 15.5498 9.07617C15.3721 8.99414 15.1807 8.95312 14.9756 8.95312ZM20.2256 5.24805L21.6201 5.20703C21.6201 5.48047 21.6201 5.78125 21.6201 6.12305C21.6201 6.47852 21.6338 6.86133 21.6338 7.29883C21.6338 7.81836 21.6475 8.35156 21.6475 8.87109V10.3203C21.6475 10.5391 21.6338 10.7305 21.6338 10.8945C21.6338 11.0723 21.6338 11.2227 21.6338 11.3457V11.6602C21.6338 11.7969 21.7021 11.8926 21.8662 11.9473C22.0303 12.0156 22.208 12.043 22.4131 12.043C22.6455 12.043 22.8643 12.002 23.0693 11.9199C23.2607 11.8379 23.3701 11.7285 23.3701 11.5645V11.127C23.3701 10.9219 23.3564 10.6621 23.3564 10.3613C23.3564 10.0605 23.3564 9.74609 23.3564 9.39062V5.17969C23.6572 5.17969 23.9307 5.17969 24.1631 5.17969C24.3818 5.17969 24.5869 5.17969 24.7783 5.17969C24.9697 5.17969 25.1064 5.11133 25.1611 4.97461C25.2158 4.83789 25.2432 4.67383 25.2432 4.48242C25.2432 4.30469 25.2021 4.14062 25.1475 4.00391C25.0791 3.86719 24.9561 3.78516 24.7646 3.78516C24.5322 3.8125 24.2178 3.82617 23.8076 3.82617C23.3975 3.82617 22.96 3.83984 22.5088 3.83984C22.0576 3.83984 21.6201 3.83984 21.21 3.83984H20.2256C20.0342 3.83984 19.9248 3.9082 19.8701 4.04492C19.8154 4.18164 19.8018 4.3457 19.8018 4.50977C19.8018 4.70117 19.8291 4.87891 19.8838 5.0293C19.9385 5.17969 20.0615 5.24805 20.2256 5.24805ZM26.501 9.36328C26.3916 9.36328 26.2686 9.37695 26.1592 9.4043C26.0361 9.43164 25.9268 9.45898 25.8311 9.48633C25.7354 9.52734 25.6533 9.56836 25.5986 9.62305C25.5303 9.67773 25.5029 9.71875 25.5029 9.77344C25.5029 10.0195 25.5576 10.2656 25.6396 10.5254C25.7217 10.7988 25.8584 11.0312 26.0498 11.25C26.2275 11.4688 26.4736 11.6602 26.7744 11.7969C27.0752 11.9473 27.4443 12.0156 27.8955 12.0156C28.292 12.0156 28.6338 11.9609 28.9346 11.8242C29.2354 11.6875 29.4814 11.5098 29.6729 11.291C29.8643 11.0723 30.0146 10.7988 30.1104 10.498C30.1924 10.1973 30.2334 9.85547 30.2334 9.5V4.66016C30.2334 4.57812 30.2061 4.48242 30.165 4.37305C30.1104 4.26367 30.0557 4.16797 29.9736 4.08594C29.8916 4.00391 29.7959 3.92188 29.6865 3.86719C29.5771 3.8125 29.4541 3.78516 29.3174 3.78516C29.1943 3.78516 29.0439 3.79883 28.8525 3.79883C28.6611 3.79883 28.4561 3.8125 28.251 3.8125C28.0322 3.8125 27.8271 3.82617 27.6357 3.82617C27.4443 3.82617 27.2803 3.82617 27.1709 3.82617C27.0342 3.82617 26.9111 3.83984 26.7881 3.83984C26.665 3.83984 26.542 3.83984 26.4189 3.83984C26.2275 3.83984 26.0908 3.9082 26.0088 4.04492C25.9268 4.18164 25.8857 4.3457 25.8857 4.50977C25.8857 4.70117 25.9268 4.86523 26.0361 5.01562C26.1455 5.16602 26.2686 5.24805 26.4326 5.24805C26.6787 5.23438 26.9795 5.2207 27.335 5.2207C27.6768 5.2207 27.9912 5.2207 28.2783 5.20703H28.4971C28.4971 5.45312 28.5107 5.69922 28.5107 5.95898V9.4043C28.5107 9.82812 28.4561 10.1562 28.3467 10.375C28.2373 10.6074 28.0869 10.7168 27.8955 10.7168C27.458 10.7168 27.2256 10.3613 27.1709 9.63672C27.1572 9.54102 27.0889 9.47266 26.9658 9.43164C26.8291 9.39062 26.6787 9.36328 26.501 9.36328Z" fill="#929292"/>
</svg>
