<svg width="41" height="16" viewBox="0 0 41 16" fill="none" xmlns="http://www.w3.org/2000/svg">
<rect width="41" height="16" rx="8" fill="#F7D1D1"/>
<path d="M9.60352 4.1543V5.52148C9.60352 5.87695 9.60352 6.27344 9.60352 6.71094C9.60352 7.14844 9.61719 7.59961 9.61719 8.03711V11.6465C9.61719 11.7832 9.68555 11.8926 9.84961 11.9473C10 12.0156 10.1777 12.043 10.3965 12.043C10.4785 12.043 10.5742 12.043 10.6699 12.0293C10.7656 12.0293 10.8613 12.002 10.9434 11.9609C11.3535 11.9473 11.8184 11.9336 12.3105 11.9199C12.8027 11.9199 13.2676 11.9062 13.7324 11.8926H14.2109C14.4023 11.8926 14.5527 11.8242 14.6484 11.6875C14.7305 11.5508 14.7852 11.3867 14.7852 11.209C14.7852 11.0312 14.7305 10.8672 14.6348 10.7031C14.5254 10.5527 14.3887 10.4844 14.1973 10.498C13.8965 10.5254 13.5547 10.5391 13.1719 10.5391C12.7891 10.5391 12.3926 10.5391 12.0098 10.5391C11.873 10.5391 11.7637 10.5527 11.6543 10.5527C11.5449 10.5527 11.4492 10.5527 11.3398 10.5527C11.3262 10.2383 11.3262 9.89648 11.3262 9.52734V8.29688C11.7773 8.29688 12.1875 8.2832 12.543 8.2832C12.8984 8.2832 13.3086 8.26953 13.7461 8.25586C13.9375 8.25586 14.0742 8.1875 14.1699 8.05078C14.2656 7.91406 14.3203 7.75 14.3203 7.55859C14.3203 7.47656 14.3066 7.38086 14.2793 7.29883C14.252 7.2168 14.2109 7.13477 14.1562 7.06641C14.1016 7.01172 14.0469 6.95703 13.9785 6.91602C13.8965 6.875 13.8145 6.86133 13.7324 6.86133C13.4316 6.88867 13.1309 6.90234 12.8164 6.90234C12.4883 6.90234 12.1738 6.90234 11.8594 6.90234C11.7637 6.90234 11.668 6.91602 11.5859 6.91602C11.5039 6.91602 11.4082 6.91602 11.3262 6.91602C11.3262 6.69727 11.3262 6.50586 11.3262 6.35547C11.3262 6.21875 11.3398 6.05469 11.3398 5.87695V5.2207C11.7363 5.20703 12.1055 5.20703 12.4473 5.20703C12.7891 5.20703 13.1582 5.20703 13.5547 5.19336C13.6367 5.19336 13.7324 5.19336 13.8281 5.19336C13.9102 5.19336 14.0059 5.17969 14.0879 5.17969C14.2793 5.17969 14.416 5.11133 14.5117 4.97461C14.6074 4.83789 14.6621 4.67383 14.6621 4.48242C14.6621 4.40039 14.6484 4.30469 14.6211 4.22266C14.5938 4.14062 14.5527 4.05859 14.498 3.99023C14.4434 3.93555 14.3887 3.88086 14.3203 3.83984C14.2383 3.79883 14.1562 3.78516 14.0742 3.78516C13.7734 3.8125 13.418 3.82617 13.0352 3.82617C12.6523 3.82617 12.2559 3.82617 11.873 3.82617C11.7363 3.82617 11.6133 3.83984 11.4766 3.83984C11.3398 3.83984 11.2031 3.83984 11.0801 3.83984C11.0254 3.79883 10.9434 3.77148 10.8477 3.75781C10.752 3.75781 10.6426 3.74414 10.5195 3.74414C10.2871 3.74414 10.082 3.78516 9.89062 3.85352C9.69922 3.92188 9.60352 4.01758 9.60352 4.1543ZM16.0293 8.95312C15.8105 8.95312 15.6191 8.99414 15.4551 9.07617C15.2773 9.1582 15.1816 9.28125 15.1816 9.43164C15.1543 9.82812 15.209 10.1836 15.3184 10.498C15.4277 10.8262 15.6055 11.0996 15.8379 11.3184C16.0566 11.5508 16.3438 11.7285 16.6855 11.8516C17.0137 11.9746 17.3965 12.0293 17.834 12.0293C18.2441 12.0293 18.6133 11.9883 18.9414 11.8789C19.2695 11.7695 19.5566 11.6191 19.8027 11.4277C20.0352 11.2363 20.2129 11.0039 20.3496 10.7305C20.4727 10.457 20.541 10.1426 20.541 9.80078C20.541 9.25391 20.3633 8.77539 20.0078 8.37891C19.6523 7.99609 19.1055 7.59961 18.3809 7.18945C17.9707 6.98438 17.6426 6.7793 17.4102 6.56055C17.1777 6.35547 17.0684 6.0957 17.0684 5.78125C17.0684 5.54883 17.1367 5.37109 17.2871 5.24805C17.4375 5.13867 17.6426 5.07031 17.916 5.05664C18.1758 5.05664 18.3809 5.15234 18.5312 5.37109C18.6816 5.58984 18.75 5.89062 18.7227 6.30078C18.6953 6.46484 18.791 6.60156 18.9824 6.68359C19.1738 6.76562 19.3789 6.80664 19.5977 6.80664C19.8164 6.80664 20.0078 6.76562 20.1855 6.68359C20.3633 6.60156 20.459 6.47852 20.459 6.31445C20.459 5.89062 20.4043 5.52148 20.2812 5.19336C20.1445 4.86523 19.9668 4.60547 19.7344 4.38672C19.502 4.18164 19.2285 4.03125 18.9277 3.92188C18.6133 3.8125 18.2715 3.75781 17.916 3.75781C17.1094 3.77148 16.4805 3.96289 16.0156 4.33203C15.5508 4.71484 15.332 5.23438 15.332 5.91797C15.332 6.42383 15.4824 6.84766 15.8105 7.18945C16.125 7.54492 16.6309 7.88672 17.3145 8.22852C17.834 8.50195 18.2168 8.74805 18.4492 8.99414C18.6816 9.24023 18.8047 9.51367 18.8047 9.81445C18.8047 10.1152 18.709 10.3477 18.5449 10.498C18.3672 10.6484 18.1348 10.7305 17.834 10.7305C17.5469 10.7441 17.3145 10.6484 17.1367 10.457C16.959 10.2656 16.877 9.92383 16.877 9.43164C16.877 9.28125 16.7812 9.1582 16.6035 9.07617C16.4258 8.99414 16.2344 8.95312 16.0293 8.95312ZM21.1289 4.1543V5.52148C21.1289 5.87695 21.1289 6.27344 21.1289 6.71094C21.1289 7.14844 21.1426 7.59961 21.1426 8.03711V11.6465C21.1426 11.7832 21.2109 11.8789 21.375 11.9473C21.5254 12.0156 21.7031 12.043 21.9219 12.043C22.0312 12.043 22.1406 12.043 22.2637 12.0156C22.373 11.9883 22.4824 11.9609 22.5781 11.9199C22.6602 11.8789 22.7422 11.8242 22.7969 11.7695C22.8516 11.7148 22.8789 11.6465 22.8789 11.5645C22.8652 11.4824 22.8516 11.3457 22.8516 11.1406C22.8516 10.9492 22.8516 10.7031 22.8516 10.416V8.39258C23.2344 8.37891 23.5898 8.37891 23.9453 8.37891C24.3008 8.37891 24.6699 8.37891 25.0664 8.36523C25.1758 8.36523 25.2852 8.36523 25.3945 8.36523C25.4902 8.36523 25.5859 8.35156 25.6953 8.35156C25.8867 8.35156 26.0371 8.2832 26.1328 8.13281C26.2148 7.99609 26.2695 7.83203 26.2695 7.64062C26.2695 7.46289 26.2148 7.29883 26.1191 7.13477C26.0098 6.98438 25.873 6.91602 25.6816 6.91602C25.3809 6.94336 25.0527 6.95703 24.6699 6.95703C24.2871 6.95703 23.9043 6.95703 23.5215 6.95703C23.3848 6.95703 23.2754 6.9707 23.166 6.9707C23.0566 6.9707 22.9609 6.9707 22.8516 6.9707C22.8516 6.75195 22.8516 6.56055 22.8516 6.41016C22.8516 6.25977 22.8652 6.0957 22.8652 5.91797V5.23438C23.2617 5.2207 23.6309 5.2207 23.9727 5.2207C24.3145 5.2207 24.6836 5.2207 25.0801 5.20703C25.1621 5.20703 25.2578 5.20703 25.3535 5.20703C25.4355 5.20703 25.5176 5.19336 25.5996 5.19336C25.791 5.19336 25.9414 5.125 26.0371 4.97461C26.1328 4.83789 26.1875 4.67383 26.1875 4.48242C26.1875 4.40039 26.1738 4.30469 26.1465 4.22266C26.1191 4.14062 26.0781 4.05859 26.0234 3.99023C25.9688 3.93555 25.9141 3.88086 25.8457 3.83984C25.7637 3.79883 25.6816 3.78516 25.5996 3.78516C25.2852 3.8125 24.9434 3.82617 24.5605 3.82617C24.1777 3.82617 23.7812 3.82617 23.3984 3.82617C23.2617 3.82617 23.1387 3.83984 23.002 3.83984C22.8652 3.83984 22.7285 3.83984 22.6055 3.83984C22.5508 3.79883 22.4688 3.77148 22.373 3.75781C22.2773 3.75781 22.168 3.74414 22.0449 3.74414C21.8125 3.74414 21.6074 3.78516 21.416 3.85352C21.2246 3.92188 21.1289 4.01758 21.1289 4.1543ZM27.5957 9.36328C27.4863 9.36328 27.3633 9.37695 27.2539 9.4043C27.1309 9.43164 27.0215 9.45898 26.9258 9.48633C26.8301 9.52734 26.748 9.56836 26.6934 9.62305C26.625 9.67773 26.5977 9.71875 26.5977 9.77344C26.5977 10.0195 26.6523 10.2656 26.7344 10.5254C26.8164 10.7988 26.9531 11.0312 27.1445 11.25C27.3223 11.4688 27.5684 11.6602 27.8691 11.7969C28.1699 11.9473 28.5391 12.0156 28.9902 12.0156C29.3867 12.0156 29.7285 11.9609 30.0293 11.8242C30.3301 11.6875 30.5762 11.5098 30.7676 11.291C30.959 11.0723 31.1094 10.7988 31.2051 10.498C31.2871 10.1973 31.3281 9.85547 31.3281 9.5V4.66016C31.3281 4.57812 31.3008 4.48242 31.2598 4.37305C31.2051 4.26367 31.1504 4.16797 31.0684 4.08594C30.9863 4.00391 30.8906 3.92188 30.7812 3.86719C30.6719 3.8125 30.5488 3.78516 30.4121 3.78516C30.2891 3.78516 30.1387 3.79883 29.9473 3.79883C29.7559 3.79883 29.5508 3.8125 29.3457 3.8125C29.127 3.8125 28.9219 3.82617 28.7305 3.82617C28.5391 3.82617 28.375 3.82617 28.2656 3.82617C28.1289 3.82617 28.0059 3.83984 27.8828 3.83984C27.7598 3.83984 27.6367 3.83984 27.5137 3.83984C27.3223 3.83984 27.1855 3.9082 27.1035 4.04492C27.0215 4.18164 26.9805 4.3457 26.9805 4.50977C26.9805 4.70117 27.0215 4.86523 27.1309 5.01562C27.2402 5.16602 27.3633 5.24805 27.5273 5.24805C27.7734 5.23438 28.0742 5.2207 28.4297 5.2207C28.7715 5.2207 29.0859 5.2207 29.373 5.20703H29.5918C29.5918 5.45312 29.6055 5.69922 29.6055 5.95898V9.4043C29.6055 9.82812 29.5508 10.1562 29.4414 10.375C29.332 10.6074 29.1816 10.7168 28.9902 10.7168C28.5527 10.7168 28.3203 10.3613 28.2656 9.63672C28.252 9.54102 28.1836 9.47266 28.0605 9.43164C27.9238 9.39062 27.7734 9.36328 27.5957 9.36328Z" fill="#E78080"/>
</svg>
