<svg width="41" height="16" viewBox="0 0 41 16" fill="none" xmlns="http://www.w3.org/2000/svg">
<rect width="41" height="16" rx="8" fill="#40619E"/>
<path d="M8.52246 4.1543V5.52148C8.52246 5.87695 8.52246 6.27344 8.52246 6.71094C8.52246 7.14844 8.53613 7.59961 8.53613 8.03711V11.6465C8.53613 11.7832 8.60449 11.8926 8.76855 11.9473C8.91895 12.0156 9.09668 12.043 9.31543 12.043C9.39746 12.043 9.49316 12.043 9.58887 12.0293C9.68457 12.0293 9.78027 12.002 9.8623 11.9609C10.2725 11.9473 10.7373 11.9336 11.2295 11.9199C11.7217 11.9199 12.1865 11.9062 12.6514 11.8926H13.1299C13.3213 11.8926 13.4717 11.8242 13.5674 11.6875C13.6494 11.5508 13.7041 11.3867 13.7041 11.209C13.7041 11.0312 13.6494 10.8672 13.5537 10.7031C13.4443 10.5527 13.3076 10.4844 13.1162 10.498C12.8154 10.5254 12.4736 10.5391 12.0908 10.5391C11.708 10.5391 11.3115 10.5391 10.9287 10.5391C10.792 10.5391 10.6826 10.5527 10.5732 10.5527C10.4639 10.5527 10.3682 10.5527 10.2588 10.5527C10.2451 10.2383 10.2451 9.89648 10.2451 9.52734V8.29688C10.6963 8.29688 11.1064 8.2832 11.4619 8.2832C11.8174 8.2832 12.2275 8.26953 12.665 8.25586C12.8564 8.25586 12.9932 8.1875 13.0889 8.05078C13.1846 7.91406 13.2393 7.75 13.2393 7.55859C13.2393 7.47656 13.2256 7.38086 13.1982 7.29883C13.1709 7.2168 13.1299 7.13477 13.0752 7.06641C13.0205 7.01172 12.9658 6.95703 12.8975 6.91602C12.8154 6.875 12.7334 6.86133 12.6514 6.86133C12.3506 6.88867 12.0498 6.90234 11.7354 6.90234C11.4072 6.90234 11.0928 6.90234 10.7783 6.90234C10.6826 6.90234 10.5869 6.91602 10.5049 6.91602C10.4229 6.91602 10.3271 6.91602 10.2451 6.91602C10.2451 6.69727 10.2451 6.50586 10.2451 6.35547C10.2451 6.21875 10.2588 6.05469 10.2588 5.87695V5.2207C10.6553 5.20703 11.0244 5.20703 11.3662 5.20703C11.708 5.20703 12.0771 5.20703 12.4736 5.19336C12.5557 5.19336 12.6514 5.19336 12.7471 5.19336C12.8291 5.19336 12.9248 5.17969 13.0068 5.17969C13.1982 5.17969 13.335 5.11133 13.4307 4.97461C13.5264 4.83789 13.5811 4.67383 13.5811 4.48242C13.5811 4.40039 13.5674 4.30469 13.54 4.22266C13.5127 4.14062 13.4717 4.05859 13.417 3.99023C13.3623 3.93555 13.3076 3.88086 13.2393 3.83984C13.1572 3.79883 13.0752 3.78516 12.9932 3.78516C12.6924 3.8125 12.3369 3.82617 11.9541 3.82617C11.5713 3.82617 11.1748 3.82617 10.792 3.82617C10.6553 3.82617 10.5322 3.83984 10.3955 3.83984C10.2588 3.83984 10.1221 3.83984 9.99902 3.83984C9.94434 3.79883 9.8623 3.77148 9.7666 3.75781C9.6709 3.75781 9.56152 3.74414 9.43848 3.74414C9.20605 3.74414 9.00098 3.78516 8.80957 3.85352C8.61816 3.92188 8.52246 4.01758 8.52246 4.1543ZM18.6123 4.1543V5.13867C18.6123 5.57617 18.6123 6.0957 18.6123 6.66992C18.6123 7.24414 18.626 7.83203 18.626 8.43359C18.4893 8.24219 18.3799 8.05078 18.2705 7.87305C18.1611 7.69531 18.0381 7.51758 17.9287 7.32617C17.8193 7.14844 17.6963 6.95703 17.5732 6.75195C17.4365 6.54688 17.2998 6.31445 17.1494 6.06836C16.8486 5.60352 16.5889 5.17969 16.3428 4.79688C16.0967 4.41406 15.9326 4.14062 15.8369 3.94922C15.7275 3.8125 15.5225 3.74414 15.249 3.74414C15.0303 3.74414 14.8389 3.78516 14.6475 3.86719C14.4561 3.94922 14.3604 4.07227 14.3604 4.22266V5.58984C14.3604 5.94531 14.3604 6.3418 14.3604 6.76562C14.3604 7.20312 14.374 7.64062 14.374 8.07812V11.6465C14.374 11.7832 14.4424 11.8789 14.6064 11.9473C14.7705 12.0156 14.9482 12.043 15.1533 12.043C15.3721 12.043 15.5771 12.002 15.7822 11.9062C15.9736 11.8242 16.083 11.7012 16.1104 11.5645C16.0967 11.4414 16.083 11.1543 16.083 10.6895C16.083 10.2383 16.083 9.71875 16.083 9.11719C16.083 8.81641 16.083 8.51562 16.083 8.21484C16.083 7.91406 16.0967 7.61328 16.0967 7.28516C16.3428 7.66797 16.6025 8.0918 16.8896 8.5293C17.1631 8.98047 17.4365 9.41797 17.71 9.8418C17.9697 10.2656 18.2158 10.6484 18.4346 11.0039C18.6533 11.3594 18.8174 11.6465 18.9541 11.8379H18.9404C18.9814 11.9199 19.0498 11.9609 19.1592 11.9883C19.2549 12.0156 19.3779 12.0293 19.5146 12.0293C19.6104 12.0293 19.7061 12.0293 19.8154 12.002C19.9111 11.9746 20.0068 11.9473 20.0889 11.9062C20.1709 11.8652 20.2256 11.8105 20.2803 11.7559C20.335 11.7012 20.3623 11.6465 20.3623 11.5645C20.335 11.4551 20.335 11.209 20.335 10.8535V7.98242C20.335 7.42188 20.335 6.875 20.3486 6.35547V4.12695C20.3486 3.99023 20.2666 3.89453 20.1025 3.83984C19.9385 3.78516 19.7607 3.74414 19.5557 3.74414C19.3096 3.74414 19.0908 3.78516 18.8994 3.85352C18.708 3.92188 18.6123 4.01758 18.6123 4.1543ZM21.4014 5.24805L22.7959 5.20703C22.7959 5.48047 22.7959 5.78125 22.7959 6.12305C22.7959 6.47852 22.8096 6.86133 22.8096 7.29883C22.8096 7.81836 22.8232 8.35156 22.8232 8.87109V10.3203C22.8232 10.5391 22.8096 10.7305 22.8096 10.8945C22.8096 11.0723 22.8096 11.2227 22.8096 11.3457V11.6602C22.8096 11.7969 22.8779 11.8926 23.042 11.9473C23.2061 12.0156 23.3838 12.043 23.5889 12.043C23.8213 12.043 24.04 12.002 24.2451 11.9199C24.4365 11.8379 24.5459 11.7285 24.5459 11.5645V11.127C24.5459 10.9219 24.5322 10.6621 24.5322 10.3613C24.5322 10.0605 24.5322 9.74609 24.5322 9.39062V5.17969C24.833 5.17969 25.1064 5.17969 25.3389 5.17969C25.5576 5.17969 25.7627 5.17969 25.9541 5.17969C26.1455 5.17969 26.2822 5.11133 26.3369 4.97461C26.3916 4.83789 26.4189 4.67383 26.4189 4.48242C26.4189 4.30469 26.3779 4.14062 26.3232 4.00391C26.2549 3.86719 26.1318 3.78516 25.9404 3.78516C25.708 3.8125 25.3936 3.82617 24.9834 3.82617C24.5732 3.82617 24.1357 3.83984 23.6846 3.83984C23.2334 3.83984 22.7959 3.83984 22.3857 3.83984H21.4014C21.21 3.83984 21.1006 3.9082 21.0459 4.04492C20.9912 4.18164 20.9775 4.3457 20.9775 4.50977C20.9775 4.70117 21.0049 4.87891 21.0596 5.0293C21.1143 5.17969 21.2373 5.24805 21.4014 5.24805ZM27.6768 9.36328C27.5674 9.36328 27.4443 9.37695 27.335 9.4043C27.2119 9.43164 27.1025 9.45898 27.0068 9.48633C26.9111 9.52734 26.8291 9.56836 26.7744 9.62305C26.7061 9.67773 26.6787 9.71875 26.6787 9.77344C26.6787 10.0195 26.7334 10.2656 26.8154 10.5254C26.8975 10.7988 27.0342 11.0312 27.2256 11.25C27.4033 11.4688 27.6494 11.6602 27.9502 11.7969C28.251 11.9473 28.6201 12.0156 29.0713 12.0156C29.4678 12.0156 29.8096 11.9609 30.1104 11.8242C30.4111 11.6875 30.6572 11.5098 30.8486 11.291C31.04 11.0723 31.1904 10.7988 31.2861 10.498C31.3682 10.1973 31.4092 9.85547 31.4092 9.5V4.66016C31.4092 4.57812 31.3818 4.48242 31.3408 4.37305C31.2861 4.26367 31.2314 4.16797 31.1494 4.08594C31.0674 4.00391 30.9717 3.92188 30.8623 3.86719C30.7529 3.8125 30.6299 3.78516 30.4932 3.78516C30.3701 3.78516 30.2197 3.79883 30.0283 3.79883C29.8369 3.79883 29.6318 3.8125 29.4268 3.8125C29.208 3.8125 29.0029 3.82617 28.8115 3.82617C28.6201 3.82617 28.4561 3.82617 28.3467 3.82617C28.21 3.82617 28.0869 3.83984 27.9639 3.83984C27.8408 3.83984 27.7178 3.83984 27.5947 3.83984C27.4033 3.83984 27.2666 3.9082 27.1846 4.04492C27.1025 4.18164 27.0615 4.3457 27.0615 4.50977C27.0615 4.70117 27.1025 4.86523 27.2119 5.01562C27.3213 5.16602 27.4443 5.24805 27.6084 5.24805C27.8545 5.23438 28.1553 5.2207 28.5107 5.2207C28.8525 5.2207 29.167 5.2207 29.4541 5.20703H29.6729C29.6729 5.45312 29.6865 5.69922 29.6865 5.95898V9.4043C29.6865 9.82812 29.6318 10.1562 29.5225 10.375C29.4131 10.6074 29.2627 10.7168 29.0713 10.7168C28.6338 10.7168 28.4014 10.3613 28.3467 9.63672C28.333 9.54102 28.2646 9.47266 28.1416 9.43164C28.0049 9.39062 27.8545 9.36328 27.6768 9.36328Z" fill="white"/>
</svg>
