<svg width="41" height="16" viewBox="0 0 41 16" fill="none" xmlns="http://www.w3.org/2000/svg">
<rect width="41" height="16" rx="8" fill="#6AB8A1"/>
<path d="M8.50195 4.1543V5.52148C8.50195 5.87695 8.50195 6.27344 8.50195 6.71094C8.50195 7.14844 8.51562 7.59961 8.51562 8.03711V11.6465C8.51562 11.7832 8.58398 11.8926 8.74805 11.9473C8.89844 12.0156 9.07617 12.043 9.29492 12.043C9.37695 12.043 9.47266 12.043 9.56836 12.0293C9.66406 12.0293 9.75977 12.002 9.8418 11.9609C10.252 11.9473 10.7168 11.9336 11.209 11.9199C11.7012 11.9199 12.166 11.9062 12.6309 11.8926H13.1094C13.3008 11.8926 13.4512 11.8242 13.5469 11.6875C13.6289 11.5508 13.6836 11.3867 13.6836 11.209C13.6836 11.0312 13.6289 10.8672 13.5332 10.7031C13.4238 10.5527 13.2871 10.4844 13.0957 10.498C12.7949 10.5254 12.4531 10.5391 12.0703 10.5391C11.6875 10.5391 11.291 10.5391 10.9082 10.5391C10.7715 10.5391 10.6621 10.5527 10.5527 10.5527C10.4434 10.5527 10.3477 10.5527 10.2383 10.5527C10.2246 10.2383 10.2246 9.89648 10.2246 9.52734V8.29688C10.6758 8.29688 11.0859 8.2832 11.4414 8.2832C11.7969 8.2832 12.207 8.26953 12.6445 8.25586C12.8359 8.25586 12.9727 8.1875 13.0684 8.05078C13.1641 7.91406 13.2188 7.75 13.2188 7.55859C13.2188 7.47656 13.2051 7.38086 13.1777 7.29883C13.1504 7.2168 13.1094 7.13477 13.0547 7.06641C13 7.01172 12.9453 6.95703 12.877 6.91602C12.7949 6.875 12.7129 6.86133 12.6309 6.86133C12.3301 6.88867 12.0293 6.90234 11.7148 6.90234C11.3867 6.90234 11.0723 6.90234 10.7578 6.90234C10.6621 6.90234 10.5664 6.91602 10.4844 6.91602C10.4023 6.91602 10.3066 6.91602 10.2246 6.91602C10.2246 6.69727 10.2246 6.50586 10.2246 6.35547C10.2246 6.21875 10.2383 6.05469 10.2383 5.87695V5.2207C10.6348 5.20703 11.0039 5.20703 11.3457 5.20703C11.6875 5.20703 12.0566 5.20703 12.4531 5.19336C12.5352 5.19336 12.6309 5.19336 12.7266 5.19336C12.8086 5.19336 12.9043 5.17969 12.9863 5.17969C13.1777 5.17969 13.3145 5.11133 13.4102 4.97461C13.5059 4.83789 13.5605 4.67383 13.5605 4.48242C13.5605 4.40039 13.5469 4.30469 13.5195 4.22266C13.4922 4.14062 13.4512 4.05859 13.3965 3.99023C13.3418 3.93555 13.2871 3.88086 13.2188 3.83984C13.1367 3.79883 13.0547 3.78516 12.9727 3.78516C12.6719 3.8125 12.3164 3.82617 11.9336 3.82617C11.5508 3.82617 11.1543 3.82617 10.7715 3.82617C10.6348 3.82617 10.5117 3.83984 10.375 3.83984C10.2383 3.83984 10.1016 3.83984 9.97852 3.83984C9.92383 3.79883 9.8418 3.77148 9.74609 3.75781C9.65039 3.75781 9.54102 3.74414 9.41797 3.74414C9.18555 3.74414 8.98047 3.78516 8.78906 3.85352C8.59766 3.92188 8.50195 4.01758 8.50195 4.1543ZM18.5918 4.1543V5.13867C18.5918 5.57617 18.5918 6.0957 18.5918 6.66992C18.5918 7.24414 18.6055 7.83203 18.6055 8.43359C18.4688 8.24219 18.3594 8.05078 18.25 7.87305C18.1406 7.69531 18.0176 7.51758 17.9082 7.32617C17.7988 7.14844 17.6758 6.95703 17.5527 6.75195C17.416 6.54688 17.2793 6.31445 17.1289 6.06836C16.8281 5.60352 16.5684 5.17969 16.3223 4.79688C16.0762 4.41406 15.9121 4.14062 15.8164 3.94922C15.707 3.8125 15.502 3.74414 15.2285 3.74414C15.0098 3.74414 14.8184 3.78516 14.627 3.86719C14.4355 3.94922 14.3398 4.07227 14.3398 4.22266V5.58984C14.3398 5.94531 14.3398 6.3418 14.3398 6.76562C14.3398 7.20312 14.3535 7.64062 14.3535 8.07812V11.6465C14.3535 11.7832 14.4219 11.8789 14.5859 11.9473C14.75 12.0156 14.9277 12.043 15.1328 12.043C15.3516 12.043 15.5566 12.002 15.7617 11.9062C15.9531 11.8242 16.0625 11.7012 16.0898 11.5645C16.0762 11.4414 16.0625 11.1543 16.0625 10.6895C16.0625 10.2383 16.0625 9.71875 16.0625 9.11719C16.0625 8.81641 16.0625 8.51562 16.0625 8.21484C16.0625 7.91406 16.0762 7.61328 16.0762 7.28516C16.3223 7.66797 16.582 8.0918 16.8691 8.5293C17.1426 8.98047 17.416 9.41797 17.6895 9.8418C17.9492 10.2656 18.1953 10.6484 18.4141 11.0039C18.6328 11.3594 18.7969 11.6465 18.9336 11.8379H18.9199C18.9609 11.9199 19.0293 11.9609 19.1387 11.9883C19.2344 12.0156 19.3574 12.0293 19.4941 12.0293C19.5898 12.0293 19.6855 12.0293 19.7949 12.002C19.8906 11.9746 19.9863 11.9473 20.0684 11.9062C20.1504 11.8652 20.2051 11.8105 20.2598 11.7559C20.3145 11.7012 20.3418 11.6465 20.3418 11.5645C20.3145 11.4551 20.3145 11.209 20.3145 10.8535V7.98242C20.3145 7.42188 20.3145 6.875 20.3281 6.35547V4.12695C20.3281 3.99023 20.2461 3.89453 20.082 3.83984C19.918 3.78516 19.7402 3.74414 19.5352 3.74414C19.2891 3.74414 19.0703 3.78516 18.8789 3.85352C18.6875 3.92188 18.5918 4.01758 18.5918 4.1543ZM21.2305 4.1543V5.52148C21.2305 5.87695 21.2305 6.27344 21.2305 6.71094C21.2305 7.14844 21.2441 7.59961 21.2441 8.03711V11.6465C21.2441 11.7832 21.3125 11.8789 21.4766 11.9473C21.627 12.0156 21.8047 12.043 22.0234 12.043C22.1328 12.043 22.2422 12.043 22.3652 12.0156C22.4746 11.9883 22.584 11.9609 22.6797 11.9199C22.7617 11.8789 22.8438 11.8242 22.8984 11.7695C22.9531 11.7148 22.9805 11.6465 22.9805 11.5645C22.9668 11.4824 22.9531 11.3457 22.9531 11.1406C22.9531 10.9492 22.9531 10.7031 22.9531 10.416V8.39258C23.3359 8.37891 23.6914 8.37891 24.0469 8.37891C24.4023 8.37891 24.7715 8.37891 25.168 8.36523C25.2773 8.36523 25.3867 8.36523 25.4961 8.36523C25.5918 8.36523 25.6875 8.35156 25.7969 8.35156C25.9883 8.35156 26.1387 8.2832 26.2344 8.13281C26.3164 7.99609 26.3711 7.83203 26.3711 7.64062C26.3711 7.46289 26.3164 7.29883 26.2207 7.13477C26.1113 6.98438 25.9746 6.91602 25.7832 6.91602C25.4824 6.94336 25.1543 6.95703 24.7715 6.95703C24.3887 6.95703 24.0059 6.95703 23.623 6.95703C23.4863 6.95703 23.377 6.9707 23.2676 6.9707C23.1582 6.9707 23.0625 6.9707 22.9531 6.9707C22.9531 6.75195 22.9531 6.56055 22.9531 6.41016C22.9531 6.25977 22.9668 6.0957 22.9668 5.91797V5.23438C23.3633 5.2207 23.7324 5.2207 24.0742 5.2207C24.416 5.2207 24.7852 5.2207 25.1816 5.20703C25.2637 5.20703 25.3594 5.20703 25.4551 5.20703C25.5371 5.20703 25.6191 5.19336 25.7012 5.19336C25.8926 5.19336 26.043 5.125 26.1387 4.97461C26.2344 4.83789 26.2891 4.67383 26.2891 4.48242C26.2891 4.40039 26.2754 4.30469 26.248 4.22266C26.2207 4.14062 26.1797 4.05859 26.125 3.99023C26.0703 3.93555 26.0156 3.88086 25.9473 3.83984C25.8652 3.79883 25.7832 3.78516 25.7012 3.78516C25.3867 3.8125 25.0449 3.82617 24.6621 3.82617C24.2793 3.82617 23.8828 3.82617 23.5 3.82617C23.3633 3.82617 23.2402 3.83984 23.1035 3.83984C22.9668 3.83984 22.8301 3.83984 22.707 3.83984C22.6523 3.79883 22.5703 3.77148 22.4746 3.75781C22.3789 3.75781 22.2695 3.74414 22.1465 3.74414C21.9141 3.74414 21.709 3.78516 21.5176 3.85352C21.3262 3.92188 21.2305 4.01758 21.2305 4.1543ZM27.6973 9.36328C27.5879 9.36328 27.4648 9.37695 27.3555 9.4043C27.2324 9.43164 27.123 9.45898 27.0273 9.48633C26.9316 9.52734 26.8496 9.56836 26.7949 9.62305C26.7266 9.67773 26.6992 9.71875 26.6992 9.77344C26.6992 10.0195 26.7539 10.2656 26.8359 10.5254C26.918 10.7988 27.0547 11.0312 27.2461 11.25C27.4238 11.4688 27.6699 11.6602 27.9707 11.7969C28.2715 11.9473 28.6406 12.0156 29.0918 12.0156C29.4883 12.0156 29.8301 11.9609 30.1309 11.8242C30.4316 11.6875 30.6777 11.5098 30.8691 11.291C31.0605 11.0723 31.2109 10.7988 31.3066 10.498C31.3887 10.1973 31.4297 9.85547 31.4297 9.5V4.66016C31.4297 4.57812 31.4023 4.48242 31.3613 4.37305C31.3066 4.26367 31.252 4.16797 31.1699 4.08594C31.0879 4.00391 30.9922 3.92188 30.8828 3.86719C30.7734 3.8125 30.6504 3.78516 30.5137 3.78516C30.3906 3.78516 30.2402 3.79883 30.0488 3.79883C29.8574 3.79883 29.6523 3.8125 29.4473 3.8125C29.2285 3.8125 29.0234 3.82617 28.832 3.82617C28.6406 3.82617 28.4766 3.82617 28.3672 3.82617C28.2305 3.82617 28.1074 3.83984 27.9844 3.83984C27.8613 3.83984 27.7383 3.83984 27.6152 3.83984C27.4238 3.83984 27.2871 3.9082 27.2051 4.04492C27.123 4.18164 27.082 4.3457 27.082 4.50977C27.082 4.70117 27.123 4.86523 27.2324 5.01562C27.3418 5.16602 27.4648 5.24805 27.6289 5.24805C27.875 5.23438 28.1758 5.2207 28.5312 5.2207C28.873 5.2207 29.1875 5.2207 29.4746 5.20703H29.6934C29.6934 5.45312 29.707 5.69922 29.707 5.95898V9.4043C29.707 9.82812 29.6523 10.1562 29.543 10.375C29.4336 10.6074 29.2832 10.7168 29.0918 10.7168C28.6543 10.7168 28.4219 10.3613 28.3672 9.63672C28.3535 9.54102 28.2852 9.47266 28.1621 9.43164C28.0254 9.39062 27.875 9.36328 27.6973 9.36328Z" fill="white"/>
</svg>
