<svg width="41" height="16" viewBox="0 0 41 16" fill="none" xmlns="http://www.w3.org/2000/svg">
<rect width="41" height="16" rx="8" fill="#D3767F"/>
<path d="M8.76855 4.1543V5.52148C8.76855 5.87695 8.76855 6.27344 8.76855 6.71094C8.76855 7.14844 8.78223 7.59961 8.78223 8.03711V11.6465C8.78223 11.7832 8.85059 11.8926 9.01465 11.9473C9.16504 12.0156 9.34277 12.043 9.56152 12.043C9.64355 12.043 9.73926 12.043 9.83496 12.0293C9.93066 12.0293 10.0264 12.002 10.1084 11.9609C10.5186 11.9473 10.9834 11.9336 11.4756 11.9199C11.9678 11.9199 12.4326 11.9062 12.8975 11.8926H13.376C13.5674 11.8926 13.7178 11.8242 13.8135 11.6875C13.8955 11.5508 13.9502 11.3867 13.9502 11.209C13.9502 11.0312 13.8955 10.8672 13.7998 10.7031C13.6904 10.5527 13.5537 10.4844 13.3623 10.498C13.0615 10.5254 12.7197 10.5391 12.3369 10.5391C11.9541 10.5391 11.5576 10.5391 11.1748 10.5391C11.0381 10.5391 10.9287 10.5527 10.8193 10.5527C10.71 10.5527 10.6143 10.5527 10.5049 10.5527C10.4912 10.2383 10.4912 9.89648 10.4912 9.52734V8.29688C10.9424 8.29688 11.3525 8.2832 11.708 8.2832C12.0635 8.2832 12.4736 8.26953 12.9111 8.25586C13.1025 8.25586 13.2393 8.1875 13.335 8.05078C13.4307 7.91406 13.4854 7.75 13.4854 7.55859C13.4854 7.47656 13.4717 7.38086 13.4443 7.29883C13.417 7.2168 13.376 7.13477 13.3213 7.06641C13.2666 7.01172 13.2119 6.95703 13.1436 6.91602C13.0615 6.875 12.9795 6.86133 12.8975 6.86133C12.5967 6.88867 12.2959 6.90234 11.9814 6.90234C11.6533 6.90234 11.3389 6.90234 11.0244 6.90234C10.9287 6.90234 10.833 6.91602 10.751 6.91602C10.6689 6.91602 10.5732 6.91602 10.4912 6.91602C10.4912 6.69727 10.4912 6.50586 10.4912 6.35547C10.4912 6.21875 10.5049 6.05469 10.5049 5.87695V5.2207C10.9014 5.20703 11.2705 5.20703 11.6123 5.20703C11.9541 5.20703 12.3232 5.20703 12.7197 5.19336C12.8018 5.19336 12.8975 5.19336 12.9932 5.19336C13.0752 5.19336 13.1709 5.17969 13.2529 5.17969C13.4443 5.17969 13.5811 5.11133 13.6768 4.97461C13.7725 4.83789 13.8271 4.67383 13.8271 4.48242C13.8271 4.40039 13.8135 4.30469 13.7861 4.22266C13.7588 4.14062 13.7178 4.05859 13.6631 3.99023C13.6084 3.93555 13.5537 3.88086 13.4854 3.83984C13.4033 3.79883 13.3213 3.78516 13.2393 3.78516C12.9385 3.8125 12.583 3.82617 12.2002 3.82617C11.8174 3.82617 11.4209 3.82617 11.0381 3.82617C10.9014 3.82617 10.7783 3.83984 10.6416 3.83984C10.5049 3.83984 10.3682 3.83984 10.2451 3.83984C10.1904 3.79883 10.1084 3.77148 10.0127 3.75781C9.91699 3.75781 9.80762 3.74414 9.68457 3.74414C9.45215 3.74414 9.24707 3.78516 9.05566 3.85352C8.86426 3.92188 8.76855 4.01758 8.76855 4.1543ZM15.1943 8.95312C14.9756 8.95312 14.7842 8.99414 14.6201 9.07617C14.4424 9.1582 14.3467 9.28125 14.3467 9.43164C14.3193 9.82812 14.374 10.1836 14.4834 10.498C14.5928 10.8262 14.7705 11.0996 15.0029 11.3184C15.2217 11.5508 15.5088 11.7285 15.8506 11.8516C16.1787 11.9746 16.5615 12.0293 16.999 12.0293C17.4092 12.0293 17.7783 11.9883 18.1064 11.8789C18.4346 11.7695 18.7217 11.6191 18.9678 11.4277C19.2002 11.2363 19.3779 11.0039 19.5146 10.7305C19.6377 10.457 19.7061 10.1426 19.7061 9.80078C19.7061 9.25391 19.5283 8.77539 19.1729 8.37891C18.8174 7.99609 18.2705 7.59961 17.5459 7.18945C17.1357 6.98438 16.8076 6.7793 16.5752 6.56055C16.3428 6.35547 16.2334 6.0957 16.2334 5.78125C16.2334 5.54883 16.3018 5.37109 16.4521 5.24805C16.6025 5.13867 16.8076 5.07031 17.0811 5.05664C17.3408 5.05664 17.5459 5.15234 17.6963 5.37109C17.8467 5.58984 17.915 5.89062 17.8877 6.30078C17.8604 6.46484 17.9561 6.60156 18.1475 6.68359C18.3389 6.76562 18.5439 6.80664 18.7627 6.80664C18.9814 6.80664 19.1729 6.76562 19.3506 6.68359C19.5283 6.60156 19.624 6.47852 19.624 6.31445C19.624 5.89062 19.5693 5.52148 19.4463 5.19336C19.3096 4.86523 19.1318 4.60547 18.8994 4.38672C18.667 4.18164 18.3936 4.03125 18.0928 3.92188C17.7783 3.8125 17.4365 3.75781 17.0811 3.75781C16.2744 3.77148 15.6455 3.96289 15.1807 4.33203C14.7158 4.71484 14.4971 5.23438 14.4971 5.91797C14.4971 6.42383 14.6475 6.84766 14.9756 7.18945C15.29 7.54492 15.7959 7.88672 16.4795 8.22852C16.999 8.50195 17.3818 8.74805 17.6143 8.99414C17.8467 9.24023 17.9697 9.51367 17.9697 9.81445C17.9697 10.1152 17.874 10.3477 17.71 10.498C17.5322 10.6484 17.2998 10.7305 16.999 10.7305C16.7119 10.7441 16.4795 10.6484 16.3018 10.457C16.124 10.2656 16.042 9.92383 16.042 9.43164C16.042 9.28125 15.9463 9.1582 15.7686 9.07617C15.5908 8.99414 15.3994 8.95312 15.1943 8.95312ZM20.2939 4.1543V5.52148C20.2939 5.87695 20.2939 6.27344 20.2939 6.71094C20.2939 7.14844 20.3076 7.59961 20.3076 8.03711V11.6465C20.3076 11.7832 20.376 11.8789 20.54 11.9473C20.6904 12.0156 20.8682 12.043 21.0869 12.043C21.1963 12.043 21.3057 12.043 21.4287 12.0156C21.5381 11.9883 21.6475 11.9609 21.7432 11.9199C21.8252 11.8789 21.9072 11.8242 21.9619 11.7695C22.0166 11.7148 22.0439 11.6465 22.0439 11.5645C22.0303 11.4824 22.0166 11.3457 22.0166 11.1406C22.0166 10.9492 22.0166 10.7031 22.0166 10.416V8.39258C22.3994 8.37891 22.7549 8.37891 23.1104 8.37891C23.4658 8.37891 23.835 8.37891 24.2314 8.36523C24.3408 8.36523 24.4502 8.36523 24.5596 8.36523C24.6553 8.36523 24.751 8.35156 24.8604 8.35156C25.0518 8.35156 25.2021 8.2832 25.2979 8.13281C25.3799 7.99609 25.4346 7.83203 25.4346 7.64062C25.4346 7.46289 25.3799 7.29883 25.2842 7.13477C25.1748 6.98438 25.0381 6.91602 24.8467 6.91602C24.5459 6.94336 24.2178 6.95703 23.835 6.95703C23.4521 6.95703 23.0693 6.95703 22.6865 6.95703C22.5498 6.95703 22.4404 6.9707 22.3311 6.9707C22.2217 6.9707 22.126 6.9707 22.0166 6.9707C22.0166 6.75195 22.0166 6.56055 22.0166 6.41016C22.0166 6.25977 22.0303 6.0957 22.0303 5.91797V5.23438C22.4268 5.2207 22.7959 5.2207 23.1377 5.2207C23.4795 5.2207 23.8486 5.2207 24.2451 5.20703C24.3271 5.20703 24.4229 5.20703 24.5186 5.20703C24.6006 5.20703 24.6826 5.19336 24.7646 5.19336C24.9561 5.19336 25.1064 5.125 25.2021 4.97461C25.2979 4.83789 25.3525 4.67383 25.3525 4.48242C25.3525 4.40039 25.3389 4.30469 25.3115 4.22266C25.2842 4.14062 25.2432 4.05859 25.1885 3.99023C25.1338 3.93555 25.0791 3.88086 25.0107 3.83984C24.9287 3.79883 24.8467 3.78516 24.7646 3.78516C24.4502 3.8125 24.1084 3.82617 23.7256 3.82617C23.3428 3.82617 22.9463 3.82617 22.5635 3.82617C22.4268 3.82617 22.3037 3.83984 22.167 3.83984C22.0303 3.83984 21.8936 3.83984 21.7705 3.83984C21.7158 3.79883 21.6338 3.77148 21.5381 3.75781C21.4424 3.75781 21.333 3.74414 21.21 3.74414C20.9775 3.74414 20.7725 3.78516 20.5811 3.85352C20.3896 3.92188 20.2939 4.01758 20.2939 4.1543ZM26.0908 4.1543V5.52148C26.0908 5.87695 26.0908 6.27344 26.0908 6.71094C26.0908 7.14844 26.1045 7.59961 26.1045 8.03711V11.6465C26.1045 11.7832 26.1729 11.8789 26.3369 11.9473C26.4873 12.0156 26.665 12.043 26.8838 12.043C26.9932 12.043 27.1025 12.043 27.2256 12.0156C27.335 11.9883 27.4443 11.9609 27.54 11.9199C27.6221 11.8789 27.7041 11.8242 27.7588 11.7695C27.8135 11.7148 27.8408 11.6465 27.8408 11.5645C27.8271 11.4961 27.8135 11.3594 27.8135 11.168C27.8135 10.9766 27.8135 10.7578 27.8135 10.4844V8.55664C27.8682 8.57031 27.9365 8.57031 27.9912 8.57031H28.1963C28.2646 8.57031 28.333 8.57031 28.4014 8.57031C28.4561 8.57031 28.5244 8.55664 28.6064 8.55664C29.0713 8.54297 29.4678 8.46094 29.8232 8.29688C30.165 8.13281 30.4521 7.94141 30.6846 7.69531C30.9033 7.44922 31.0811 7.18945 31.1904 6.91602C31.2998 6.64258 31.3682 6.36914 31.3682 6.0957C31.3682 5.74023 31.2998 5.41211 31.1631 5.125C31.0264 4.85156 30.8213 4.60547 30.5752 4.40039C30.3154 4.20898 30.0146 4.04492 29.6592 3.93555C29.3037 3.82617 28.9209 3.77148 28.4971 3.74414C28.333 3.74414 28.1689 3.74414 27.9775 3.75781C27.7861 3.77148 27.6221 3.78516 27.4717 3.79883C27.3896 3.77148 27.3213 3.75781 27.2529 3.75781C27.1846 3.75781 27.1025 3.74414 27.0205 3.74414C26.7881 3.74414 26.5693 3.78516 26.3779 3.85352C26.1865 3.92188 26.0908 4.01758 26.0908 4.1543ZM27.8271 5.05664C27.9365 5.04297 28.0596 5.0293 28.1689 5.0293C28.2783 5.0293 28.374 5.04297 28.4697 5.04297C28.8389 5.07031 29.126 5.15234 29.3311 5.31641C29.5225 5.48047 29.6318 5.72656 29.6318 6.06836C29.6318 6.41016 29.5361 6.68359 29.3447 6.90234C29.1533 7.12109 28.8936 7.24414 28.5791 7.25781C28.4971 7.25781 28.4287 7.27148 28.3604 7.27148C28.292 7.27148 28.2236 7.27148 28.1689 7.27148H27.9912C27.9365 7.27148 27.8682 7.27148 27.8135 7.25781C27.8135 6.9707 27.8135 6.72461 27.8135 6.50586C27.8135 6.30078 27.8271 6.08203 27.8271 5.86328V5.05664Z" fill="white"/>
</svg>
