<svg width="53" height="19" viewBox="0 0 53 19" fill="none" xmlns="http://www.w3.org/2000/svg">
<path d="M0.5 9.5C0.5 4.25329 4.75329 0 10 0H43C48.2467 0 52.5 4.25329 52.5 9.5C52.5 14.7467 48.2467 19 43 19H10C4.75329 19 0.5 14.7467 0.5 9.5Z" fill="#333333"/>
<circle cx="12.0508" cy="8.35901" r="3.98975" fill="white"/>
<path d="M7.49986 13.5365L9.0542 10.8443L10.14 11.8906L11.5891 12.3078L10.0348 15L9.30667 13.3324L7.49986 13.5365Z" fill="#FF5454"/>
<path d="M16.9464 13.5365L15.3921 10.8443L14.3063 11.8906L12.8572 12.3078L14.4115 15L15.1396 13.3324L16.9464 13.5365Z" fill="#FF5454"/>
<path fill-rule="evenodd" clip-rule="evenodd" d="M12.0506 11.9909C14.0566 11.9909 15.6828 10.3647 15.6828 8.35868C15.6828 6.35265 14.0566 4.72645 12.0506 4.72645C10.0445 4.72645 8.41834 6.35265 8.41834 8.35868C8.41834 10.3647 10.0445 11.9909 12.0506 11.9909ZM12.0506 12.7174C14.4578 12.7174 16.4092 10.7659 16.4092 8.35868C16.4092 5.95145 14.4578 4 12.0506 4C9.64334 4 7.69189 5.95145 7.69189 8.35868C7.69189 10.7659 9.64334 12.7174 12.0506 12.7174Z" fill="#BF7869"/>
<path d="M14.775 8.35839C14.775 9.86291 13.5554 11.0826 12.0508 11.0826C10.5463 11.0826 9.32666 9.86291 9.32666 8.35839C9.32666 6.85387 10.5463 5.63422 12.0508 5.63422C13.5554 5.63422 14.775 6.85387 14.775 8.35839Z" fill="#BF7869"/>
<path d="M12.0508 6.98315L12.5869 7.76543L13.4966 8.03359L12.9183 8.78521L12.9443 9.73322L12.0508 9.41547L11.1572 9.73322L11.1833 8.78521L10.605 8.03359L11.5146 7.76543L12.0508 6.98315Z" fill="white"/>
<path d="M21.9688 4.89062V6.45312C21.9688 6.85938 21.9688 7.3125 21.9688 7.8125C21.9688 8.3125 21.9844 8.82812 21.9844 9.32812V13.4531C21.9844 13.6094 22.0625 13.7344 22.2344 13.7969C22.4062 13.875 22.6094 13.9062 22.8594 13.9062C22.9688 13.9062 23.0781 13.9062 23.1875 13.8906C23.2969 13.8906 23.4062 13.8594 23.5 13.8125C24.0312 13.7969 24.5469 13.7812 25.0781 13.7656L26.6406 13.7344H26.8906C27.1094 13.7344 27.2656 13.6562 27.375 13.5C27.4844 13.3438 27.5469 13.1562 27.5469 12.9375C27.5469 12.7344 27.4844 12.5469 27.3594 12.3594C27.2344 12.1719 27.0781 12.0938 26.875 12.1094C26.5312 12.1406 26.1719 12.1562 25.7812 12.1562C25.375 12.1562 24.9844 12.1562 24.5938 12.1562C24.4688 12.1562 24.3594 12.1719 24.2656 12.1719C24.1562 12.1719 24.0469 12.1719 23.9375 12.1719V9.39062C23.9375 8.78125 23.9375 8.1875 23.9531 7.625V4.85938C23.9531 4.70312 23.8594 4.59375 23.6719 4.53125C23.4844 4.46875 23.2656 4.42188 23.0312 4.42188C22.7656 4.42188 22.5156 4.46875 22.2969 4.54688C22.0781 4.625 21.9688 4.73438 21.9688 4.89062ZM33.8281 4.73438L31.8438 10.8438C31.75 10.625 31.6875 10.4062 31.625 10.2188C31.5625 10.0312 31.5 9.85938 31.4375 9.67188C31.375 9.48438 31.2969 9.29688 31.2344 9.09375C31.1719 8.90625 31.0938 8.67188 31 8.40625L29.75 4.78125C29.7031 4.67188 29.6094 4.59375 29.4844 4.53125C29.3438 4.48438 29.1875 4.45312 29 4.45312C28.8438 4.45312 28.7031 4.48438 28.5625 4.51562C28.4062 4.5625 28.2812 4.625 28.1719 4.6875C28.0469 4.76562 27.9688 4.85938 27.9062 4.95312C27.8438 5.04688 27.8438 5.15625 27.875 5.25C28.1562 6.03125 28.4219 6.79688 28.7031 7.54688C28.9844 8.3125 29.25 9.04688 29.5 9.76562C29.75 10.4844 30 11.1719 30.2344 11.8281C30.4531 12.4844 30.6719 13.0938 30.8594 13.6406C30.9062 13.7969 31.0156 13.8906 31.2031 13.9531C31.3906 14.0156 31.5781 14.0312 31.7969 14.0312C32.0156 14.0312 32.2344 14 32.4531 13.9219C32.6562 13.8438 32.7812 13.7344 32.8438 13.5781V13.5938L33.1719 12.5938C33.3438 12.0781 33.5312 11.5156 33.7344 10.9219C33.9219 10.3281 34.125 9.71875 34.3438 9.09375C34.5625 8.46875 34.7812 7.84375 35 7.20312C35.2188 6.57812 35.4375 5.95312 35.6562 5.34375C35.6875 5.21875 35.625 5.10938 35.4688 4.98438C35.3125 4.875 35.1094 4.78125 34.8906 4.70312C34.6719 4.64062 34.4531 4.59375 34.2344 4.59375C34.0156 4.59375 33.8906 4.64062 33.8281 4.73438ZM36.2188 13.8906C36.2188 14.0312 36.25 14.1562 36.3125 14.2812C36.375 14.4062 36.4688 14.5 36.5938 14.5938C36.7031 14.6875 36.8281 14.7656 36.9844 14.8281C37.125 14.8906 37.2656 14.9062 37.4219 14.9062C37.75 14.9062 38.0312 14.8125 38.2656 14.6094C38.5 14.4062 38.625 14.1406 38.625 13.8125C38.625 13.5312 38.5 13.3125 38.25 13.1406C38 12.9688 37.7344 12.875 37.4375 12.875C37.125 12.875 36.8438 12.9688 36.5938 13.1406C36.3438 13.3125 36.2188 13.5625 36.2188 13.8906ZM39.8438 7.0625C39.875 7.0625 39.9219 7.0625 39.9844 7.03125C40.1562 6.96875 40.3438 6.90625 40.5312 6.8125C40.7188 6.71875 40.8906 6.64062 41.0469 6.54688C41.0469 7.01562 41.0469 7.51562 41.0469 8.01562C41.0469 8.51562 41.0625 9.0625 41.0625 9.65625V13.4531C41.0625 13.6406 41.1719 13.7656 41.3906 13.8594C41.6094 13.9531 41.8438 13.9844 42.0938 13.9844C42.3281 13.9844 42.5469 13.9375 42.75 13.8438C42.9531 13.75 43.0625 13.6094 43.0625 13.3906C43.0625 13.3438 43.0469 13.1562 43.0469 12.8438C43.0469 12.5312 43.0469 12.1875 43.0469 11.7812V9.71875C43.0469 9.25 43.0625 8.76562 43.0625 8.28125V6.09375C43.0625 5.8125 43.0469 5.57812 43.0469 5.39062C43.0312 5.26562 42.9844 5.14062 42.9062 5.03125C42.8125 4.92188 42.7188 4.82812 42.5938 4.75C42.4688 4.6875 42.3281 4.625 42.1875 4.57812C42.0312 4.54688 41.8906 4.51562 41.7656 4.51562C41.5469 4.51562 41.3438 4.57812 41.1562 4.6875C40.9531 4.79688 40.7812 4.89062 40.625 4.96875C40.4375 5.0625 40.2344 5.17188 40.0156 5.26562C39.7969 5.375 39.5625 5.46875 39.3125 5.53125C39.1719 5.57812 39.0938 5.625 39.0625 5.6875C39.0312 5.75 39.0156 5.84375 39.0156 5.9375C39.0156 6.0625 39.0312 6.1875 39.0938 6.3125C39.1562 6.45312 39.2188 6.57812 39.3125 6.6875C39.4062 6.79688 39.5 6.89062 39.5938 6.95312C39.6875 7.03125 39.7656 7.0625 39.8438 7.0625Z" fill="white"/>
</svg>
