<svg width="53" height="19" viewBox="0 0 53 19" fill="none" xmlns="http://www.w3.org/2000/svg">
<path d="M0.5 9.5C0.5 4.25329 4.75329 0 10 0H43C48.2467 0 52.5 4.25329 52.5 9.5C52.5 14.7467 48.2467 19 43 19H10C4.75329 19 0.5 14.7467 0.5 9.5Z" fill="#333333"/>
<circle cx="12.0508" cy="8.35901" r="3.98975" fill="white"/>
<path d="M7.49986 13.5365L9.0542 10.8443L10.14 11.8906L11.5891 12.3078L10.0348 15L9.30667 13.3324L7.49986 13.5365Z" fill="#FF5454"/>
<path d="M16.9464 13.5365L15.3921 10.8443L14.3063 11.8906L12.8572 12.3078L14.4115 15L15.1396 13.3324L16.9464 13.5365Z" fill="#FF5454"/>
<path fill-rule="evenodd" clip-rule="evenodd" d="M12.0506 11.9909C14.0566 11.9909 15.6828 10.3647 15.6828 8.35868C15.6828 6.35265 14.0566 4.72645 12.0506 4.72645C10.0445 4.72645 8.41834 6.35265 8.41834 8.35868C8.41834 10.3647 10.0445 11.9909 12.0506 11.9909ZM12.0506 12.7174C14.4578 12.7174 16.4092 10.7659 16.4092 8.35868C16.4092 5.95145 14.4578 4 12.0506 4C9.64334 4 7.69189 5.95145 7.69189 8.35868C7.69189 10.7659 9.64334 12.7174 12.0506 12.7174Z" fill="#CCCCCC"/>
<path d="M14.775 8.35839C14.775 9.86291 13.5554 11.0826 12.0508 11.0826C10.5463 11.0826 9.32666 9.86291 9.32666 8.35839C9.32666 6.85387 10.5463 5.63422 12.0508 5.63422C13.5554 5.63422 14.775 6.85387 14.775 8.35839Z" fill="#CCCCCC"/>
<path d="M12.0505 6.92896L12.4795 7.61592L13.2889 7.64397L12.9085 8.35899L13.2889 9.07401L12.4795 9.10206L12.0505 9.78902L11.6214 9.10206L10.812 9.07401L11.1924 8.35899L10.812 7.64397L11.6214 7.61592L12.0505 6.92896Z" fill="white"/>
<path d="M21.0703 4.89062V6.45312C21.0703 6.85938 21.0703 7.3125 21.0703 7.8125C21.0703 8.3125 21.0859 8.82812 21.0859 9.32812V13.4531C21.0859 13.6094 21.1641 13.7344 21.3359 13.7969C21.5078 13.875 21.7109 13.9062 21.9609 13.9062C22.0703 13.9062 22.1797 13.9062 22.2891 13.8906C22.3984 13.8906 22.5078 13.8594 22.6016 13.8125C23.1328 13.7969 23.6484 13.7812 24.1797 13.7656L25.7422 13.7344H25.9922C26.2109 13.7344 26.3672 13.6562 26.4766 13.5C26.5859 13.3438 26.6484 13.1562 26.6484 12.9375C26.6484 12.7344 26.5859 12.5469 26.4609 12.3594C26.3359 12.1719 26.1797 12.0938 25.9766 12.1094C25.6328 12.1406 25.2734 12.1562 24.8828 12.1562C24.4766 12.1562 24.0859 12.1562 23.6953 12.1562C23.5703 12.1562 23.4609 12.1719 23.3672 12.1719C23.2578 12.1719 23.1484 12.1719 23.0391 12.1719V9.39062C23.0391 8.78125 23.0391 8.1875 23.0547 7.625V4.85938C23.0547 4.70312 22.9609 4.59375 22.7734 4.53125C22.5859 4.46875 22.3672 4.42188 22.1328 4.42188C21.8672 4.42188 21.6172 4.46875 21.3984 4.54688C21.1797 4.625 21.0703 4.73438 21.0703 4.89062ZM32.9297 4.73438L30.9453 10.8438C30.8516 10.625 30.7891 10.4062 30.7266 10.2188C30.6641 10.0312 30.6016 9.85938 30.5391 9.67188C30.4766 9.48438 30.3984 9.29688 30.3359 9.09375C30.2734 8.90625 30.1953 8.67188 30.1016 8.40625L28.8516 4.78125C28.8047 4.67188 28.7109 4.59375 28.5859 4.53125C28.4453 4.48438 28.2891 4.45312 28.1016 4.45312C27.9453 4.45312 27.8047 4.48438 27.6641 4.51562C27.5078 4.5625 27.3828 4.625 27.2734 4.6875C27.1484 4.76562 27.0703 4.85938 27.0078 4.95312C26.9453 5.04688 26.9453 5.15625 26.9766 5.25C27.2578 6.03125 27.5234 6.79688 27.8047 7.54688C28.0859 8.3125 28.3516 9.04688 28.6016 9.76562C28.8516 10.4844 29.1016 11.1719 29.3359 11.8281C29.5547 12.4844 29.7734 13.0938 29.9609 13.6406C30.0078 13.7969 30.1172 13.8906 30.3047 13.9531C30.4922 14.0156 30.6797 14.0312 30.8984 14.0312C31.1172 14.0312 31.3359 14 31.5547 13.9219C31.7578 13.8438 31.8828 13.7344 31.9453 13.5781V13.5938L32.2734 12.5938C32.4453 12.0781 32.6328 11.5156 32.8359 10.9219C33.0234 10.3281 33.2266 9.71875 33.4453 9.09375C33.6641 8.46875 33.8828 7.84375 34.1016 7.20312C34.3203 6.57812 34.5391 5.95312 34.7578 5.34375C34.7891 5.21875 34.7266 5.10938 34.5703 4.98438C34.4141 4.875 34.2109 4.78125 33.9922 4.70312C33.7734 4.64062 33.5547 4.59375 33.3359 4.59375C33.1172 4.59375 32.9922 4.64062 32.9297 4.73438ZM35.3203 13.8906C35.3203 14.0312 35.3516 14.1562 35.4141 14.2812C35.4766 14.4062 35.5703 14.5 35.6953 14.5938C35.8047 14.6875 35.9297 14.7656 36.0859 14.8281C36.2266 14.8906 36.3672 14.9062 36.5234 14.9062C36.8516 14.9062 37.1328 14.8125 37.3672 14.6094C37.6016 14.4062 37.7266 14.1406 37.7266 13.8125C37.7266 13.5312 37.6016 13.3125 37.3516 13.1406C37.1016 12.9688 36.8359 12.875 36.5391 12.875C36.2266 12.875 35.9453 12.9688 35.6953 13.1406C35.4453 13.3125 35.3203 13.5625 35.3203 13.8906ZM44.8047 12.9844C44.8047 12.8906 44.7891 12.7812 44.7734 12.6875C44.7578 12.5938 44.7266 12.5156 44.6953 12.4375C44.6484 12.375 44.5859 12.3125 44.5078 12.2656C44.4297 12.2344 44.3359 12.2188 44.2266 12.2188C43.8203 12.25 43.3828 12.2656 42.8984 12.2656C42.4141 12.2656 41.9766 12.2656 41.5703 12.2656H40.8203C40.8672 12.1406 40.9453 11.9844 41.0703 11.7969C41.1953 11.625 41.3359 11.4375 41.5078 11.25C41.6641 11.0625 41.8516 10.875 42.0547 10.6719C42.2578 10.4844 42.4609 10.2969 42.6797 10.1094C42.9141 9.90625 43.1484 9.6875 43.3828 9.4375C43.6172 9.20312 43.8203 8.95312 44.0078 8.6875C44.1953 8.4375 44.3359 8.15625 44.4609 7.875C44.5703 7.59375 44.6328 7.29688 44.6328 6.98438C44.6328 6.57812 44.5547 6.21875 44.4141 5.90625C44.2578 5.59375 44.0547 5.32812 43.7891 5.10938C43.5234 4.89062 43.2109 4.73438 42.8359 4.60938C42.4609 4.5 42.0547 4.4375 41.6172 4.4375C41.1953 4.4375 40.8047 4.5 40.4453 4.625C40.0703 4.75 39.7578 4.92188 39.4922 5.17188C39.2109 5.42188 39.0078 5.73438 38.8516 6.10938C38.6953 6.48438 38.6172 6.92188 38.6328 7.40625C38.6328 7.59375 38.7266 7.71875 38.9297 7.79688C39.1328 7.89062 39.3672 7.92188 39.6328 7.92188C39.8828 7.92188 40.1016 7.89062 40.3203 7.79688C40.5391 7.71875 40.6328 7.57812 40.6172 7.39062C40.5859 6.92188 40.6641 6.5625 40.8672 6.29688C41.0547 6.04688 41.3047 5.92188 41.6172 5.92188C41.9141 5.9375 42.1641 6.03125 42.3516 6.20312C42.5391 6.375 42.6484 6.625 42.6484 6.96875C42.6484 7.17188 42.6016 7.375 42.5078 7.5625C42.4141 7.75 42.2891 7.9375 42.1328 8.125C41.9766 8.3125 41.8203 8.5 41.6328 8.6875C41.4453 8.875 41.2578 9.0625 41.0859 9.21875L40.9297 9.375H40.9453C40.7266 9.59375 40.4766 9.82812 40.2266 10.0781C39.9766 10.3281 39.7266 10.5938 39.5078 10.875C39.2734 11.1562 39.0703 11.4531 38.9141 11.75C38.7578 12.0469 38.6484 12.3438 38.6172 12.625C38.5859 12.75 38.6016 12.8906 38.6641 13.0156C38.7266 13.1406 38.8047 13.2656 38.9141 13.375C39.0234 13.5 39.1641 13.5938 39.3203 13.6719C39.4766 13.75 39.6484 13.7969 39.8359 13.7969C39.9922 13.8125 40.1953 13.8125 40.4141 13.8125H41.8516C42.1328 13.8125 42.3984 13.8125 42.6328 13.7969C42.9141 13.7969 43.2109 13.7969 43.4922 13.7969C43.7734 13.7969 44.0234 13.7812 44.2422 13.7812C44.4609 13.7812 44.6172 13.7031 44.6953 13.5469C44.7578 13.3906 44.8047 13.2031 44.8047 12.9844Z" fill="white"/>
</svg>
