<svg width="53" height="19" viewBox="0 0 53 19" fill="none" xmlns="http://www.w3.org/2000/svg">
<path d="M0.5 9.5C0.5 4.25329 4.75329 0 10 0H43C48.2467 0 52.5 4.25329 52.5 9.5C52.5 14.7467 48.2467 19 43 19H10C4.75329 19 0.5 14.7467 0.5 9.5Z" fill="#333333"/>
<circle cx="12.0508" cy="8.35901" r="3.98975" fill="white"/>
<path d="M7.49986 13.5365L9.0542 10.8443L10.14 11.8906L11.5891 12.3078L10.0348 15L9.30667 13.3324L7.49986 13.5365Z" fill="#FF5454"/>
<path d="M16.9464 13.5365L15.3921 10.8443L14.3063 11.8906L12.8572 12.3078L14.4115 15L15.1396 13.3324L16.9464 13.5365Z" fill="#FF5454"/>
<path fill-rule="evenodd" clip-rule="evenodd" d="M12.0506 11.9909C14.0566 11.9909 15.6828 10.3647 15.6828 8.35868C15.6828 6.35265 14.0566 4.72645 12.0506 4.72645C10.0445 4.72645 8.41834 6.35265 8.41834 8.35868C8.41834 10.3647 10.0445 11.9909 12.0506 11.9909ZM12.0506 12.7174C14.4578 12.7174 16.4092 10.7659 16.4092 8.35868C16.4092 5.95145 14.4578 4 12.0506 4C9.64334 4 7.69189 5.95145 7.69189 8.35868C7.69189 10.7659 9.64334 12.7174 12.0506 12.7174Z" fill="#FFD500"/>
<path d="M14.775 8.35839C14.775 9.86291 13.5554 11.0826 12.0508 11.0826C10.5463 11.0826 9.32666 9.86291 9.32666 8.35839C9.32666 6.85387 10.5463 5.63422 12.0508 5.63422C13.5554 5.63422 14.775 6.85387 14.775 8.35839Z" fill="#FFD500"/>
<path d="M12.0509 6.70898L12.5028 7.50653L13.4081 7.36261L13.0664 8.21321L13.7433 8.83128L12.8652 9.09441L12.8041 10.0091L12.0509 9.48658L11.2977 10.0091L11.2365 9.09441L10.3584 8.83128L11.0354 8.21321L10.6936 7.36261L11.5989 7.50653L12.0509 6.70898Z" fill="white"/>
<path d="M21.0703 4.89062V6.45312C21.0703 6.85938 21.0703 7.3125 21.0703 7.8125C21.0703 8.3125 21.0859 8.82812 21.0859 9.32812V13.4531C21.0859 13.6094 21.1641 13.7344 21.3359 13.7969C21.5078 13.875 21.7109 13.9062 21.9609 13.9062C22.0703 13.9062 22.1797 13.9062 22.2891 13.8906C22.3984 13.8906 22.5078 13.8594 22.6016 13.8125C23.1328 13.7969 23.6484 13.7812 24.1797 13.7656L25.7422 13.7344H25.9922C26.2109 13.7344 26.3672 13.6562 26.4766 13.5C26.5859 13.3438 26.6484 13.1562 26.6484 12.9375C26.6484 12.7344 26.5859 12.5469 26.4609 12.3594C26.3359 12.1719 26.1797 12.0938 25.9766 12.1094C25.6328 12.1406 25.2734 12.1562 24.8828 12.1562C24.4766 12.1562 24.0859 12.1562 23.6953 12.1562C23.5703 12.1562 23.4609 12.1719 23.3672 12.1719C23.2578 12.1719 23.1484 12.1719 23.0391 12.1719V9.39062C23.0391 8.78125 23.0391 8.1875 23.0547 7.625V4.85938C23.0547 4.70312 22.9609 4.59375 22.7734 4.53125C22.5859 4.46875 22.3672 4.42188 22.1328 4.42188C21.8672 4.42188 21.6172 4.46875 21.3984 4.54688C21.1797 4.625 21.0703 4.73438 21.0703 4.89062ZM32.9297 4.73438L30.9453 10.8438C30.8516 10.625 30.7891 10.4062 30.7266 10.2188C30.6641 10.0312 30.6016 9.85938 30.5391 9.67188C30.4766 9.48438 30.3984 9.29688 30.3359 9.09375C30.2734 8.90625 30.1953 8.67188 30.1016 8.40625L28.8516 4.78125C28.8047 4.67188 28.7109 4.59375 28.5859 4.53125C28.4453 4.48438 28.2891 4.45312 28.1016 4.45312C27.9453 4.45312 27.8047 4.48438 27.6641 4.51562C27.5078 4.5625 27.3828 4.625 27.2734 4.6875C27.1484 4.76562 27.0703 4.85938 27.0078 4.95312C26.9453 5.04688 26.9453 5.15625 26.9766 5.25C27.2578 6.03125 27.5234 6.79688 27.8047 7.54688C28.0859 8.3125 28.3516 9.04688 28.6016 9.76562C28.8516 10.4844 29.1016 11.1719 29.3359 11.8281C29.5547 12.4844 29.7734 13.0938 29.9609 13.6406C30.0078 13.7969 30.1172 13.8906 30.3047 13.9531C30.4922 14.0156 30.6797 14.0312 30.8984 14.0312C31.1172 14.0312 31.3359 14 31.5547 13.9219C31.7578 13.8438 31.8828 13.7344 31.9453 13.5781V13.5938L32.2734 12.5938C32.4453 12.0781 32.6328 11.5156 32.8359 10.9219C33.0234 10.3281 33.2266 9.71875 33.4453 9.09375C33.6641 8.46875 33.8828 7.84375 34.1016 7.20312C34.3203 6.57812 34.5391 5.95312 34.7578 5.34375C34.7891 5.21875 34.7266 5.10938 34.5703 4.98438C34.4141 4.875 34.2109 4.78125 33.9922 4.70312C33.7734 4.64062 33.5547 4.59375 33.3359 4.59375C33.1172 4.59375 32.9922 4.64062 32.9297 4.73438ZM35.3203 13.8906C35.3203 14.0312 35.3516 14.1562 35.4141 14.2812C35.4766 14.4062 35.5703 14.5 35.6953 14.5938C35.8047 14.6875 35.9297 14.7656 36.0859 14.8281C36.2266 14.8906 36.3672 14.9062 36.5234 14.9062C36.8516 14.9062 37.1328 14.8125 37.3672 14.6094C37.6016 14.4062 37.7266 14.1406 37.7266 13.8125C37.7266 13.5312 37.6016 13.3125 37.3516 13.1406C37.1016 12.9688 36.8359 12.875 36.5391 12.875C36.2266 12.875 35.9453 12.9688 35.6953 13.1406C35.4453 13.3125 35.3203 13.5625 35.3203 13.8906ZM40.7109 8.90625C40.7109 9.0625 40.7422 9.1875 40.8203 9.29688C40.8984 9.42188 41.0234 9.48438 41.1797 9.5C41.7266 9.59375 42.1641 9.79688 42.4766 10.0938C42.7891 10.3906 42.9609 10.7656 42.9609 11.2344C42.9609 11.5781 42.8359 11.875 42.5859 12.0938C42.3359 12.3281 42.0078 12.4375 41.6172 12.4375C41.2422 12.4375 40.9609 12.2969 40.7422 12.0156C40.5234 11.7344 40.4297 11.3906 40.4609 10.9844C40.4453 10.8125 40.3359 10.6719 40.1484 10.5625C39.9453 10.4688 39.7266 10.4062 39.4922 10.4062C39.2422 10.4062 39.0078 10.4688 38.7891 10.5625C38.5703 10.6562 38.4766 10.7969 38.4766 10.9688C38.4609 11.4375 38.5391 11.8594 38.6953 12.2188C38.8516 12.5938 39.0703 12.8906 39.3516 13.1406C39.6328 13.3906 39.9609 13.5938 40.3516 13.7188C40.7266 13.8594 41.1484 13.9219 41.6172 13.9219C42.0859 13.9219 42.5391 13.8594 42.9453 13.7344C43.3516 13.6094 43.6953 13.4219 43.9922 13.1719C44.2891 12.9375 44.5234 12.6562 44.6953 12.3281C44.8516 12 44.9453 11.625 44.9453 11.2188C44.9453 10.5781 44.7734 10.0625 44.4609 9.65625C44.1328 9.26562 43.7109 8.98438 43.2109 8.79688C43.6797 8.57812 44.0078 8.29688 44.2266 7.96875C44.4297 7.65625 44.5391 7.29688 44.5391 6.89062C44.5391 6.53125 44.4609 6.20312 44.3203 5.89062C44.1797 5.59375 43.9922 5.34375 43.7422 5.125C43.4922 4.90625 43.1797 4.75 42.8359 4.625C42.4766 4.5 42.0859 4.4375 41.6797 4.4375C41.2734 4.4375 40.8828 4.5 40.5391 4.59375C40.1797 4.6875 39.8672 4.84375 39.6172 5.0625C39.3516 5.28125 39.1484 5.5625 38.9922 5.89062C38.8359 6.21875 38.7734 6.60938 38.7891 7.04688C38.7891 7.23438 38.8828 7.375 39.1016 7.46875C39.3203 7.5625 39.5391 7.60938 39.7891 7.60938C40.0234 7.60938 40.2422 7.5625 40.4453 7.45312C40.6484 7.35938 40.7578 7.21875 40.7734 7.03125C40.7422 6.67188 40.8203 6.39062 40.9922 6.20312C41.1641 6.01562 41.3984 5.92188 41.6797 5.92188C41.9453 5.9375 42.1641 6.03125 42.3203 6.20312C42.4766 6.375 42.5547 6.59375 42.5547 6.875C42.5547 7.20312 42.4453 7.48438 42.2266 7.73438C42.0078 7.98438 41.6484 8.15625 41.1484 8.28125C40.9922 8.34375 40.8828 8.42188 40.8203 8.54688C40.7422 8.67188 40.7109 8.78125 40.7109 8.90625Z" fill="white"/>
</svg>
